<svg xmlns="http://www.w3.org/2000/svg" width="17.039" height="17.222" viewBox="0 0 17.039 17.222">
  <g id="Layer_2" data-name="Layer 2" transform="translate(-0.9 -0.721)">
    <path id="Path_30697" data-name="Path 30697" d="M15.265,17.844H3.564A2.575,2.575,0,0,1,1,15.275V6.591A2.569,2.569,0,0,1,2.346,4.348L8.186,1.156a2.564,2.564,0,0,1,2.451,0l5.856,3.175a2.569,2.569,0,0,1,1.346,2.244v8.7a2.575,2.575,0,0,1-2.575,2.569ZM9.414,1.964a1.447,1.447,0,0,0-.69.174L2.868,5.318a1.447,1.447,0,0,0-.746,1.273v8.683a1.447,1.447,0,0,0,1.447,1.447h11.7a1.447,1.447,0,0,0,1.442-1.447V6.591a1.447,1.447,0,0,0-.757-1.273L10.1,2.143a1.447,1.447,0,0,0-.69-.18Z" transform="translate(0)" fill="#282828" stroke="#282828" stroke-width="0.2"/>
    <path id="Path_30698" data-name="Path 30698" d="M13.409,24.126A3.366,3.366,0,0,1,10.1,21.4a.568.568,0,0,1,1.122-.179,2.244,2.244,0,0,0,4.392,0,.568.568,0,0,1,1.122.18A3.366,3.366,0,0,1,13.409,24.126Z" transform="translate(-3.995 -8.744)" fill="#282828" stroke="#282828" stroke-width="0.2"/>
    <path id="plus" d="M5.71,2.7h-2.4V.3a.3.3,0,0,0-.6,0V2.7H.3a.3.3,0,0,0,0,.6H2.7v2.4a.3.3,0,1,0,.6,0v-2.4h2.4a.3.3,0,1,0,0-.6Zm0,0" transform="translate(6.415 5.342)" fill="#282828" stroke="#282828" stroke-width="0.5"/>
  </g>
</svg>
