<svg xmlns="http://www.w3.org/2000/svg" width="19.1" height="19.1" viewBox="0 0 19.1 19.1">
  <g id="Layer_2" data-name="Layer 2" transform="translate(-1.95 -1.95)">
    <path id="Path_30724" data-name="Path 30724" d="M18.964,3.357H16.25V2.679a.679.679,0,0,0-1.357,0v.679H8.107V2.679a.679.679,0,0,0-1.357,0v.679H4.036A2.036,2.036,0,0,0,2,5.393V18.964A2.036,2.036,0,0,0,4.036,21H18.964A2.036,2.036,0,0,0,21,18.964V5.393a2.036,2.036,0,0,0-2.036-2.036ZM4.036,4.714H18.964a.679.679,0,0,1,.679.679V7.429H3.357V5.393A.679.679,0,0,1,4.036,4.714ZM18.964,19.643H4.036a.679.679,0,0,1-.679-.679V8.786H19.643V18.964A.679.679,0,0,1,18.964,19.643Z" transform="translate(0)" fill="#282828" stroke="#282828" stroke-width="0.1"/>
    <g id="repeat" transform="translate(-13.399 -10.755)">
      <path id="Path_30725" data-name="Path 30725" d="M224.347,117.333a.347.347,0,0,0-.347.347v2.08a.347.347,0,0,0,.347.347h1.56a.347.347,0,1,0,0-.693h-1.213V117.68a.347.347,0,0,0-.347-.347Z" transform="translate(-199.692 -94.051)" fill="#282828" stroke="#282828" stroke-width="0.3"/>
      <path id="Path_30726" data-name="Path 30726" d="M88.262,22.467a3.424,3.424,0,0,0-4.884,0,.321.321,0,0,0,0,.45.311.311,0,0,0,.444,0,2.8,2.8,0,0,1,4,0,2.9,2.9,0,0,1,0,4.051,2.805,2.805,0,0,1-3.593.335l.28-.095a.319.319,0,0,0,.2-.4.313.313,0,0,0-.4-.2l-.814.275a.319.319,0,0,0-.21.358l.168.944a.314.314,0,1,0,.618-.113l-.023-.127a3.422,3.422,0,0,0,4.216-.524,3.539,3.539,0,0,0,0-4.951Z" transform="translate(-60.874)" fill="#282828" stroke="#282828" stroke-width="0.3"/>
      <path id="Path_30727" data-name="Path 30727" d="M38.817,141.576a.346.346,0,0,0-.463.16q-.042.086-.079.174a.347.347,0,0,0,.638.271q.03-.071.064-.142A.347.347,0,0,0,38.817,141.576Z" transform="translate(-16.575 -118.327)" fill="#282828" stroke="#282828" stroke-width="0.15"/>
      <path id="Path_30728" data-name="Path 30728" d="M21.746,216.958a.346.346,0,0,0,.346-.338q0-.1.011-.2a.347.347,0,0,0-.691-.06q-.01.119-.013.238a.347.347,0,0,0,.337.355Z" transform="translate(0 -191.736)" fill="#282828" stroke="#282828" stroke-width="0.15"/>
      <path id="Path_30729" data-name="Path 30729" d="M30.841,295.819a.347.347,0,0,0-.664.2c.018.061.038.121.059.181a.347.347,0,0,0,.654-.23Q30.864,295.895,30.841,295.819Z" transform="translate(-8.621 -270.086)" fill="#282828" stroke="#282828" stroke-width="0.15"/>
    </g>
  </g>
</svg>
