<svg xmlns="http://www.w3.org/2000/svg" width="19.201" height="19.206" viewBox="0 0 19.201 19.206">
  <g id="booking_win" data-name="booking win" transform="translate(-1.9 -1.9)">
    <path id="Path_30713" data-name="Path 30713" d="M20.772,17.1l-2.486-2.207v-9.5A2.036,2.036,0,0,0,16.25,3.357H14.893V2.679a.679.679,0,1,0-1.357,0v.679H6.75V2.679a.679.679,0,1,0-1.357,0v.679H4.036A2.036,2.036,0,0,0,2,5.393V16.25a2.036,2.036,0,0,0,2.036,2.036h9.5v2.036a.679.679,0,0,0,.954.62L20.6,18.227a.679.679,0,0,0,.175-1.127ZM4.036,4.714H5.393v.679a.679.679,0,0,0,1.357,0V4.714h6.786v.679a.679.679,0,0,0,1.357,0V4.714H16.25a.679.679,0,0,1,.679.679V7.429H3.357V5.393A.679.679,0,0,1,4.036,4.714Zm0,12.214a.679.679,0,0,1-.679-.679V8.786H16.928v4.9l-2.264-2.012a.679.679,0,0,0-1.129.507v4.75Zm10.857,2.349V13.69l4.191,3.725Z" fill="#282828" stroke="#282828" stroke-width="0.2"/>
    <path id="Path_30714" data-name="Path 30714" d="M8.357,15H7.679a.679.679,0,0,0,0,1.357h.679a.679.679,0,0,0,0-1.357Z" transform="translate(-1.607 -4.179)" fill="#282828" stroke="#282828" stroke-width="0.2"/>
    <path id="Path_30715" data-name="Path 30715" d="M14.357,15h-.679a.679.679,0,0,0,0,1.357h.679a.679.679,0,0,0,0-1.357Z" transform="translate(-3.536 -4.179)" fill="#282828" stroke="#282828" stroke-width="0.2"/>
    <path id="Path_30716" data-name="Path 30716" d="M8.357,19H7.679a.679.679,0,1,0,0,1.357h.679a.679.679,0,0,0,0-1.357Z" transform="translate(-1.607 -5.464)" fill="#282828" stroke="#282828" stroke-width="0.2"/>
    <path id="Path_30717" data-name="Path 30717" d="M14.357,19h-.679a.679.679,0,1,0,0,1.357h.679a.679.679,0,1,0,0-1.357Z" transform="translate(-3.536 -5.464)" fill="#282828" stroke="#282828" stroke-width="0.2"/>
  </g>
</svg>
