<svg xmlns="http://www.w3.org/2000/svg" width="18.773" height="19.5" viewBox="0 0 18.773 19.5">
  <g id="discount" transform="translate(-10.088 0.301)">
    <g id="Group_38636" data-name="Group 38636" transform="translate(10.359 -0.002)">
      <g id="Group_38635" data-name="Group 38635" transform="translate(0 0)">
        <path id="Path_30707" data-name="Path 30707" d="M27.711,9.744a.557.557,0,0,1,0-.492L28.42,7.8a1.649,1.649,0,0,0-.712-2.19l-1.425-.756a.557.557,0,0,1-.289-.4l-.279-1.589a1.649,1.649,0,0,0-1.863-1.354l-1.6.226a.557.557,0,0,1-.468-.152L20.626.467a1.649,1.649,0,0,0-2.3,0l-1.16,1.122a.557.557,0,0,1-.468.152l-1.6-.226a1.649,1.649,0,0,0-1.863,1.354l-.279,1.589a.557.557,0,0,1-.289.4l-1.425.756a1.649,1.649,0,0,0-.712,2.19l.709,1.45a.557.557,0,0,1,0,.492l-.709,1.45a1.649,1.649,0,0,0,.712,2.19l1.425.756a.557.557,0,0,1,.289.4l.279,1.589A1.648,1.648,0,0,0,14.86,17.5a1.7,1.7,0,0,0,.237-.017l1.6-.226a.557.557,0,0,1,.468.152l1.16,1.122a1.649,1.649,0,0,0,2.3,0l1.16-1.122a.557.557,0,0,1,.468-.152l1.6.226a1.649,1.649,0,0,0,1.863-1.354l.279-1.589a.557.557,0,0,1,.289-.4l1.425-.756a1.649,1.649,0,0,0,.712-2.19Zm-.517,2.672-1.425.756a1.646,1.646,0,0,0-.855,1.177l-.279,1.589A.558.558,0,0,1,24,16.4l-1.6-.226a1.645,1.645,0,0,0-1.383.45l-1.16,1.122a.558.558,0,0,1-.779,0l-1.16-1.122a1.644,1.644,0,0,0-1.148-.466,1.682,1.682,0,0,0-.236.017l-1.6.226a.558.558,0,0,1-.63-.458l-.279-1.589a1.646,1.646,0,0,0-.855-1.177l-1.425-.756a.558.558,0,0,1-.241-.741l.709-1.45a1.646,1.646,0,0,0,0-1.455l-.709-1.45a.558.558,0,0,1,.241-.741l1.425-.756a1.646,1.646,0,0,0,.855-1.177l.279-1.589a.558.558,0,0,1,.63-.458l1.6.226a1.646,1.646,0,0,0,1.383-.45l1.16-1.122a.558.558,0,0,1,.779,0l1.16,1.122a1.645,1.645,0,0,0,1.383.45L24,2.6a.558.558,0,0,1,.63.458l.279,1.589a1.646,1.646,0,0,0,.855,1.177l1.425.756a.558.558,0,0,1,.241.741l-.709,1.45a1.646,1.646,0,0,0,0,1.455l.709,1.45A.558.558,0,0,1,27.194,12.416Z" transform="translate(-10.359 0.002)" fill="#282828" stroke="#282828" stroke-width="0.4"/>
      </g>
    </g>
    <g id="Group_38638" data-name="Group 38638" transform="translate(15.311 5.334)">
      <g id="Group_38637" data-name="Group 38637">
        <path id="Path_30708" data-name="Path 30708" d="M151.959,143.952a.548.548,0,0,0-.775,0l-7.232,7.232a.548.548,0,1,0,.775.775l7.232-7.232A.548.548,0,0,0,151.959,143.952Z" transform="translate(-143.791 -143.791)" fill="#282828" stroke="#282828" stroke-width="0.4"/>
      </g>
    </g>
    <g id="Group_38640" data-name="Group 38640" transform="translate(15.274 4.567)">
      <g id="Group_38639" data-name="Group 38639">
        <path id="Path_30709" data-name="Path 30709" d="M144.811,123.116a2.009,2.009,0,1,0,2.009,2.009A2.011,2.011,0,0,0,144.811,123.116Zm0,2.922a.913.913,0,1,1,.913-.913A.914.914,0,0,1,144.811,126.038Z" transform="translate(-142.802 -123.116)" fill="#282828" stroke="#282828" stroke-width="0.4"/>
      </g>
    </g>
    <g id="Group_38642" data-name="Group 38642" transform="translate(19.657 10.411)">
      <g id="Group_38641" data-name="Group 38641">
        <path id="Path_30710" data-name="Path 30710" d="M262.931,280.61a2.009,2.009,0,1,0,2.009,2.009A2.011,2.011,0,0,0,262.931,280.61Zm0,2.922a.913.913,0,1,1,.913-.913A.914.914,0,0,1,262.931,283.532Z" transform="translate(-260.922 -280.61)" fill="#282828" stroke="#282828" stroke-width="0.4"/>
      </g>
    </g>
  </g>
</svg>
