<svg xmlns="http://www.w3.org/2000/svg" width="18.033" height="19.3" viewBox="0 0 18.033 19.3">
  <g id="review" transform="translate(-1.85 -0.85)">
    <path id="Path_30718" data-name="Path 30718" d="M17.33,2.267h-.764V1.633a.633.633,0,0,0-1.267,0v.633H11.5V1.633a.633.633,0,1,0-1.267,0v.633h-3.8V1.633a.633.633,0,1,0-1.267,0v.633H4.4A2.407,2.407,0,0,0,2,4.67V17.6A2.407,2.407,0,0,0,4.4,20H17.33a2.407,2.407,0,0,0,2.4-2.4V4.67A2.407,2.407,0,0,0,17.33,2.267ZM18.467,17.6a1.14,1.14,0,0,1-1.136,1.136H4.4A1.14,1.14,0,0,1,3.267,17.6V4.67A1.14,1.14,0,0,1,4.4,3.533h.764v.633a.633.633,0,0,0,1.267,0V3.533h3.8v.633a.633.633,0,0,0,1.267,0V3.533h3.8v.633a.633.633,0,0,0,1.267,0V3.533h.764A1.14,1.14,0,0,1,18.467,4.67Z" fill="#282828" stroke="#282828" stroke-width="0.3"/>
    <path id="Path_30719" data-name="Path 30719" d="M10.352,11.186,8.9,12.638l-.819-.819a.633.633,0,1,0-.9.9l1.267,1.267a.633.633,0,0,0,.9,0l1.9-1.9a.633.633,0,1,0-.9-.9Z" transform="translate(-1.833 -3.667)" fill="#282828" stroke="#282828" stroke-width="0.3"/>
    <path id="Path_30720" data-name="Path 30720" d="M21.067,13H16.633a.633.633,0,1,0,0,1.267h4.433a.633.633,0,1,0,0-1.267Z" transform="translate(-5.133 -4.4)" fill="#282828" stroke="#282828" stroke-width="0.3"/>
    <path id="Path_30721" data-name="Path 30721" d="M10.352,20.186,8.9,21.638l-.819-.819a.633.633,0,1,0-.9.9l1.267,1.267a.633.633,0,0,0,.9,0l1.9-1.9a.633.633,0,1,0-.9-.9Z" transform="translate(-1.833 -6.967)" fill="#282828" stroke="#282828" stroke-width="0.3"/>
    <path id="Path_30722" data-name="Path 30722" d="M21.067,22H16.633a.633.633,0,1,0,0,1.267h4.433a.633.633,0,1,0,0-1.267Z" transform="translate(-5.133 -7.7)" fill="#282828" stroke="#282828" stroke-width="0.3"/>
  </g>
</svg>
