<svg xmlns="http://www.w3.org/2000/svg" width="23.253" height="15.089" viewBox="0 0 23.253 15.089">
  <g id="Group_38632" data-name="Group 38632" transform="translate(-970 -251)">
    <g id="Group_38630" data-name="Group 38630" transform="translate(1)">
      <g id="Rectangle_1926" data-name="Rectangle 1926" transform="translate(969 251)" fill="none" stroke="#282828" stroke-width="1.4">
        <rect width="14" height="5" rx="2.5" stroke="none"/>
        <rect x="0.7" y="0.7" width="12.6" height="3.6" rx="1.8" fill="none"/>
      </g>
      <g id="correct" transform="translate(980.623 245.796)">
        <path id="Path_22735" data-name="Path 22735" d="M133.331,165.085a.38.38,0,0,1,0,.528l-3.438,3.5a.36.36,0,0,1-.518,0l-1.719-1.752a.38.38,0,0,1,0-.528.363.363,0,0,1,.518,0l1.46,1.488,3.179-3.241A.359.359,0,0,1,133.331,165.085Z" transform="translate(-123.173 -159.398)" fill="#282828" stroke="#282828" stroke-width="0.5" fill-rule="evenodd"/>
      </g>
    </g>
    <g id="Group_38631" data-name="Group 38631" transform="translate(1 8)">
      <g id="Rectangle_1926-2" data-name="Rectangle 1926" transform="translate(969 251)" fill="none" stroke="#282828" stroke-width="1.4">
        <rect width="14" height="5" rx="2.5" stroke="none"/>
        <rect x="0.7" y="0.7" width="12.6" height="3.6" rx="1.8" fill="none"/>
      </g>
      <path id="plus" d="M5.6,2.65H3.239V.294a.294.294,0,0,0-.589,0V2.65H.295a.294.294,0,0,0,0,.589H2.65V5.595a.294.294,0,1,0,.589,0V3.239H5.6a.294.294,0,1,0,0-.589Zm0,0" transform="translate(987.664 249.335) rotate(45)" fill="#282828" stroke="#282828" stroke-width="0.6"/>
    </g>
  </g>
</svg>
