<svg xmlns="http://www.w3.org/2000/svg" width="19.173" height="19.123" viewBox="0 0 19.173 19.123">
  <g id="law" transform="translate(0.084 0.073)">
    <path id="Path_30723" data-name="Path 30723" d="M19,11.295a.578.578,0,0,0-.044-.221l-2.29-5.6a3.935,3.935,0,0,0,2.186-1.2.557.557,0,1,0-.817-.756,2.83,2.83,0,0,1-2.937.767,8.421,8.421,0,0,0-3.891-.306,1.961,1.961,0,0,0-.41-.514,1.669,1.669,0,0,0,.126-.181,1.963,1.963,0,0,0-.244-2.22,5.037,5.037,0,0,0-.817-.93.557.557,0,0,0-.724,0,5.034,5.034,0,0,0-.817.93,1.963,1.963,0,0,0-.244,2.22,1.669,1.669,0,0,0,.126.181,1.962,1.962,0,0,0-.41.514A8.421,8.421,0,0,0,3.9,4.285,2.83,2.83,0,0,1,.967,3.518a.557.557,0,1,0-.817.756,3.935,3.935,0,0,0,2.186,1.2l-2.29,5.6A.571.571,0,0,0,0,11.307a3.1,3.1,0,0,0,6.195,0,.571.571,0,0,0-.044-.232l-2.3-5.627a3.909,3.909,0,0,0,.392-.1A7.305,7.305,0,0,1,7.56,5.069a1.935,1.935,0,0,0,.272.85V15.66H6.492a1.816,1.816,0,0,0-1.813,1.813v.413H3.974a.557.557,0,0,0,0,1.113H15.031a.557.557,0,1,0,0-1.113h-.705v-.413a1.816,1.816,0,0,0-1.813-1.813h-1.34V5.919a1.934,1.934,0,0,0,.272-.85,7.306,7.306,0,0,1,3.314.275,3.9,3.9,0,0,0,.392.1l-2.3,5.627a.571.571,0,0,0-.044.232,3.1,3.1,0,0,0,6.195,0S19,11.3,19,11.295ZM3.1,6.545l1.712,4.191H1.387Zm0,6.732a1.988,1.988,0,0,1-1.905-1.428H5A1.988,1.988,0,0,1,3.1,13.277Zm5.567-8.36a.835.835,0,1,1,.835.835.836.836,0,0,1-.835-.835ZM9.034,2.71c-.232-.386.136-.965.469-1.357.333.392.7.97.469,1.357a.554.554,0,0,1-.937,0Zm4.179,14.764v.413H5.792v-.413a.7.7,0,0,1,.7-.7h6.02a.7.7,0,0,1,.7.7ZM8.945,15.66V6.784a1.943,1.943,0,0,0,1.113,0V15.66Zm8.671-4.924H14.192L15.9,6.545ZM15.9,13.277A1.988,1.988,0,0,1,14,11.849h3.81A1.988,1.988,0,0,1,15.9,13.277Z" transform="translate(0)" fill="#282828" stroke="#282828" stroke-width="0.1"/>
  </g>
</svg>
