<svg xmlns="http://www.w3.org/2000/svg" width="13.762" height="19" viewBox="0 0 13.762 19">
  <g id="maps-and-flags" transform="translate(-70.573)">
    <g id="Group_38621" data-name="Group 38621" transform="translate(70.573)">
      <g id="Group_38620" data-name="Group 38620" transform="translate(0)">
        <path id="Path_30695" data-name="Path 30695" d="M77.454,0a6.889,6.889,0,0,0-6.881,6.881c0,4.709,6.158,11.621,6.42,11.913a.62.62,0,0,0,.922,0c.262-.292,6.42-7.2,6.42-11.913A6.889,6.889,0,0,0,77.454,0Zm0,17.431c-2.072-2.462-5.642-7.319-5.642-10.55a5.642,5.642,0,1,1,11.284,0C83.1,10.113,79.527,14.969,77.454,17.431Z" transform="translate(-70.573)" fill="#282828"/>
      </g>
    </g>
    <g id="Group_38623" data-name="Group 38623" transform="translate(73.905 3.111)">
      <g id="Group_38622" data-name="Group 38622" transform="translate(0)">
        <path id="Path_30696" data-name="Path 30696" d="M166.257,92.134a3.549,3.549,0,1,0,3.549,3.549A3.553,3.553,0,0,0,166.257,92.134Zm0,5.828a2.279,2.279,0,1,1,2.279-2.279A2.281,2.281,0,0,1,166.257,97.962Z" transform="translate(-162.708 -92.134)" fill="#282828"/>
      </g>
    </g>
  </g>
</svg>
