<svg xmlns="http://www.w3.org/2000/svg" width="19" height="19" viewBox="0 0 19 19">
  <path id="content-marketing" d="M11.5,19H4.453A4.458,4.458,0,0,1,0,14.547V4.453A4.458,4.458,0,0,1,4.453,0H14.547A4.458,4.458,0,0,1,19,4.453V11.56a.742.742,0,0,1-1.484,0V4.453a2.972,2.972,0,0,0-2.969-2.969H4.453A2.972,2.972,0,0,0,1.484,4.453V14.547a2.972,2.972,0,0,0,2.969,2.969H11.5A.742.742,0,0,1,11.5,19ZM15.289,4.676a.742.742,0,0,0-.742-.742H7.756a.742.742,0,0,0,0,1.484h6.791A.742.742,0,0,0,15.289,4.676Zm0,2.969a.742.742,0,0,0-.742-.742H4.453a.742.742,0,0,0,0,1.484H14.547A.742.742,0,0,0,15.289,7.645ZM7.867,10.613a.742.742,0,0,0-.742-.742H4.453a.742.742,0,0,0,0,1.484H7.125A.742.742,0,0,0,7.867,10.613ZM3.711,4.6a.928.928,0,1,0,.928-.928A.928.928,0,0,0,3.711,4.6Zm14.5,13.6a2.712,2.712,0,0,0,0-3.831l-2.6-2.6a5.35,5.35,0,0,0-2.743-1.468l-2.1-.42a.742.742,0,0,0-.873.873l.42,2.1A5.351,5.351,0,0,0,11.774,15.6l2.6,2.6a2.709,2.709,0,0,0,3.831,0Zm-5.636-6.445a3.87,3.87,0,0,1,1.985,1.062l2.6,2.6a1.225,1.225,0,1,1-1.732,1.732l-2.6-2.6a3.871,3.871,0,0,1-1.062-1.985l-.2-1.011Z" fill="#282828"/>
</svg>
