<svg xmlns="http://www.w3.org/2000/svg" width="17.466" height="19.3" viewBox="0 0 17.466 19.3">
  <g id="notification" transform="translate(-17.798 0.15)">
    <g id="Group_38629" data-name="Group 38629" transform="translate(17.95 0)">
      <path id="Path_30704" data-name="Path 30704" d="M35.1,14.195a2.2,2.2,0,0,0-2.2-1.937.241.241,0,0,1-.242-.242V8.406a6.318,6.318,0,0,0-4.079-5.893,2.144,2.144,0,0,0,.043-.42,2.093,2.093,0,0,0-4.186,0,2.241,2.241,0,0,0,.04.408A6.124,6.124,0,0,0,20.4,8.274v3.742a.243.243,0,0,1-.242.242,2.2,2.2,0,0,0-2.2,1.937A2.146,2.146,0,0,0,20.1,16.548h3.7a2.757,2.757,0,0,0,5.479,0h3.7A2.146,2.146,0,0,0,35.1,14.195ZM26.531,1.226a.868.868,0,0,1,.867.867.749.749,0,0,1-.012.116,5.431,5.431,0,0,0-.631-.058,6.315,6.315,0,0,0-1.079.061.749.749,0,0,1-.012-.116.869.869,0,0,1,.867-.87Zm0,16.548a1.538,1.538,0,0,1-1.5-1.226h3A1.537,1.537,0,0,1,26.531,17.774Zm7.116-2.752a.912.912,0,0,1-.68.3H20.1a.912.912,0,0,1-.68-.3.9.9,0,0,1-.233-.711.963.963,0,0,1,.981-.827,1.47,1.47,0,0,0,1.468-1.468V8.274a4.905,4.905,0,0,1,4.9-4.9c.061,0,.119,0,.181,0a5.014,5.014,0,0,1,4.722,5.032v3.61A1.47,1.47,0,0,0,32.9,13.484a.963.963,0,0,1,.981.827A.917.917,0,0,1,33.647,15.022Z" transform="translate(-17.95 0)" fill="#282828" stroke="#282828" stroke-width="0.3"/>
      <path id="Path_30705" data-name="Path 30705" d="M19.131,49.656a.612.612,0,0,0,.6-.481,7.164,7.164,0,0,1,1.949-3.546.613.613,0,0,0-.867-.867,8.385,8.385,0,0,0-2.28,4.152.609.609,0,0,0,.466.729A.71.71,0,0,0,19.131,49.656Z" transform="translate(-18.487 -42.301)" fill="#282828" stroke="#282828" stroke-width="0.3"/>
      <path id="Path_30706" data-name="Path 30706" d="M290.129,49.6a.646.646,0,0,0,.132-.015.611.611,0,0,0,.466-.729,8.4,8.4,0,0,0-2.28-4.152.613.613,0,0,0-.867.867,7.188,7.188,0,0,1,1.949,3.546A.618.618,0,0,0,290.129,49.6Z" transform="translate(-273.611 -42.243)" fill="#282828" stroke="#282828" stroke-width="0.3"/>
    </g>
  </g>
</svg>
