<svg xmlns="http://www.w3.org/2000/svg" width="18.3" height="16.207" viewBox="0 0 18.3 16.207">
  <g id="Icon" transform="translate(-1.1 -2.35)">
    <path id="Path_30700" data-name="Path 30700" d="M19.25,3.128V6.477a.628.628,0,1,0,1.256,0V3.128a.628.628,0,1,0-1.256,0Z" transform="translate(-2.93)" fill="#282828" stroke="#282828" stroke-width="0.3" fill-rule="evenodd"/>
    <path id="Path_30701" data-name="Path 30701" d="M17.878,5.756h3.349a.628.628,0,0,0,0-1.256H17.878a.628.628,0,0,0,0,1.256Z" transform="translate(-2.605 -0.326)" fill="#282828" stroke="#282828" stroke-width="0.3" fill-rule="evenodd"/>
    <path id="Path_30702" data-name="Path 30702" d="M11.924,3H7.837a1.465,1.465,0,0,0-1.31.81L5.734,5.4a.211.211,0,0,1-.188.116H3.552a2.3,2.3,0,0,0-2.3,2.3v8.372a2.3,2.3,0,0,0,2.3,2.3h13.4a2.3,2.3,0,0,0,2.3-2.3V9.07a.628.628,0,1,0-1.256,0v7.116a1.046,1.046,0,0,1-1.047,1.047H3.552a1.046,1.046,0,0,1-1.047-1.047V7.814A1.047,1.047,0,0,1,3.552,6.767H5.547a1.465,1.465,0,0,0,1.31-.81L7.65,4.371a.211.211,0,0,1,.188-.116h4.087a.628.628,0,0,0,0-1.256Z" transform="translate(0 -0.081)" fill="#282828" stroke="#282828" stroke-width="0.3" fill-rule="evenodd"/>
    <path id="Path_30703" data-name="Path 30703" d="M11.227,8.5A3.977,3.977,0,1,0,15.2,12.477,3.978,3.978,0,0,0,11.227,8.5Zm0,1.256a2.721,2.721,0,1,1-2.721,2.721A2.722,2.722,0,0,1,11.227,9.756Z" transform="translate(-0.977 -0.977)" fill="#282828" stroke="#282828" stroke-width="0.3" fill-rule="evenodd"/>
  </g>
</svg>
