<svg xmlns="http://www.w3.org/2000/svg" width="19.531" height="19.302" viewBox="0 0 19.531 19.302">
  <path id="place_type" data-name="place type" d="M18.99,8.264h0L11.237.512a1.749,1.749,0,0,0-2.474,0L1.016,8.259l-.008.008a1.749,1.749,0,0,0,1.164,2.98l.054,0h.309v5.7A2.05,2.05,0,0,0,4.582,19H7.615a.557.557,0,0,0,.557-.557V13.972a.935.935,0,0,1,.934-.934h1.789a.935.935,0,0,1,.934.934v4.472a.557.557,0,0,0,.557.557h3.033a2.05,2.05,0,0,0,2.047-2.047v-5.7h.286A1.75,1.75,0,0,0,18.99,8.264ZM18.2,9.95a.632.632,0,0,1-.45.186h-.843a.557.557,0,0,0-.557.557v6.261a.935.935,0,0,1-.934.934H12.942V13.972a2.05,2.05,0,0,0-2.047-2.047H9.106a2.05,2.05,0,0,0-2.048,2.047v3.915H4.582a.935.935,0,0,1-.934-.934V10.693a.557.557,0,0,0-.557-.557H2.237A.635.635,0,0,1,1.8,9.05h0L9.55,1.3a.636.636,0,0,1,.9,0L18.2,9.048l0,0a.637.637,0,0,1,0,.9Zm0,0" transform="translate(-0.235 0.151)" fill="#282828" stroke="#282828" stroke-width="0.3"/>
</svg>
