<svg xmlns="http://www.w3.org/2000/svg" width="19" height="19" viewBox="0 0 19 19">
  <path id="coins" d="M18.152,9.507a2.669,2.669,0,0,0,.121-.734V5.318C18.273,2.857,14.559,1,9.636,1S1,2.857,1,5.318V8.773A3.36,3.36,0,0,0,2.848,11.5a2.28,2.28,0,0,0-.121.725v3.455C2.727,18.143,6.441,20,11.364,20S20,18.143,20,15.682V12.227a3.334,3.334,0,0,0-1.848-2.72ZM9.636,13.091c3.325,0,6.1-.864,7.548-2.159.691.415,1.088.864,1.088,1.3,0,1.054-2.695,2.591-6.909,2.591S4.532,13.324,4.455,12.27a15.33,15.33,0,0,0,5.182.82Zm0-10.364c4.215,0,6.909,1.537,6.909,2.591S13.851,7.909,9.636,7.909,2.727,6.372,2.727,5.318,5.422,2.727,9.636,2.727ZM2.727,7.961A12.894,12.894,0,0,0,9.636,9.636a12.894,12.894,0,0,0,6.909-1.675v.812c0,1.054-2.695,2.591-6.909,2.591S2.727,9.826,2.727,8.773Zm8.636,10.312c-4.215,0-6.909-1.537-6.909-2.591V14.87a12.894,12.894,0,0,0,6.909,1.675,12.894,12.894,0,0,0,6.909-1.675v.812c0,1.054-2.695,2.591-6.909,2.591Z" transform="translate(-1 -1)" fill="#282828"/>
</svg>
