<svg xmlns="http://www.w3.org/2000/svg" width="19.1" height="13.736" viewBox="0 0 19.1 13.736">
  <g id="houses" transform="translate(0.05 -72.459)">
    <g id="Group_38624" data-name="Group 38624" transform="translate(0 72.528)">
      <path id="Path_30699" data-name="Path 30699" d="M18.789,76.777l-5.122-4.124a.565.565,0,0,0-.708,0L11.407,73.9l-1.552-1.25a.565.565,0,0,0-.708,0L7.594,73.9l-1.552-1.25a.565.565,0,0,0-.708,0L.211,76.777a.565.565,0,0,0-.211.44v8.364a.565.565,0,0,0,.565.565H4.082a.565.565,0,0,0,.565-.565v-2.52a1.041,1.041,0,0,1,2.081,0v2.52a.565.565,0,0,0,.565.565H18.435A.565.565,0,0,0,19,85.581V77.217A.565.565,0,0,0,18.789,76.777Zm-8.544,8.239H7.857V83.061a2.17,2.17,0,0,0-4.34,0v1.955H1.129V77.488l4.558-3.669,4.558,3.669Zm3.813,0H11.374v-7.8a.565.565,0,0,0-.211-.44l-2.67-2.149,1.006-.81,4.558,3.669v7.528Zm3.813,0H15.187v-7.8a.565.565,0,0,0-.211-.44l-2.67-2.149,1.006-.81,4.558,3.669Z" transform="translate(0 -72.528)" fill="#282828" stroke="#282828" stroke-width="0.1"/>
    </g>
  </g>
</svg>
