<svg xmlns="http://www.w3.org/2000/svg" width="18.002" height="17.966" viewBox="0 0 18.002 17.966">
  <path id="rating" d="M2.914,11.42a.7.7,0,0,0,.975-.193,6.115,6.115,0,0,1,10.153-.012.7.7,0,0,0,1.167-.785,7.5,7.5,0,0,0-3.7-2.879,3.973,3.973,0,1,0-5.038-.016,7.5,7.5,0,0,0-3.751,2.91.7.7,0,0,0,.194.975ZM9,1.906A2.566,2.566,0,1,1,6.434,4.473,2.566,2.566,0,0,1,9,1.906ZM11.8,12.95l-1.048.756a.44.44,0,0,0-.162.494l.422,1.224a.444.444,0,0,1,.022.158.464.464,0,0,1-.729.335l-1.048-.756a.448.448,0,0,0-.523,0l-1.048.756a.463.463,0,0,1-.729-.335.451.451,0,0,1,.023-.158L7.406,14.2a.44.44,0,0,0-.162-.494L6.2,12.95a.474.474,0,0,1,.262-.848h1.3a.4.4,0,0,0,.423-.256l.4-1.231a.446.446,0,0,1,.846,0l.4,1.231a.4.4,0,0,0,.423.256h1.3a.474.474,0,0,1,.246.848Zm6.012,2.461-1.048.756a.44.44,0,0,0-.162.494l.422,1.224a.444.444,0,0,1,.022.158.464.464,0,0,1-.729.335l-1.048-.756a.448.448,0,0,0-.523,0l-1.048.756a.463.463,0,0,1-.729-.335A.451.451,0,0,1,13,17.884l.422-1.224a.44.44,0,0,0-.162-.494l-1.048-.756a.474.474,0,0,1,.262-.848h1.3a.4.4,0,0,0,.423-.256l.4-1.231a.446.446,0,0,1,.846,0l.4,1.231a.4.4,0,0,0,.423.256h1.3a.474.474,0,0,1,.25.849Zm-12.023,0-1.048.756a.44.44,0,0,0-.162.494L5,17.884a.444.444,0,0,1,.022.158.464.464,0,0,1-.729.335L3.25,17.622a.448.448,0,0,0-.523,0l-1.048.756a.463.463,0,0,1-.729-.335.451.451,0,0,1,.023-.158l.422-1.224a.44.44,0,0,0-.162-.494L.184,15.411a.474.474,0,0,1,.262-.848h1.3a.4.4,0,0,0,.423-.256l.4-1.231a.446.446,0,0,1,.846,0l.4,1.231a.4.4,0,0,0,.423.256h1.3a.474.474,0,0,1,.254.848Z" transform="translate(0 -0.498)" fill="#fff"/>
</svg>
