<svg xmlns="http://www.w3.org/2000/svg" width="19.921" height="18.846" viewBox="0 0 19.921 18.846">
  <g id="Group_4" data-name="Group 4" transform="translate(-30.808 -631.763)">
    <g id="Group_1" data-name="Group 1" transform="translate(-0.306 -1)">
      <path id="Path_45" data-name="Path 45" d="M54.771,203.6H41.76A1.762,1.762,0,0,1,40,201.84v-9.261a.612.612,0,1,1,1.225,0v9.261a.536.536,0,0,0,.536.536h13.01a.536.536,0,0,0,.536-.536v-9.261a.612.612,0,1,1,1.225,0v9.261A1.762,1.762,0,0,1,54.771,203.6Z" transform="translate(-7.178 447.859)" fill="#fff" stroke="#fff" stroke-width="0.3"/>
      <path id="Path_46" data-name="Path 46" d="M18.98,25.5a.61.61,0,0,1-.433-.179l-7.615-7.615a1.609,1.609,0,0,0-2.273,0L1.045,25.325A.612.612,0,0,1,.18,24.46l7.615-7.615a2.835,2.835,0,0,1,4,0L19.41,24.46a.612.612,0,0,1-.43,1.04Z" transform="translate(31.291 617.072)" fill="#fff" stroke="#fff" stroke-width="0.3"/>
    </g>
    <path id="Path_44" data-name="Path 44" d="M7.81,5.915a4.558,4.558,0,0,0-1.738-1.09,2.645,2.645,0,1,0-2.993,0A4.582,4.582,0,0,0,0,9.15H.715a3.86,3.86,0,0,1,7.721,0H9.15A4.545,4.545,0,0,0,7.81,5.915ZM4.575,4.575A1.93,1.93,0,1,1,6.5,2.645a1.93,1.93,0,0,1-1.93,1.93Z" transform="translate(36.212 640.276)" fill="#fff" stroke="#fff" stroke-width="0.3"/>
  </g>
</svg>
