<svg xmlns="http://www.w3.org/2000/svg" width="17.3" height="17.3" viewBox="0 0 17.3 17.3">
  <g id="_22" data-name="22" transform="translate(-1.85 -1.85)">
    <path id="Path_32959" data-name="Path 32959" d="M10.5,19A8.5,8.5,0,1,1,19,10.5,8.5,8.5,0,0,1,10.5,19Zm0-15.785A7.285,7.285,0,1,0,17.785,10.5,7.285,7.285,0,0,0,10.5,3.215Zm.856,7.285,3.218-3.211a.61.61,0,0,0-.862-.862L10.5,9.644,7.289,6.426a.61.61,0,1,0-.862.862L9.644,10.5,6.426,13.711a.61.61,0,1,0,.862.862L10.5,11.356l3.211,3.218a.61.61,0,0,0,.862-.862Z" fill="#fff" stroke="#fff" stroke-width="0.3"/>
  </g>
</svg>
