<?xml version="1.0" encoding="utf-8"?>
<!-- Generator: Adobe Illustrator 26.5.0, SVG Export Plug-In . SVG Version: 6.00 Build 0)  -->
<svg version="1.1" id="Capa_1" xmlns="http://www.w3.org/2000/svg" xmlns:xlink="http://www.w3.org/1999/xlink" x="0px" y="0px"
	 viewBox="0 0 512 512" style="enable-background:new 0 0 512 512;" xml:space="preserve">
<style type="text/css">
	.st0{fill:#FFFFFF;}
</style>
<g>
	<g>
		<path class="st0" d="M455.7,212.5c-5.1-23-15.4-46.1-28.2-66.6l25.6-53.8l-35.8-35.8l-53.8,25.6c-20.5-12.8-41-20.5-64-25.6
			L281.6,0h-51.2l-20.5,56.3c-23,5.1-43.5,15.4-64,28.2L92.2,58.9L56.3,92.2l25.6,53.8c-12.8,20.5-20.5,41-25.6,64L0,230.4v51.2
			l56.3,20.5c5.1,23,15.4,46.1,25.6,64l-25.6,53.8l35.8,35.8l53.8-25.6c20.5,12.8,41,23,64,28.2l20.5,53.8h51.2l20.5-56.3
			c7.7-2.6,17.9-5.1,25.6-7.7l-41-41c-97.3,17.9-184.3-53.8-184.3-151c0-84.5,69.1-153.6,153.6-153.6c94.7,0,166.4,84.5,151,174.1
			l43.5,43.5c2.6-7.7,5.1-12.8,5.1-20.5l56.3-17.9v-51.2L455.7,212.5z"/>
	</g>
</g>
<g>
	<g>
		<path class="st0" d="M501.8,445.4l-151-151c35.8-79.4-38.4-163.8-120.3-140.8l46.1,46.1c20.5,20.5,20.5,53.8,0,71.7
			c-17.9,20.5-53.8,20.5-71.7,0l-46.1-43.5c-23,71.7,51.2,153.6,135.7,120.3l151,151c15.4,15.4,38.4,15.4,53.8,0
			C514.6,486.4,514.6,460.8,501.8,445.4z"/>
	</g>
</g>
</svg>
