<svg xmlns="http://www.w3.org/2000/svg" width="16.039" height="16.04" viewBox="0 0 16.039 16.04">
  <path id="_21" data-name="21" d="M3.124,3.532a.622.622,0,0,1,.622-.622h8.5a.625.625,0,1,1,0,1.25h-8.5a.622.622,0,0,1-.625-.628Zm9.75,2.5a.622.622,0,0,0-.622-.622h-8.5a.625.625,0,0,0,0,1.25h8.5a.622.622,0,0,0,.626-.628ZM3.749,7.911a.625.625,0,1,0,0,1.25H6.625a.625.625,0,0,0,0-1.25Zm11.7,4.889A1.875,1.875,0,1,1,12.8,15.452L9.382,12.028a.622.622,0,0,1-.16-.275l-.7-2.523a.622.622,0,0,1,.784-.765l2.46.748a.622.622,0,0,1,.26.156Zm-5.067-1.54,2.3,2.3.884-.884-2.311-2.311-1.223-.372Zm4.185,2.423-.12-.121-.884.884.121.121a.625.625,0,1,0,.884-.884ZM13.5,0H2.5A2.5,2.5,0,0,0,0,2.5v11A2.5,2.5,0,0,0,2.5,16h7.656a.625.625,0,1,0,0-1.25H2.5A1.252,1.252,0,0,1,1.25,13.5V2.5A1.252,1.252,0,0,1,2.5,1.251h11A1.252,1.252,0,0,1,14.75,2.5v7.687a.625.625,0,0,0,1.25,0V2.5A2.5,2.5,0,0,0,13.5,0Zm0,0" fill="#fff"/>
</svg>
