<svg xmlns="http://www.w3.org/2000/svg" width="15.548" height="15.548" viewBox="0 0 15.548 15.548">
  <g id="dashboard" transform="translate(-1 -1)">
    <path id="Path_1" data-name="Path 1" d="M19.361,8.067H13.707A.707.707,0,0,1,13,7.361V1.707A.707.707,0,0,1,13.707,1h5.654a.707.707,0,0,1,.707.707V7.361A.707.707,0,0,1,19.361,8.067ZM14.413,6.654h4.24V2.413h-4.24Z" transform="translate(-3.519 0)" fill="#fff"/>
    <path id="Path_2" data-name="Path 2" d="M16.534,20.067a3.534,3.534,0,1,1,3.534-3.534A3.534,3.534,0,0,1,16.534,20.067Zm0-5.654a2.12,2.12,0,1,0,2.12,2.12A2.12,2.12,0,0,0,16.534,14.413Z" transform="translate(-3.519 -3.519)" fill="#fff"/>
    <path id="Path_3" data-name="Path 3" d="M7.361,13H1.707A.707.707,0,0,0,1,13.707v5.654a.707.707,0,0,0,.707.707H7.361a.707.707,0,0,0,.707-.707V13.707A.707.707,0,0,0,7.361,13Zm-.707,5.654H2.413v-4.24h4.24Z" transform="translate(0 -3.519)" fill="#fff"/>
    <path id="Path_4" data-name="Path 4" d="M7.361,8.067H1.707A.707.707,0,0,1,1,7.361V1.707A.707.707,0,0,1,1.707,1H7.361a.707.707,0,0,1,.707.707V7.361A.707.707,0,0,1,7.361,8.067ZM2.413,6.654h4.24V2.413H2.413Z" transform="translate(0 0)" fill="#fff"/>
  </g>
</svg>
