<svg xmlns="http://www.w3.org/2000/svg" width="16.137" height="18" viewBox="0 0 16.137 18">
  <path id="document_verification" data-name="document verification" d="M7.559,17.3a.7.7,0,0,1-.7.7H2.813A2.816,2.816,0,0,1,0,15.188V2.813A2.816,2.816,0,0,1,2.813,0h8.645A2.816,2.816,0,0,1,14.27,2.813v7.453a.7.7,0,0,1-1.406,0V2.813a1.408,1.408,0,0,0-1.406-1.406H2.812A1.408,1.408,0,0,0,1.406,2.813V15.188a1.408,1.408,0,0,0,1.406,1.406H6.855A.7.7,0,0,1,7.559,17.3Zm8.284-5.845a.7.7,0,0,0-.981.162L11.4,16.455a.4.4,0,0,1-.578.03L8.574,14.331A.7.7,0,1,0,7.6,15.345L9.846,17.5a1.814,1.814,0,0,0,1.247.5q.06,0,.119,0a1.812,1.812,0,0,0,1.289-.672l.024-.031,3.48-4.861a.7.7,0,0,0-.162-.981ZM10.754,4.219H3.512a.7.7,0,0,0,0,1.406h7.242a.7.7,0,0,0,0-1.406Zm.7,3.516a.7.7,0,0,0-.7-.7H3.512a.7.7,0,1,0,0,1.406h7.242A.7.7,0,0,0,11.457,7.734ZM3.512,9.844a.7.7,0,0,0,0,1.406h4.4a.7.7,0,1,0,0-1.406Zm0,0" fill="#fff"/>
</svg>
