<svg xmlns="http://www.w3.org/2000/svg" width="19.921" height="18.846" viewBox="0 0 19.921 18.846">
  <g id="Group_2" data-name="Group 2" transform="translate(-30.808 -569.763)">
    <path id="home_page_setting" data-name="home page setting" d="M184.292,59.424a.512.512,0,0,1,.418.5v.856a.512.512,0,0,1-.418.5l-.657.123a.256.256,0,1,1-.094-.5l.657-.123v-.856l-.657-.123a.256.256,0,0,1-.2-.19,3.054,3.054,0,0,0-.35-.844A.256.256,0,0,1,183,58.49l.378-.552-.6-.6-.552.378a.256.256,0,0,1-.277.008,3.054,3.054,0,0,0-.844-.35.256.256,0,0,1-.19-.2l-.123-.657h-.856l-.123.657a.256.256,0,0,1-.19.2,3.054,3.054,0,0,0-.844.35.256.256,0,0,1-.277-.008l-.552-.378-.6.6.378.552a.256.256,0,0,1,.008.277,3.055,3.055,0,0,0-.35.844.256.256,0,0,1-.2.19l-.657.123v.856l.657.123a.256.256,0,0,1,.2.19,3.054,3.054,0,0,0,.35.844.256.256,0,0,1-.008.277l-.378.552.6.6.552-.378a.256.256,0,0,1,.277-.008,3.054,3.054,0,0,0,.844.35.256.256,0,0,1,.19.2l.123.657h.856l.123-.657a.256.256,0,1,1,.5.094l-.123.657a.512.512,0,0,1-.5.418h-.856a.512.512,0,0,1-.5-.418l-.094-.5a3.566,3.566,0,0,1-.681-.282l-.419.287a.512.512,0,0,1-.652-.061l-.6-.6a.512.512,0,0,1-.061-.652l.287-.419a3.567,3.567,0,0,1-.282-.681l-.5-.094a.512.512,0,0,1-.418-.5v-.856a.512.512,0,0,1,.418-.5l.5-.094a3.569,3.569,0,0,1,.282-.681l-.287-.419a.512.512,0,0,1,.061-.652l.6-.6a.512.512,0,0,1,.652-.061l.419.287a3.567,3.567,0,0,1,.681-.282l.094-.5a.512.512,0,0,1,.5-.418h.856a.512.512,0,0,1,.5.418l.094.5a3.566,3.566,0,0,1,.681.282l.419-.287a.512.512,0,0,1,.652.061l.6.6a.512.512,0,0,1,.061.652l-.287.419a3.564,3.564,0,0,1,.282.681Zm-3.937,2.725a1.793,1.793,0,1,1,1.793-1.793,1.793,1.793,0,0,1-1.793,1.793Zm0-.512a1.281,1.281,0,1,0-1.281-1.281,1.281,1.281,0,0,0,1.281,1.281Z" transform="translate(-139.267 520.272)" fill="#fff" stroke="#fff" stroke-width="0.2"/>
    <path id="Path_45" data-name="Path 45" d="M54.771,203.6H41.76A1.762,1.762,0,0,1,40,201.84v-9.261a.612.612,0,1,1,1.225,0v9.261a.536.536,0,0,0,.536.536h13.01a.536.536,0,0,0,.536-.536v-9.261a.612.612,0,1,1,1.225,0v9.261A1.762,1.762,0,0,1,54.771,203.6Z" transform="translate(-7.484 384.859)" fill="#fff" stroke="#fff" stroke-width="0.3"/>
    <path id="Path_46" data-name="Path 46" d="M18.98,25.5a.61.61,0,0,1-.433-.179l-7.615-7.615a1.609,1.609,0,0,0-2.273,0L1.045,25.325A.612.612,0,0,1,.18,24.46l7.615-7.615a2.835,2.835,0,0,1,4,0L19.41,24.46a.612.612,0,0,1-.43,1.04Z" transform="translate(30.985 554.072)" fill="#fff" stroke="#fff" stroke-width="0.3"/>
    <path id="home_page_setting-2" data-name="home page setting" d="M184.292,59.424a.512.512,0,0,1,.418.5v.856a.512.512,0,0,1-.418.5l-.657.123a.256.256,0,1,1-.094-.5l.657-.123v-.856l-.657-.123a.256.256,0,0,1-.2-.19,3.054,3.054,0,0,0-.35-.844A.256.256,0,0,1,183,58.49l.378-.552-.6-.6-.552.378a.256.256,0,0,1-.277.008,3.054,3.054,0,0,0-.844-.35.256.256,0,0,1-.19-.2l-.123-.657h-.856l-.123.657a.256.256,0,0,1-.19.2,3.054,3.054,0,0,0-.844.35.256.256,0,0,1-.277-.008l-.552-.378-.6.6.378.552a.256.256,0,0,1,.008.277,3.055,3.055,0,0,0-.35.844.256.256,0,0,1-.2.19l-.657.123v.856l.657.123a.256.256,0,0,1,.2.19,3.054,3.054,0,0,0,.35.844.256.256,0,0,1-.008.277l-.378.552.6.6.552-.378a.256.256,0,0,1,.277-.008,3.054,3.054,0,0,0,.844.35.256.256,0,0,1,.19.2l.123.657h.856l.123-.657a.256.256,0,1,1,.5.094l-.123.657a.512.512,0,0,1-.5.418h-.856a.512.512,0,0,1-.5-.418l-.094-.5a3.566,3.566,0,0,1-.681-.282l-.419.287a.512.512,0,0,1-.652-.061l-.6-.6a.512.512,0,0,1-.061-.652l.287-.419a3.567,3.567,0,0,1-.282-.681l-.5-.094a.512.512,0,0,1-.418-.5v-.856a.512.512,0,0,1,.418-.5l.5-.094a3.569,3.569,0,0,1,.282-.681l-.287-.419a.512.512,0,0,1,.061-.652l.6-.6a.512.512,0,0,1,.652-.061l.419.287a3.567,3.567,0,0,1,.681-.282l.094-.5a.512.512,0,0,1,.5-.418h.856a.512.512,0,0,1,.5.418l.094.5a3.566,3.566,0,0,1,.681.282l.419-.287a.512.512,0,0,1,.652.061l.6.6a.512.512,0,0,1,.061.652l-.287.419a3.564,3.564,0,0,1,.282.681Zm-3.937,2.725a1.793,1.793,0,1,1,1.793-1.793,1.793,1.793,0,0,1-1.793,1.793Zm0-.512a1.281,1.281,0,1,0-1.281-1.281,1.281,1.281,0,0,0,1.281,1.281Z" transform="translate(101.195 400.272) rotate(90)" fill="#fff" stroke="#fff" stroke-width="0.3"/>
  </g>
</svg>
