<svg xmlns="http://www.w3.org/2000/svg" width="21.617" height="17.612" viewBox="0 0 21.617 17.612">
  <g id="Manage_user" data-name="Manage user" transform="translate(-1.199 -3.2)">
    <path id="Path_10" data-name="Path 10" d="M12,20.757c-4.1,0-5.331-1.017-5.534-1.221a.753.753,0,0,1-.213-.636l.51-3.568a4.776,4.776,0,0,1,4.7-4.081h1.063a4.776,4.776,0,0,1,4.7,4.081l.51,3.568a.753.753,0,0,1-.213.636c-.2.2-1.427,1.221-5.53,1.221ZM7.813,18.629A10.315,10.315,0,0,0,12,19.256a10.259,10.259,0,0,0,4.191-.63l-.44-3.082a3.268,3.268,0,0,0-3.219-2.792H11.473a3.268,3.268,0,0,0-3.219,2.792Z" transform="translate(0.003 0.006)" fill="#fff" stroke="#fff" stroke-width="0.1"/>
    <path id="Path_11" data-name="Path 11" d="M5.5,17.754c-3.039,0-3.963-1.1-4.117-1.321a.746.746,0,0,1-.124-.561l.22-1.242A4.079,4.079,0,0,1,8.95,13.152a.751.751,0,1,1-1.271.8,2.579,2.579,0,0,0-4.719.942l-.146.825a5.213,5.213,0,0,0,2.689.534,7.329,7.329,0,0,0,1.64-.16.751.751,0,1,1,.342,1.461,8.761,8.761,0,0,1-1.982.2Z" transform="translate(0 0.006)" fill="#fff" stroke="#fff" stroke-width="0.1"/>
    <path id="Path_12" data-name="Path 12" d="M5.5,10.754A2.752,2.752,0,1,1,8.254,8,2.752,2.752,0,0,1,5.5,10.754Zm0-4A1.251,1.251,0,1,0,6.753,8,1.251,1.251,0,0,0,5.5,6.751Z" transform="translate(0.001 0.001)" fill="#fff" stroke="#fff" stroke-width="0.1"/>
    <path id="Path_13" data-name="Path 13" d="M18.5,17.754a8.761,8.761,0,0,1-1.982-.2.751.751,0,1,1,.342-1.461,7.329,7.329,0,0,0,1.64.16,5.165,5.165,0,0,0,2.689-.542l-.145-.818A2.581,2.581,0,0,0,18.5,12.751a2.554,2.554,0,0,0-2.177,1.2.751.751,0,0,1-1.271-.8,4.079,4.079,0,0,1,7.469,1.48l.219,1.24a.746.746,0,0,1-.124.561C22.465,16.654,21.542,17.754,18.5,17.754Z" transform="translate(0.009 0.006)" fill="#fff" stroke="#fff" stroke-width="0.1"/>
    <path id="Path_14" data-name="Path 14" d="M18.5,10.754A2.752,2.752,0,1,1,21.254,8,2.752,2.752,0,0,1,18.5,10.754Zm0-4A1.251,1.251,0,1,0,19.753,8,1.251,1.251,0,0,0,18.5,6.751Z" transform="translate(0.01 0.001)" fill="#fff" stroke="#fff" stroke-width="0.1"/>
    <path id="Path_15" data-name="Path 15" d="M12,10.755A3.753,3.753,0,1,1,15.755,7,3.753,3.753,0,0,1,12,10.755Zm0-6A2.252,2.252,0,1,0,14.254,7,2.252,2.252,0,0,0,12,4.751Z" transform="translate(0.005 0)" fill="#fff" stroke="#fff" stroke-width="0.1"/>
  </g>
</svg>
