<svg xmlns="http://www.w3.org/2000/svg" width="16" height="20.003" viewBox="0 0 16 20.003">
  <g id="Group_12184" data-name="Group 12184" transform="translate(-44 -105)">
    <g id="receipt" transform="translate(40 104)">
      <g id="Group_12173" data-name="Group 12173" transform="translate(4 1)">
        <path id="Path_25722" data-name="Path 25722" d="M18,1H6A2,2,0,0,0,4,3V20.333a.667.667,0,0,0,.965.6l2.321-1.16,1.678,1.118a.667.667,0,0,0,.668.042L12,19.745l2.368,1.184a.667.667,0,0,0,.668-.042l1.678-1.118,2.321,1.16a.667.667,0,0,0,.965-.6V3A2,2,0,0,0,18,1Zm.667,18.254-1.7-.851a.67.67,0,0,0-.668.042l-1.678,1.118L12.3,18.4a.667.667,0,0,0-.6,0L9.379,19.56,7.7,18.445a.67.67,0,0,0-.668-.042l-1.7.851V3A.667.667,0,0,1,6,2.333H18A.667.667,0,0,1,18.667,3Zm-2-13.588A.666.666,0,0,1,16,6.333H8A.667.667,0,0,1,8,5h8a.666.666,0,0,1,.667.667ZM11.333,9a.666.666,0,0,1-.667.667H8A.667.667,0,0,1,8,8.333h2.667A.666.666,0,0,1,11.333,9Zm0,2.667a.666.666,0,0,1-.667.667H8A.667.667,0,0,1,8,11h2.667a.666.666,0,0,1,.666.667Zm0,2.667a.666.666,0,0,1-.667.667H8a.667.667,0,0,1,0-1.333h2.667a.666.666,0,0,1,.666.665Z" transform="translate(-4 -1)" fill="#fff"/>
      </g>
    </g>
    <path id="dollar-currency-symbol" d="M80.54,4.593a1.432,1.432,0,0,0-.624-1.245,3.734,3.734,0,0,0-1.094-.461c-.789-.239-1.018-.365-1.018-.743,0-.42.546-.57,1.014-.57a1.956,1.956,0,0,1,.976.263l.483-.747A2.766,2.766,0,0,0,79.093.7V0H78.2V.747a1.453,1.453,0,0,0-1.29,1.4A1.336,1.336,0,0,0,77.522,3.3a3.735,3.735,0,0,0,1.043.434c.774.234,1.089.377,1.085.849h0c0,.4-.525.537-.975.537a1.669,1.669,0,0,1-1.15-.463l-.647.612a2.482,2.482,0,0,0,1.325.7V6.7h.89V5.988A1.471,1.471,0,0,0,80.54,4.593Z" transform="translate(-24.585 111.65)" fill="#fff"/>
  </g>
</svg>
