<svg xmlns="http://www.w3.org/2000/svg" width="20.876" height="18.199" viewBox="0 0 20.876 18.199">
  <g id="gareway" transform="translate(-0.3 -3.3)">
    <path id="Path_34" data-name="Path 34" d="M.5,5.487A2.035,2.035,0,0,1,2.58,3.5H17.261a2.035,2.035,0,0,1,2.08,1.987V9.822a.449.449,0,0,1-.9,0V5.487a1.164,1.164,0,0,0-1.183-1.144H2.58A1.164,1.164,0,0,0,1.4,5.487v7.827A1.164,1.164,0,0,0,2.58,14.457H9.023a.422.422,0,1,1,0,.843H2.58A2.035,2.035,0,0,1,.5,13.313Z" fill="#fff" stroke="#fff" stroke-width="0.4" fill-rule="evenodd"/>
    <path id="Path_35" data-name="Path 35" d="M.5,6.921A.436.436,0,0,1,.949,6.5H18.892a.422.422,0,1,1,0,.843H.949A.436.436,0,0,1,.5,6.921Z" transform="translate(0 -0.471)" fill="#fff" stroke="#fff" stroke-width="0.3" fill-rule="evenodd"/>
    <path id="Path_36" data-name="Path 36" d="M2.5,11.921a.421.421,0,0,1,.421-.421H4.607a.421.421,0,1,1,0,.843H2.921A.421.421,0,0,1,2.5,11.921Z" transform="translate(0.826 -1.98)" fill="#fff" stroke="#fff" stroke-width="0.3" fill-rule="evenodd"/>
    <path id="Path_37" data-name="Path 37" d="M2.5,14.421A.421.421,0,0,1,2.921,14H6.293a.421.421,0,1,1,0,.843H2.921A.421.421,0,0,1,2.5,14.421Z" transform="translate(0.826 -2.242)" fill="#fff" stroke="#fff" stroke-width="0.3" fill-rule="evenodd"/>
    <path id="Path_38" data-name="Path 38" d="M17.136,13.343a3.793,3.793,0,1,0,3.793,3.793A3.793,3.793,0,0,0,17.136,13.343ZM12.5,17.136a4.636,4.636,0,1,1,4.636,4.636A4.636,4.636,0,0,1,12.5,17.136Z" transform="translate(-0.745 -0.423)" fill="#fff" stroke="#fff" stroke-width="0.3" fill-rule="evenodd"/>
    <path id="Path_39" data-name="Path 39" d="M19.073,17.123a.421.421,0,0,1,.6.6l-1.686,1.686a.422.422,0,0,1-.6,0l-1.264-1.264a.421.421,0,0,1,.6-.6l.966.966Z" transform="translate(-1.295 -1.334)" fill="#fff" stroke="#fff" stroke-width="0.3" fill-rule="evenodd"/>
  </g>
</svg>
