<svg xmlns="http://www.w3.org/2000/svg" width="17" height="17" viewBox="0 0 17 17">
  <path id="manage_listing" data-name="manage listing" d="M9.164,12.418a.664.664,0,0,1-.664.664H4.582a.664.664,0,0,1,0-1.328H8.5A.664.664,0,0,1,9.164,12.418ZM17,3.989v7.776a3.792,3.792,0,0,1-1.118,2.7l-1.418,1.418A3.792,3.792,0,0,1,11.765,17H3.989A3.987,3.987,0,0,1,0,13.011V3.989A3.987,3.987,0,0,1,3.989,0h9.021A3.987,3.987,0,0,1,17,3.989Zm-1.417,8.44H13.757a1.33,1.33,0,0,0-1.328,1.328v1.826a2.475,2.475,0,0,0,1.1-.64l1.418-1.418A2.475,2.475,0,0,0,15.583,12.429Zm.089-8.44a2.66,2.66,0,0,0-2.661-2.661H3.989A2.66,2.66,0,0,0,1.328,3.989v9.021a2.66,2.66,0,0,0,2.661,2.661H11.1V13.757A2.659,2.659,0,0,1,13.757,11.1h1.915ZM12.418,7.836H4.582a.664.664,0,1,0,0,1.328h7.836a.664.664,0,1,0,0-1.328Zm0-3.918H4.582a.664.664,0,1,0,0,1.328h7.836a.664.664,0,1,0,0-1.328Z" transform="translate(0)" fill="#fff"/>
</svg>
