<svg id="Calendar" xmlns="http://www.w3.org/2000/svg" width="18" height="18" viewBox="0 0 18 18">
  <path id="Path_21" data-name="Path 21" d="M14.484,1.406h-.7V.7a.7.7,0,1,0-1.406,0v.7H10.406a.7.7,0,0,0,0,1.406h1.969v.7a.7.7,0,1,0,1.406,0v-.7h.7a2.112,2.112,0,0,1,2.109,2.109v9.562a2.112,2.112,0,0,1-2.109,2.109H3.516a2.112,2.112,0,0,1-2.109-2.109V4.922A2.112,2.112,0,0,1,3.516,2.813h.7v.7a.7.7,0,0,0,1.406,0v-.7H7.594a.7.7,0,0,0,0-1.406H5.625V.7A.7.7,0,0,0,4.219.7v.7h-.7A3.52,3.52,0,0,0,0,4.922v9.562A3.52,3.52,0,0,0,3.516,18H14.484A3.52,3.52,0,0,0,18,14.484V4.922A3.52,3.52,0,0,0,14.484,1.406Z" fill="#fff"/>
  <g id="Group_3" data-name="Group 3" transform="translate(9.646 6.647)">
    <circle id="Ellipse_1" data-name="Ellipse 1" cx="0.808" cy="0.808" r="0.808" transform="translate(0 0)" fill="#fff"/>
  </g>
  <g id="Group_4" data-name="Group 4" transform="translate(13.031 6.647)">
    <circle id="Ellipse_2" data-name="Ellipse 2" cx="0.808" cy="0.808" r="0.808" transform="translate(0 0)" fill="#fff"/>
  </g>
  <g id="Group_5" data-name="Group 5" transform="translate(6.557 9.736)">
    <circle id="Ellipse_3" data-name="Ellipse 3" cx="0.808" cy="0.808" r="0.808" transform="translate(0 0)" fill="#fff"/>
  </g>
  <g id="Group_24" data-name="Group 24" transform="translate(6.557 12.588)">
    <circle id="Ellipse_3-2" data-name="Ellipse 3" cx="0.808" cy="0.808" r="0.808" transform="translate(0 0)" fill="#fff"/>
  </g>
  <g id="Group_22" data-name="Group 22" transform="translate(3.353 9.641)">
    <circle id="Ellipse_3-3" data-name="Ellipse 3" cx="0.808" cy="0.808" r="0.808" transform="translate(0 0)" fill="#fff"/>
    <circle id="Ellipse_12" data-name="Ellipse 12" cx="0.808" cy="0.808" r="0.808" transform="translate(0 2.984)" fill="#fff"/>
  </g>
  <g id="Group_21" data-name="Group 21" transform="translate(6.557 6.647)">
    <circle id="Ellipse_3-4" data-name="Ellipse 3" cx="0.808" cy="0.808" r="0.808" transform="translate(0 0)" fill="#fff"/>
  </g>
  <g id="Group_23" data-name="Group 23" transform="translate(3.353 6.647)">
    <circle id="Ellipse_3-5" data-name="Ellipse 3" cx="0.808" cy="0.808" r="0.808" transform="translate(0 0)" fill="#fff"/>
  </g>
  <g id="Group_6" data-name="Group 6" transform="translate(9.646 9.736)">
    <circle id="Ellipse_4" data-name="Ellipse 4" cx="0.808" cy="0.808" r="0.808" transform="translate(0 0)" fill="#fff"/>
  </g>
  <g id="Group_20" data-name="Group 20" transform="translate(9.646 12.826)">
    <circle id="Ellipse_4-2" data-name="Ellipse 4" cx="0.808" cy="0.808" r="0.808" transform="translate(0 0)" fill="#fff"/>
  </g>
  <g id="Group_7" data-name="Group 7" transform="translate(13.031 9.736)">
    <circle id="Ellipse_5" data-name="Ellipse 5" cx="0.808" cy="0.808" r="0.808" transform="translate(0 0)" fill="#fff"/>
  </g>
  <g id="Group_19" data-name="Group 19" transform="translate(13.031 12.826)">
    <circle id="Ellipse_5-2" data-name="Ellipse 5" cx="0.808" cy="0.808" r="0.808" transform="translate(0 0)" fill="#fff"/>
  </g>
</svg>
