<svg xmlns="http://www.w3.org/2000/svg" width="18.859" height="15.505" viewBox="0 0 18.859 15.505">
  <g id="Manage_admin" data-name="Manage admin" transform="translate(0 -41.73)">
    <path id="Path_8" data-name="Path 8" d="M.857,57.235H7.715a.857.857,0,0,0,0-1.714H1.775a6.01,6.01,0,0,1,5.94-5.143A4.324,4.324,0,1,0,4.82,49.231,7.723,7.723,0,0,0,0,56.378.857.857,0,0,0,.857,57.235ZM7.715,43.52a2.572,2.572,0,1,1-2.572,2.572A2.572,2.572,0,0,1,7.715,43.52Z" fill="#fff"/>
    <path id="Path_9" data-name="Path 9" d="M284.763,238.689h-.606a.4.4,0,0,1-.367-.257v-.005a.4.4,0,0,1,.076-.442l.429-.429a.389.389,0,0,0,0-.55h0l-.54-.54a.389.389,0,0,0-.55,0h0l-.429.429a.4.4,0,0,1-.442.076h-.005a.4.4,0,0,1-.257-.367V236a.389.389,0,0,0-.385-.393h-.773a.389.389,0,0,0-.389.389v.606a.4.4,0,0,1-.257.367h-.005a.4.4,0,0,1-.442-.076l-.429-.429a.389.389,0,0,0-.55,0h0l-.54.54a.389.389,0,0,0,0,.55h0l.429.429a.4.4,0,0,1,.076.442v.005a.4.4,0,0,1-.367.257h-.606a.389.389,0,0,0-.389.389v.765a.389.389,0,0,0,.389.389h.606a.4.4,0,0,1,.367.257v.005a.4.4,0,0,1-.076.442l-.429.429a.389.389,0,0,0,0,.55h0l.54.54a.389.389,0,0,0,.55,0h0l.429-.429a.4.4,0,0,1,.442-.076h.005a.4.4,0,0,1,.257.367v.606a.389.389,0,0,0,.389.389h.765a.389.389,0,0,0,.389-.389v-.606a.4.4,0,0,1,.257-.367h.005a.4.4,0,0,1,.442.076l.429.429a.389.389,0,0,0,.55,0h0l.54-.54a.389.389,0,0,0,0-.55h0l-.429-.429a.4.4,0,0,1-.076-.442v-.005a.4.4,0,0,1,.367-.257h.606a.389.389,0,0,0,.393-.385h0v-.765A.389.389,0,0,0,284.763,238.689Zm-3.468,1.929a1.157,1.157,0,1,1,1.157-1.157,1.157,1.157,0,0,1-1.157,1.157Z" transform="translate(-266.293 -186.083)" fill="#fff"/>
  </g>
</svg>
