<svg xmlns="http://www.w3.org/2000/svg" width="17.533" height="16.148" viewBox="0 0 17.533 16.148">
  <g id="message" transform="translate(-6.5 -7.5)">
    <path id="Path_27" data-name="Path 27" d="M9.96,16.884A2.076,2.076,0,0,0,7.884,18.96V24.5A2.076,2.076,0,0,0,9.96,26.573h9.228A2.076,2.076,0,0,0,21.264,24.5v-6.69a.692.692,0,0,1,1.384,0V24.5a3.46,3.46,0,0,1-3.46,3.46H9.96A3.46,3.46,0,0,1,6.5,24.5V18.96A3.46,3.46,0,0,1,9.96,15.5H17.8a.692.692,0,0,1,0,1.384Z" transform="translate(0 -4.309)" fill="#fff" fill-rule="evenodd"/>
    <path id="Path_28" data-name="Path 28" d="M16.509,25.959a2.076,2.076,0,0,0,2.594,0l2.885-2.308a.692.692,0,0,1,.865,1.081L19.968,27.04a3.46,3.46,0,0,1-4.323,0L12.76,24.732a.692.692,0,0,1,.865-1.081Z" transform="translate(-3.232 -8.618)" fill="#fff" fill-rule="evenodd"/>
    <path id="Path_29" data-name="Path 29" d="M32.96,8.884a2.076,2.076,0,1,0,2.076,2.076A2.076,2.076,0,0,0,32.96,8.884ZM29.5,10.96a3.46,3.46,0,1,1,3.46,3.46A3.46,3.46,0,0,1,29.5,10.96Z" transform="translate(-12.388)" fill="#fff" fill-rule="evenodd"/>
    <path id="Path_30" data-name="Path 30" d="M33.5,13.905a.475.475,0,0,1,.522-.405h1.391a.418.418,0,1,1,0,.81H34.022A.475.475,0,0,1,33.5,13.905Z" transform="translate(-14.145 -3.232)" fill="#fff" fill-rule="evenodd"/>
    <path id="Path_31" data-name="Path 31" d="M0,.405A.475.475,0,0,1,.522,0H1.913a.475.475,0,0,1,.522.405A.475.475,0,0,1,1.913.81H.522A.475.475,0,0,1,0,.405Z" transform="translate(20.977 9.456) rotate(90)" fill="#fff" fill-rule="evenodd"/>
  </g>
</svg>
