<svg xmlns="http://www.w3.org/2000/svg" width="16.05" height="18.3" viewBox="0 0 16.05 18.3">
  <g id="Group_29" data-name="Group 29" transform="translate(-31.35 -111.575)">
    <path id="report" d="M3.688,0A1.688,1.688,0,0,0,2,1.688V14.063A1.687,1.687,0,0,0,3.688,15.75H4.25v.563A1.687,1.687,0,0,0,5.938,18H16.062a1.687,1.687,0,0,0,1.688-1.687V3.937A1.687,1.687,0,0,0,16.062,2.25H15.5V1.688A1.687,1.687,0,0,0,13.812,0ZM14.375,1.688a.562.562,0,0,0-.563-.562H3.688a.563.563,0,0,0-.562.563h0c.2,8.079,0,.154,0,12.375a.562.562,0,0,0,.563.563H13.812a.562.562,0,0,0,.563-.562ZM15.5,3.375h.563a.562.562,0,0,1,.563.562V16.313a.562.562,0,0,1-.562.563H5.938a.562.562,0,0,1-.563-.562V15.75h8.437A1.687,1.687,0,0,0,15.5,14.063Z" transform="translate(29.5 111.725)" fill="#fff" stroke="#fffcfc" stroke-width="0.3" fill-rule="evenodd"/>
    <path id="problem" d="M23.046,20.691a1.063,1.063,0,0,1-.2-.392l-.457-3.72c-.2-1.305,2.154-1.305,1.893,0l-.457,3.655a.477.477,0,0,1-.783.457Zm-.261,2.219a.925.925,0,0,1,1.306-1.31C24.874,22.518,23.634,23.758,22.785,22.91Z" transform="translate(15.035 100.021)" fill="#fff"/>
  </g>
</svg>
