<svg xmlns="http://www.w3.org/2000/svg" width="18" height="17.997" viewBox="0 0 18 17.997">
  <g id="Review_mange" data-name="Review mange" transform="translate(0.005 0)">
    <path id="Path_22" data-name="Path 22" d="M17.118.877A2.975,2.975,0,0,0,15,0H1.8A2,2,0,0,0,0,2.1V4.8A2.4,2.4,0,0,0,2.4,7.2H3V15a3,3,0,0,0,3,3h9a3,3,0,0,0,3-3V3a2.975,2.975,0,0,0-.877-2.12ZM2.4,6A1.2,1.2,0,0,1,1.2,4.8V2.1A.9.9,0,1,1,3,2.1V6Zm14.4,9A1.8,1.8,0,0,1,15,16.8H6A1.8,1.8,0,0,1,4.2,15V2.1a2.075,2.075,0,0,0-.208-.9H15A1.8,1.8,0,0,1,16.8,3Z" transform="translate(0 0)" fill="#fff"/>
    <path id="Path_23" data-name="Path 23" d="M14.5,7.584h4.159a.6.6,0,1,0,0-1.186H14.5a.6.6,0,0,0,0,1.186Z" transform="translate(-6.079 -2.796)" fill="#fff"/>
    <path id="Path_24" data-name="Path 24" d="M19.407,12.8H12.28a.6.6,0,1,0,0,1.186h7.127a.6.6,0,1,0,0-1.186Z" transform="translate(-5.031 -5.594)" fill="#fff"/>
    <path id="Path_25" data-name="Path 25" d="M19.5,18.128H12.372a.6.6,0,0,0,0,1.186H19.5a.6.6,0,1,0,0-1.186Z" transform="translate(-5.122 -7.924)" fill="#fff"/>
    <path id="Path_26" data-name="Path 26" d="M16.158,23.468h-3.9a.6.6,0,1,0,0,1.186h3.9a.6.6,0,1,0,0-1.186Z" transform="translate(-5.054 -10.259)" fill="#fff"/>
  </g>
</svg>
