<svg xmlns="http://www.w3.org/2000/svg" width="18.2" height="18.2" viewBox="0 0 18.2 18.2">
  <path id="search_setting" data-name="search setting" d="M12.484,11.5a4.126,4.126,0,1,0-1,1.009L14.173,15.2a.711.711,0,0,0,1.006-1.006ZM6.4,9.138a2.7,2.7,0,1,1,2.7,2.7,2.7,2.7,0,0,1-2.7-2.7Zm11.8-.391v.711a2.136,2.136,0,0,1-2.133,2.133h-.358a.227.227,0,0,0-.128.04.711.711,0,0,1-.8-1.173,1.644,1.644,0,0,1,.933-.289h.358a.712.712,0,0,0,.711-.711V8.747a.712.712,0,0,0-.711-.711h-.358A1.655,1.655,0,0,1,14.181,7V6.99a1.656,1.656,0,0,1,.354-1.813l.253-.253a.712.712,0,0,0,0-1.006l-.5-.5a.711.711,0,0,0-1.006,0l-.253.253a1.656,1.656,0,0,1-1.813.354H11.2a1.655,1.655,0,0,1-1.03-1.532v-.36a.712.712,0,0,0-.711-.711H8.747a.712.712,0,0,0-.711.711v.358A1.655,1.655,0,0,1,7.005,4.023L7,4.027a1.656,1.656,0,0,1-1.814-.354L4.929,3.42a.711.711,0,0,0-1.006,0l-.5.5a.712.712,0,0,0,0,1.006l.253.253A1.656,1.656,0,0,1,4.03,6.992V7A1.655,1.655,0,0,1,2.5,8.033H2.134a.712.712,0,0,0-.711.711v.711a.712.712,0,0,0,.711.711h.358A1.655,1.655,0,0,1,4.024,11.2l.005.013a1.655,1.655,0,0,1-.355,1.811l-.253.253a.711.711,0,0,0,0,1.006l.5.5a.712.712,0,0,0,1.006,0l.253-.253a1.656,1.656,0,0,1,1.812-.355H7a1.656,1.656,0,0,1,1.033,1.533v.358a.712.712,0,0,0,.711.711h.711a.712.712,0,0,0,.711-.711v-.358a1.642,1.642,0,0,1,.29-.933.711.711,0,1,1,1.173.8.227.227,0,0,0-.04.128v.358A2.136,2.136,0,0,1,9.458,18.2H8.747a2.136,2.136,0,0,1-2.133-2.133v-.358a.238.238,0,0,0-.151-.218H6.45a.238.238,0,0,0-.262.047l-.253.253a2.136,2.136,0,0,1-3.017,0l-.5-.5a2.133,2.133,0,0,1,0-3.017l.253-.253a.239.239,0,0,0,.047-.261l-.006-.014a.237.237,0,0,0-.217-.15H2.134A2.136,2.136,0,0,1,0,9.458V8.747A2.136,2.136,0,0,1,2.134,6.613h.358a.238.238,0,0,0,.218-.151l0-.013a.238.238,0,0,0-.047-.262l-.253-.253a2.136,2.136,0,0,1,0-3.017l.5-.5a2.133,2.133,0,0,1,3.017,0l.253.253a.238.238,0,0,0,.262.047l.013,0a.237.237,0,0,0,.151-.218V2.133A2.136,2.136,0,0,1,8.747,0h.711a2.136,2.136,0,0,1,2.133,2.133v.358a.238.238,0,0,0,.151.218l.014.006a.238.238,0,0,0,.26-.047l.253-.253a2.133,2.133,0,0,1,3.017,0l.5.5a2.136,2.136,0,0,1,0,3.017l-.253.253a.238.238,0,0,0-.047.262l0,.013a.238.238,0,0,0,.218.151h.358A2.136,2.136,0,0,1,18.2,8.744Zm0,0" fill="#fff"/>
</svg>
