<svg xmlns="http://www.w3.org/2000/svg" width="17.2" height="17.2" viewBox="0 0 17.2 17.2">
  <g id="_4" data-name="4" transform="translate(0.1 0.1)">
    <path id="Path_22653" data-name="Path 22653" d="M15.173,0H1.826A1.828,1.828,0,0,0,0,1.826V15.174A1.828,1.828,0,0,0,1.826,17H15.173A1.828,1.828,0,0,0,17,15.174V1.826A1.828,1.828,0,0,0,15.173,0ZM1.826,1H15.173a.831.831,0,0,1,.83.83V4.018H1V1.826A.831.831,0,0,1,1.827,1ZM15.173,16H1.826a.831.831,0,0,1-.83-.83V5.014H16v10.16a.831.831,0,0,1-.83.83Zm0,0" fill="#fff" stroke="#fff" stroke-width="0.2"/>
    <path id="Path_22654" data-name="Path 22654" d="M422.055,61.527a.527.527,0,1,1-.527-.527A.527.527,0,0,1,422.055,61.527Zm0,0" transform="translate(-407.199 -58.855)" fill="#fff" stroke="#fff" stroke-width="0.2"/>
    <path id="Path_22655" data-name="Path 22655" d="M362.055,61.527a.527.527,0,1,1-.527-.527A.527.527,0,0,1,362.055,61.527Zm0,0" transform="translate(-349.058 -58.855)" fill="#fff" stroke="#fff" stroke-width="0.2"/>
    <path id="Path_22656" data-name="Path 22656" d="M302.055,61.527a.527.527,0,1,1-.527-.527A.527.527,0,0,1,302.055,61.527Zm0,0" transform="translate(-291.043 -58.855)" fill="#fff" stroke="#fff" stroke-width="0.2"/>
    <path id="Path_22657" data-name="Path 22657" d="M151.527,212.055h6.328a.527.527,0,1,0,0-1.055h-6.328a.528.528,0,0,0,0,1.055Zm0,0" transform="translate(-146.191 -204.02)" fill="#fff" stroke="#fff" stroke-width="0.2"/>
    <path id="Path_22658" data-name="Path 22658" d="M101.119,271H91.482a.53.53,0,0,0,0,1.055h9.638a.53.53,0,0,0,0-1.055Zm0,0" transform="translate(-87.801 -262.035)" fill="#fff" stroke="#fff" stroke-width="0.2"/>
    <path id="Path_22659" data-name="Path 22659" d="M170.746,331h-3.164a1.582,1.582,0,1,0,0,3.164h3.164a1.582,1.582,0,1,0,0-3.164Zm0,2.109h-3.164a.527.527,0,1,1,0-1.055h3.164a.527.527,0,1,1,0,1.055Zm0,0" transform="translate(-160.664 -320.147)" fill="#fff" stroke="#fff" stroke-width="0.2"/>
  </g>
</svg>
