<svg xmlns="http://www.w3.org/2000/svg" width="19.327" height="18.591" viewBox="0 0 19.327 18.591">
  <g id="construction-site" transform="translate(-1.5 -2.785)">
    <g id="Group_1" data-name="Group 1" transform="translate(2 3.285)">
      <path id="Path_5" data-name="Path 5" d="M17.091,3.285H5.239A3.24,3.24,0,0,0,2,6.521V17.64a3.24,3.24,0,0,0,3.239,3.236H17.091a3.24,3.24,0,0,0,3.236-3.236V6.521A3.24,3.24,0,0,0,17.091,3.285ZM19.754,17.64A2.665,2.665,0,0,1,17.091,20.3H5.239A2.668,2.668,0,0,1,2.573,17.64V8.485H19.754Zm0-9.728H2.573V6.521A2.668,2.668,0,0,1,5.239,3.858H17.091a2.665,2.665,0,0,1,2.663,2.663Z" transform="translate(-2 -3.285)" fill="#fff" stroke="#fff" stroke-width="1"/>
      <path id="Path_6" data-name="Path 6" d="M25.548,28.4l-.253-.039a.11.11,0,0,1-.088-.07,3.317,3.317,0,0,0-.2-.47.112.112,0,0,1,.012-.116l.153-.21a.642.642,0,0,0-.063-.829l-.539-.541a.637.637,0,0,0-.83-.063l-.22.162a.11.11,0,0,1-.112.013,3.361,3.361,0,0,0-.46-.189.111.111,0,0,1-.072-.09l-.04-.266a.642.642,0,0,0-.632-.544h-.764a.635.635,0,0,0-.632.543l-.041.267a.111.111,0,0,1-.073.091,3.6,3.6,0,0,0-.456.188.112.112,0,0,1-.115-.012l-.221-.162a.637.637,0,0,0-.83.064l-.539.539a.638.638,0,0,0-.063.832l.154.209a.111.111,0,0,1,.011.114,3.494,3.494,0,0,0-.2.471.11.11,0,0,1-.088.072l-.253.039a.635.635,0,0,0-.544.632V29.8a.639.639,0,0,0,.544.633l.236.036a.114.114,0,0,1,.09.076,3.328,3.328,0,0,0,.2.485.115.115,0,0,1-.011.119l-.138.189a.643.643,0,0,0,.063.831l.539.539a.642.642,0,0,0,.831.063l.18-.133a.114.114,0,0,1,.119-.008,3.392,3.392,0,0,0,.495.205.116.116,0,0,1,.079.092l.033.219a.643.643,0,0,0,.632.543H22.2a.643.643,0,0,0,.632-.544l.033-.22a.114.114,0,0,1,.076-.09,3.433,3.433,0,0,0,.5-.208.112.112,0,0,1,.119.01l.179.132a.635.635,0,0,0,.831-.063l.539-.539a.643.643,0,0,0,.063-.83l-.139-.189a.115.115,0,0,1-.014-.115,3.534,3.534,0,0,0,.2-.491.112.112,0,0,1,.09-.074l.238-.036a.639.639,0,0,0,.541-.633v-.762a.635.635,0,0,0-.543-.632Zm.02,1.394a.117.117,0,0,1-.1.116l-.237.036a.632.632,0,0,0-.509.429,3.026,3.026,0,0,1-.173.42.635.635,0,0,0,.059.658l.14.191a.116.116,0,0,1-.012.15l-.539.539a.114.114,0,0,1-.15.012l-.179-.132a.635.635,0,0,0-.668-.055,2.928,2.928,0,0,1-.422.177.633.633,0,0,0-.431.51l-.033.219a.116.116,0,0,1-.114.1h-.764a.116.116,0,0,1-.114-.1l-.033-.219a.638.638,0,0,0-.432-.511,2.922,2.922,0,0,1-.421-.174.64.64,0,0,0-.669.053l-.179.132a.116.116,0,0,1-.15-.012L18.9,31.8a.116.116,0,0,1-.011-.151l.137-.189a.635.635,0,0,0,.058-.662,2.788,2.788,0,0,1-.167-.412.643.643,0,0,0-.511-.433l-.234-.035a.117.117,0,0,1-.1-.116v-.762a.115.115,0,0,1,.1-.114l.254-.039a.629.629,0,0,0,.5-.422,2.971,2.971,0,0,1,.17-.4.639.639,0,0,0-.057-.662l-.153-.208a.117.117,0,0,1,.011-.152l.539-.539a.118.118,0,0,1,.15-.011l.219.161a.632.632,0,0,0,.657.06,3.1,3.1,0,0,1,.389-.16.631.631,0,0,0,.426-.509l.041-.268a.114.114,0,0,1,.114-.1H22.2a.114.114,0,0,1,.114.1l.041.268a.631.631,0,0,0,.425.508,2.821,2.821,0,0,1,.39.161.632.632,0,0,0,.657-.06l.219-.161a.117.117,0,0,1,.151.011l.541.542a.116.116,0,0,1,.01.15L24.6,27.4a.64.64,0,0,0-.056.665,2.784,2.784,0,0,1,.169.4.63.63,0,0,0,.5.421l.254.039h0a.114.114,0,0,1,.1.114V29.8Z" transform="translate(-12.697 -18.487)" fill="#fff" stroke="#fff" stroke-width="0.2"/>
      <path id="Path_7" data-name="Path 7" d="M28.456,34.468a1.579,1.579,0,1,0,1.58,1.58A1.581,1.581,0,0,0,28.456,34.468Zm0,2.706a1.127,1.127,0,1,1,1.128-1.126A1.128,1.128,0,0,1,28.456,37.174Z" transform="translate(-19.332 -25.117)" fill="#fff"/>
    </g>
  </g>
</svg>
