<svg xmlns="http://www.w3.org/2000/svg" width="24.329" height="16.001" viewBox="0 0 24.329 16.001">
  <g id="Group_32" data-name="Group 32" transform="translate(-28 -878)">
    <g id="Group_25" data-name="Group 25" transform="translate(-5)">
      <path id="_21" data-name="21" d="M3.124,3.532a.622.622,0,0,1,.622-.622h8.5a.625.625,0,1,1,0,1.25h-8.5a.622.622,0,0,1-.625-.628Zm9.747,2.5a.622.622,0,0,0-.622-.622h-8.5a.625.625,0,0,0,0,1.25h8.5a.622.622,0,0,0,.626-.628ZM13.5,0H2.5A2.5,2.5,0,0,0,0,2.5v11A2.5,2.5,0,0,0,2.5,16l11.281-.039a.625.625,0,0,0,0-1.25L2.5,14.75A1.252,1.252,0,0,1,1.25,13.5V2.5A1.252,1.252,0,0,1,2.5,1.251h11A1.252,1.252,0,0,1,14.75,2.5l.031,11.585a.625.625,0,0,0,1.25,0L16,2.5A2.5,2.5,0,0,0,13.5,0Zm0,0" transform="translate(33 878)" fill="#fff"/>
      <path id="_21-2" data-name="21" d="M24.479,9.337a1.875,1.875,0,1,1-2.651,2.652L18.41,8.565a.622.622,0,0,1-.16-.275l-.7-2.523A.622.622,0,0,1,18.336,5l2.46.748a.622.622,0,0,1,.26.156ZM19.412,7.8l2.3,2.3.884-.884L20.283,6.9,19.06,6.532ZM23.6,10.221l-.12-.121-.884.884.121.121a.625.625,0,0,0,.884-.884Z" transform="translate(43.146 867.437) rotate(45)" fill="#fff"/>
    </g>
    <path id="Path_54" data-name="Path 54" d="M27.552,886.917h5.465" transform="translate(4.412)" fill="none" stroke="#fff" stroke-linecap="round" stroke-width="1.2"/>
  </g>
</svg>
