<svg xmlns="http://www.w3.org/2000/svg" width="14.347" height="18.7" viewBox="0 0 14.347 18.7">
  <g id="Group_3" data-name="Group 3" transform="translate(-33.612 -695.75)">
    <path id="Path_43" data-name="Path 43" d="M44.679,6.92a.392.392,0,0,0-.019-.1.1.1,0,0,0-.014-.038.376.376,0,0,0-.075-.111h0L38.01.113A.385.385,0,0,0,37.9.037L37.866.025a.361.361,0,0,0-.1-.02.058.058,0,0,0-.027,0H33.4a2.567,2.567,0,0,0-2.564,2.564V15.641A2.567,2.567,0,0,0,33.4,18.2h8.718a2.567,2.567,0,0,0,2.564-2.564v-8.7S44.68,6.929,44.679,6.92ZM38.123,1.312l5.249,5.249L40.339,6.02a1.8,1.8,0,0,1-1.795-1.8Zm4,16.123H33.4a1.8,1.8,0,0,1-1.8-1.8V2.564A1.8,1.8,0,0,1,33.4.769h3.951l.422,3.456a2.567,2.567,0,0,0,2.564,2.564l3.577.542v8.31a1.8,1.8,0,0,1-1.793,1.8Z" transform="translate(3.026 696)" fill="#fff" stroke="#fff" stroke-width="0.5"/>
    <path id="Path_44" data-name="Path 44" d="M7.81,5.915a4.558,4.558,0,0,0-1.738-1.09,2.645,2.645,0,1,0-2.993,0A4.582,4.582,0,0,0,0,9.15H.715a3.86,3.86,0,0,1,7.721,0H9.15A4.545,4.545,0,0,0,7.81,5.915ZM4.575,4.575A1.93,1.93,0,1,1,6.5,2.645a1.93,1.93,0,0,1-1.93,1.93Z" transform="translate(36.212 704.618)" fill="#fff" stroke="#fff" stroke-width="0.3"/>
  </g>
</svg>
