<svg xmlns="http://www.w3.org/2000/svg" width="10.117" height="12" viewBox="0 0 10.117 12">
  <g id="shield_1_" data-name="shield (1)" transform="translate(-40.168)">
    <g id="Group_13038" data-name="Group 13038" transform="translate(40.168 0)">
      <path id="Path_22737" data-name="Path 22737" d="M50.035,1.427,45.328.015a.351.351,0,0,0-.2,0L40.419,1.427a.352.352,0,0,0-.251.337V6.941a3.344,3.344,0,0,0,.81,2.049,8.377,8.377,0,0,0,1.689,1.564,15.149,15.149,0,0,0,2.416,1.415.351.351,0,0,0,.287,0,15.15,15.15,0,0,0,2.416-1.415A8.378,8.378,0,0,0,49.475,8.99a3.344,3.344,0,0,0,.81-2.049V1.764A.351.351,0,0,0,50.035,1.427Z" transform="translate(-40.168 0)" fill="#696969"/>
    </g>
  </g>
</svg>
