<svg id="Group_13006" data-name="Group 13006" xmlns="http://www.w3.org/2000/svg" width="23.89" height="17.917" viewBox="0 0 23.89 17.917">
  <path id="Path_22727" data-name="Path 22727" d="M22.4,68.977h-.5V65.991a1.991,1.991,0,0,0-3.982,0v.5a.5.5,0,0,0,.5.5h0a.5.5,0,0,0,.5-.5v-.5a1,1,0,0,1,1.991,0v2.986H1.493A1.489,1.489,0,0,0,1,71.872v1.585A6.466,6.466,0,0,0,3.982,78.9v2.52a.5.5,0,0,0,.5.5h1a.5.5,0,0,0,.445-.275L6.8,79.892a6.52,6.52,0,0,0,.67.035h8.959a6.5,6.5,0,0,0,.67-.035l.876,1.751a.5.5,0,0,0,.445.275h1a.5.5,0,0,0,.5-.5V78.9a6.466,6.466,0,0,0,2.986-5.443V71.872a1.489,1.489,0,0,0-.5-2.895Zm-16.424,1H10.95V74.86L5.972,74.03ZM1,70.47a.5.5,0,0,1,.5-.5H4.977v1H1.493A.5.5,0,0,1,1,70.47ZM5.167,80.922h-.19V79.427a6.419,6.419,0,0,0,.8.269Zm13.746,0h-.19L18.11,79.7a6.433,6.433,0,0,0,.8-.269ZM21.9,73.456a5.481,5.481,0,0,1-5.475,5.475H7.466a5.481,5.481,0,0,1-5.475-5.475V71.963H4.977v2.489a.5.5,0,0,0,.416.491l5.972,1a.514.514,0,0,0,.082.007.5.5,0,0,0,.5-.5V71.963H21.9v1.493Zm.5-2.489H11.945v-1H22.4a.5.5,0,1,1,0,1Z" transform="translate(0 -64)" fill="#282828"/>
</svg>
