<svg xmlns="http://www.w3.org/2000/svg" width="23.791" height="15.861" viewBox="0 0 23.791 15.861">
  <g id="hotel-bed" transform="translate(-3 -10)">
    <path id="Path_22725" data-name="Path 22725" d="M23.392,13.4H13.2a.568.568,0,0,0-.566.566V18.5h-6.8v-7.93A.568.568,0,0,0,5.266,10h-1.7A.568.568,0,0,0,3,10.566V25.294a.568.568,0,0,0,.566.566h1.7a.568.568,0,0,0,.566-.566V22.462H23.959v2.832a.568.568,0,0,0,.566.566h1.7a.568.568,0,0,0,.566-.566V16.8A3.4,3.4,0,0,0,23.392,13.4ZM12.63,21.329H5.266A.568.568,0,0,0,4.7,21.9v2.832H4.133V11.133H4.7v7.93a.568.568,0,0,0,.566.566H12.63Zm13.028,3.4h-.566V21.9a.568.568,0,0,0-.566-.566H13.763v-6.8h9.63A2.265,2.265,0,0,1,25.658,16.8Z" transform="translate(0)" fill="#282828"/>
    <path id="Path_22726" data-name="Path 22726" d="M9,16.832A2.832,2.832,0,1,0,11.832,14,2.833,2.833,0,0,0,9,16.832Zm4.532,0a1.7,1.7,0,1,1-1.7-1.7A1.7,1.7,0,0,1,13.532,16.832Z" transform="translate(-2.601 -1.734)" fill="#282828"/>
  </g>
</svg>
