<svg xmlns="http://www.w3.org/2000/svg" width="18.825" height="16.262" viewBox="0 0 18.825 16.262">
  <g id="Group_13005" data-name="Group 13005" transform="translate(0 -46)">
    <path id="Path_22580" data-name="Path 22580" d="M16.684,42.007V36.773a1.932,1.932,0,0,0-1.93-1.93H4.071a1.932,1.932,0,0,0-1.93,1.93v5.234A2.8,2.8,0,0,0,0,44.723v3.9a.561.561,0,0,0,.561.561h1.58v1.356a.561.561,0,0,0,1.122,0V49.188h12.3v1.356a.561.561,0,0,0,1.122,0V49.188h1.58a.561.561,0,0,0,.561-.561v-3.9A2.8,2.8,0,0,0,16.684,42.007ZM3.262,36.773a.81.81,0,0,1,.809-.809H14.754a.81.81,0,0,1,.809.809v5.156H13.709v-.885a2.661,2.661,0,0,0-2.658-2.658H7.774a2.661,2.661,0,0,0-2.658,2.658v.885H3.262Zm9.325,4.271v.885H6.237v-.885a1.539,1.539,0,0,1,1.537-1.537h3.277A1.539,1.539,0,0,1,12.587,41.045ZM1.122,48.067V44.723a1.674,1.674,0,0,1,1.672-1.672H16.031A1.674,1.674,0,0,1,17.7,44.723v3.343Z" transform="translate(0 11.157)" fill="#282828"/>
  </g>
</svg>
