<svg id="calendar" xmlns="http://www.w3.org/2000/svg" width="17.736" height="17.736" viewBox="0 0 17.736 17.736">
  <path id="Path_22770" data-name="Path 22770" d="M15.45,1.386H13.857V.554a.554.554,0,0,0-1.109,0v.831H4.988V.554a.554.554,0,0,0-1.109,0v.831H2.286A2.289,2.289,0,0,0,0,3.672V15.45a2.289,2.289,0,0,0,2.286,2.286H15.45a2.289,2.289,0,0,0,2.286-2.286V3.672A2.289,2.289,0,0,0,15.45,1.386ZM2.286,2.494H3.88v.554a.554.554,0,0,0,1.109,0V2.494h7.76v.554a.554.554,0,0,0,1.109,0V2.494H15.45a1.179,1.179,0,0,1,1.178,1.178V4.988H1.109V3.672A1.179,1.179,0,0,1,2.286,2.494ZM15.45,16.628H2.286A1.179,1.179,0,0,1,1.109,15.45V6.1H16.628V15.45A1.179,1.179,0,0,1,15.45,16.628Z" fill="#858585"/>
</svg>
