<svg xmlns="http://www.w3.org/2000/svg" width="20.859" height="18.893" viewBox="0 0 20.859 18.893">
  <g id="credit-card" transform="translate(0 -24.066)">
    <path id="Path_22766" data-name="Path 22766" d="M20.825,34.9l-1.583-8.98a2.25,2.25,0,0,0-2.6-1.823L3.058,26.495a2.249,2.249,0,0,0-1.823,2.6l.116.66A2.25,2.25,0,0,0,0,31.818v8.894a2.249,2.249,0,0,0,2.247,2.247H15.728a2.249,2.249,0,0,0,2.247-2.247V37.687L19,37.505a2.247,2.247,0,0,0,1.823-2.6Zm-1.376.976a1.015,1.015,0,0,1-.659.42l-.814.144V31.818a2.249,2.249,0,0,0-2.247-2.247H2.563l-.121-.686A1.021,1.021,0,0,1,3.271,27.7l13.58-2.395a1.021,1.021,0,0,1,1.183.828l1.583,8.98A1.015,1.015,0,0,1,19.448,35.878Zm-3.721,5.855H2.247a1.022,1.022,0,0,1-1.021-1.021V36.356H16.749v4.356a1.022,1.022,0,0,1-1.021,1.021ZM2.247,30.8H15.728a1.022,1.022,0,0,1,1.021,1.021v.533H1.226v-.533A1.022,1.022,0,0,1,2.247,30.8Zm14.5,2.78v1.554H1.226V33.576Z" transform="translate(0 0)" fill="#858585"/>
    <path id="Path_22767" data-name="Path 22767" d="M64.695,396.305h-2.78a.613.613,0,1,0,0,1.226h2.78a.613.613,0,0,0,0-1.226Z" transform="translate(-58.798 -357.033)" fill="#858585"/>
  </g>
</svg>
