<svg xmlns="http://www.w3.org/2000/svg" width="16.508" height="16.508" viewBox="0 0 16.508 16.508">
  <path id="night-mode_1_" data-name="night-mode (1)" d="M16.836,10.982a.533.533,0,0,0-.556-.125A7.157,7.157,0,0,1,7.136,1.712a.533.533,0,0,0-.68-.681A8.112,8.112,0,0,0,3.4,2.962,8.223,8.223,0,1,0,15.031,14.591a8.112,8.112,0,0,0,1.932-3.054.533.533,0,0,0-.126-.555Zm-2.559,2.855A7.157,7.157,0,1,1,5.821,2.474a8.216,8.216,0,0,0,9.7,9.7,7.122,7.122,0,0,1-1.24,1.667Z" transform="translate(-0.743 -0.742)" fill="#1e1c1c" stroke="#1e1c1c" stroke-width="0.5"/>
</svg>
