<svg xmlns="http://www.w3.org/2000/svg" width="44" height="44" viewBox="0 0 44 44">
  <g id="Group_38584" data-name="Group 38584" transform="translate(-643 -97)">
    <g id="Group_12121" data-name="Group 12121">
      <g id="Rectangle_1354" data-name="Rectangle 1354" transform="translate(643 97)" fill="rgba(243,243,243,0.34)" stroke="rgba(211,211,211,0.18)" stroke-width="1">
        <rect width="44" height="44" rx="22" stroke="none"/>
        <rect x="0.5" y="0.5" width="43" height="43" rx="21.5" fill="none"/>
      </g>
      <path id="night-mode_1_" data-name="night-mode (1)" d="M24.758,15.973a.8.8,0,0,0-.833-.187A10.736,10.736,0,0,1,10.207,2.068.8.8,0,0,0,9.186,1.046a12.168,12.168,0,0,0-4.581,2.9A12.335,12.335,0,1,0,22.05,21.387a12.168,12.168,0,0,0,2.9-4.581.8.8,0,0,0-.19-.833Zm-3.839,4.283A10.735,10.735,0,1,1,8.235,3.211,12.408,12.408,0,0,0,11.594,14.4a12.405,12.405,0,0,0,11.185,3.359A10.683,10.683,0,0,1,20.919,20.256Z" transform="translate(652.507 106.5)" fill="#f7f7f7" stroke="#f1f1f1" stroke-width="0.5"/>
    </g>
  </g>
</svg>
