<svg id="Layer_1" enable-background="new 0 0 511.999 511.999" height="512" viewBox="0 0 511.999 511.999" width="512" xmlns="http://www.w3.org/2000/svg"><path d="m500.074 322.562c-4.799-3.98-11.561-4.577-16.982-1.5-5.286 3.001-10.796 5.694-16.38 8.005-17.825 7.385-36.554 11.129-55.667 11.129-59.138 0-111.973-35.304-134.604-89.94-14.886-35.938-14.886-75.521 0-111.458s42.875-63.927 78.809-78.812c5.606-2.32 11.408-4.312 17.243-5.92 6.012-1.656 10.372-6.859 10.95-13.068.579-6.209-2.744-12.128-8.345-14.867-34.957-17.096-73.907-26.131-112.641-26.131-33.607 0-66.518 6.573-97.819 19.537-63.16 26.163-112.352 75.355-138.514 138.515-26.163 63.16-26.163 132.728 0 195.887 19.753 47.688 52.929 87.8 95.941 115.998 41.973 27.518 90.596 42.063 140.612 42.063 33.617 0 66.538-6.576 97.848-19.546 67.776-28.073 120.321-84.014 144.16-153.478 2.024-5.898.188-12.433-4.611-16.414zm-151.031 142.174c-27.652 11.455-56.71 17.263-86.367 17.263-91.751 0-173.724-54.773-208.837-139.541-23.095-55.756-23.095-117.169 0-172.926s66.522-99.182 122.279-122.278c27.643-11.449 56.692-17.254 86.339-17.254 22.082 0 44.25 3.329 65.498 9.754-78.547 42.063-114.032 137.963-79.23 221.981 13.555 32.726 36.321 60.251 65.836 79.602 28.797 18.879 62.161 28.858 96.484 28.858 17.248 0 34.229-2.522 50.675-7.513-24.494 45.694-64.166 81.962-112.677 102.054z"/></svg>