<?xml version="1.0" encoding="utf-8"?>
<!-- Generator: Adobe Illustrator 27.0.1, SVG Export Plug-In . SVG Version: 6.00 Build 0)  -->
<svg version="1.1" id="Layer_1" xmlns="http://www.w3.org/2000/svg" xmlns:xlink="http://www.w3.org/1999/xlink" x="0px" y="0px"
	 viewBox="0 0 16.5 16.5" style="enable-background:new 0 0 16.5 16.5;" xml:space="preserve">
<style type="text/css">
	.st0{fill:#FFFFFF;stroke:#FFFFFF;stroke-width:0.5;}
</style>
<path id="night-mode_1_" class="st0" d="M16.1,10.2c-0.1-0.1-0.4-0.2-0.6-0.1c-3.7,1.3-7.8-0.6-9.1-4.3C5.8,4.2,5.8,2.5,6.4,1
	c0.1-0.3,0-0.6-0.3-0.7c-0.1,0-0.2,0-0.4,0C4.6,0.7,3.5,1.4,2.7,2.2c-3.2,3.2-3.2,8.4,0,11.6s8.4,3.2,11.6,0
	c0.9-0.9,1.5-1.9,1.9-3.1C16.3,10.6,16.2,10.4,16.1,10.2L16.1,10.2z M13.5,13.1c-2.8,2.8-7.3,2.8-10.1,0S0.6,5.8,3.4,3
	c0.5-0.5,1-0.9,1.7-1.2c-0.9,4.4,2,8.8,6.4,9.7c1.1,0.2,2.2,0.2,3.3,0C14.4,12,14,12.6,13.5,13.1L13.5,13.1z"/>
</svg>
