<svg xmlns="http://www.w3.org/2000/svg" width="78.133" height="78.132" viewBox="0 0 78.133 78.132">
  <g id="_9-Home" data-name="9-Home" transform="translate(-2.496 -1.994)">
    <path id="Path_30652" data-name="Path 30652" d="M57.3,80.116H24.825a13.947,13.947,0,0,1-14.45-13.278V49.432a2.789,2.789,0,0,1,5.579,0V66.838a8.368,8.368,0,0,0,8.871,7.7H57.3a8.368,8.368,0,0,0,8.871-7.7V49.432a2.789,2.789,0,1,1,5.579,0V66.838A13.947,13.947,0,0,1,57.3,80.116ZM79.3,43.044a2.789,2.789,0,0,0,0-3.961L43.041,2.819a2.789,2.789,0,0,0-3.961,0L2.816,39.083a2.8,2.8,0,0,0,3.961,3.961L41.06,8.733,75.343,43.044a2.789,2.789,0,0,0,3.961,0Z" transform="translate(0.5 0)" fill="#e2e2e2"/>
    <path id="heart" d="M11.1,53.788a.649.649,0,0,1-.328-.087,38.827,38.827,0,0,1-5.334-3.84,22.014,22.014,0,0,1-3.7-3.966A8.367,8.367,0,0,1,0,41.135a6.871,6.871,0,0,1,1.748-4.6A5.745,5.745,0,0,1,6.03,34.594,5.935,5.935,0,0,1,11.1,37.6a5.935,5.935,0,0,1,5.071-3.005,5.778,5.778,0,0,1,4.112,1.748,6.773,6.773,0,0,1,1.918,4.8,8.529,8.529,0,0,1-1.765,4.752,22.3,22.3,0,0,1-3.7,3.965,38.958,38.958,0,0,1-5.308,3.84.656.656,0,0,1-.328.088Z" transform="translate(30.457 3.504)" fill="#e2e2e2"/>
  </g>
</svg>
