<svg xmlns="http://www.w3.org/2000/svg" width="21" height="21" viewBox="0 0 21 21">
  <g id="Layer_22" data-name="Layer 22" transform="translate(-2.001 -2)">
    <path id="Path_30666" data-name="Path 30666" d="M19.925,19.925a10.5,10.5,0,1,1,0-14.85,10.5,10.5,0,0,1,0,14.85ZM18.868,6.132a9,9,0,1,0,2.647,6.375,9,9,0,0,0-2.647-6.375Z" transform="translate(0 0)" fill="#EE5F1E"/>
    <g id="bin" transform="translate(-28.547 6.626)">
      <path id="Path_30679" data-name="Path 30679" d="M45.638,1.836H43.343V1.377A1.378,1.378,0,0,0,41.966,0H40.13a1.378,1.378,0,0,0-1.377,1.377v.459H36.459a.459.459,0,0,0,0,.918.459.459,0,0,1,.459.459v7.159a1.378,1.378,0,0,0,1.377,1.377H43.8a1.378,1.378,0,0,0,1.377-1.377V3.213a.459.459,0,0,1,.459-.459.459.459,0,1,0,0-.918Zm-5.966-.459A.459.459,0,0,1,40.13.918h1.836a.459.459,0,0,1,.459.459v.459H39.672Zm4.589,1.836v7.159a.459.459,0,0,1-.459.459H38.295a.459.459,0,0,1-.459-.459V3.213a1.37,1.37,0,0,0-.079-.459H44.34A1.37,1.37,0,0,0,44.261,3.213Z" fill="#EE5F1E" stroke="#EE5F1E" stroke-width="0.3"/>
      <path id="Path_30680" data-name="Path 30680" d="M156.459,160a.459.459,0,0,0-.459.459v5.324a.459.459,0,1,0,.918,0v-5.324A.459.459,0,0,0,156.459,160Z" transform="translate(-117.246 -156.328)" fill="#EE5F1E"/>
      <path id="Path_30681" data-name="Path 30681" d="M236.459,160a.459.459,0,0,0-.459.459v5.324a.459.459,0,1,0,.918,0v-5.324A.459.459,0,0,0,236.459,160Z" transform="translate(-195.411 -156.328)" fill="#EE5F1E"/>
      <path id="Path_30682" data-name="Path 30682" d="M316,160.459v5.324a.459.459,0,0,0,.918,0v-5.324a.459.459,0,0,0-.918,0Z" transform="translate(-273.575 -156.328)" fill="#EE5F1E"/>
    </g>
  </g>
</svg>
