<svg xmlns="http://www.w3.org/2000/svg" width="16.582" height="19" viewBox="0 0 16.582 19">
  <g id="Layer_1" transform="translate(0)">
    <g id="Group_12420" data-name="Group 12420" transform="translate(0 0)">
      <path id="Path_22562" data-name="Path 22562" d="M19.191,20.041a.691.691,0,0,0,.691-.691V12.441a.691.691,0,0,0-1.382,0V19.35A.691.691,0,0,0,19.191,20.041Z" transform="translate(-8.482 -5.186)" fill="#1483FF"/>
      <path id="Path_22563" data-name="Path 22563" d="M12.191,20.041a.691.691,0,0,0,.691-.691V12.441a.691.691,0,0,0-1.382,0V19.35A.691.691,0,0,0,12.191,20.041Z" transform="translate(-6.318 -5.186)" fill="#1483FF"/>
      <path id="Path_22564" data-name="Path 22564" d="M17.218,3.632a.691.691,0,0,0,0-1.382H11.691a.691.691,0,1,0,0,1.382Z" transform="translate(-6.164 -2.25)" fill="#1483FF"/>
      <path id="Path_22565" data-name="Path 22565" d="M4.691,5.25a.691.691,0,0,0,0,1.382h.691V19.345a2.837,2.837,0,0,0,2.833,2.833h8.153A2.837,2.837,0,0,0,19.2,19.345V6.632h.691a.691.691,0,0,0,0-1.382H4.691ZM17.818,6.632V19.345A1.451,1.451,0,0,1,16.367,20.8H8.215a1.451,1.451,0,0,1-1.451-1.451V6.632Z" transform="translate(-4 -3.177)" fill="#1483FF"/>
    </g>
  </g>
</svg>
