<svg xmlns="http://www.w3.org/2000/svg" xmlns:xlink="http://www.w3.org/1999/xlink" width="40.8" height="34.8" viewBox="0 0 40.8 34.8">
  <defs>
    <clipPath id="clip">
      <use xlink:href="#fill"/>
    </clipPath>
    <clipPath id="clip-2">
      <use xlink:href="#fill-2"/>
    </clipPath>
    <clipPath id="clip-3">
      <use xlink:href="#fill-3"/>
    </clipPath>
  </defs>
  <g id="Group_38851" data-name="Group 38851" transform="translate(1 1)">
    <rect id="Rectangle_1937" data-name="Rectangle 1937" width="32" height="32" rx="5.2" fill="#fff" stroke="#282828" stroke-width="2"/>
    <circle id="Ellipse_443" data-name="Ellipse 443" cx="7" cy="7" r="7" transform="translate(25 19)" fill="#fff" stroke="#282828" stroke-width="1.6"/>
    <path id="Path_29838" data-name="Path 29838" d="M301.492,264.615a.938.938,0,0,0-.242-.161.786.786,0,0,0-.242-.054h-.054a.786.786,0,0,0-.242.054.635.635,0,0,0-.242.161l-1.668,1.668a.723.723,0,0,0,1.022,1.022l.43-.43v2.959a.726.726,0,0,0,1.453,0v-2.959l.43.43a.723.723,0,1,0,1.022-1.022Z" transform="translate(-268.981 -241.48)" fill="#282828"/>
    <g id="docs" transform="translate(-61.665 6.932)">
      <path id="Path_22524" data-name="Path 22524" d="M84.107,5.107V17.448a1.2,1.2,0,0,1-1.2,1.2H71.8a1.2,1.2,0,0,1-1.2-1.2V1.2A1.2,1.2,0,0,1,71.8,0H79Z" transform="translate(0 0.055)" fill="none" stroke="#282828" stroke-width="1.7"/>
      <path id="Path_22530" data-name="Path 22530" d="M307.553,6.353H302.7a1.5,1.5,0,0,1-1.5-1.5V0Z" transform="translate(-222.824 -0.568)" fill="#282828"/>
      <g id="Rectangle_1938" data-name="Rectangle 1938" transform="translate(73.263 9.38)" fill="#fff" stroke="#282828" stroke-width="1.5">
        <rect id="fill" width="8.182" height="1.227" rx="0.614" stroke="none"/>
        <path d="M0,0.4772305488586426h8.181536674499512M7.431536674499512,0v1.2272305488586426M8.181536674499512,0.75h-8.181536674499512M0.75,1.2272305488586426v-1.2272305488586426" fill="none" clip-path="url(#clip)"/>
      </g>
      <g id="Rectangle_1939" data-name="Rectangle 1939" transform="translate(73.263 11.425)" fill="#fff" stroke="#282828" stroke-width="1.5">
        <rect id="fill-2" width="8.182" height="1.227" rx="0.614" stroke="none"/>
        <path d="M0,0.4772305488586426h8.181536674499512M7.431536674499512,0v1.2272305488586426M8.181536674499512,0.75h-8.181536674499512M0.75,1.2272305488586426v-1.2272305488586426" fill="none" clip-path="url(#clip-2)"/>
      </g>
      <g id="Rectangle_1940" data-name="Rectangle 1940" transform="translate(73.263 13.471)" fill="#fff" stroke="#282828" stroke-width="1.5">
        <rect id="fill-3" width="5.113" height="1.227" rx="0.614" stroke="none"/>
        <path d="M0,0.4772305488586426h5.113460540771484M4.363460540771484,0v1.2272305488586426M5.113460540771484,0.75h-5.113460540771484M0.75,1.2272305488586426v-1.2272305488586426" fill="none" clip-path="url(#clip-3)"/>
      </g>
    </g>
  </g>
</svg>
