<svg xmlns="http://www.w3.org/2000/svg" width="13" height="13" viewBox="0 0 13 13">
  <path id="Path_29836" data-name="Path 29836" d="M6.5,0A6.5,6.5,0,1,0,13,6.5,6.5,6.5,0,0,0,6.5,0ZM7.852,10.073q-.5.2-.8.3a2.112,2.112,0,0,1-.695.1,1.384,1.384,0,0,1-.94-.3.957.957,0,0,1-.337-.752A2.732,2.732,0,0,1,5.1,9.068c.017-.123.044-.262.081-.417L5.6,7.171c.037-.142.069-.276.094-.4a1.786,1.786,0,0,0,.038-.348.536.536,0,0,0-.117-.395.658.658,0,0,0-.448-.111,1.174,1.174,0,0,0-.333.05c-.113.035-.211.066-.291.094L4.658,5.6q.411-.167.787-.282a2.324,2.324,0,0,1,.71-.12,1.358,1.358,0,0,1,.931.291.968.968,0,0,1,.327.757q0,.094-.023.339a2.272,2.272,0,0,1-.084.447l-.42,1.473c-.034.118-.064.254-.094.405a2.141,2.141,0,0,0-.04.344.5.5,0,0,0,.132.4.736.736,0,0,0,.455.107,1.316,1.316,0,0,0,.344-.054,1.959,1.959,0,0,0,.282-.094ZM7.779,4.087a.994.994,0,0,1-.7.271,1,1,0,0,1-.7-.271.885.885,0,0,1,0-1.316,1,1,0,0,1,.7-.274.986.986,0,0,1,.7.274.887.887,0,0,1,0,1.316Z" transform="translate(0.001)" fill="#282828"/>
</svg>
