<svg xmlns="http://www.w3.org/2000/svg" width="19.3" height="19.389" viewBox="0 0 19.3 19.389">
  <g id="editing" transform="translate(0.15 0.238)">
    <path id="Path_22531" data-name="Path 22531" d="M15.4,87.18a.557.557,0,0,0-.557.557V95.9a.929.929,0,0,1-.928.928H2.041a.929.929,0,0,1-.928-.928V84.025a.929.929,0,0,1,.928-.928h8.164a.557.557,0,1,0,0-1.113H2.041A2.043,2.043,0,0,0,0,84.025V95.9a2.043,2.043,0,0,0,2.041,2.041H13.917A2.043,2.043,0,0,0,15.958,95.9V87.736A.557.557,0,0,0,15.4,87.18Z" transform="translate(0 -78.941)" fill="#1483FF" stroke="#1483FF" stroke-width="0.3"/>
    <path id="Path_22532" data-name="Path 22532" d="M191.128,1.43,190.079.38a1.3,1.3,0,0,0-1.837,0l-8.4,8.4a.557.557,0,0,0-.152.284l-.525,2.624a.557.557,0,0,0,.655.655l2.624-.525a.557.557,0,0,0,.284-.152l8.4-8.4h0a1.3,1.3,0,0,0,0-1.837Zm-9.065,9.328-1.64.328.328-1.64,6.835-6.835L188.9,3.923Zm8.278-8.278-.656.656-1.312-1.312.656-.656a.186.186,0,0,1,.262,0l1.05,1.05A.186.186,0,0,1,190.341,2.48Z" transform="translate(-172.508)" fill="#1483FF" stroke="#1483FF" stroke-width="0.3"/>
  </g>
</svg>
