<svg xmlns="http://www.w3.org/2000/svg" width="20.107" height="20.1" viewBox="0 0 20.107 20.1">
  <g id="thumbs" transform="translate(0.55 0.55)">
    <g id="Group_38651" data-name="Group 38651" transform="translate(0 5.542)">
      <g id="Group_38650" data-name="Group 38650">
        <path id="Path_30732" data-name="Path 30732" d="M3.563,20.459H1.188A1.189,1.189,0,0,1,0,19.271V8.188A1.189,1.189,0,0,1,1.188,7H3.563A1.189,1.189,0,0,1,4.75,8.188V19.271A1.189,1.189,0,0,1,3.563,20.459ZM1.188,7.792a.4.4,0,0,0-.4.4V19.271a.4.4,0,0,0,.4.4H3.563a.4.4,0,0,0,.4-.4V8.188a.4.4,0,0,0-.4-.4Z" transform="translate(0 -7)" fill="#282828" stroke="#282828" stroke-width="1.1"/>
      </g>
    </g>
    <g id="Group_38653" data-name="Group 38653" transform="translate(3.958 0)">
      <g id="Group_38652" data-name="Group 38652">
        <path id="Path_30733" data-name="Path 30733" d="M15.555,19H14.1c-6,0-8.822-1.969-8.939-2.053a.4.4,0,0,1,.459-.645c.028.02,2.764,1.906,8.48,1.906h1.451a2.762,2.762,0,0,0,2.733-2.315l.924-5.542a2.771,2.771,0,0,0-2.734-3.227H11.729a.4.4,0,0,1-.33-.614,5.792,5.792,0,0,0,.726-2.948c0-2.192-1.036-2.771-1.583-2.771-.39,0-.792,0-.792,1.979,0,2.981-4.007,5.018-4.177,5.1a.4.4,0,0,1-.355-.708c.037-.019,3.74-1.9,3.74-4.4C8.958,1.06,9.223,0,10.542,0c.822,0,2.375.744,2.375,3.563a7.079,7.079,0,0,1-.542,2.771h4.1a3.562,3.562,0,0,1,3.514,4.148l-.924,5.542A3.551,3.551,0,0,1,15.555,19Z" transform="translate(-5 0)" fill="#282828" stroke="#282828" stroke-width="1.1"/>
      </g>
    </g>
  </g>
</svg>
