<svg xmlns="http://www.w3.org/2000/svg" width="19.257" height="19.659" viewBox="0 0 19.257 19.659">
  <g id="pen" transform="translate(-4.909 -3.841)">
    <path id="Path_30734" data-name="Path 30734" d="M24.155,5.3a.49.49,0,0,0-.336-.3,20.5,20.5,0,0,0-4.5-.5,8.285,8.285,0,0,0-3.9,1.072V4.987a.479.479,0,0,0-.258-.429.5.5,0,0,0-.5.024L13.2,5.557a11,11,0,0,0-2.508,2.708l-.17-.507a.489.489,0,0,0-.682-.282c-.19.1-1.218.77-2.674,4.647a14.922,14.922,0,0,0-.5,8.08.41.41,0,0,0,.029.068c.1-.2.65.336.728.248,0,0,.818-3.15,4.514-7.3A34.721,34.721,0,0,1,19.1,6.984C19.232,6.92,9.271,13.19,7.8,20.349a.543.543,0,0,1-.122.17,14.551,14.551,0,0,0,4.062-1.456A13.626,13.626,0,0,0,16.3,15.512a.493.493,0,0,0,.093-.375.485.485,0,0,0-.209-.321l-.633-.424,1.977-.658a12.364,12.364,0,0,0,3.6-2.552.5.5,0,0,0,.127-.472.479.479,0,0,0-.351-.341l-.882-.219.545-.365a18.672,18.672,0,0,0,3.546-4.033A.487.487,0,0,0,24.16,5.3Z" transform="translate(-0.684 0)" fill="none" stroke="#282828" stroke-width="1.3"/>
    <path id="Path_30735" data-name="Path 30735" d="M22.036,34.52a13.07,13.07,0,0,0-3.56,1.529,3.9,3.9,0,0,1-4.383.458c-2.2-1.1-4.8.94-4.9,1.028a.493.493,0,0,0-.078.687.487.487,0,0,0,.38.185.468.468,0,0,0,.3-.107c.024-.019,2.211-1.744,3.862-.921a4.877,4.877,0,0,0,5.358-.516A12.141,12.141,0,0,1,22.27,35.47a.487.487,0,1,0-.234-.945Z" transform="translate(-2.057 -15.394)" fill="#282828" stroke="#282828" stroke-width="0.2"/>
    <path id="Path_30736" data-name="Path 30736" d="M5.893,37.43c-.166.39-.375.95-.667,1.758-.093.253-.161.448-.195.526a.491.491,0,0,0,.263.638.526.526,0,0,0,.185.039.483.483,0,0,0,.448-.3c.034-.088.112-.3.209-.57.146-.409.492-1.359.706-1.841a2.912,2.912,0,0,1-.395.034.733.733,0,0,1-.565-.278Z" transform="translate(0 -16.891)" fill="#282828"/>
  </g>
</svg>
