<svg xmlns="http://www.w3.org/2000/svg" width="19.509" height="17.155" viewBox="0 0 19.509 17.155">
  <g id="gallery" transform="translate(0.25 -26.323)">
    <g id="Group_38649" data-name="Group 38649" transform="translate(0 26.576)">
      <g id="Group_38648" data-name="Group 38648" transform="translate(0 0)">
        <path id="Path_30730" data-name="Path 30730" d="M175.927,159.668a1.938,1.938,0,1,0,1.938,1.938A1.938,1.938,0,0,0,175.927,159.668Zm0,2.953a1.015,1.015,0,0,1,0-2.03h0a1.015,1.015,0,1,1,0,2.03Z" transform="translate(-166.305 -153.79)" fill="#282828" stroke="#282828" stroke-width="0.5"/>
        <path id="Path_30731" data-name="Path 30731" d="M17.351,28.023l-12.6-1.43a1.73,1.73,0,0,0-1.361.392,1.753,1.753,0,0,0-.669,1.2l-.231,1.892H1.777A1.854,1.854,0,0,0,0,31.992v9.437a1.754,1.754,0,0,0,1.707,1.8H14.444a1.894,1.894,0,0,0,1.938-1.8v-.369a2.307,2.307,0,0,0,.877-.369,1.915,1.915,0,0,0,.669-1.246l1.061-9.367A1.869,1.869,0,0,0,17.351,28.023ZM15.459,41.429a.971.971,0,0,1-1.015.877H1.777A.831.831,0,0,1,.922,41.5q0-.035,0-.071V39.721L4.5,37.091a1.108,1.108,0,0,1,1.431.069l2.515,2.215a2.169,2.169,0,0,0,1.361.508,2.1,2.1,0,0,0,1.108-.3l4.545-2.63v4.476Zm0-5.56-5.03,2.93a1.177,1.177,0,0,1-1.361-.115L6.53,36.445a2.054,2.054,0,0,0-2.561-.092L.923,38.568V31.992A.931.931,0,0,1,1.777,31H14.444a1.061,1.061,0,0,1,1.015.992v3.876Zm2.608-5.916v.009l-1.084,9.367a.784.784,0,0,1-.3.623c-.092.092-.3.138-.3.185V31.992a1.984,1.984,0,0,0-1.938-1.915H3.415l.208-1.8a1.061,1.061,0,0,1,.346-.6,1.061,1.061,0,0,1,.692-.185l12.575,1.454A.923.923,0,0,1,18.067,29.952Z" transform="translate(0 -26.576)" fill="#282828" stroke="#282828" stroke-width="0.5"/>
      </g>
    </g>
  </g>
</svg>
