<svg xmlns="http://www.w3.org/2000/svg" width="16.621" height="13.6" viewBox="0 0 16.621 13.6">
  <g id="Layer_24" data-name="Layer 24" transform="translate(-1 -3)">
    <path id="Path_30667" data-name="Path 30667" d="M17.621,9.044v5.44A2.2,2.2,0,0,1,15.355,16.6H3.267A2.2,2.2,0,0,1,1,14.484V9.044a.756.756,0,1,1,1.511,0v5.44a.7.7,0,0,0,.756.6H15.355a.7.7,0,0,0,.756-.6V9.044a.756.756,0,0,1,1.511,0ZM7.49,6.649,8.555,5.576v6.49a.756.756,0,1,0,1.511,0V5.576l1.065,1.073A.759.759,0,0,0,12.2,5.576L9.847,3.219A.756.756,0,0,0,9.363,3H9.22a.756.756,0,0,0-.408.181H8.774L6.417,5.576A.759.759,0,0,0,7.49,6.649Z" fill="#008885"/>
  </g>
</svg>
