<svg xmlns="http://www.w3.org/2000/svg" width="11.379" height="21.047" viewBox="0 0 11.379 21.047">
  <path id="Icon_11_" d="M31.548,21.882H28.933c-.411,0-.558-.148-.558-.562q0-1.6,0-3.191c0-.409.155-.565.562-.565h2.611c0-.073,0-1.609,0-2.316a5.774,5.774,0,0,1,.718-2.963,4.362,4.362,0,0,1,2.349-1.952A5.808,5.808,0,0,1,36.629,10q1.294,0,2.588,0c.371,0,.535.164.536.538q0,1.5,0,3c0,.377-.158.529-.537.533-.707.008-1.414,0-2.121.031a.961.961,0,0,0-1.088,1.087c-.017.781-.007,1.563-.007,2.372h3.045c.431,0,.578.148.578.581q0,1.587,0,3.174c0,.427-.139.563-.572.564H35.99v8.562c0,.456-.144.6-.594.6H32.1c-.4,0-.553-.155-.553-.553C31.548,27.705,31.548,21.98,31.548,21.882Z" transform="translate(-28.374 -9.999)" fill="#3d6ad6"/>
</svg>
