<svg xmlns="http://www.w3.org/2000/svg" width="44" height="44" viewBox="0 0 44 44">
  <g id="Group_38584" data-name="Group 38584" transform="translate(-643 -97)">
    <g id="Group_12121" data-name="Group 12121">
      <g id="Rectangle_1354" data-name="Rectangle 1354" transform="translate(643 97)" fill="rgba(243,243,243,0.34)" stroke="rgba(211,211,211,0.18)" stroke-width="1">
        <rect width="44" height="44" rx="22" stroke="none"/>
        <rect x="0.5" y="0.5" width="43" height="43" rx="21.5" fill="none"/>
      </g>
      <g id="sun" transform="translate(653 107)">
        <g id="Group_38586" data-name="Group 38586" transform="translate(3.222 3.222)">
          <g id="Group_38585" data-name="Group 38585">
            <path id="Path_30685" data-name="Path 30685" d="M54.675,53.261l-1.414-1.414a1,1,0,0,0-1.414,1.414l1.414,1.414a1,1,0,0,0,1.414-1.414Z" transform="translate(-51.554 -51.554)" fill="#fff"/>
          </g>
        </g>
        <g id="Group_38588" data-name="Group 38588" transform="translate(0 11)">
          <g id="Group_38587" data-name="Group 38587">
            <path id="Path_30686" data-name="Path 30686" d="M3,176H1a1,1,0,0,0,0,2H3a1,1,0,0,0,0-2Z" transform="translate(0 -176)" fill="#fff"/>
          </g>
        </g>
        <g id="Group_38590" data-name="Group 38590" transform="translate(3.222 17.364)">
          <g id="Group_38589" data-name="Group 38589">
            <path id="Path_30687" data-name="Path 30687" d="M54.675,278.119a1,1,0,0,0-1.414,0l-1.414,1.414a1,1,0,1,0,1.414,1.414l1.414-1.414A1,1,0,0,0,54.675,278.119Z" transform="translate(-51.554 -277.826)" fill="#fff"/>
          </g>
        </g>
        <g id="Group_38592" data-name="Group 38592" transform="translate(11 20)">
          <g id="Group_38591" data-name="Group 38591">
            <path id="Path_30688" data-name="Path 30688" d="M177,320a1,1,0,0,0-1,1v2a1,1,0,0,0,2,0v-2A1,1,0,0,0,177,320Z" transform="translate(-176 -320)" fill="#fff"/>
          </g>
        </g>
        <g id="Group_38594" data-name="Group 38594" transform="translate(17.364 17.364)">
          <g id="Group_38593" data-name="Group 38593">
            <path id="Path_30689" data-name="Path 30689" d="M280.947,279.533l-1.414-1.414a1,1,0,0,0-1.414,1.414l1.414,1.414a1,1,0,1,0,1.414-1.414Z" transform="translate(-277.826 -277.826)" fill="#fff"/>
          </g>
        </g>
        <g id="Group_38596" data-name="Group 38596" transform="translate(20 11)">
          <g id="Group_38595" data-name="Group 38595">
            <path id="Path_30690" data-name="Path 30690" d="M323,176h-2a1,1,0,0,0,0,2h2a1,1,0,0,0,0-2Z" transform="translate(-320 -176)" fill="#fff"/>
          </g>
        </g>
        <g id="Group_38598" data-name="Group 38598" transform="translate(17.364 3.222)">
          <g id="Group_38597" data-name="Group 38597">
            <path id="Path_30691" data-name="Path 30691" d="M280.947,51.847a1,1,0,0,0-1.414,0l-1.414,1.414a1,1,0,1,0,1.414,1.414l1.414-1.414A1,1,0,0,0,280.947,51.847Z" transform="translate(-277.826 -51.554)" fill="#fff"/>
          </g>
        </g>
        <g id="Group_38600" data-name="Group 38600" transform="translate(11)">
          <g id="Group_38599" data-name="Group 38599">
            <path id="Path_30692" data-name="Path 30692" d="M177,0a1,1,0,0,0-1,1V3a1,1,0,0,0,2,0V1A1,1,0,0,0,177,0Z" transform="translate(-176)" fill="#fff"/>
          </g>
        </g>
        <g id="Group_38602" data-name="Group 38602" transform="translate(5.5 5.5)">
          <g id="Group_38601" data-name="Group 38601">
            <path id="Path_30693" data-name="Path 30693" d="M94.5,88a6.5,6.5,0,1,0,6.5,6.5A6.508,6.508,0,0,0,94.5,88Zm0,11A4.5,4.5,0,1,1,99,94.5,4.505,4.505,0,0,1,94.5,99Z" transform="translate(-88 -88)" fill="#fff"/>
          </g>
        </g>
      </g>
    </g>
  </g>
</svg>
