<svg xmlns="http://www.w3.org/2000/svg" width="17.256" height="17.257" viewBox="0 0 17.256 17.257">
  <g id="Group_13398" data-name="Group 13398" transform="translate(-771 -575.372)">
    <path id="Path_29847" data-name="Path 29847" d="M200.044,417.639v1.143a1.515,1.515,0,0,1-1.517,1.517h-1.011A1.515,1.515,0,0,1,196,418.782v-1.143a.53.53,0,0,1,.506-.539h3.033A.53.53,0,0,1,200.044,417.639Z" transform="translate(581.605 172.33)" fill="#fea832"/>
    <path id="Path_29848" data-name="Path 29848" d="M258.022,417.639v1.143a1.515,1.515,0,0,1-1.517,1.517H256v-3.2h1.517A.53.53,0,0,1,258.022,417.639Z" transform="translate(523.628 172.33)" fill="#fe9923"/>
    <path id="Path_29849" data-name="Path 29849" d="M125.619,121a4.551,4.551,0,0,0-4.409,3.4,4.574,4.574,0,0,0,1.223,4.4,2.4,2.4,0,0,1,.657,1.7v.111a1.544,1.544,0,0,0,1.517,1.55h2.022a1.544,1.544,0,0,0,1.517-1.55v-.111a2.43,2.43,0,0,1,.7-1.729A4.554,4.554,0,0,0,125.619,121Z" transform="translate(654.009 458.45)" fill="#fedb41"/>
    <path id="Path_29850" data-name="Path 29850" d="M260.55,125.55a4.554,4.554,0,0,1-1.325,3.215,2.43,2.43,0,0,0-.7,1.729v.111a1.544,1.544,0,0,1-1.517,1.55H256V121A4.544,4.544,0,0,1,260.55,125.55Z" transform="translate(523.628 458.45)" fill="#fc3"/>
    <g id="Group_13387" data-name="Group 13387" transform="translate(771 577.775)">
      <path id="Path_29851" data-name="Path 29851" d="M72.876,73.591l-1.43-1.43a.506.506,0,0,1,.715-.715l1.43,1.43a.506.506,0,0,1-.715.715Z" transform="translate(-68.895 -71.298)" fill="#fea832"/>
      <path id="Path_29852" data-name="Path 29852" d="M2.562,242.011H.506a.506.506,0,1,1,0-1.011H2.562a.506.506,0,1,1,0,1.011Z" transform="translate(0 -235.28)" fill="#fea832"/>
    </g>
    <g id="Group_13388" data-name="Group 13388" transform="translate(783.412 577.775)">
      <path id="Path_29853" data-name="Path 29853" d="M423.562,242.011h-2.056a.506.506,0,1,1,0-1.011h2.056a.506.506,0,1,1,0,1.011Z" transform="translate(-419.223 -235.28)" fill="#fe9923"/>
      <path id="Path_29854" data-name="Path 29854" d="M368.429,73.591a.505.505,0,0,1,0-.715l1.43-1.43a.505.505,0,0,1,.715.715l-1.43,1.43A.505.505,0,0,1,368.429,73.591Z" transform="translate(-368.281 -71.298)" fill="#fe9923"/>
    </g>
    <path id="Path_29855" data-name="Path 29855" d="M242.011.506V2.562a.506.506,0,1,1-1.011,0V.506a.506.506,0,1,1,1.011,0Z" transform="translate(538.122 575.372)" fill="#fea832"/>
    <path id="Path_29856" data-name="Path 29856" d="M256.506.506V2.562a.5.5,0,0,1-.506.506V0A.5.5,0,0,1,256.506.506Z" transform="translate(523.628 575.372)" fill="#fe9923"/>
  </g>
</svg>
