<svg xmlns="http://www.w3.org/2000/svg" width="16.92" height="16.98" viewBox="0 0 16.92 16.98">
  <g id="Group_13111" data-name="Group 13111" transform="translate(-103 -1133.915)">
    <path id="Path_22719" data-name="Path 22719" d="M12.309,18.979h-9.7A.606.606,0,0,1,2,18.373V5.032a.606.606,0,0,1,.46-.588l9.7-2.426a.6.6,0,0,1,.52.11.606.606,0,0,1,.233.478V18.373A.606.606,0,0,1,12.309,18.979Zm-9.1-1.213H11.7V3.383L3.213,5.505Z" transform="translate(101 1131.916)" fill="#282828"/>
    <path id="Path_22720" data-name="Path 22720" d="M11.032,26.851H8.606A.606.606,0,0,1,8,26.245V22.606A.606.606,0,0,1,8.606,22h2.426a.606.606,0,0,1,.606.606v3.639A.606.606,0,0,1,11.032,26.851ZM9.213,25.639h1.213V23.213H9.213Z" transform="translate(98.578 1124.043)" fill="#282828"/>
    <path id="Path_22721" data-name="Path 22721" d="M24.671,22.522H18.606A.606.606,0,0,1,18,21.916V11.606A.606.606,0,0,1,18.606,11h6.064a.606.606,0,0,1,.606.606V21.916A.606.606,0,0,1,24.671,22.522Zm-5.458-1.213h4.851v-9.1H19.213Z" transform="translate(94.643 1128.373)" fill="#282828"/>
  </g>
</svg>
