<svg xmlns="http://www.w3.org/2000/svg" width="24.086" height="24.172" viewBox="0 0 24.086 24.172">
  <g id="Group_13111" data-name="Group 13111" transform="translate(-103 -1133.915)">
    <path id="Path_22719" data-name="Path 22719" d="M16.675,26.171H2.863A.863.863,0,0,1,2,25.308V6.316a.863.863,0,0,1,.654-.837L16.467,2.026a.852.852,0,0,1,.74.157.863.863,0,0,1,.332.68V25.308A.863.863,0,0,1,16.675,26.171ZM3.727,24.445H15.812V3.969L3.727,6.99Z" transform="translate(101 1131.916)" fill="#282828"/>
    <path id="Path_22720" data-name="Path 22720" d="M12.316,28.906H8.863A.863.863,0,0,1,8,28.043v-5.18A.863.863,0,0,1,8.863,22h3.453a.863.863,0,0,1,.863.863v5.18A.863.863,0,0,1,12.316,28.906ZM9.727,27.18h1.727V23.727H9.727Z" transform="translate(100.094 1129.181)" fill="#282828"/>
    <path id="Path_22721" data-name="Path 22721" d="M27.5,27.4H18.863A.863.863,0,0,1,18,26.539V11.863A.863.863,0,0,1,18.863,11H27.5a.863.863,0,0,1,.863.863V26.539A.863.863,0,0,1,27.5,27.4Zm-7.769-1.727h6.906V12.727H19.727Z" transform="translate(98.727 1130.685)" fill="#282828"/>
  </g>
</svg>
