<svg xmlns="http://www.w3.org/2000/svg" width="27.649" height="23.886" viewBox="0 0 27.649 23.886">
  <path id="Path_22580" data-name="Path 22580" d="M24.5,45.366V37.678a2.838,2.838,0,0,0-2.835-2.835H5.979a2.838,2.838,0,0,0-2.835,2.835v7.688A4.11,4.11,0,0,0,0,49.355v5.734a.824.824,0,0,0,.824.824h2.32V57.9a.824.824,0,1,0,1.647,0V55.913H22.857V57.9a.824.824,0,1,0,1.647,0V55.913h2.32a.824.824,0,0,0,.824-.824V49.355A4.11,4.11,0,0,0,24.5,45.366ZM4.792,37.678A1.189,1.189,0,0,1,5.979,36.49H21.67a1.189,1.189,0,0,1,1.188,1.188v7.573H20.135v-1.3a3.909,3.909,0,0,0-3.9-3.9H11.418a3.909,3.909,0,0,0-3.9,3.9v1.3H4.792Zm13.7,6.274v1.3H9.161v-1.3a2.26,2.26,0,0,1,2.257-2.257h4.812A2.26,2.26,0,0,1,18.488,43.952ZM1.647,54.265v-4.91A2.459,2.459,0,0,1,4.1,46.9H23.545A2.459,2.459,0,0,1,26,49.355v4.91Z" transform="translate(0 -34.843)" fill="#282828"/>
</svg>
