<svg xmlns="http://www.w3.org/2000/svg" width="30.1" height="22.6" viewBox="0 0 30.1 22.6">
  <path id="Path_22727" data-name="Path 22727" d="M28.125,70.25H27.5V66.5a2.5,2.5,0,0,0-5,0v.626a.625.625,0,0,0,.624.626h0a.625.625,0,0,0,.626-.624V66.5a1.25,1.25,0,0,1,2.5,0v3.75H1.875a1.87,1.87,0,0,0-.625,3.635v1.99A8.119,8.119,0,0,0,5,82.711v3.164a.625.625,0,0,0,.625.625h1.25a.625.625,0,0,0,.559-.345l1.1-2.2A8.185,8.185,0,0,0,9.375,84h11.25a8.166,8.166,0,0,0,.841-.044l1.1,2.2a.625.625,0,0,0,.559.345h1.25A.625.625,0,0,0,25,85.875V82.71a8.119,8.119,0,0,0,3.75-6.836v-1.99a1.87,1.87,0,0,0-.625-3.635ZM7.5,71.5h6.25v6.137L7.5,76.6Zm-6.25.625a.625.625,0,0,1,.625-.625H6.25v1.25H1.875A.625.625,0,0,1,1.25,72.125ZM6.489,85.25H6.25V83.373a8.061,8.061,0,0,0,1.009.337Zm17.261,0h-.239l-.77-1.539a8.078,8.078,0,0,0,1.009-.337Zm3.75-9.375a6.883,6.883,0,0,1-6.875,6.875H9.375A6.883,6.883,0,0,1,2.5,75.875V74H6.25v3.125a.625.625,0,0,0,.522.616l7.5,1.25a.645.645,0,0,0,.1.009A.625.625,0,0,0,15,78.375V74H27.5v1.875Zm.625-3.125H15V71.5H28.125a.625.625,0,1,1,0,1.25Z" transform="translate(0.05 -63.95)" fill="#282828" stroke="#282828" stroke-width="0.1"/>
</svg>
