<svg xmlns="http://www.w3.org/2000/svg" width="13.522" height="18.03" viewBox="0 0 13.522 18.03">
  <g id="placeholder" transform="translate(-64)">
    <g id="Group_13092" data-name="Group 13092" transform="translate(64)">
      <g id="Group_13091" data-name="Group 13091">
        <path id="Path_22768" data-name="Path 22768" d="M70.761,0A6.768,6.768,0,0,0,64,6.761c0,4.687,6.1,10.844,6.362,11.1a.566.566,0,0,0,.8,0c.259-.26,6.362-6.418,6.362-11.1A6.768,6.768,0,0,0,70.761,0Zm0,16.652c-1.345-1.44-5.634-6.31-5.634-9.891a5.634,5.634,0,1,1,11.269,0C76.4,10.338,72.107,15.212,70.761,16.652Z" transform="translate(-64)" fill="#858585"/>
      </g>
    </g>
    <g id="Group_13094" data-name="Group 13094" transform="translate(67.662 3.55)">
      <g id="Group_13093" data-name="Group 13093">
        <path id="Path_22769" data-name="Path 22769" d="M163.1,96a3.1,3.1,0,1,0,3.1,3.1A3.1,3.1,0,0,0,163.1,96Zm0,5.165a2.066,2.066,0,1,1,2.066-2.066A2.068,2.068,0,0,1,163.1,101.165Z" transform="translate(-160 -96)" fill="#858585"/>
      </g>
    </g>
  </g>
</svg>
