<svg xmlns="http://www.w3.org/2000/svg" width="58" height="58" viewBox="0 0 58 58">
  <g id="Group_12455" data-name="Group 12455" transform="translate(-0.162 0)">
    <g id="Rectangle_1377" data-name="Rectangle 1377" transform="translate(0.162 0)" fill="none" stroke="#ddd" stroke-width="1">
      <rect width="58" height="58" rx="4" stroke="none"/>
      <rect x="0.5" y="0.5" width="57" height="57" rx="3.5" fill="none"/>
    </g>
    <g id="facebook1" transform="translate(13.865 14.33)">
      <path id="Path_22538" data-name="Path 22538" d="M30.377,15.189a15.192,15.192,0,0,1-12.815,15V19.579H21.1l.673-4.39H17.562V12.34a2.2,2.2,0,0,1,2.475-2.372h1.915V6.23a23.362,23.362,0,0,0-3.4-.3c-3.469,0-5.737,2.1-5.737,5.909v3.346H8.959v4.39h3.857V30.193a15.19,15.19,0,1,1,17.562-15Z" fill="#1877f2"/>
      <path id="Path_22539" data-name="Path 22539" d="M163.142,113.646l.673-4.391H159.6v-2.849a2.2,2.2,0,0,1,2.475-2.372h1.915V100.3a23.356,23.356,0,0,0-3.4-.3c-3.469,0-5.737,2.1-5.737,5.909v3.346H151v4.391h3.856V124.26a15.35,15.35,0,0,0,4.746,0V113.646Z" transform="translate(-142.041 -94.067)" fill="#fff"/>
    </g>
  </g>
</svg>
