<svg xmlns="http://www.w3.org/2000/svg" width="58" height="58" viewBox="0 0 58 58">
  <g id="Group_12456" data-name="Group 12456" transform="translate(0 0)">
    <g id="Rectangle_1377" data-name="Rectangle 1377" transform="translate(0 0)" fill="#fff" stroke="#ddd" stroke-width="1">
      <rect width="58" height="58" rx="4" stroke="none"/>
      <rect x="0.5" y="0.5" width="57" height="57" rx="3.5" fill="none"/>
    </g>
    <g id="google" transform="translate(13.811 13.811)">
      <path id="Path_22540" data-name="Path 22540" d="M280.512,211.48H268.122a.991.991,0,0,0-.991.991v3.958a.991.991,0,0,0,.991.991H275.1a9.315,9.315,0,0,1-4.01,4.7l2.975,5.15a14.893,14.893,0,0,0,7.594-13.025,10.042,10.042,0,0,0-.171-1.945A1,1,0,0,0,280.512,211.48Z" transform="translate(-251.282 -198.932)" fill="#167ee6"/>
      <path id="Path_22541" data-name="Path 22541" d="M47.558,338.474a9.244,9.244,0,0,1-8-4.627l-5.15,2.969a15.177,15.177,0,0,0,20.741,5.567v-.007l-2.975-5.151A9.176,9.176,0,0,1,47.558,338.474Z" transform="translate(-32.369 -314.04)" fill="#12b347"/>
      <path id="Path_22542" data-name="Path 22542" d="M263.594,395.937v-.007l-2.975-5.151A9.176,9.176,0,0,1,256,392.028v5.943A15.163,15.163,0,0,0,263.594,395.937Z" transform="translate(-240.811 -367.594)" fill="#0f993e"/>
      <path id="Path_22543" data-name="Path 22543" d="M5.943,135.706a9.177,9.177,0,0,1,1.249-4.619l-5.15-2.969a15.119,15.119,0,0,0,0,15.175l5.15-2.969A9.177,9.177,0,0,1,5.943,135.706Z" transform="translate(0 -120.518)" fill="#ffd500"/>
      <path id="Path_22544" data-name="Path 22544" d="M47.558,5.943a9.2,9.2,0,0,1,5.87,2.107.987.987,0,0,0,1.328-.06l2.8-2.8a1,1,0,0,0-.057-1.46A15.156,15.156,0,0,0,34.411,7.6l5.15,2.969A9.244,9.244,0,0,1,47.558,5.943Z" transform="translate(-32.369)" fill="#ff4b26"/>
      <path id="Path_22545" data-name="Path 22545" d="M261.87,8.051a.987.987,0,0,0,1.328-.06l2.8-2.8a1,1,0,0,0-.057-1.46A15.143,15.143,0,0,0,256,0V5.943A9.2,9.2,0,0,1,261.87,8.051Z" transform="translate(-240.811)" fill="#d93f21"/>
    </g>
  </g>
</svg>
