<svg xmlns="http://www.w3.org/2000/svg" width="14.3" height="14.3" viewBox="0 0 14.3 14.3">
  <g id="cancel" transform="translate(-16.25 -16.249)">
    <path id="Path_22477" data-name="Path 22477" d="M23.4,30.4a7,7,0,1,0-7-7A7,7,0,0,0,23.4,30.4Zm0-13.014A6.015,6.015,0,1,1,17.385,23.4,6.015,6.015,0,0,1,23.4,17.385Z" transform="translate(0 0)" stroke="#000" stroke-width="0.3"/>
    <path id="Path_22478" data-name="Path 22478" d="M37.138,41.12a.4.4,0,0,0,.569,0l1.573-1.573,1.573,1.573a.4.4,0,0,0,.569,0,.415.415,0,0,0,0-.569L39.85,38.978,41.422,37.4a.4.4,0,0,0-.569-.569l-1.573,1.573-1.573-1.573a.4.4,0,0,0-.569.569l1.573,1.573L37.14,40.55A.414.414,0,0,0,37.138,41.12Z" transform="translate(-15.879 -15.587)" stroke="#000" stroke-width="0.2"/>
  </g>
</svg>
