<svg xmlns="http://www.w3.org/2000/svg" width="14.3" height="14.3" viewBox="0 0 14.3 14.3">
  <g id="cancel" transform="translate(-16.25 -16.249)">
    <path id="Path_22477" data-name="Path 22477" d="M23.4,30.4a7,7,0,1,0-7-7A7,7,0,0,0,23.4,30.4Zm0-13.014A6.015,6.015,0,1,1,17.385,23.4,6.015,6.015,0,0,1,23.4,17.385Z" transform="translate(0 0)" stroke="#000" stroke-width="0.3"/>
    <g id="Group_38644" data-name="Group 38644" transform="translate(20.487 21.349)">
      <g id="Group_38646" data-name="Group 38646" transform="translate(0)">
        <path id="Path_22645" data-name="Path 22645" d="M121.2,157.034a.35.35,0,0,0-.5,0l-3.144,3.144-1.469-1.466a.353.353,0,0,0-.5.5l1.716,1.716a.35.35,0,0,0,.5,0l3.394-3.394a.35.35,0,0,0,0-.5Z" transform="translate(-115.483 -156.929)" stroke="#000" stroke-width="0.3"/>
      </g>
    </g>
  </g>
</svg>
