<svg xmlns="http://www.w3.org/2000/svg" width="10.781" height="14.3" viewBox="0 0 10.781 14.3">
  <g id="task" transform="translate(-4.489 -1.85)">
    <path id="Path_22476" data-name="Path 22476" d="M12.961,3.226h-.98A1.06,1.06,0,0,0,10.95,2H8.829A1.06,1.06,0,0,0,7.8,3.226h-1A2.162,2.162,0,0,0,4.639,5.387v8.453A2.162,2.162,0,0,0,6.8,16h6.16a2.162,2.162,0,0,0,2.161-2.161V5.387a2.162,2.162,0,0,0-2.161-2.161ZM8.454,3.034a.368.368,0,0,1,.367-.371H10.95c.524.007.337.73.368,1.054a.368.368,0,0,1-.368.367H8.829c-.524-.007-.337-.73-.368-1.054Zm6,10.806a1.5,1.5,0,0,1-1.494,1.494H6.8a1.5,1.5,0,0,1-1.494-1.494V5.387A1.5,1.5,0,0,1,6.8,3.893h1a1.034,1.034,0,0,0,1.017.862H10.95a1.034,1.034,0,0,0,1.017-.862h1a1.5,1.5,0,0,1,1.494,1.494Zm-4.829-7L8.08,8.8a.335.335,0,0,1-.5.03l-.842-.835c-.313-.3.168-.782.469-.473l.578.571L9.1,6.429a.334.334,0,0,1,.524.414ZM12.78,8.924H10.031a.333.333,0,1,1,0-.663h2.752a.334.334,0,1,1,0,.663ZM9.624,10.842,8.08,12.8a.335.335,0,0,1-.5.03l-.842-.835c-.313-.3.168-.782.469-.473l.578.571L9.1,10.429a.334.334,0,0,1,.524.414Zm3.156,2.082H10.031a.333.333,0,1,1,0-.663h2.752a.334.334,0,1,1,0,.663Z" transform="translate(0 0)" stroke="#000" stroke-width="0.3"/>
  </g>
</svg>
