<svg xmlns="http://www.w3.org/2000/svg" xmlns:xlink="http://www.w3.org/1999/xlink" width="12" height="16" viewBox="0 0 12 16">
  <defs>
    <clipPath id="clip-path">
      <rect id="Rectangle_1913" data-name="Rectangle 1913" width="12" height="16" transform="translate(1056 565)" fill="#1e1c1c" stroke="#000" stroke-width="0.3"/>
    </clipPath>
  </defs>
  <g id="Mask_Group_25" data-name="Mask Group 25" transform="translate(-1056 -565)" clip-path="url(#clip-path)">
    <g id="Layer_2" data-name="Layer 2" transform="translate(1056 566.467)">
      <path id="Path_22464" data-name="Path 22464" d="M13.745,11.765h-3.02a.378.378,0,0,0,0,.755h3.02a.378.378,0,1,0,0-.755Z" transform="translate(-8.062 -8.622)" fill="#131313" stroke="#000" stroke-width="0.3"/>
      <path id="Path_22465" data-name="Path 22465" d="M13.745,19.126h-3.02a.378.378,0,1,0,0,.755h3.02a.378.378,0,1,0,0-.755Z" transform="translate(-8.062 -13.757)" fill="#131313" stroke="#000" stroke-width="0.3"/>
      <path id="Path_22466" data-name="Path 22466" d="M13.745,26.653h-3.02a.378.378,0,0,0,0,.755h3.02a.378.378,0,1,0,0-.755Z" transform="translate(-8.062 -19.006)" fill="#131313" stroke="#000" stroke-width="0.3"/>
      <path id="Path_22467" data-name="Path 22467" d="M13.384,1.376H4.777a1.7,1.7,0,0,0-1.7,1.709V13.719a.615.615,0,0,0,.933.527l1.6-.963a.153.153,0,0,1,.161,0L7.569,14.35a.585.585,0,0,0,.314.092.637.637,0,0,0,.318-.087L9.99,13.284a.153.153,0,0,1,.161,0l1.6.963a.605.605,0,0,0,.619,0,.615.615,0,0,0,.31-.533V6.364h1.369a1.042,1.042,0,0,0,1.037-1.037V3.085a1.7,1.7,0,0,0-1.7-1.709ZM11.8,13.26,10.6,12.537a1.037,1.037,0,0,0-1.06,0l-1.651.993-1.651-1a1.037,1.037,0,0,0-1.072,0l-1.2.728V3.077a.826.826,0,0,1,.826-.837h7.2a1.56,1.56,0,0,0-.179.71v10.3Zm2.407-7.934a.165.165,0,0,1-.165.165h-1.37V2.972a.71.71,0,0,1,.71-.724.826.826,0,0,1,.826.826Z" transform="translate(-3.082 -1.376)" fill="#131313" stroke="#000" stroke-width="0.3"/>
    </g>
  </g>
</svg>
