<svg xmlns="http://www.w3.org/2000/svg" width="13.855" height="18.893" viewBox="0 0 13.855 18.893">
  <path id="padlock" d="M17.1,8.557h-.132V6.038a5.038,5.038,0,0,0-10.077,0V8.557H6.757A1.757,1.757,0,0,0,5,10.314v7.822a1.757,1.757,0,0,0,1.757,1.757H17.1a1.757,1.757,0,0,0,1.757-1.757V10.314A1.757,1.757,0,0,0,17.1,8.557ZM8.149,6.038a3.779,3.779,0,0,1,7.557,0V8.557H8.149Zm9.447,12.1a.5.5,0,0,1-.5.5H6.757a.5.5,0,0,1-.5-.5V10.314a.5.5,0,0,1,.5-.5H17.1a.5.5,0,0,1,.5.5Z" transform="translate(-5 -1)" fill="#858585"/>
</svg>
