<svg xmlns="http://www.w3.org/2000/svg" width="37.996" height="33.645" viewBox="0 0 37.996 33.645">
  <g id="photo" transform="translate(0 -24)">
    <g id="Group_13363" data-name="Group 13363" transform="translate(0 24)">
      <g id="Group_13362" data-name="Group 13362" transform="translate(0 0)">
        <circle id="Ellipse_426" data-name="Ellipse 426" cx="2.61" cy="2.61" r="2.61" transform="translate(11.711 8.303)" fill="#282828"/>
        <path id="Path_29837" data-name="Path 29837" d="M35.748,44.521a8.039,8.039,0,0,0-4.5-2.139V29.112a5.22,5.22,0,0,0-1.486-3.626A5.066,5.066,0,0,0,26.14,24H5.112a5.22,5.22,0,0,0-3.626,1.486A5.066,5.066,0,0,0,0,29.112V50.757a5.22,5.22,0,0,0,1.486,3.626,5.066,5.066,0,0,0,3.626,1.486h20.34a7.671,7.671,0,0,0,10.3-11.348ZM1.922,29.112A3.035,3.035,0,0,1,2.864,26.9a3.181,3.181,0,0,1,2.248-.943H26.14a3.219,3.219,0,0,1,3.191,3.191V40.46l-5.366-5.366a.974.974,0,0,0-1.378,0L14.5,43.216,9.028,37.7a.974.974,0,0,0-1.378,0l-5.728,5.8ZM5.076,54.02v-.073A3.181,3.181,0,0,1,2.828,53a3.309,3.309,0,0,1-.906-2.248v-4.5l6.417-6.454,5.475,5.475a1.008,1.008,0,0,0,1.378,0l8.085-8.121,5.293,5.33-.326.109a3.366,3.366,0,0,0-.471.145c-.145.036-.29.109-.435.145a1.086,1.086,0,0,0-.29.145,3.37,3.37,0,0,0-.363.181l-.544.326c-.109.073-.181.109-.29.181-.073.036-.109.073-.181.109a4.374,4.374,0,0,0-.87.761,7.67,7.67,0,0,0-2.248,5.438,7.971,7.971,0,0,0,.181,1.6c.036.145.073.254.109.4.109.363.218.725.363,1.088v.036a6.65,6.65,0,0,0,.471.87Zm29.258,0a5.735,5.735,0,0,1-8.013.073c-.145-.145-.29-.326-.435-.471-.109-.109-.218-.254-.326-.363a3.443,3.443,0,0,1-.363-.616c-.073-.145-.145-.254-.218-.4a3.063,3.063,0,0,1-.181-.616c-.036-.145-.109-.326-.145-.471A6,6,0,0,1,24.545,50a5.819,5.819,0,0,1,1.668-4.061,5.605,5.605,0,0,1,4.061-1.668,5.819,5.819,0,0,1,4.061,1.668A5.667,5.667,0,0,1,36,50,5.8,5.8,0,0,1,34.334,54.02Z" transform="translate(0 -24)" fill="#282828"/>
        <path id="Path_29838" data-name="Path 29838" d="M302.5,264.69a1.265,1.265,0,0,0-.326-.218,1.059,1.059,0,0,0-.326-.073h-.073a1.059,1.059,0,0,0-.326.073.856.856,0,0,0-.326.218l-2.248,2.248a.974.974,0,0,0,1.378,1.378l.58-.58v3.988a.979.979,0,0,0,1.958,0v-3.988l.58.58a.974.974,0,0,0,1.378-1.378Z" transform="translate(-271.535 -242.61)" fill="#282828"/>
      </g>
    </g>
  </g>
</svg>
