<svg xmlns="http://www.w3.org/2000/svg" width="14.067" height="11.903" viewBox="0 0 14.067 11.903">
  <g id="print" transform="translate(-6 -10.007)">
    <g id="LINE_35_" transform="translate(7.623 16.5)">
      <g id="Group_13067" data-name="Group 13067" transform="translate(0)">
        <path id="Path_22750" data-name="Path 22750" d="M22.28,35.089H12.541a.541.541,0,1,1,0-1.082H22.28a.541.541,0,1,1,0,1.082Z" transform="translate(-12 -34.007)" fill="#fff"/>
      </g>
    </g>
    <g id="LINE_36_" transform="translate(16.821 16.5)">
      <g id="Group_13068" data-name="Group 13068">
        <path id="Path_22751" data-name="Path 22751" d="M46.541,39.417A.541.541,0,0,1,46,38.876V34.548a.541.541,0,1,1,1.082,0v4.328A.541.541,0,0,1,46.541,39.417Z" transform="translate(-46 -34.007)" fill="#fff"/>
      </g>
    </g>
    <g id="LINE_37_" transform="translate(8.164 20.828)">
      <g id="Group_13069" data-name="Group 13069" transform="translate(0 0)">
        <path id="Path_22752" data-name="Path 22752" d="M23.2,51.089H14.541a.541.541,0,0,1,0-1.082H23.2a.541.541,0,0,1,0,1.082Z" transform="translate(-14 -50.007)" fill="#fff"/>
      </g>
    </g>
    <g id="LINE_38_" transform="translate(8.164 16.5)">
      <g id="Group_13070" data-name="Group 13070" transform="translate(0)">
        <path id="Path_22753" data-name="Path 22753" d="M14.541,39.417A.541.541,0,0,1,14,38.876V34.548a.541.541,0,1,1,1.082,0v4.328A.541.541,0,0,1,14.541,39.417Z" transform="translate(-14 -34.007)" fill="#fff"/>
      </g>
    </g>
    <g id="LINE_39_" transform="translate(8.164 10.007)">
      <g id="Group_13071" data-name="Group 13071" transform="translate(0 0)">
        <path id="Path_22754" data-name="Path 22754" d="M14.541,13.253A.541.541,0,0,1,14,12.712V10.548a.541.541,0,1,1,1.082,0v2.164A.541.541,0,0,1,14.541,13.253Z" transform="translate(-14 -10.007)" fill="#fff"/>
      </g>
    </g>
    <g id="LINE_40_" transform="translate(8.164 10.007)">
      <g id="Group_13072" data-name="Group 13072" transform="translate(0 0)">
        <path id="Path_22755" data-name="Path 22755" d="M23.2,11.089H14.541a.541.541,0,1,1,0-1.082H23.2a.541.541,0,0,1,0,1.082Z" transform="translate(-14 -10.007)" fill="#fff"/>
      </g>
    </g>
    <g id="LINE_41_" transform="translate(16.821 10.007)">
      <g id="Group_13073" data-name="Group 13073" transform="translate(0 0)">
        <path id="Path_22756" data-name="Path 22756" d="M46.541,13.253A.541.541,0,0,1,46,12.712V10.548a.541.541,0,1,1,1.082,0v2.164A.541.541,0,0,1,46.541,13.253Z" transform="translate(-46 -10.007)" fill="#fff"/>
      </g>
    </g>
    <g id="LINE_42_" transform="translate(16.821 18.664)">
      <g id="Group_13074" data-name="Group 13074" transform="translate(0 0)">
        <path id="Path_22757" data-name="Path 22757" d="M48.164,43.089H46.541a.541.541,0,0,1,0-1.082h1.623a.541.541,0,1,1,0,1.082Z" transform="translate(-46 -42.007)" fill="#fff"/>
      </g>
    </g>
    <g id="LINE_43_" transform="translate(6.541 18.664)">
      <g id="Group_13075" data-name="Group 13075" transform="translate(0 0)">
        <path id="Path_22758" data-name="Path 22758" d="M10.164,43.089H8.541a.541.541,0,0,1,0-1.082h1.623a.541.541,0,1,1,0,1.082Z" transform="translate(-8 -42.007)" fill="#fff"/>
      </g>
    </g>
    <g id="LINE_44_" transform="translate(6.541 12.171)">
      <g id="Group_13076" data-name="Group 13076">
        <path id="Path_22759" data-name="Path 22759" d="M20.444,19.089H8.541a.541.541,0,0,1,0-1.082h11.9a.541.541,0,1,1,0,1.082Z" transform="translate(-8 -18.007)" fill="#fff"/>
      </g>
    </g>
    <g id="ARC_21_" transform="translate(18.444 18.123)">
      <g id="Group_13077" data-name="Group 13077">
        <path id="Path_22760" data-name="Path 22760" d="M52.541,41.63a.541.541,0,1,1,0-1.082h0a.541.541,0,1,1,1.081,0A1.083,1.083,0,0,1,52.541,41.63Z" transform="translate(-52 -40.007)" fill="#fff"/>
      </g>
    </g>
    <g id="LINE_45_" transform="translate(18.985 12.712)">
      <g id="Group_13078" data-name="Group 13078" transform="translate(0 0)">
        <path id="Path_22761" data-name="Path 22761" d="M54.541,26.5A.541.541,0,0,1,54,25.958v-5.41a.541.541,0,0,1,1.082,0v5.41A.541.541,0,0,1,54.541,26.5Z" transform="translate(-54 -20.007)" fill="#fff"/>
      </g>
    </g>
    <g id="ARC_22_" transform="translate(18.444 12.171)">
      <g id="Group_13079" data-name="Group 13079" transform="translate(0 0)">
        <path id="Path_22762" data-name="Path 22762" d="M53.082,19.63a.541.541,0,0,1-.541-.541h0a.541.541,0,1,1,0-1.082,1.083,1.083,0,0,1,1.082,1.082A.541.541,0,0,1,53.082,19.63Z" transform="translate(-52 -18.007)" fill="#fff"/>
      </g>
    </g>
    <g id="ARC_23_" transform="translate(6 18.123)">
      <g id="Group_13080" data-name="Group 13080" transform="translate(0)">
        <path id="Path_22763" data-name="Path 22763" d="M7.082,41.63A1.083,1.083,0,0,1,6,40.548a.541.541,0,1,1,1.082,0h0a.541.541,0,1,1,0,1.082Z" transform="translate(-6 -40.007)" fill="#fff"/>
      </g>
    </g>
    <g id="LINE_46_" transform="translate(6 12.712)">
      <g id="Group_13081" data-name="Group 13081" transform="translate(0 0)">
        <path id="Path_22764" data-name="Path 22764" d="M6.541,26.5A.541.541,0,0,1,6,25.958v-5.41a.541.541,0,0,1,1.082,0v5.41A.541.541,0,0,1,6.541,26.5Z" transform="translate(-6 -20.007)" fill="#fff"/>
      </g>
    </g>
    <g id="ARC_24_" transform="translate(6 12.171)">
      <g id="Group_13082" data-name="Group 13082" transform="translate(0)">
        <path id="Path_22765" data-name="Path 22765" d="M6.541,19.63A.541.541,0,0,1,6,19.089a1.083,1.083,0,0,1,1.082-1.082.541.541,0,0,1,0,1.082h0A.541.541,0,0,1,6.541,19.63Z" transform="translate(-6 -18.007)" fill="#fff"/>
      </g>
    </g>
  </g>
</svg>
