<svg xmlns="http://www.w3.org/2000/svg" width="18" height="18" viewBox="0 0 18 18">
  <g id="Group_12492" data-name="Group 12492" transform="translate(-1.329 -347.329)">
    <g id="Rectangle_1387" data-name="Rectangle 1387" transform="translate(1.329 347.329)" fill="#008885" stroke="#008885" stroke-width="1">
      <rect width="18" height="18" rx="9" stroke="none"/>
      <rect x="0.5" y="0.5" width="17" height="17" rx="8.5" fill="none"/>
    </g>
    <g id="question" transform="translate(7.379 351.651)">
      <path id="Path_30793" data-name="Path 30793" d="M539.6,263.183a.343.343,0,0,1-.343-.343,3.211,3.211,0,0,1,.19-1.163,2.648,2.648,0,0,1,.452-.744,8.551,8.551,0,0,1,.823-.8,3.906,3.906,0,0,0,.772-.836,1.342,1.342,0,0,0,.178-.68,1.587,1.587,0,0,0-.521-1.173,1.765,1.765,0,0,0-1.278-.505,1.719,1.719,0,0,0-1.221.458,2.045,2.045,0,0,0-.535.944.6.6,0,0,1-1.144-.336,2.742,2.742,0,0,1,.806-1.313,3.015,3.015,0,0,1,2.075-.694,3.106,3.106,0,0,1,2.18.744,2.349,2.349,0,0,1,.813,1.8,2.278,2.278,0,0,1-.286,1.125,5.334,5.334,0,0,1-1.119,1.252,5.722,5.722,0,0,0-.731.731,1.623,1.623,0,0,0-.254.54,3.414,3.414,0,0,0-.084.664.346.346,0,0,1-.345.327H539.6Zm-.407,1.643a.652.652,0,1,1,.652.652A.652.652,0,0,1,539.193,264.826Z" transform="translate(-536.949 -256)" fill="#fff" stroke="#fff" stroke-width="0.1"/>
    </g>
  </g>
</svg>
