<svg id="Group_11876" data-name="Group 11876" xmlns="http://www.w3.org/2000/svg" width="16.21" height="11.397" viewBox="0 0 16.21 11.397">
  <path id="Path_25724" data-name="Path 25724" d="M14.785,76H1.425A1.427,1.427,0,0,0,0,77.425v8.548A1.427,1.427,0,0,0,1.425,87.4h13.36a1.426,1.426,0,0,0,1.425-1.425V77.425A1.426,1.426,0,0,0,14.785,76Zm-.2.95L9.112,82.394a1.425,1.425,0,0,1-2.016,0L1.624,76.95ZM.95,85.779V77.619l4.1,4.083Zm.675.668,4.1-4.077.7.695a2.374,2.374,0,0,0,3.357,0l.7-.7,4.1,4.077Zm13.635-.668-4.1-4.078,4.1-4.083Z" transform="translate(0 -76)" fill="#282828"/>
</svg>
