<svg xmlns="http://www.w3.org/2000/svg" width="15.899" height="15.9" viewBox="0 0 15.899 15.9">
  <g id="Path_22528" data-name="Path 22528" transform="translate(-97.299 -97.294)" fill="none" fill-rule="evenodd">
    <path d="M111.953,109.27l-.012.029c-.11.282-.221.564-.338.843-.1.24-.2.482-.317.716a1.987,1.987,0,0,1-.286.47,2.207,2.207,0,0,1-.368.3,3.2,3.2,0,0,1-2.563.2c-3.613-.968-8.429-5.784-9.4-9.4a3.2,3.2,0,0,1,.2-2.564,2.18,2.18,0,0,1,.3-.368,1.987,1.987,0,0,1,.47-.286c.234-.114.476-.218.716-.317.28-.116.561-.227.843-.338l.029-.011a.661.661,0,0,1,.816.285l1.4,2.42a.665.665,0,0,1-.243.905,1.991,1.991,0,0,0-1,1.3,1.912,1.912,0,0,0,.352,1.568,16.833,16.833,0,0,0,2.935,2.935,1.911,1.911,0,0,0,1.568.352,1.991,1.991,0,0,0,1.3-1,.665.665,0,0,1,.905-.243l2.42,1.4A.661.661,0,0,1,111.953,109.27Z" stroke="none"/>
    <path d="M 109.2592391967773 111.9937896728516 C 109.7405853271484 111.9937896728516 110.2148590087891 111.8928375244141 110.6322021484375 111.6257247924805 C 110.7651672363281 111.5402069091797 110.888542175293 111.4406661987305 111.0002365112305 111.3287963867188 C 111.1099853515625 111.2190856933594 111.2181015014648 110.9984130859375 111.2863616943359 110.8587112426758 C 111.4005508422852 110.6247634887695 111.5039367675781 110.383430480957 111.6038360595703 110.1429901123047 C 111.7201614379883 109.8632354736328 111.8311080932617 109.5816268920898 111.9415588378906 109.2997131347656 L 111.9532470703125 109.2702331542969 C 112.0737762451172 108.9651641845703 111.9521560668945 108.6178359985352 111.667610168457 108.45458984375 L 109.247917175293 107.0574722290039 C 108.9308547973633 106.8756103515625 108.5264358520508 106.984001159668 108.3427200317383 107.3000564575195 C 108.057502746582 107.7941436767578 107.6128921508789 108.1885757446289 107.0439300537109 108.3049011230469 C 106.4949188232422 108.4236068725586 105.9214935302734 108.2947387695312 105.4760589599609 107.9525527954102 C 104.9251327514648 107.5305404663086 104.4043960571289 107.0705032348633 103.9176254272461 106.5758056640625 C 103.4230270385742 106.0891799926758 102.9630355834961 105.5685501098633 102.5411224365234 105.0177459716797 C 102.1990814208984 104.5722732543945 102.0702590942383 103.9989700317383 102.1888198852539 103.4500198364258 C 102.3052597045898 102.8805618286133 102.6994476318359 102.4364547729492 103.1935195922852 102.150993347168 C 103.5095520019531 101.967170715332 103.6178970336914 101.5627136230469 103.4360961914062 101.2455062866211 L 102.0393218994141 98.82558441162109 C 101.8758316040039 98.541015625 101.5282440185547 98.41952514648438 101.2231216430664 98.54037475585938 L 101.1937866210938 98.55169677734375 C 100.9120864868164 98.66226959228516 100.6303024291992 98.77371215820312 100.3506317138672 98.88939666748047 C 100.1102600097656 98.98932647705078 99.86875152587891 99.09266662597656 99.634521484375 99.20688629150391 C 99.49494171142578 99.275146484375 99.27400207519531 99.38323211669922 99.16445159912109 99.49295043945312 C 99.05265045166016 99.60440063476562 98.95327758789062 99.72763061523438 98.86809539794922 99.86053466796875 C 98.37776184082031 100.6259613037109 98.44668579101562 101.5830154418945 98.67211151123047 102.424446105957 C 99.64010620117188 106.0374298095703 104.4557723999023 110.8530960083008 108.0688171386719 111.8209838867188 C 108.4513549804688 111.9235763549805 108.8577499389648 111.9937896728516 109.2592391967773 111.9937896728516 M 109.2592391967773 113.1937942504883 C 108.7919769287109 113.1937942504883 108.2868804931641 113.1218719482422 107.7579803466797 112.9800262451172 C 105.8388061523438 112.4659042358398 103.5686874389648 111.0017852783203 101.5300521850586 108.9631652832031 C 99.49141693115234 106.924560546875 98.02725982666016 104.6544799804688 97.51298522949219 102.734992980957 C 97.13899230957031 101.3389434814453 97.25495147705078 100.1540603637695 97.85765075683594 99.21323394775391 C 97.98960113525391 99.00736999511719 98.14418029785156 98.81563568115234 98.31724548339844 98.64309692382812 C 98.54724884033203 98.41274261474609 98.83375549316406 98.26267242431641 99.10733795166016 98.12888336181641 C 99.37931823730469 97.99625396728516 99.65550994873047 97.87880706787109 99.88996887207031 97.78133392333984 C 100.1648788452148 97.66762542724609 100.4344787597656 97.56061553955078 100.7553100585938 97.43467712402344 L 100.7880783081055 97.42200469970703 C 101.0052185058594 97.33697509765625 101.2333145141602 97.29387664794922 101.4661483764648 97.29387664794922 C 102.1305465698242 97.29387664794922 102.7488784790039 97.6517333984375 103.0798263549805 98.22781372070312 L 104.4754028320312 100.645622253418 C 104.9853210449219 101.5353317260742 104.6801071166992 102.6745452880859 103.7968597412109 103.1882858276367 C 103.6553497314453 103.2700500488281 103.415397644043 103.4414749145508 103.3644866943359 103.6904220581055 L 103.3617782592773 103.7033538818359 C 103.3175582885742 103.9080963134766 103.3653564453125 104.1208038330078 103.492919921875 104.2869338989258 C 103.8802185058594 104.7925567626953 104.3059921264648 105.2744750976562 104.7592315673828 105.7204055786133 L 104.7729873657227 105.7341613769531 C 105.2190170288086 106.1874618530273 105.7010803222656 106.6133270263672 106.2057800292969 106.9999160766602 C 106.3709487915039 107.1267929077148 106.5885543823242 107.1756286621094 106.7903366088867 107.1320037841797 L 106.8035507202148 107.1292266845703 C 107.0523376464844 107.0783538818359 107.2235412597656 106.8385467529297 107.3034515380859 106.7001266479492 C 107.6378479003906 106.1247711181641 108.2557983398438 105.769287109375 108.9179306030273 105.769287109375 C 109.2423858642578 105.769287109375 109.5629577636719 105.8547821044922 109.8449859619141 106.0165557861328 L 112.2676467895508 107.4153823852539 C 113.0605163574219 107.870231628418 113.4064102172852 108.8579330444336 113.0692977905273 109.7111740112305 L 113.0570602416992 109.7420501708984 C 112.9499664306641 110.0154113769531 112.8334808349609 110.3112411499023 112.7118759155273 110.6037063598633 C 112.6149826049805 110.8369216918945 112.4978485107422 111.1123962402344 112.3647613525391 111.3850708007812 C 112.2310409545898 111.6587371826172 112.0812454223633 111.9449234008789 111.8486099243164 112.1774749755859 C 111.6772994995117 112.3490524291992 111.4861602783203 112.5032501220703 111.2813186645508 112.6350021362305 C 110.7012405395508 113.0062713623047 110.0216674804688 113.1937942504883 109.2592391967773 113.1937942504883 Z" stroke="none" fill="#282828"/>
  </g>
</svg>
