<svg xmlns="http://www.w3.org/2000/svg" width="50" height="50" viewBox="0 0 50 50">
  <g id="Group_38893" data-name="Group 38893" transform="translate(-540 -726)">
    <g id="Ellipse_437" data-name="Ellipse 437" transform="translate(540 726)" fill="#fff" stroke="#ddd" stroke-width="1">
      <circle cx="25" cy="25" r="25" stroke="none"/>
      <circle cx="25" cy="25" r="24.5" fill="none"/>
    </g>
    <path id="twitter" d="M24.866,50.392a10.628,10.628,0,0,1-2.937.805,5.069,5.069,0,0,0,2.243-2.818,10.188,10.188,0,0,1-3.233,1.234A5.1,5.1,0,0,0,12.121,53.1a5.249,5.249,0,0,0,.118,1.162A14.429,14.429,0,0,1,1.731,48.929,5.1,5.1,0,0,0,3.3,55.743a5.034,5.034,0,0,1-2.3-.628v.056A5.121,5.121,0,0,0,5.079,60.18a5.088,5.088,0,0,1-1.337.168,4.507,4.507,0,0,1-.965-.087,5.146,5.146,0,0,0,4.763,3.551A10.243,10.243,0,0,1,1.22,65.986,9.548,9.548,0,0,1,0,65.916,14.351,14.351,0,0,0,7.82,68.2,14.409,14.409,0,0,0,22.329,53.7c0-.225-.008-.443-.019-.659A10.17,10.17,0,0,0,24.866,50.392Z" transform="translate(553.567 693.898)" fill="#03a9f4"/>
  </g>
</svg>
