<svg xmlns="http://www.w3.org/2000/svg" width="50" height="50" viewBox="0 0 50 50">
  <g id="Group_38891" data-name="Group 38891" transform="translate(-180.5 -506.776)">
    <g id="Ellipse_437" data-name="Ellipse 437" transform="translate(180.5 506.776)" fill="#fff" stroke="#ddd" stroke-width="1">
      <circle cx="25" cy="25" r="25" stroke="none"/>
      <circle cx="25" cy="25" r="24.5" fill="none"/>
    </g>
    <g id="email" transform="translate(194.013 520.29)">
      <g id="Group_12395" data-name="Group 12395" transform="translate(0 0)">
        <path id="Path_22515" data-name="Path 22515" d="M22.379,23.055H.675A.675.675,0,0,1,0,22.379V9.681a.675.675,0,0,1,.244-.52L11.1.156a.675.675,0,0,1,.863,0L22.81,9.162a.675.675,0,0,1,.244.52v12.7A.675.675,0,0,1,22.379,23.055Z" transform="translate(0 0)" fill="#ffcd14"/>
        <path id="Path_22516" data-name="Path 22516" d="M266.654,9.161,256.407.156A.615.615,0,0,0,256,0V23.054h10.247a.657.657,0,0,0,.638-.675V9.681A.692.692,0,0,0,266.654,9.161Z" transform="translate(-243.83 0)" fill="#ffb400"/>
      </g>
      <path id="Path_22517" data-name="Path 22517" d="M87.327,73.606H71.69a.665.665,0,0,1-.69-.638V60.638A.665.665,0,0,1,71.69,60H87.327a.665.665,0,0,1,.69.638v12.33A.665.665,0,0,1,87.327,73.606Z" transform="translate(-67.981 -57.449)" fill="#dcf5fa"/>
      <path id="Path_22518" data-name="Path 22518" d="M263.228,60H256V73.606h7.228a.638.638,0,0,0,.638-.638V60.638A.638.638,0,0,0,263.228,60Z" transform="translate(-243.83 -57.449)" fill="#bedce6"/>
      <g id="Group_12397" data-name="Group 12397" transform="translate(7.513 5.347)">
        <path id="Path_22519" data-name="Path 22519" d="M169.5,117.86l0-.013a4.039,4.039,0,1,0-6.352,4.352,4.072,4.072,0,0,0,2.373.854h.012a.425.425,0,0,0,.012-.85,3.189,3.189,0,0,1-.88-6.226,3.189,3.189,0,0,1,4.019,2.11,2.79,2.79,0,0,1-.173,1.856.94.94,0,0,1-.864.641.327.327,0,0,1-.222-.1.52.52,0,0,1-.145-.363l.005-1.065c0-.029,0-.058,0-.088s0-.037,0-.055l.01-1.963a.425.425,0,0,0-.423-.427h0a.425.425,0,0,0-.425.423v.147a1.656,1.656,0,0,0-.98-.313,2.054,2.054,0,0,0-1.937,2.2,2.116,2.116,0,0,0,1.9,2.276,1.657,1.657,0,0,0,1.163-.49,1.333,1.333,0,0,0,.233.318,1.162,1.162,0,0,0,.825.354,1.787,1.787,0,0,0,1.654-1.177A3.621,3.621,0,0,0,169.5,117.86Zm-4.078,2.54c-.5,0-1.049-.545-1.049-1.425a1.22,1.22,0,0,1,1.087-1.349c.557,0,.95.52.971,1.274v.145C166.4,119.8,165.96,120.4,165.422,120.4Z" transform="translate(-161.59 -114.972)" fill="#696969"/>
        <g id="Group_12396" data-name="Group 12396" transform="translate(4.014 0)">
          <path id="Path_22520" data-name="Path 22520" d="M256.35,285.6a.425.425,0,0,0-.35-.43v.836A.425.425,0,0,0,256.35,285.6Z" transform="translate(-256 -277.934)" fill="#555"/>
          <path id="Path_22521" data-name="Path 22521" d="M259.891,117.85A4.045,4.045,0,0,0,256,114.976v.851a3.193,3.193,0,0,1,3.076,2.262,2.79,2.79,0,0,1-.173,1.856.941.941,0,0,1-.864.641.326.326,0,0,1-.222-.1.52.52,0,0,1-.145-.363l.005-1.065c0-.029,0-.058,0-.088s0-.037,0-.055l.01-1.963a.425.425,0,0,0-.423-.427h0a.425.425,0,0,0-.425.423v.147a1.646,1.646,0,0,0-.836-.307v.857c.479.082.808.575.827,1.261v.145A1.365,1.365,0,0,1,256,120.38v.863a1.678,1.678,0,0,0,.98-.479,1.335,1.335,0,0,0,.233.318,1.162,1.162,0,0,0,.825.354,1.787,1.787,0,0,0,1.654-1.177,3.621,3.621,0,0,0,.2-2.4Z" transform="translate(-255.999 -114.976)" fill="#555"/>
        </g>
      </g>
      <path id="Path_22522" data-name="Path 22522" d="M22.379,213.266H.675A.657.657,0,0,1,0,212.628v-11.99a.633.633,0,0,1,.347-.558.71.71,0,0,1,.685.016l10.495,6.168L22.022,200.1a.71.71,0,0,1,.685-.016.633.633,0,0,1,.347.558v11.99A.657.657,0,0,1,22.379,213.266Z" transform="translate(0 -190.211)" fill="#fff037"/>
      <path id="Path_22523" data-name="Path 22523" d="M266.557,200.08a.638.638,0,0,0-.647.016L256,206.264v7h10.247a.638.638,0,0,0,.638-.638v-11.99A.638.638,0,0,0,266.557,200.08Z" transform="translate(-243.83 -190.211)" fill="#ffcd14"/>
    </g>
  </g>
</svg>
