<svg id="Group_38888" data-name="Group 38888" xmlns="http://www.w3.org/2000/svg" width="50" height="50" viewBox="0 0 50 50">
  <g id="Ellipse_437" data-name="Ellipse 437" fill="#fff" stroke="#ddd" stroke-width="1">
    <circle cx="25" cy="25" r="25" stroke="none"/>
    <circle cx="25" cy="25" r="24.5" fill="none"/>
  </g>
  <path id="Icon_11_" d="M31.838,22.97H28.984c-.449,0-.609-.162-.609-.614q0-1.741,0-3.483c0-.446.17-.617.613-.617h2.85c0-.08,0-1.756,0-2.528a6.3,6.3,0,0,1,.784-3.234,4.761,4.761,0,0,1,2.564-2.13,6.339,6.339,0,0,1,2.2-.364q1.412,0,2.824,0c.4,0,.584.179.585.587q0,1.638,0,3.276c0,.412-.173.577-.586.582-.772.008-1.544,0-2.315.034A1.048,1.048,0,0,0,36.7,15.666c-.019.852-.008,1.705-.008,2.589H40.02c.47,0,.631.162.631.635q0,1.732,0,3.464c0,.466-.151.615-.625.615H36.687v9.346c0,.5-.157.657-.648.657h-3.6c-.434,0-.6-.169-.6-.6C31.838,29.325,31.838,23.076,31.838,22.97Z" transform="translate(-9.585 3.514)" fill="#3d6ad6"/>
</svg>
