<svg xmlns="http://www.w3.org/2000/svg" width="19.905" height="19.123" viewBox="0 0 19.905 19.123">
  <path id="star" d="M18.522,7.221a.986.986,0,0,0-.849-.678l-5.361-.487L10.194,1.1a.987.987,0,0,0-1.816,0L6.259,6.056.9,6.543A.988.988,0,0,0,.336,8.27l4.053,3.553L3.194,17.086a.987.987,0,0,0,1.469,1.067l4.623-2.764,4.622,2.764a.988.988,0,0,0,1.47-1.067l-1.195-5.263L18.235,8.27a.988.988,0,0,0,.288-1.049ZM9.374,15.336" transform="translate(0.667 0.154)" fill="none" stroke="#eb9716" stroke-width="1.3"/>
</svg>
