<svg xmlns="http://www.w3.org/2000/svg" width="17.084" height="24.8" viewBox="0 0 17.084 24.8">
  <g id="open-door" transform="translate(-40.5 0.4)">
    <path id="Path_30777" data-name="Path 30777" d="M56.758,0H41.327A.427.427,0,0,0,40.9.427V23.573a.426.426,0,0,0,.427.427H56.758a.427.427,0,0,0,.427-.427V.427A.426.426,0,0,0,56.758,0Zm-15,1.038,6.863,2.529V20.432l-6.863,2.529ZM56.331,23.147H43.717L49.19,21.13a.427.427,0,0,0,.279-.4V3.27a.427.427,0,0,0-.279-.4L43.717.853H56.331Z" transform="translate(0 0)" fill="#282828" stroke="#282828" stroke-width="0.8"/>
    <path id="Path_30778" data-name="Path 30778" d="M97.605,111.545c-.608,0-1.085.65-1.085,1.479S97,114.5,97.605,114.5s1.084-.65,1.084-1.479S98.214,111.545,97.605,111.545Zm0,2.1a.962.962,0,0,1,0-1.252.962.962,0,0,1,0,1.252Z" transform="translate(-51.375 -101.024)" fill="#282828" stroke="#282828" stroke-width="0.5"/>
  </g>
</svg>
