<svg xmlns="http://www.w3.org/2000/svg" width="17.252" height="17.252" viewBox="0 0 17.252 17.252">
  <path id="messenger" d="M8.422,0A8.423,8.423,0,0,0,1.117,12.615L.032,15.985a.658.658,0,0,0,.828.828l3.37-1.085A8.423,8.423,0,1,0,8.422,0Zm0,15.529a7.086,7.086,0,0,1-3.762-1.077.658.658,0,0,0-.551-.068l-2.433.783.783-2.433a.658.658,0,0,0-.068-.551,7.1,7.1,0,1,1,6.03,3.345Zm.822-7.106A.822.822,0,1,1,8.422,7.6.823.823,0,0,1,9.245,8.422Zm3.29,0a.822.822,0,1,1-.822-.822A.823.823,0,0,1,12.535,8.422Zm-6.58,0A.822.822,0,1,1,5.132,7.6.823.823,0,0,1,5.955,8.422Zm0,0" transform="translate(0.207 0.2)" fill="#008885" stroke="#008885" stroke-width="0.4"/>
</svg>
