<svg xmlns="http://www.w3.org/2000/svg" width="15.759" height="17.792" viewBox="0 0 15.759 17.792">
  <g id="user" transform="translate(0.5 0.5)">
    <g id="Group_12090" data-name="Group 12090" transform="translate(2.952)">
      <g id="Group_12089" data-name="Group 12089">
        <path id="Path_22045" data-name="Path 22045" d="M125.428,0a4.428,4.428,0,1,0,4.428,4.428A4.433,4.433,0,0,0,125.428,0Z" transform="translate(-121)" fill="none" stroke="#06b01b" stroke-width="1"/>
      </g>
    </g>
    <g id="Group_12092" data-name="Group 12092" transform="translate(0 9.839)">
      <g id="Group_12091" data-name="Group 12091">
        <path id="Path_22046" data-name="Path 22046" d="M43.888,301.909A6.312,6.312,0,0,0,39.363,300H37.4a6.312,6.312,0,0,0-4.525,1.909A6.452,6.452,0,0,0,31,306.461a.492.492,0,0,0,.492.492H45.267a.492.492,0,0,0,.492-.492A6.452,6.452,0,0,0,43.888,301.909Z" transform="translate(-31 -300)" fill="none" stroke="#06b01b" stroke-width="1"/>
      </g>
    </g>
  </g>
</svg>
