<svg id="user" xmlns="http://www.w3.org/2000/svg" width="14.063" height="16" viewBox="0 0 14.063 16">
  <g id="Group_12090" data-name="Group 12090" transform="translate(2.812)">
    <g id="Group_12089" data-name="Group 12089">
      <path id="Path_22045" data-name="Path 22045" d="M125.219,0a4.219,4.219,0,1,0,4.219,4.219A4.224,4.224,0,0,0,125.219,0Z" transform="translate(-121)" fill="#EE5F1E"/>
    </g>
  </g>
  <g id="Group_12092" data-name="Group 12092" transform="translate(0 9.375)">
    <g id="Group_12091" data-name="Group 12091">
      <path id="Path_22046" data-name="Path 22046" d="M43.28,301.819A6.014,6.014,0,0,0,38.969,300H37.094a6.014,6.014,0,0,0-4.311,1.819A6.148,6.148,0,0,0,31,306.156a.469.469,0,0,0,.469.469H44.594a.469.469,0,0,0,.469-.469A6.148,6.148,0,0,0,43.28,301.819Z" transform="translate(-31 -300)" fill="#EE5F1E"/>
    </g>
  </g>
</svg>
