<svg xmlns="http://www.w3.org/2000/svg" width="41.553" height="41.555" viewBox="0 0 41.553 41.555">
  <g id="Group_13153" data-name="Group 13153" transform="translate(-415.886 -552.888)">
    <path id="Ellipse_4" data-name="Ellipse 4" d="M20.776,0A20.777,20.777,0,1,0,41.554,20.778,20.777,20.777,0,0,0,20.776,0Z" transform="translate(415.885 552.888)" fill="#f3f3f3"/>
    <path id="next" d="M21.91,11.031,15.164,4.287a.963.963,0,1,0-1.36,1.36l5.1,5.1H1.963a.963.963,0,0,0,0,1.926H18.9l-5.1,5.1a.963.963,0,1,0,1.36,1.36l6.746-6.741a.963.963,0,0,0,0-1.36Z" transform="translate(424.602 561.877)" fill="#EE5F1E"/>
  </g>
</svg>
