<svg xmlns="http://www.w3.org/2000/svg" width="12.093" height="11.914" viewBox="0 0 12.093 11.914">
  <g id="Group_38885" data-name="Group 38885" transform="translate(-675.392 -381.543)">
    <g id="_15" data-name="15" transform="translate(687.484 386.543) rotate(90)">
      <path id="Path_22098" data-name="Path 22098" d="M8.863,17.089a.864.864,0,0,1-.613-1.477l4.577-4.568L8.25,6.476A.867.867,0,0,1,9.476,5.25l5.181,5.181a.863.863,0,0,1,0,1.218L9.476,16.83a.864.864,0,0,1-.613.259Z" transform="translate(-7.994 -4.996)" fill="#EE5F1E"/>
    </g>
    <g id="_15-2" data-name="15" transform="translate(687.484 381.543) rotate(90)">
      <path id="Path_22098-2" data-name="Path 22098" d="M8.863,17.089a.864.864,0,0,1-.613-1.477l4.577-4.568L8.25,6.476A.867.867,0,0,1,9.476,5.25l5.181,5.181a.863.863,0,0,1,0,1.218L9.476,16.83a.864.864,0,0,1-.613.259Z" transform="translate(-7.994 -4.996)" fill="#EE5F1E"/>
    </g>
  </g>
</svg>
