<svg xmlns="http://www.w3.org/2000/svg" width="14.3" height="14.3" viewBox="0 0 14.3 14.3">
  <g id="editing" transform="translate(0.15 0.15)">
    <path id="Path_22531" data-name="Path 22531" d="M11.882,85.992a.429.429,0,0,0-.429.429v6.3a.717.717,0,0,1-.716.716H1.575a.717.717,0,0,1-.716-.716V83.559a.717.717,0,0,1,.716-.716h6.3a.429.429,0,1,0,0-.859h-6.3A1.577,1.577,0,0,0,0,83.559v9.162A1.577,1.577,0,0,0,1.575,94.3h9.162a1.577,1.577,0,0,0,1.575-1.575v-6.3A.429.429,0,0,0,11.882,85.992Z" transform="translate(0 -80.295)" fill="#008885" stroke="#008885" stroke-width="0.3"/>
    <path id="Path_22532" data-name="Path 22532" d="M188.393,1.1l-.81-.81a1,1,0,0,0-1.417,0l-6.479,6.479a.43.43,0,0,0-.117.219l-.4,2.025a.43.43,0,0,0,.505.505l2.025-.4A.43.43,0,0,0,181.914,9l6.479-6.479h0a1,1,0,0,0,0-1.417ZM181.4,8.3l-1.265.253.253-1.265,5.273-5.273,1.012,1.012Zm6.387-6.387-.506.506-1.012-1.012L186.773.9a.143.143,0,0,1,.2,0l.81.81A.143.143,0,0,1,187.786,1.913Z" transform="translate(-174.686)" fill="#008885" stroke="#008885" stroke-width="0.3"/>
  </g>
</svg>
