<svg xmlns="http://www.w3.org/2000/svg" xmlns:xlink="http://www.w3.org/1999/xlink" width="1440" height="772" viewBox="0 0 1440 772">
  <defs>
    <clipPath id="clip-path">
      <rect id="Rectangle_1785" data-name="Rectangle 1785" width="421.351" height="259.17" fill="#ede6f0"/>
    </clipPath>
    <clipPath id="clip-path-5">
      <rect id="Rectangle_1789" data-name="Rectangle 1789" width="413.493" height="324.759" fill="#ede6f0"/>
    </clipPath>
  </defs>
  <g id="Group_13216" data-name="Group 13216" transform="translate(-742)">
    <rect id="cheerful-couple-after-wining-ccompetition-online-video-games-couple-playing-games-home-neon-light" width="1440" height="772" transform="translate(742)" fill="#fff"/>
    <g id="Group_13249" data-name="Group 13249" transform="translate(756.657 512.83)">
      <g id="Group_13242" data-name="Group 13242">
        <g id="Group_13241" data-name="Group 13241" clip-path="url(#clip-path)">
          <path id="Path_26305" data-name="Path 26305" d="M352.938,121.366c-5.841-4.243-13.666-2.751-18.479,2.42-5.313,5.707-4.237,14.208.735,19.742,5.471,6.088,14.645,8.109,21.91,3.968,7.368-4.2,9.258-14.085,3.181-20.216-2.588-2.612-6.294,1.742-3.715,4.344,4.419,4.46.054,10.688-4.92,11.982a12.412,12.412,0,0,1-12.818-4.585c-2.66-3.439-3.218-8.229-.029-11.521,2.607-2.69,7.146-4.169,10.42-1.79,2.955,2.146,6.7-2.177,3.715-4.345" transform="translate(-43.232 -15.532)" fill="#ede6f0"/>
          <path id="Path_26306" data-name="Path 26306" d="M337.557,110.655c11.673-4.019,21.739,3.37,27.508,13.214,6.222,10.62-.82,23.352-10.861,28.828-4.569,2.492-12.244,2.129-16.419-1.146-4.145-3.251-8.353-6.263-11.3-10.7-1.867-2.813-3.692-5.757-3.228-9.284a27.753,27.753,0,0,1,2.057-6.888c2.057-4.939,5.267-9.567,10.206-11.945,3.276-1.576,1.438-6.993-1.875-5.4-8.993,4.329-15.869,15-16.188,25.085-.183,5.8,3.659,11.5,7.356,15.687,1.9,2.146,4.138,3.55,6.374,5.287,2.254,1.751,4.057,3.717,6.772,4.79a25.074,25.074,0,0,0,15.617.979c5.5-1.63,10.274-6.337,13.73-10.751,7.59-9.7,7.761-21.038.35-30.893-3.767-5.008-8.31-9.8-14.286-12.053a25.86,25.86,0,0,0-17.687-.208c-3.477,1.2-1.607,6.6,1.876,5.4" transform="translate(-41.469 -13.56)" fill="#ede6f0"/>
          <path id="Path_26307" data-name="Path 26307" d="M333.547,103.982a7.642,7.642,0,0,0,2.547,5.482,2.882,2.882,0,0,0,4.03-.315,2.919,2.919,0,0,0-.315-4.03c-.459-.425.131.317-.168-.177a4.665,4.665,0,0,1-.269-.413q.2.426.076.13c-.023-.081-.256-.822-.173-.449.039.215.037.178,0-.11a4.254,4.254,0,0,1-.02-.493,2.879,2.879,0,0,0-3.039-2.665,2.926,2.926,0,0,0-2.665,3.039" transform="translate(-43.572 -13.185)" fill="#ede6f0"/>
          <path id="Path_26308" data-name="Path 26308" d="M322.326,115.532l2.066,1.477a3.077,3.077,0,0,0,2.044.68,2.858,2.858,0,0,0,1.671-5.024l-2.066-1.477a3.073,3.073,0,0,0-2.044-.681,2.859,2.859,0,0,0-1.671,5.025" transform="translate(-41.978 -14.435)" fill="#ede6f0"/>
          <path id="Path_26309" data-name="Path 26309" d="M318.406,129.763a2.184,2.184,0,0,1,.3.077l-.693-.232a2.368,2.368,0,0,1,.276.133l-.612-.4a1.985,1.985,0,0,1,.388.33l-.5-.55a2.243,2.243,0,0,1,.174.252,2.858,2.858,0,0,0,5.158-1.069,3.152,3.152,0,0,0-.45-2.174,4.438,4.438,0,0,0-2.935-1.976,2.969,2.969,0,0,0-2.174.45,2.858,2.858,0,0,0,1.069,5.158" transform="translate(-41.295 -16.212)" fill="#ede6f0"/>
          <path id="Path_26310" data-name="Path 26310" d="M318.92,137.4a5.078,5.078,0,0,0-3.544,1.774,2.966,2.966,0,0,0-.681,2.045,2.859,2.859,0,0,0,5.025,1.67,2.936,2.936,0,0,1,.232-.244l-.55.5a2.617,2.617,0,0,1,.463-.314l-.684.346a2.613,2.613,0,0,1,.529-.183l-.751.153a2.9,2.9,0,0,1,.335-.039,2.859,2.859,0,1,0-.374-5.7" transform="translate(-41.109 -17.949)" fill="#ede6f0"/>
          <path id="Path_26311" data-name="Path 26311" d="M324.046,151.589q-.231.4-.482.779l.4-.612a16.637,16.637,0,0,1-1,1.348,2.859,2.859,0,0,0,4.346,3.715,20.759,20.759,0,0,0,1.88-2.739,2.857,2.857,0,0,0-3.51-3.944,3.179,3.179,0,0,0-1.634,1.454" transform="translate(-42.103 -19.591)" fill="#ede6f0"/>
          <path id="Path_26312" data-name="Path 26312" d="M335.471,160.846a4.96,4.96,0,0,0-1.268,3.836,3.029,3.029,0,0,0,1,1.986,2.857,2.857,0,0,0,4.03-.316,2.864,2.864,0,0,0,.68-2.044,2.691,2.691,0,0,1-.017-.41c-.016.247-.032.493-.049.74a2.592,2.592,0,0,1,.122-.6l-.232.693a2.65,2.65,0,0,1,.227-.459l-.4.612a2.607,2.607,0,0,1,.257-.32,2.88,2.88,0,0,0-.316-4.03,2.923,2.923,0,0,0-4.03.315" transform="translate(-43.654 -20.884)" fill="#ede6f0"/>
          <path id="Path_26313" data-name="Path 26313" d="M346.576,168.331l.965,1.18a3.07,3.07,0,0,0,1.8,1.182,2.859,2.859,0,0,0,3.357-2.252,2.822,2.822,0,0,0-.45-2.175l-.965-1.18a3.077,3.077,0,0,0-1.8-1.182,2.857,2.857,0,0,0-3.357,2.253,2.814,2.814,0,0,0,.45,2.174" transform="translate(-45.21 -21.405)" fill="#ede6f0"/>
          <path id="Path_26314" data-name="Path 26314" d="M359.142,165.7l.965,1.18a3.071,3.071,0,0,0,1.8,1.182,2.859,2.859,0,0,0,3.357-2.252,2.824,2.824,0,0,0-.45-2.175l-.966-1.18a3.067,3.067,0,0,0-1.8-1.181,2.856,2.856,0,0,0-3.357,2.252,2.814,2.814,0,0,0,.45,2.174" transform="translate(-46.851 -21.061)" fill="#ede6f0"/>
          <path id="Path_26315" data-name="Path 26315" d="M369.677,155.379a7.139,7.139,0,0,0,2.216,2.013,2.858,2.858,0,0,0,2.184.128,2.907,2.907,0,0,0,1.634-1.454,2.874,2.874,0,0,0,.128-2.183l-.346-.684a2.855,2.855,0,0,0-1.108-.95l-.1-.063.612.4a4.081,4.081,0,0,1-.717-.622l.5.55a4.679,4.679,0,0,1-.29-.377,2.959,2.959,0,0,0-1.8-1.181,2.858,2.858,0,0,0-2.906,4.426" transform="translate(-48.227 -19.713)" fill="#ede6f0"/>
          <path id="Path_26316" data-name="Path 26316" d="M378.355,145.508l1.307.424a2.867,2.867,0,0,0,2.174-.45,2.919,2.919,0,0,0,1.182-1.8,2.882,2.882,0,0,0-.451-2.174l-.5-.55a2.872,2.872,0,0,0-1.3-.632l-1.307-.424a2.866,2.866,0,0,0-2.174.45,2.859,2.859,0,0,0-.732,3.976l.5.55a2.871,2.871,0,0,0,1.3.632" transform="translate(-49.126 -18.266)" fill="#ede6f0"/>
          <path id="Path_26317" data-name="Path 26317" d="M380.856,124.326a5.181,5.181,0,0,0-4.809,1.776,2.858,2.858,0,0,0,4.345,3.715,3.117,3.117,0,0,1,.282-.3l-.55.5a2.9,2.9,0,0,1,.457-.31l-.683.345a2.875,2.875,0,0,1,.52-.188l-.751.152a2.837,2.837,0,0,1,.549-.054l-.74-.048a2.1,2.1,0,0,1,.276.027,2.858,2.858,0,1,0,1.1-5.608" transform="translate(-49.037 -16.234)" fill="#ede6f0"/>
          <path id="Path_26318" data-name="Path 26318" d="M369.861,111.721l-1.624,1.62a2.883,2.883,0,0,0-.68,2.045,2.919,2.919,0,0,0,.995,1.985,2.882,2.882,0,0,0,2.045.68,3.189,3.189,0,0,0,1.985-.995l1.625-1.62a2.887,2.887,0,0,0,.68-2.045,2.92,2.92,0,0,0-1-1.985,2.88,2.88,0,0,0-2.044-.68,3.191,3.191,0,0,0-1.986.995" transform="translate(-48.014 -14.463)" fill="#ede6f0"/>
          <path id="Path_26319" data-name="Path 26319" d="M357.936,104.818a13.143,13.143,0,0,1-.981,1.82l.4-.612c-.176.266-.36.524-.554.778a2.858,2.858,0,0,0,4.345,3.715,15.973,15.973,0,0,0,1.934-3.21,2.858,2.858,0,0,0-5.144-2.491" transform="translate(-46.524 -13.486)" fill="#ede6f0"/>
          <path id="Path_26320" data-name="Path 26320" d="M346.029,102.823a4.713,4.713,0,0,0-.225,3.531,2.883,2.883,0,0,0,3.637,1.761,2.914,2.914,0,0,0,1.761-3.637,1.914,1.914,0,0,1-.058-.206q.077.376.153.751a2.321,2.321,0,0,1-.036-.425c-.016.247-.031.493-.048.74a2.09,2.09,0,0,1,.1-.522l-.232.693a1.638,1.638,0,0,1,.087-.2,2.858,2.858,0,0,0-5.144-2.491" transform="translate(-45.142 -13.225)" fill="#ede6f0"/>
          <path id="Path_26321" data-name="Path 26321" d="M307.261,121.837a7.377,7.377,0,0,0-6.718-7.16c-4.075-.518-7.381,2.556-8.219,6.385a9.408,9.408,0,0,0,5.04,10.592,6.756,6.756,0,0,0,9.626-4.856c.322-1.91-2.68-2.156-3-.253-.549,3.262-4.555,3.31-6.638,1.581a6.541,6.541,0,0,1-1.98-6.893c.654-2.2,2.531-3.907,4.92-3.555,1.952.289,3.98,1.775,3.97,3.907-.009,1.924,2.991,2.2,3,.253" transform="translate(-38.158 -14.973)" fill="#ede6f0"/>
          <path id="Path_26322" data-name="Path 26322" d="M305.957,112.471c5.308,3.757,5.243,10.335,2.805,15.83-2.629,5.927-10.24,6.83-15.67,4.218a8.8,8.8,0,0,1-4.559-7.376c.116-2.772.11-5.5,1.1-8.125.629-1.664,1.328-3.35,2.979-4.236a14.617,14.617,0,0,1,3.578-1.238,11.623,11.623,0,0,1,8.249.693c1.681.916,3.433-1.535,1.732-2.463a16.062,16.062,0,0,0-15.707.789c-2.537,1.7-3.795,5.1-4.449,7.97a22.663,22.663,0,0,0-.3,4.353,14.839,14.839,0,0,0,.033,4.369,13.211,13.211,0,0,0,4.383,6.981c2.39,1.853,5.87,2.446,8.821,2.567,6.483.265,11.386-3.15,13.322-9.35.984-3.151,1.637-6.568.762-9.817a13.624,13.624,0,0,0-5.349-7.63,1.507,1.507,0,0,0-1.733,2.463" transform="translate(-37.304 -14.12)" fill="#ede6f0"/>
          <path id="Path_26323" data-name="Path 26323" d="M309.722,107.846a4.027,4.027,0,0,0-1.562,2.776,1.519,1.519,0,0,0,1.374,1.627,1.538,1.538,0,0,0,1.627-1.374c.041-.328-.095.154.024-.126a2.422,2.422,0,0,1,.094-.243c-.08.145-.091.17-.032.072.028-.034.272-.362.139-.211-.081.083-.065.07.045-.036a2.277,2.277,0,0,1,.205-.16,1.517,1.517,0,0,0,.205-2.12,1.541,1.541,0,0,0-2.12-.205" transform="translate(-40.255 -14.045)" fill="#ede6f0"/>
          <path id="Path_26324" data-name="Path 26324" d="M301.486,106.594q0,.669,0,1.338a1.615,1.615,0,0,0,.337,1.084,1.541,1.541,0,0,0,1.035.543,1.525,1.525,0,0,0,1.627-1.374q0-.669,0-1.338a1.622,1.622,0,0,0-.339-1.083,1.505,1.505,0,0,0-2.662.83" transform="translate(-39.384 -13.745)" fill="#ede6f0"/>
          <path id="Path_26325" data-name="Path 26325" d="M294.193,109.293a1.224,1.224,0,0,1,.058.15l-.114-.368a1.238,1.238,0,0,1,.028.159c-.006-.128-.011-.256-.017-.384a1.022,1.022,0,0,1-.023.267l.083-.381a1.3,1.3,0,0,1-.055.151,1.506,1.506,0,0,0,2.044,1.878,1.662,1.662,0,0,0,.791-.862,2.339,2.339,0,0,0-.057-1.863,1.565,1.565,0,0,0-.862-.792,1.506,1.506,0,0,0-1.877,2.044" transform="translate(-38.414 -13.999)" fill="#ede6f0"/>
          <path id="Path_26326" data-name="Path 26326" d="M291.034,111.9a2.678,2.678,0,0,0-1.849-.971,1.559,1.559,0,0,0-1.083.338,1.506,1.506,0,0,0,.83,2.663,1.7,1.7,0,0,1,.176.024l-.382-.083a1.378,1.378,0,0,1,.277.1l-.358-.187a1.454,1.454,0,0,1,.241.17l-.3-.274a1.422,1.422,0,0,1,.119.131,1.506,1.506,0,0,0,2.326-1.914" transform="translate(-37.564 -14.49)" fill="#ede6f0"/>
          <path id="Path_26327" data-name="Path 26327" d="M286.453,118.513c-.16.016-.321.027-.481.034l.384-.017a8.821,8.821,0,0,1-.884-.013,1.506,1.506,0,0,0-.253,3,10.894,10.894,0,0,0,1.75-.038,1.505,1.505,0,0,0,.608-2.714,1.678,1.678,0,0,0-1.124-.252" transform="translate(-37.079 -15.48)" fill="#ede6f0"/>
          <path id="Path_26328" data-name="Path 26328" d="M286.032,126.188a2.611,2.611,0,0,0-2.031.637,1.593,1.593,0,0,0-.543,1.035,1.506,1.506,0,0,0,1.374,1.627,1.51,1.51,0,0,0,1.083-.338,1.459,1.459,0,0,1,.17-.133l-.331.207a1.33,1.33,0,0,1,.3-.134l-.368.114a1.441,1.441,0,0,1,.266-.044l-.384.017a1.373,1.373,0,0,1,.216.012,1.517,1.517,0,0,0,1.627-1.374,1.539,1.539,0,0,0-1.374-1.627" transform="translate(-37.028 -16.482)" fill="#ede6f0"/>
          <path id="Path_26329" data-name="Path 26329" d="M286.327,133.2c-.07.258-.138.517-.208.775a1.617,1.617,0,0,0,.048,1.134,1.506,1.506,0,0,0,2,.744,1.484,1.484,0,0,0,.791-.862q.1-.389.208-.775a1.619,1.619,0,0,0-.048-1.135,1.506,1.506,0,0,0-2-.743,1.486,1.486,0,0,0-.792.862" transform="translate(-37.366 -17.271)" fill="#ede6f0"/>
          <path id="Path_26330" data-name="Path 26330" d="M291.319,137.767c-.07.258-.138.517-.208.775a1.619,1.619,0,0,0,.048,1.135,1.507,1.507,0,0,0,2,.743,1.484,1.484,0,0,0,.791-.862q.1-.389.208-.775a1.619,1.619,0,0,0-.048-1.135,1.506,1.506,0,0,0-2-.743,1.486,1.486,0,0,0-.792.862" transform="translate(-38.018 -17.867)" fill="#ede6f0"/>
          <path id="Path_26331" data-name="Path 26331" d="M298.985,139.1a3.748,3.748,0,0,0-.179,1.567,1.5,1.5,0,0,0,.616.974,1.536,1.536,0,0,0,1.125.252,1.519,1.519,0,0,0,.973-.617l.186-.358a1.5,1.5,0,0,0,.066-.766l0-.063c.006.128.012.256.017.384a2.131,2.131,0,0,1,.046-.5c-.028.127-.056.255-.083.382.02-.082.043-.161.071-.24a1.564,1.564,0,0,0-.048-1.135,1.506,1.506,0,0,0-2.787.118" transform="translate(-39.032 -18.043)" fill="#ede6f0"/>
          <path id="Path_26332" data-name="Path 26332" d="M305.891,139.78l.22.689a1.514,1.514,0,0,0,.862.792,1.535,1.535,0,0,0,1.134-.049,1.516,1.516,0,0,0,.792-.862c.028-.127.056-.254.083-.382a1.511,1.511,0,0,0-.13-.752c-.074-.23-.147-.46-.22-.689a1.514,1.514,0,0,0-.862-.792,1.538,1.538,0,0,0-1.135.049,1.515,1.515,0,0,0-.791.862l-.083.381a1.524,1.524,0,0,0,.131.753" transform="translate(-39.942 -17.982)" fill="#ede6f0"/>
          <path id="Path_26333" data-name="Path 26333" d="M315.668,134.373a2.728,2.728,0,0,0-2.239-1.511,1.506,1.506,0,0,0-.253,3,1.53,1.53,0,0,1,.217.027l-.382-.083a1.533,1.533,0,0,1,.273.1l-.358-.186a1.548,1.548,0,0,1,.241.164q-.149-.137-.3-.275a1.488,1.488,0,0,1,.192.219l-.207-.331a1.136,1.136,0,0,1,.073.126,1.506,1.506,0,1,0,2.738-1.252" transform="translate(-40.732 -17.356)" fill="#ede6f0"/>
          <path id="Path_26334" data-name="Path 26334" d="M317.628,125.831l-1.192-.2a1.518,1.518,0,0,0-1.084.337,1.541,1.541,0,0,0-.543,1.036,1.515,1.515,0,0,0,.338,1.083,1.68,1.68,0,0,0,1.035.543l1.193.2a1.506,1.506,0,0,0,1.289-2.458,1.686,1.686,0,0,0-1.036-.543" transform="translate(-41.124 -16.41)" fill="#ede6f0"/>
          <path id="Path_26335" data-name="Path 26335" d="M316.853,118.627a6.95,6.95,0,0,1-1.08.14l.384-.017c-.168.006-.335.007-.5,0a1.505,1.505,0,1,0-.253,3,8.391,8.391,0,0,0,1.967-.159,1.505,1.505,0,0,0-.516-2.966" transform="translate(-41.022 -15.493)" fill="#ede6f0"/>
          <path id="Path_26336" data-name="Path 26336" d="M314.13,112.836a2.48,2.48,0,0,0-1.58.989,1.519,1.519,0,0,0,.365,2.1,1.536,1.536,0,0,0,2.1-.365.842.842,0,0,1,.07-.088l-.274.3a1.088,1.088,0,0,1,.17-.146l-.33.207a1.106,1.106,0,0,1,.255-.116l-.368.114a.956.956,0,0,1,.11-.023,1.505,1.505,0,1,0-.516-2.966" transform="translate(-40.794 -14.737)" fill="#ede6f0"/>
        </g>
      </g>
      <g id="Group_13244" data-name="Group 13244">
        <g id="Group_13243" data-name="Group 13243" clip-path="url(#clip-path)">
          <path id="Path_26337" data-name="Path 26337" d="M19.624,15.818A40.157,40.157,0,0,1,41.273,3.565c2.446-.468,4.886-.578,6.392,1.788a13.811,13.811,0,0,1,1.59,5.228c.735,4.574,1.248,9.194,1.866,13.786a1.631,1.631,0,0,0,2.385.97,13.811,13.811,0,0,1,18.332,2.685c1.332,1.612,3.617-.7,2.3-2.3a17.011,17.011,0,0,0-22.265-3.192l2.384.97c-.751-5.577-.869-11.76-2.619-17.131-1.2-3.7-3.784-6.392-7.854-6.373-9.792.045-20.015,6.618-26.45,13.521-1.423,1.527.868,3.829,2.3,2.3" transform="translate(-2.205 0)" fill="#ede6f0"/>
          <path id="Path_26338" data-name="Path 26338" d="M434.189,173.325a1.625,1.625,0,0,0,3.131.863c3.273-8.789-.47-19.691-8.948-24.066-8.445-4.358-18.978-1.494-24.636,5.909l2.967.388c-2.547-6.674-1.275-13.639-1.037-20.571a64.033,64.033,0,0,0-1.44-15.748A69.381,69.381,0,0,0,390.052,91a65.515,65.515,0,0,0-59.1-23.191,67.458,67.458,0,0,0-34,14.373l2.55.329c-6.641-15.156-24.7-21.266-40.193-18.875-19.518,3.014-34.338,18.6-45.745,33.549l2.967,1.251c1.815-9.917-8.092-14.685-16.363-15.421-10.266-.914-21.278-.616-30.778,3.736l2.221,2.22c5.184-10.593,1.992-24.346-7.863-31.1-9.917-6.8-24.387-4.434-32.087,4.586-1.35,1.581.936,3.889,2.3,2.3C140.568,57,152.6,54.723,161.383,60.2c8.841,5.514,11.931,17.924,7.423,27.137a1.638,1.638,0,0,0,2.221,2.22c7.392-3.386,15.56-3.764,23.568-3.561,6.794.172,20.675,1.357,18.8,11.58a1.632,1.632,0,0,0,2.967,1.251c10.6-13.887,24.226-28.289,42.129-31.768,14.6-2.837,31.914,2.742,38.2,17.093.462,1.052,1.833.907,2.55.329C316.134,70.855,339.91,66.9,360.4,73.922c20.366,6.983,35.668,25.318,40.489,46.1a62.1,62.1,0,0,1,1.453,17.5c-.366,6.666-1.206,13.36,1.235,19.753a1.65,1.65,0,0,0,2.967.388c4.745-6.208,14.151-8.335,20.964-4.319,6.773,3.994,9.367,12.776,6.685,19.975l3.131.863" transform="translate(-17.145 -7.047)" fill="#ede6f0"/>
          <path id="Path_26339" data-name="Path 26339" d="M139.2,72.367l.914-2.592A2.186,2.186,0,0,0,138.6,67.1a2.227,2.227,0,0,0-2.673,1.518q-.458,1.3-.914,2.592a2.186,2.186,0,0,0,1.518,2.673,2.228,2.228,0,0,0,2.673-1.518" transform="translate(-17.624 -8.757)" fill="#ede6f0"/>
          <path id="Path_26340" data-name="Path 26340" d="M411.434,102.752c8.756,2.463,11.943,14.007,13.578,21.887a61.792,61.792,0,0,1-.77,27.88.544.544,0,0,0,1.048.289,62.991,62.991,0,0,0,.09-31.373c-1.948-7.546-5.3-17.382-13.658-19.731a.544.544,0,0,0-.289,1.048" transform="translate(-53.697 -13.283)" fill="#ede6f0"/>
          <path id="Path_26341" data-name="Path 26341" d="M22.732,28.218c2.56-3.4,15.483-18.475,20.527-12,.429.551,1.194-.223.769-.769-5.9-7.568-19.007,7.938-22.233,12.222-.421.559.522,1.1.938.549" transform="translate(-2.833 -1.75)" fill="#ede6f0"/>
          <path id="Path_26342" data-name="Path 26342" d="M33.153,27.165a27.385,27.385,0,0,1,9.149-4.1c.68-.166.392-1.214-.289-1.048a28.26,28.26,0,0,0-9.409,4.21c-.572.394-.03,1.336.549.938" transform="translate(-4.227 -2.874)" fill="#ede6f0"/>
          <path id="Path_26343" data-name="Path 26343" d="M241.942,104.712a67.15,67.15,0,0,1,29.852-22.744c2.583-1,1.461-5.2-1.155-4.192a72.4,72.4,0,0,0-32.45,24.742c-1.665,2.252,2.106,4.422,3.753,2.194" transform="translate(-31.061 -10.14)" fill="#ede6f0"/>
          <path id="Path_26344" data-name="Path 26344" d="M446.229,168.22h-.217a2.173,2.173,0,0,0,0,4.347h.217a2.173,2.173,0,0,0,0-4.347" transform="translate(-57.98 -21.975)" fill="#ede6f0"/>
          <path id="Path_26345" data-name="Path 26345" d="M84.5,41.784C75.078,42.2,73.727,56.5,76.512,63.193c4.179,10.045,16.534,12.432,25.9,8.81,8.676-3.356,15.026-11.9,12.11-21.4-3-9.779-13.455-14.052-22.87-11.258-2.675.795-1.536,4.991,1.155,4.192,6.823-2.026,14.757.444,17.335,7.609,2.371,6.586-1.264,12.728-7.126,15.833-5.993,3.175-14.389,3.549-19.613-1.34A12.375,12.375,0,0,1,79.56,56.7c-.065-3.062.729-10.381,4.94-10.565,2.786-.122,2.8-4.469,0-4.347" transform="translate(-9.827 -5.03)" fill="#ede6f0"/>
          <path id="Path_26346" data-name="Path 26346" d="M99.179,48.275c-7.131-2.991-11.809,5.21-10.9,11.317.469,3.142,2.279,5.906,5.468,6.777,3.4.929,6.693-.523,9.616-2.148,2.446-1.359.256-5.114-2.194-3.753-2.907,1.616-7.578,3.471-8.572-1.235-.706-3.343,1.268-8.509,5.424-6.766,2.576,1.081,3.7-3.124,1.155-4.191" transform="translate(-11.518 -6.223)" fill="#ede6f0"/>
          <path id="Path_26347" data-name="Path 26347" d="M115.94,35.511q.453-.861.9-1.72a2.174,2.174,0,1,0-3.753-2.193l-.9,1.72a2.174,2.174,0,1,0,3.753,2.194" transform="translate(-14.62 -3.99)" fill="#ede6f0"/>
          <path id="Path_26348" data-name="Path 26348" d="M127.117,46.786l1.738-.437a2.174,2.174,0,0,0-1.155-4.191l-1.738.437a2.194,2.194,0,0,0-1.518,2.673,2.217,2.217,0,0,0,2.673,1.518" transform="translate(-16.245 -5.498)" fill="#ede6f0"/>
          <path id="Path_26349" data-name="Path 26349" d="M65.977,49.183a6.875,6.875,0,0,0,4.589,2.3A2.176,2.176,0,0,0,72.74,49.31a2.24,2.24,0,0,0-2.173-2.173c.533.066-.239-.092-.339-.116-.235-.086-.236-.083,0,.012-.114-.053-.224-.11-.333-.173s-.216-.129-.318-.2c.187.155.185.153,0-.007a7.1,7.1,0,0,1-.516-.544,2.184,2.184,0,0,0-3.074,0,2.232,2.232,0,0,0,0,3.074" transform="translate(-8.539 -5.941)" fill="#ede6f0"/>
          <path id="Path_26350" data-name="Path 26350" d="M74.084,77.192l3.87-1.827a2.192,2.192,0,0,0,.78-2.973,2.223,2.223,0,0,0-2.974-.78l-3.87,1.827a2.192,2.192,0,0,0-.78,2.973,2.223,2.223,0,0,0,2.974.78" transform="translate(-9.253 -9.32)" fill="#ede6f0"/>
          <path id="Path_26351" data-name="Path 26351" d="M119.014,77.832q.37,0-.271-.1a.894.894,0,0,1-.642-.3,1.352,1.352,0,0,1-.4-.915,2.189,2.189,0,0,0,2.173,2.173,2.219,2.219,0,0,0,2.173-2.173,3,3,0,0,0-3.03-3.028,2.173,2.173,0,1,0,0,4.347" transform="translate(-15.263 -9.599)" fill="#ede6f0"/>
          <path id="Path_26352" data-name="Path 26352" d="M89.9,31.35l1.3.437a2.19,2.19,0,0,0,2.674-1.519A2.224,2.224,0,0,0,92.359,27.6l-1.3-.436a2.188,2.188,0,0,0-2.673,1.518A2.222,2.222,0,0,0,89.9,31.35" transform="translate(-11.537 -3.536)" fill="#ede6f0"/>
        </g>
      </g>
      <g id="Group_13246" data-name="Group 13246">
        <g id="Group_13245" data-name="Group 13245" clip-path="url(#clip-path)">
          <path id="Path_26353" data-name="Path 26353" d="M21.417,45.677a17.682,17.682,0,0,1,15.157-9.567c2.79-.094,2.8-4.442,0-4.347a22.069,22.069,0,0,0-18.91,11.719c-1.31,2.471,2.441,4.669,3.753,2.194" transform="translate(-2.272 -4.149)" fill="#ede6f0"/>
          <path id="Path_26354" data-name="Path 26354" d="M283.945,79.891l.58.58a4.485,4.485,0,0,0,3.073,1.273,4.425,4.425,0,0,0,3.074-1.273,4.372,4.372,0,0,0,1.273-3.074,4.528,4.528,0,0,0-1.273-3.073l-.58-.58a4.483,4.483,0,0,0-3.073-1.273,4.422,4.422,0,0,0-3.074,1.273,4.372,4.372,0,0,0-1.273,3.074,4.528,4.528,0,0,0,1.273,3.073" transform="translate(-36.926 -9.467)" fill="#ede6f0"/>
        </g>
      </g>
      <g id="Group_13248" data-name="Group 13248">
        <g id="Group_13247" data-name="Group 13247" clip-path="url(#clip-path)">
          <path id="Path_26355" data-name="Path 26355" d="M49.108,144.07l13.419,72.223q3.315,17.843,6.631,35.687c.547,2.947.355,9.77,3.853,11.206,2.306.947,4.226-.887,4.211-3.184a2.159,2.159,0,0,0-1.076-1.877l-.451-.228C73.2,256.641,71,260.389,73.5,261.651l.451.227L72.874,260l1.894-1.531-.316-1.7a21.039,21.039,0,0,0-.789-4.249q-.631-3.4-1.263-6.8l-2.684-14.445q-2.762-14.87-5.525-29.739Q58.745,172.228,53.3,142.914c-.51-2.747-4.7-1.584-4.191,1.155" transform="translate(-6.409 -18.464)" fill="#ede6f0"/>
          <path id="Path_26356" data-name="Path 26356" d="M51.584,141.637a230.215,230.215,0,0,1,75.048-15.23l-1.877-1.076c4.547,8.976,6.169,18.88,7.633,28.736q2.332,15.7,4.632,31.4,4.644,31.482,9.287,62.964l1.518-2.673-69.63,11.328c-2.754.448-1.586,4.637,1.155,4.191l69.63-11.328c1.255-.2,1.674-1.62,1.518-2.673q-4.769-32.333-9.537-64.665c-1.537-10.417-3.045-20.838-4.612-31.249-1.468-9.754-3.349-19.36-7.841-28.227a2.139,2.139,0,0,0-1.876-1.076,233.87,233.87,0,0,0-76.2,15.386c-2.585.992-1.463,5.2,1.155,4.191" transform="translate(-6.396 -15.945)" fill="#ede6f0"/>
          <path id="Path_26357" data-name="Path 26357" d="M75.657,266.52l70.357-13.347c2.745-.521,1.582-4.711-1.155-4.191L74.5,262.329c-2.745.521-1.583,4.711,1.155,4.191" transform="translate(-9.527 -32.519)" fill="#ede6f0"/>
          <path id="Path_26358" data-name="Path 26358" d="M51.083,155.43a602.349,602.349,0,0,0,75.02-12.306c2.725-.626,1.572-4.818-1.155-4.191a593.3,593.3,0,0,1-73.865,12.15c-2.758.276-2.785,4.625,0,4.347" transform="translate(-6.402 -18.141)" fill="#ede6f0"/>
          <path id="Path_26359" data-name="Path 26359" d="M98.686,138.578v-.435a2.173,2.173,0,0,0-4.347,0v.435a2.173,2.173,0,0,0,4.347,0" transform="translate(-12.324 -17.762)" fill="#ede6f0"/>
          <path id="Path_26360" data-name="Path 26360" d="M2.7,185.3a78.157,78.157,0,0,1,44.825,2.149l-1.6-2.1q-.291.759-.583,1.517c-1.394,2.431,2.36,4.622,3.753,2.193a7.855,7.855,0,0,0,1.177-3.71,2.191,2.191,0,0,0-1.6-2.1,82.41,82.41,0,0,0-47.136-2.148c-2.714.671-1.565,4.864,1.155,4.191" transform="translate(0 -23.339)" fill="#ede6f0"/>
          <path id="Path_26361" data-name="Path 26361" d="M128.929,83.947q-.291-.19.114.094c-.157-.169-.131-.125.076.13a2.134,2.134,0,0,1-.139-.235q.181.469.069.137-.08-.351,0,.176a2.2,2.2,0,0,1-.007-.273q-.091.527-.019.175.106-.333-.075.137A2.174,2.174,0,1,0,125.2,82.1a4.314,4.314,0,0,0,1.539,5.6,2.191,2.191,0,0,0,2.974-.78,2.221,2.221,0,0,0-.78-2.973" transform="translate(-16.295 -10.587)" fill="#ede6f0"/>
          <path id="Path_26362" data-name="Path 26362" d="M164.126,220.48C185.3,231.9,199.951,252.139,221.1,263.586,240.358,274,263,277.393,284.546,273.943a96.462,96.462,0,0,0,35.464-13.2c2.375-1.468.195-5.23-2.193-3.753-24.018,14.851-54.258,17.892-80.937,8.786-13.846-4.726-25.432-13.021-36.364-22.565-10.884-9.5-21.38-19.569-34.2-26.48-2.463-1.328-4.66,2.423-2.194,3.753" transform="translate(-21.299 -28.275)" fill="#ede6f0"/>
          <path id="Path_26363" data-name="Path 26363" d="M293.2,211.286a543.311,543.311,0,0,1,63.75,68.99c1.712,2.208,4.768-.888,3.074-3.074a543.187,543.187,0,0,0-63.751-68.989c-2.065-1.88-5.148,1.186-3.073,3.073" transform="translate(-38.211 -27.123)" fill="#ede6f0"/>
          <path id="Path_26364" data-name="Path 26364" d="M296.137,204.427a159.076,159.076,0,0,1,12.99-10.949q3.19-2.394,6.511-4.613a15.1,15.1,0,0,1,2.668-1.75c3.668-1.375,4.222.03,6.008,2.038q10.672,12,20.94,24.347,21.218,25.372,40.953,51.93c1.651,2.219,5.426.055,3.753-2.193q-22.527-30.287-46.937-59.108-6.126-7.222-12.37-14.342c-2.582-2.945-5.7-8.263-10.225-8.033-4.767.243-9.835,5.232-13.5,7.971a167.363,167.363,0,0,0-13.871,11.628c-2.05,1.913,1.029,4.981,3.075,3.074" transform="translate(-38.195 -23.742)" fill="#ede6f0"/>
          <path id="Path_26365" data-name="Path 26365" d="M377.309,293.874l12.756-7.907c3.06-1.9,6.2-3.614,7.8-6.986,1.193-2.514-2.553-4.722-3.753-2.194-1.627,3.428-5.833,5.172-8.931,7.091l-10.071,6.243c-2.373,1.471-.192,5.233,2.194,3.753" transform="translate(-48.869 -36.011)" fill="#ede6f0"/>
          <path id="Path_26366" data-name="Path 26366" d="M351.534,265.6a206.662,206.662,0,0,1,27.648-20.082c2.387-1.451.206-5.211-2.193-3.753a213.4,213.4,0,0,0-28.527,20.76c-2.123,1.83.963,4.893,3.073,3.074" transform="translate(-45.427 -31.54)" fill="#ede6f0"/>
          <path id="Path_26367" data-name="Path 26367" d="M338.04,189.727l12.395-4.7c1.132-.429,12.511-4.17,12.514-4.495-.022,2.8,4.325,2.8,4.347,0,.045-5.79-5.955-4.273-9.5-2.93l-20.915,7.936c-2.591.982-1.468,5.187,1.155,4.191" transform="translate(-43.816 -23.039)" fill="#ede6f0"/>
          <path id="Path_26368" data-name="Path 26368" d="M368.366,181.431a495.1,495.1,0,0,1,37.165,87.69l1.518-2.673a43.683,43.683,0,0,0-10.008,3.57c-1.685.856-7.91,6.039-9.474,4.071-1.74-2.19-4.8.9-3.073,3.073,2.193,2.76,5.673,1.95,8.421.458,5.137-2.791,9.447-5.631,15.291-6.982a2.2,2.2,0,0,0,1.518-2.673,501.184,501.184,0,0,0-37.6-88.728c-1.334-2.459-5.088-.268-3.753,2.194" transform="translate(-48.084 -23.274)" fill="#ede6f0"/>
          <path id="Path_26369" data-name="Path 26369" d="M383.849,251.059a39.536,39.536,0,0,1,12.71-4.744c2.746-.523,1.583-4.715-1.155-4.192a43.11,43.11,0,0,0-13.751,5.183c-2.413,1.412-.228,5.17,2.2,3.753" transform="translate(-49.72 -31.623)" fill="#ede6f0"/>
          <path id="Path_26370" data-name="Path 26370" d="M306.015,214.459a3.253,3.253,0,0,0,3.315-3.313,2.173,2.173,0,1,0-4.347,0c.021.342.083-.276.123-.39q.123-.252.039-.1c-.086.143-.031.071.164-.211.047-.047.414-.275.163-.136a.9.9,0,0,1,.483-.161q.322-.026.061-.031a2.186,2.186,0,0,0-2.173,2.173,2.224,2.224,0,0,0,2.173,2.173" transform="translate(-39.692 -27.298)" fill="#ede6f0"/>
          <path id="Path_26371" data-name="Path 26371" d="M311.05,219.456a32.738,32.738,0,0,1,6.208,6.945c1.535,2.325,5.3.15,3.754-2.194a36.762,36.762,0,0,0-6.888-7.824c-2.122-1.8-5.212,1.261-3.074,3.074" transform="translate(-40.539 -28.195)" fill="#ede6f0"/>
          <path id="Path_26372" data-name="Path 26372" d="M325.495,234.231a6.541,6.541,0,0,0,3.106,3.045,2.229,2.229,0,0,0,2.974-.78,2.2,2.2,0,0,0-.78-2.973,5.008,5.008,0,0,1-.669-.36c-.285-.186-.063-.094.049.055a3.15,3.15,0,0,0-.31-.276c-.083-.08-.162-.164-.238-.25-.241-.272,0-.095.038.062a5.244,5.244,0,0,0-.417-.716,2.185,2.185,0,0,0-2.973-.779,2.229,2.229,0,0,0-.78,2.973" transform="translate(-42.485 -30.172)" fill="#ede6f0"/>
          <path id="Path_26373" data-name="Path 26373" d="M336.146,247.165a14.052,14.052,0,0,1,4.249,5.028c1.288,2.484,5.041.289,3.753-2.194a18.688,18.688,0,0,0-5.809-6.586,2.19,2.19,0,0,0-2.973.779,2.221,2.221,0,0,0,.78,2.974" transform="translate(-43.771 -31.757)" fill="#ede6f0"/>
          <path id="Path_26374" data-name="Path 26374" d="M319.835,204.112a39.536,39.536,0,0,0,9.862-7.2c1.982-1.979-1.091-5.053-3.074-3.073a35.708,35.708,0,0,1-8.982,6.523c-2.489,1.279-.292,5.03,2.194,3.753" transform="translate(-41.351 -25.238)" fill="#ede6f0"/>
          <path id="Path_26375" data-name="Path 26375" d="M325.971,209.464a17.4,17.4,0,0,0,6.7-4.143c1.985-1.977-1.088-5.051-3.073-3.073a12.538,12.538,0,0,1-4.787,3.025c-2.629.905-1.5,5.106,1.155,4.191" transform="translate(-42.236 -26.337)" fill="#ede6f0"/>
          <path id="Path_26376" data-name="Path 26376" d="M331.444,216.522l5.8-4.635a2.187,2.187,0,0,0,0-3.073,2.226,2.226,0,0,0-3.074,0l-5.8,4.634a2.188,2.188,0,0,0,0,3.074,2.226,2.226,0,0,0,3.074,0" transform="translate(-42.813 -27.197)" fill="#ede6f0"/>
          <path id="Path_26377" data-name="Path 26377" d="M335.258,224.143a75.442,75.442,0,0,0,9.512-7.56c2.047-1.916-1.032-4.985-3.073-3.073a68.512,68.512,0,0,1-8.633,6.88c-2.31,1.552-.137,5.32,2.194,3.753" transform="translate(-43.38 -27.813)" fill="#ede6f0"/>
          <path id="Path_26378" data-name="Path 26378" d="M357.871,194.507a71.944,71.944,0,0,1,8.5-4.45c2.553-1.128.344-4.874-2.194-3.753a72.011,72.011,0,0,0-8.5,4.45c-2.382,1.457-.2,5.218,2.194,3.753" transform="translate(-46.329 -24.31)" fill="#ede6f0"/>
          <path id="Path_26379" data-name="Path 26379" d="M361.207,202.546a58.951,58.951,0,0,1,10.924-4.229c2.691-.75,1.548-4.945-1.155-4.192a64.915,64.915,0,0,0-11.963,4.668c-2.5,1.266-.3,5.017,2.194,3.753" transform="translate(-46.755 -25.347)" fill="#ede6f0"/>
          <path id="Path_26380" data-name="Path 26380" d="M366.629,213.349a20.734,20.734,0,0,1,8.588-3.589c2.75-.485,1.584-4.675-1.155-4.191a23.717,23.717,0,0,0-9.627,4.027c-2.262,1.606-.094,5.377,2.194,3.753" transform="translate(-47.482 -26.849)" fill="#ede6f0"/>
          <path id="Path_26381" data-name="Path 26381" d="M375.261,221.84l2.317-.582a2.174,2.174,0,1,0-1.155-4.191l-2.318.582a2.194,2.194,0,0,0-1.518,2.673,2.217,2.217,0,0,0,2.674,1.518" transform="translate(-48.661 -28.347)" fill="#ede6f0"/>
          <path id="Path_26382" data-name="Path 26382" d="M378.691,227.984c2.8,0,2.8-4.347,0-4.347s-2.8,4.347,0,4.347" transform="translate(-49.195 -29.214)" fill="#ede6f0"/>
          <path id="Path_26383" data-name="Path 26383" d="M382.014,202.774l22.076-1.784c6.47-.522,13.148-1.6,19.642-1.456,5.283.118,4.641,2.222,4.841,6.7q.249,5.563.6,11.119.67,10.687,1.712,21.345,1,10.23,2.34,20.423c.43,3.269,1.186,6.625,1.378,9.91.17,2.882.042,2.962-2.636,3.424l-5.835,1.007-20.005,3.452c-2.281.394-20.068,4.582-20.734,3.25-1.249-2.5-5-.3-3.753,2.194,1.032,2.067,2.883,2.419,5.059,2.278,4.059-.263,8.237-1.4,12.248-2.092l26.674-4.6c4.8-.828,14.1-.046,13.631-6.946-.615-9.052-2.539-18.143-3.5-27.184q-1.446-13.629-2.286-27.312-.368-5.984-.618-11.976c-.113-2.709.344-5.859-2.071-7.693-2.262-1.719-5.8-1.7-8.5-1.62-4.362.123-8.745.667-13.094,1.018l-27.17,2.2c-2.769.223-2.793,4.573,0,4.347" transform="translate(-49.631 -25.498)" fill="#ede6f0"/>
          <path id="Path_26384" data-name="Path 26384" d="M397.776,228.491a13.773,13.773,0,0,1,22.472,3.215,16.246,16.246,0,0,1,.664,13.186c-2.8,6.924-9.666,5.837-15.889,5.938-2.794.045-2.8,4.393,0,4.347,7.3-.119,14.832.669,18.947-6.577a20.349,20.349,0,0,0,.536-18.012c-5.211-11.638-21.043-14.863-29.8-5.17-1.871,2.072,1.194,5.154,3.074,3.074" transform="translate(-51.485 -28.7)" fill="#ede6f0"/>
          <path id="Path_26385" data-name="Path 26385" d="M404.956,224.649c1.838,9.309,4.71,18.983,4.16,28.534-.161,2.8,4.186,2.785,4.347,0,.573-9.936-2.406-20.015-4.316-29.689-.541-2.742-4.731-1.581-4.191,1.155" transform="translate(-52.894 -28.991)" fill="#ede6f0"/>
          <path id="Path_26386" data-name="Path 26386" d="M412.667,225.3c2.658,9.214,2.842,19.461,10.263,26.451,2.035,1.918,5.114-1.15,3.073-3.073-6.733-6.344-6.732-16.173-9.145-24.534-.774-2.683-4.969-1.542-4.191,1.155" transform="translate(-53.895 -29.081)" fill="#ede6f0"/>
          <path id="Path_26387" data-name="Path 26387" d="M398.45,229.441c5.675,4.078,4.24,13.029,5.627,19.048.628,2.725,4.82,1.572,4.191-1.155-1.784-7.748-.358-16.425-7.623-21.645-2.276-1.635-4.448,2.133-2.194,3.753" transform="translate(-51.927 -29.43)" fill="#ede6f0"/>
          <path id="Path_26388" data-name="Path 26388" d="M401.034,239.38a100.472,100.472,0,0,0,23.46-1.155c2.754-.455,1.586-4.644-1.155-4.192a95.655,95.655,0,0,1-22.3,1c-2.792-.194-2.779,4.154,0,4.347" transform="translate(-52.115 -30.568)" fill="#ede6f0"/>
          <path id="Path_26389" data-name="Path 26389" d="M403.689,250.315a141.224,141.224,0,0,0,21.449-.309c2.764-.25,2.79-4.6,0-4.347a141.226,141.226,0,0,1-21.449.309c-2.794-.172-2.784,4.176,0,4.347" transform="translate(-52.462 -32.09)" fill="#ede6f0"/>
          <path id="Path_26390" data-name="Path 26390" d="M174.386,215.74l11.807-20.555c3.817-6.647,7.324-13.784,16.374-11.452,6.686,1.722,12.694,5.828,18.206,9.838,5.922,4.308,11.707,8.812,17.577,13.192,23.867,17.807,48.127,35.095,73.134,51.273,2.356,1.524,4.537-2.238,2.194-3.753-27.813-17.993-54.7-37.362-81.151-57.283-6.008-4.524-11.9-9.352-18.481-13.042-5.5-3.087-12.823-6.6-19.266-4.609-5.677,1.753-8.735,7.379-11.5,12.176q-6.338,11-12.649,22.023c-1.4,2.43,2.359,4.622,3.753,2.194" transform="translate(-22.25 -23.353)" fill="#ede6f0"/>
          <path id="Path_26391" data-name="Path 26391" d="M245.385,201.719a122.416,122.416,0,0,1,8.459-10.952,33.021,33.021,0,0,1,4.065-4.411c2.516-1.969,4.779-.975,7.535.057a71.213,71.213,0,0,1,11.8,5.907c3.571,2.16,9.056,4.744,11.689,8.067q-.17-1.317-.34-2.634c-.079.13-.159.261-.238.392l2.454-1-.389-.057c-2.736-.4-3.917,3.79-1.155,4.191l.389.057a2.282,2.282,0,0,0,2.454-1l.239-.391a2.248,2.248,0,0,0-.34-2.634c-1.529-1.929-4.068-3.2-6.1-4.57-2.553-1.724-5.135-3.408-7.795-4.963-4.635-2.709-9.809-5.466-15.072-6.72-4.987-1.188-7.568,1.4-10.769,4.933a130.492,130.492,0,0,0-10.648,13.533c-1.593,2.308,2.173,4.484,3.753,2.194" transform="translate(-31.515 -23.614)" fill="#ede6f0"/>
          <path id="Path_26392" data-name="Path 26392" d="M254.135,207.777c2.272-2.379,4.543-5.657,7.219-7.564,4.858-3.46,10.013,1.165,13.7,4.273,2.632,2.217,6.729,5.02,7.309,8.459.61,3.622-3.353,8.063-5.207,11.2-1.426,2.414,2.33,4.6,3.753,2.194,1.708-2.893,3.441-5.773,5.126-8.68.969-1.675,1.945-3.349,1.667-5.353-.311-2.246-2.118-3.825-3.626-5.336a88.692,88.692,0,0,0-7.085-6.5c-3.62-2.916-8.667-6.878-13.653-6.252-4.944.62-9.108,7.16-12.279,10.483-1.932,2.023,1.137,5.1,3.073,3.073" transform="translate(-32.717 -25.363)" fill="#ede6f0"/>
          <path id="Path_26393" data-name="Path 26393" d="M299.941,223.131a56.044,56.044,0,0,1-6.066,12.569c-1.518,2.359,2.244,4.542,3.754,2.194a60.809,60.809,0,0,0,6.5-13.608c.892-2.658-3.3-3.8-4.191-1.155" transform="translate(-38.344 -28.952)" fill="#ede6f0"/>
        </g>
      </g>
    </g>
    <g id="Group_13256" data-name="Group 13256" transform="translate(1751.312 447.241)">
      <g id="Group_13251" data-name="Group 13251">
        <g id="Group_13250" data-name="Group 13250" clip-path="url(#clip-path-5)">
          <path id="Path_26394" data-name="Path 26394" d="M260.436,133.632c-10.842,4.284-20.475,13.993-18.154,26.6,2.3,12.5,18.693,19.5,30.2,19.193,5.534-.147,11.191-2.155,15.012-6.277,4.534-4.893,5.45-11.98,5.556-18.373.1-5.9-.744-12.478-5.117-16.848a12.645,12.645,0,0,0-14.317-2.895c-2.752,1.2-.374,5.226,2.361,4.037,5.26-2.286,10.09,2.568,11.5,7.236,1.342,4.447,1.125,9.613.467,14.179-1.589,11.033-10.726,15.9-21.26,13.682-8.132-1.712-19.02-6.516-19.984-15.9-.992-9.66,6.7-16.853,14.978-20.125,2.766-1.093,1.561-5.617-1.243-4.509" transform="translate(-15.664 -8.641)" fill="#ede6f0"/>
          <path id="Path_26395" data-name="Path 26395" d="M266.11,183.612c1.63,3.755,2.962,9.521,5.862,12.469,2.482,2.522,5.971,1.262,8.955.612,2.866-.625,6.945-.724,8.126-3.923,1.514-4.1,1.019-9.9,1.382-14.253.25-3-4.428-2.983-4.676,0l-.777,9.331c-.084,1.018.079,2.637-.587,3.246-.743.681-2.975.712-3.98.931a15.009,15.009,0,0,1-3.651.8c-2.146-.145-2.168-1.351-2.9-3.009-1.254-2.846-2.477-5.706-3.716-8.559-1.2-2.752-5.225-.375-4.037,2.361" transform="translate(-17.215 -11.413)" fill="#ede6f0"/>
          <path id="Path_26396" data-name="Path 26396" d="M226.952,145.634l6.583,1.731c2.913.766,4.155-3.743,1.243-4.509l-6.583-1.731c-2.912-.767-4.155,3.743-1.243,4.509" transform="translate(-14.586 -9.131)" fill="#ede6f0"/>
          <path id="Path_26397" data-name="Path 26397" d="M251.3,124.87a6.041,6.041,0,0,0,2.926,6.385,2.338,2.338,0,1,0,2.361-4.037,3.354,3.354,0,0,1-.366-.217q.289.226-.013-.043-.268-.3-.04-.018a3.693,3.693,0,0,1-.221-.364q-.182-.368-.014-.028a3.7,3.7,0,0,1-.108-.412c.136.621.078-.646-.016-.023a2.4,2.4,0,0,0-1.633-2.876,2.364,2.364,0,0,0-2.876,1.633" transform="translate(-16.265 -7.975)" fill="#ede6f0"/>
          <path id="Path_26398" data-name="Path 26398" d="M278.2,116.492V122.1c0,3.009,4.676,3.014,4.676,0v-5.612c0-3.009-4.676-3.014-4.676,0" transform="translate(-18.012 -7.396)" fill="#ede6f0"/>
          <path id="Path_26399" data-name="Path 26399" d="M295.2,131.486v.935a2.338,2.338,0,1,0,4.676,0v-.935a2.338,2.338,0,0,0-4.676,0" transform="translate(-19.113 -8.362)" fill="#ede6f0"/>
          <path id="Path_26400" data-name="Path 26400" d="M254.41,152.917a9.784,9.784,0,0,0,8.671,12.218c3,.237,2.985-4.441,0-4.676-2.967-.235-4.95-3.555-4.162-6.3.833-2.9-3.677-4.135-4.509-1.243" transform="translate(-16.448 -9.794)" fill="#ede6f0"/>
          <path id="Path_26401" data-name="Path 26401" d="M347.429,77.086l13.285,48.06c1.288,4.66,1.755,13.028,7.364,14.607,2.553.718,5.244-.171,7.7-.859,4-1.118,7.965-2.378,11.894-3.718s7.83-2.781,11.689-4.32c2.768-1.1,6.281-2.016,8.764-3.685,1.756-1.18,2.083-2.19,1.791-4.253-.585-4.133-2.572-8.553-3.771-12.539Q398.876,86.2,391.6,62.017a2.406,2.406,0,0,0-2.876-1.633,135.88,135.88,0,0,0-38.209,12.794c-2.683,1.365-.319,5.4,2.361,4.037a131.7,131.7,0,0,1,37.091-12.322L387.1,63.26q4.579,15.227,9.157,30.452l4.31,14.33,2.424,8.061c.784,2.607,2.271,5.758,2.383,8.477l1.159-2.019c-3.228,2.434-7.92,3.627-11.724,5.082q-5.819,2.226-11.75,4.15c-3.447,1.12-7.984,3.315-11.584,3.406-3.251.082-3.5-1.517-4.278-4.175-.608-2.067-1.148-4.154-1.723-6.231q-6.765-24.475-13.531-48.949c-.8-2.9-5.313-1.667-4.509,1.243" transform="translate(-22.488 -3.906)" fill="#ede6f0"/>
          <path id="Path_26402" data-name="Path 26402" d="M353.768,86.76A128.132,128.132,0,0,1,387.8,74.9c2.951-.585,1.7-5.093-1.242-4.509a132.507,132.507,0,0,0-35.148,12.334c-2.674,1.382-.311,5.419,2.362,4.037" transform="translate(-22.676 -4.554)" fill="#ede6f0"/>
          <path id="Path_26403" data-name="Path 26403" d="M372.081,138.734l32-10.62c2.842-.943,1.625-5.46-1.243-4.509l-32,10.62c-2.842.943-1.625,5.461,1.243,4.509" transform="translate(-23.905 -7.994)" fill="#ede6f0"/>
          <path id="Path_26404" data-name="Path 26404" d="M366.969,102.182a105.092,105.092,0,0,0,5.282,16.64c1.129,2.744,5.655,1.542,4.509-1.244a105.151,105.151,0,0,1-5.282-16.639c-.67-2.933-5.179-1.692-4.509,1.243" transform="translate(-23.755 -6.427)" fill="#ede6f0"/>
          <path id="Path_26405" data-name="Path 26405" d="M380.075,113.188q1.048,2.762,2.1,5.525a2.4,2.4,0,0,0,2.876,1.633,2.355,2.355,0,0,0,1.633-2.876q-1.049-2.764-2.1-5.525a2.4,2.4,0,0,0-2.876-1.633,2.355,2.355,0,0,0-1.633,2.876" transform="translate(-24.6 -7.137)" fill="#ede6f0"/>
          <path id="Path_26406" data-name="Path 26406" d="M382.548,114.824c3.009,0,3.014-4.676,0-4.676s-3.014,4.676,0,4.676" transform="translate(-24.622 -7.131)" fill="#ede6f0"/>
          <path id="Path_26407" data-name="Path 26407" d="M389.066,109.163q.47,1.87.941,3.739a2.339,2.339,0,0,0,4.51-1.243q-.471-1.87-.942-3.739a2.361,2.361,0,0,0-2.876-1.633,2.385,2.385,0,0,0-1.633,2.876" transform="translate(-25.185 -6.875)" fill="#ede6f0"/>
        </g>
      </g>
      <g id="Group_13253" data-name="Group 13253">
        <g id="Group_13252" data-name="Group 13252" clip-path="url(#clip-path-5)">
          <path id="Path_26408" data-name="Path 26408" d="M91.5,157.864c8.979-6.784,19.551-14.978,31.5-14.029a21.377,21.377,0,0,1,13.41,5.822c3.552,3.589,3.387,8.12,5.626,12.315,1.562,2.927,4.414,4.453,7.432,2.459,2.351-1.553,3.768-3.42,6.627-4.221a16.173,16.173,0,0,1,8.124.014c12.109,2.937,16.97,15.65,20.571,26.216a1.77,1.77,0,0,0,3.192.417,41.757,41.757,0,0,1,40.19-19.51c2.23.256,2.211-3.238,0-3.493a45.177,45.177,0,0,0-43.205,21.241l3.192.417c-2.923-8.574-6.3-17.819-13.47-23.81-5.763-4.817-14.354-7.181-21.5-4.16a24.477,24.477,0,0,0-4.515,2.936c-1.279.9-2.352,1.4-3.442.089a9.052,9.052,0,0,1-1.169-3.1c-1.036-3.632-1.993-6.764-4.586-9.644-4.915-5.464-12.929-8.01-20.14-7.488-11.3.818-20.881,7.932-29.6,14.516-1.771,1.338-.033,4.372,1.763,3.016" transform="translate(-5.762 -9.081)" fill="#ede6f0"/>
          <path id="Path_26409" data-name="Path 26409" d="M313.57,148.017a26.824,26.824,0,0,1,27.812-9.44l.929-3.368c-19.9-3.7-39.313-19.051-44-39.39-1.994-8.662-1.328-19.957,6.287-25.836,3.652-2.82,8.465-3.312,10.458-7.96,2.035-4.747,1.351-9.9,4.086-14.526,7.025-11.89,23.293-13.473,32.857-3.729.985,1,3.14.318,2.982-1.235a35.822,35.822,0,0,1,10.7-29.652,35.579,35.579,0,0,1,30.833-8.8c2.2.416,3.138-2.949.929-3.368a39.349,39.349,0,0,0-33.435,8.97,39.065,39.065,0,0,0-12.525,32.853l2.982-1.235c-7.964-8.113-21.007-10.113-30.63-3.684a25.092,25.092,0,0,0-9.6,12.1c-1.021,2.774-1.158,5.62-1.719,8.491-.874,4.472-3.782,5.366-7.359,7.269-8.936,4.754-11.9,15.451-11.185,24.935.82,10.883,6.179,20.921,13.374,28.959a60.844,60.844,0,0,0,34.024,19.208c2.178.4,3.135-2.795.929-3.368a30.445,30.445,0,0,0-31.757,11.045c-1.366,1.783,1.666,3.524,3.016,1.763" transform="translate(-19.027 0)" fill="#ede6f0"/>
          <path id="Path_26410" data-name="Path 26410" d="M144.585,139.751c48.3-3.818,106.47-13.462,127.992-63.614a65.573,65.573,0,0,0,4.771-36.45l-4.51,1.243a7.305,7.305,0,0,1-2.526,7.474l3.307,3.306a16.88,16.88,0,0,0,4.064-10.493l-4.357,1.18a24.877,24.877,0,0,1,2.055,9.758c.051,3.006,4.728,3.015,4.676,0a30.976,30.976,0,0,0-2.693-12.118c-.991-2.278-4.267-.919-4.357,1.18a11.445,11.445,0,0,1-2.694,7.187,2.34,2.34,0,0,0,3.307,3.306,11.917,11.917,0,0,0,3.729-12.023c-.68-2.986-4.971-1.665-4.51,1.243,4.577,28.844-14.093,56.332-37.666,71.223-26.839,16.956-59.661,20.477-90.588,22.921-2.98.236-3.006,4.914,0,4.676" transform="translate(-9.216 -2.46)" fill="#ede6f0"/>
          <path id="Path_26411" data-name="Path 26411" d="M377.258,32.571a29.659,29.659,0,0,1,13.588-13.339,37.919,37.919,0,0,1,10.793-3.314c2.724-.428,10.015-1.9,11.621,1.2.346.669,1.355.078,1.009-.59-1.232-2.377-3.807-2.342-6.232-2.313a43.258,43.258,0,0,0-13.859,2.374,31.457,31.457,0,0,0-17.93,15.391c-.339.67.67,1.263,1.009.59" transform="translate(-24.356 -0.92)" fill="#ede6f0"/>
          <path id="Path_26412" data-name="Path 26412" d="M395.235,25.57a48.393,48.393,0,0,1,17.244-2.425c.753.03.751-1.14,0-1.169a49.135,49.135,0,0,0-17.555,2.467c-.712.235-.407,1.364.311,1.127" transform="translate(-25.543 -1.42)" fill="#ede6f0"/>
          <path id="Path_26413" data-name="Path 26413" d="M411.473,29.981a3.018,3.018,0,0,1,4.646.017c.475.584,1.3-.248.827-.827a4.174,4.174,0,0,0-6.3-.017c-.475.576.347,1.408.827.827" transform="translate(-26.578 -1.795)" fill="#ede6f0"/>
          <path id="Path_26414" data-name="Path 26414" d="M415.569,2.365l-.949,1.863a2.338,2.338,0,1,0,4.038,2.361q.476-.932.949-1.863a2.338,2.338,0,1,0-4.037-2.361" transform="translate(-26.826 -0.08)" fill="#ede6f0"/>
          <path id="Path_26415" data-name="Path 26415" d="M347.186,42.148h-.311a2.338,2.338,0,0,0,0,4.676h.311a2.338,2.338,0,0,0,0-4.676" transform="translate(-22.307 -2.729)" fill="#ede6f0"/>
        </g>
      </g>
      <g id="Group_13255" data-name="Group 13255">
        <g id="Group_13254" data-name="Group 13254" clip-path="url(#clip-path-5)">
          <path id="Path_26416" data-name="Path 26416" d="M142.295,332.214c18.937-19.566,45.765-30.328,72.926-30.23a97,97,0,0,1,20.439,2.2,95.769,95.769,0,0,1,9.249,2.512c2.645.865,5.7,2.648,8.5,2.692,2.34.037,3.705-1.164,5.134-2.811,2.346-2.708,4.3-5.5,7.067-7.827A38.271,38.271,0,0,1,287.387,290c2.983-.224,3.007-4.9,0-4.676a42.7,42.7,0,0,0-27.2,12.033,40.946,40.946,0,0,0-3.78,4.269c-1.538,1.987-2.559,2.855-5.092,2.419-2.976-.513-6.154-2.229-9.1-3.051a96.682,96.682,0,0,0-10.694-2.338,105.1,105.1,0,0,0-19.73-1.307c-27.2.8-53.827,11.949-72.806,31.557-2.093,2.164,1.209,5.474,3.307,3.307" transform="translate(-8.955 -18.473)" fill="#ede6f0"/>
          <path id="Path_26417" data-name="Path 26417" d="M394.71,233.853c-3.474-12.138-1.893-25.626,5.258-36.179,8.431-12.443,23.066-15.776,36.974-18.309,2.956-.539,1.7-5.046-1.243-4.509-15.289,2.783-30.6,6.878-39.769,20.457-7.8,11.546-9.526,26.519-5.729,39.783.826,2.888,5.339,1.66,4.509-1.243" transform="translate(-25.138 -11.318)" fill="#ede6f0"/>
          <path id="Path_26418" data-name="Path 26418" d="M35.738,250.454a426.825,426.825,0,0,1,36.178-27.8q4.679-3.207,9.441-6.287c2.076-1.343,4.605-2.564,6.2-4.524,1.42-1.75,1.871-4,2.438-6.123.99-3.712,1.952-7.431,2.927-11.145l-4.273.559a25.89,25.89,0,0,1,4.108,8c.441,1.506,2.277,7.9.015,8.8-2.768,1.09-1.563,5.614,1.243,4.509,9.113-3.59,2.529-18.373-1.328-23.665-1.125-1.544-3.724-1.534-4.273.558q-1.256,4.777-2.509,9.553c-1.062,4.044-1.791,6.109-5.437,8.5-5.6,3.671-11.175,7.35-16.635,11.225q-16.258,11.537-31.4,24.537c-2.29,1.96,1.03,5.254,3.306,3.307" transform="translate(-2.05 -12.41)" fill="#ede6f0"/>
          <path id="Path_26419" data-name="Path 26419" d="M28.138,255.62c-4.859,5.283-4.024,12.4-2.693,18.925a2.338,2.338,0,0,0,2.255,1.717,30.329,30.329,0,0,0,19.506-10.306c1.953-2.271-1.34-5.593-3.307-3.306a25.553,25.553,0,0,1-16.2,8.935l2.255,1.716c-.958-4.685-2.077-10.5,1.489-14.375,2.034-2.213-1.264-5.528-3.306-3.307" transform="translate(-1.581 -16.502)" fill="#ede6f0"/>
          <path id="Path_26420" data-name="Path 26420" d="M55.818,260.6a82.446,82.446,0,0,1,8.724-6.741c2.486-1.668.148-5.72-2.361-4.037a91.5,91.5,0,0,0-9.671,7.473c-2.257,2,1.061,5.3,3.307,3.305" transform="translate(-3.351 -16.149)" fill="#ede6f0"/>
          <path id="Path_26421" data-name="Path 26421" d="M61.585,253.006l34-2.287c4.717-.317,10.1.068,14.666-1.191,3.719-1.025,6.6-4.611,9.926-6.5,2.617-1.485.264-5.526-2.36-4.037-3.336,1.894-6.511,5.612-10.286,6.248-5.05.852-10.511.707-15.623,1.05l-30.326,2.04c-2.986.2-3.009,4.878,0,4.676" transform="translate(-3.842 -15.452)" fill="#ede6f0"/>
          <path id="Path_26422" data-name="Path 26422" d="M80.214,239.723a253.637,253.637,0,0,1,39.977,3.33c2.944.484,4.211-4.022,1.243-4.509a261.48,261.48,0,0,0-41.22-3.5c-3.01-.015-3.013,4.661,0,4.676" transform="translate(-5.047 -15.218)" fill="#ede6f0"/>
          <path id="Path_26423" data-name="Path 26423" d="M64.1,245.783l11.96-6.654c2.63-1.464.275-5.5-2.361-4.038l-11.96,6.655c-2.63,1.463-.274,5.5,2.361,4.038" transform="translate(-3.923 -15.2)" fill="#ede6f0"/>
          <path id="Path_26424" data-name="Path 26424" d="M84.815,232.706a99.207,99.207,0,0,0,15.369-13.56c2.032-2.214-1.266-5.53-3.307-3.307a93.392,93.392,0,0,1-14.423,12.83c-2.425,1.737-.093,5.795,2.361,4.038" transform="translate(-5.272 -13.927)" fill="#ede6f0"/>
          <path id="Path_26425" data-name="Path 26425" d="M46.723,239.091l5.151-23.033c.656-2.93-3.851-4.182-4.509-1.242l-5.151,23.033c-.656,2.93,3.851,4.183,4.509,1.242" transform="translate(-2.729 -13.8)" fill="#ede6f0"/>
          <path id="Path_26426" data-name="Path 26426" d="M54.386,214.534a7.577,7.577,0,0,1,3.326-2.476,2.4,2.4,0,0,0,1.633-2.876,2.356,2.356,0,0,0-2.876-1.633,13.166,13.166,0,0,0-6.12,4.624,2.354,2.354,0,0,0,.838,3.2,2.4,2.4,0,0,0,3.2-.839" transform="translate(-3.238 -13.43)" fill="#ede6f0"/>
          <path id="Path_26427" data-name="Path 26427" d="M52.214,215.824c3.009,0,3.014-4.676,0-4.676s-3.014,4.676,0,4.676" transform="translate(-3.234 -13.671)" fill="#ede6f0"/>
          <path id="Path_26428" data-name="Path 26428" d="M55.577,215.707c-1.187.8-.522,4.24-.538,5.589l-.079,6.516c-.036,3.01,4.64,3.012,4.676,0q.046-3.8.092-7.6c.022-1.853.293-3.9-.188-5.7-.73-2.75-3.749-4.58-6.324-2.837-2.478,1.678-.14,5.73,2.361,4.038" transform="translate(-3.377 -13.66)" fill="#ede6f0"/>
          <path id="Path_26429" data-name="Path 26429" d="M33.147,264.03a15.067,15.067,0,0,0,4.439-6.57,2.361,2.361,0,0,0-1.633-2.877,2.386,2.386,0,0,0-2.876,1.633,10.491,10.491,0,0,1-3.236,4.507,2.357,2.357,0,0,0,0,3.307,2.387,2.387,0,0,0,3.306,0" transform="translate(-1.888 -16.477)" fill="#ede6f0"/>
          <path id="Path_26430" data-name="Path 26430" d="M37.267,254.113q.627,1.87,1.252,3.739a2.339,2.339,0,0,0,4.51-1.243l-1.253-3.739a2.339,2.339,0,1,0-4.509,1.243" transform="translate(-2.406 -16.26)" fill="#ede6f0"/>
          <path id="Path_26431" data-name="Path 26431" d="M53.87,244.82v.624a2.338,2.338,0,1,0,4.676,0v-.624a2.338,2.338,0,1,0-4.676,0" transform="translate(-3.488 -15.699)" fill="#ede6f0"/>
          <path id="Path_26432" data-name="Path 26432" d="M65.862,239.1l.624-.624a2.338,2.338,0,0,0-3.307-3.306l-.623.623a2.338,2.338,0,1,0,3.306,3.307" transform="translate(-4.007 -15.183)" fill="#ede6f0"/>
          <path id="Path_26433" data-name="Path 26433" d="M72.208,234.491h.624a2.338,2.338,0,0,0,0-4.676h-.624a2.338,2.338,0,1,0,0,4.676" transform="translate(-4.524 -14.879)" fill="#ede6f0"/>
          <path id="Path_26434" data-name="Path 26434" d="M79.542,229.158h.624a2.338,2.338,0,0,0,0-4.676h-.624a2.338,2.338,0,0,0,0,4.676" transform="translate(-4.998 -14.534)" fill="#ede6f0"/>
          <path id="Path_26435" data-name="Path 26435" d="M150.563,185.5l5.643-4.952a2.338,2.338,0,0,0-3.306-3.306l-5.643,4.951a2.338,2.338,0,0,0,3.306,3.307" transform="translate(-9.49 -11.432)" fill="#ede6f0"/>
          <path id="Path_26436" data-name="Path 26436" d="M122.563,214.12l5.612-5.612c2.131-2.13-1.175-5.439-3.307-3.307l-5.612,5.612c-2.131,2.131,1.176,5.439,3.307,3.307" transform="translate(-7.677 -13.241)" fill="#ede6f0"/>
          <path id="Path_26437" data-name="Path 26437" d="M116.059,201.59a202.823,202.823,0,0,0,21.24-18.253c2.142-2.12-1.164-5.426-3.307-3.307A194.084,194.084,0,0,1,113.7,197.553c-2.382,1.781-.053,5.843,2.361,4.038" transform="translate(-7.297 -11.612)" fill="#ede6f0"/>
          <path id="Path_26438" data-name="Path 26438" d="M4.472,311.436c8.2-11.372,18.741-21.192,31.478-27.258,14.462-6.888,30.56-6.319,46.141-8,26.529-2.861,55.772-10.913,71.155-34.688,7.915-12.231,10.7-27.708,5.954-41.627l-2.876,2.877a510.525,510.525,0,0,0,90.349,12.2q2.689.118,5.381.208,1.345.046,2.692.082,2.375.438,1.871,2.655c.861,2.823.29,6.739.249,9.705a118.711,118.711,0,0,1-2.345,21.875,122.823,122.823,0,0,1-15.755,39.862c-1.578,2.572,2.465,4.924,4.038,2.36a125.8,125.8,0,0,0,18.739-64.1c.063-4.258,1.522-14.118-3.372-16.411-3.017-1.413-7.372-.741-10.6-.876q-6.279-.265-12.548-.686-12.54-.846-25.026-2.315a504.3,504.3,0,0,1-52.429-9.071c-1.631-.369-3.481,1.1-2.876,2.877,9.849,28.913-13.944,53.874-39.3,63.221-14.23,5.245-29.412,7.032-44.446,8.175-13.962,1.062-27.367,2.291-39.952,8.941-12.324,6.51-22.452,16.4-30.554,27.63-1.763,2.444,2.291,4.781,4.037,2.36" transform="translate(0 -12.831)" fill="#ede6f0"/>
          <path id="Path_26439" data-name="Path 26439" d="M3.173,324.591c5.1-1.826,10.529.513,15.472,1.966q8.2,2.406,16.329,5.04,15.832,5.128,31.368,11.1c2.813,1.077,4.03-3.442,1.243-4.509q-17.22-6.6-34.793-12.2c-5.714-1.814-11.453-3.559-17.222-5.193-4.557-1.291-9.041-2.361-13.639-.715-2.813,1.006-1.6,5.526,1.243,4.509" transform="translate(-0.022 -20.669)" fill="#ede6f0"/>
          <path id="Path_26440" data-name="Path 26440" d="M38.208,316.654c17.21-23.436,48.373-27.5,75.01-31.624,27.162-4.2,54.9-11.393,73.274-33.428a66.07,66.07,0,0,0,15.662-39.443c.128-3.009-4.548-3-4.676,0-1.235,28.861-23.7,50.7-49.62,60.175-26.58,9.716-55.884,8.109-82.215,18.724-12.414,5.006-23.486,12.359-31.472,23.235-1.784,2.429,2.273,4.763,4.037,2.361" transform="translate(-2.184 -13.59)" fill="#ede6f0"/>
          <path id="Path_26441" data-name="Path 26441" d="M112.42,321.719c21.569-23.308,53.567-30.047,82.547-39.541,14.075-4.611,29.476-9.863,41.122-19.321,11.441-9.29,14.442-23.548,16.691-37.386.478-2.944-4.027-4.211-4.51-1.244-2.517,15.487-6,29.727-20.152,38.555-13.47,8.4-28.938,13.273-44,17.924-26.827,8.282-55.3,16.413-75,37.706-2.042,2.206,1.258,5.521,3.307,3.306" transform="translate(-7.023 -14.408)" fill="#ede6f0"/>
          <path id="Path_26442" data-name="Path 26442" d="M160.913,242.736c16.175,1.52,31.772,6.922,47.286,11.462l22.937,6.712c7.832,2.292,15.839,4.271,23.066,8.163,2.65,1.427,5.014-2.608,2.361-4.038-6.8-3.66-14.166-5.7-21.537-7.86l-25.584-7.487c-15.95-4.668-31.9-10.066-48.529-11.629-2.995-.282-2.976,4.4,0,4.676" transform="translate(-10.273 -15.412)" fill="#ede6f0"/>
          <path id="Path_26443" data-name="Path 26443" d="M63.065,283.976a302.743,302.743,0,0,1,80.653,40.291c2.467,1.733,4.807-2.319,2.36-4.038a306.869,306.869,0,0,0-81.769-40.762c-2.869-.931-4.1,3.583-1.243,4.509" transform="translate(-3.978 -18.086)" fill="#ede6f0"/>
          <path id="Path_26444" data-name="Path 26444" d="M301.743,260.672q4.962,20.113,10.882,39.969,2.841,9.492,5.908,18.913,1.674,5.137,3.412,10.254.87,2.559,1.756,5.11c.232.668.911,3.939,1.311,3.006l2.019-1.158-.4-.036,2.018,1.158-.218-.374q-.182,1.417-.366,2.834l.21-.214c2.108-2.151-1.2-5.461-3.307-3.307l-.21.214a2.391,2.391,0,0,0-.366,2.834,2.905,2.905,0,0,0,2.636,1.568,2.253,2.253,0,0,0,2.019-1.158c.931-2.17.245-3.5-.543-5.759q-1.779-5.1-3.49-10.228-3.566-10.677-6.842-21.45-6.547-21.545-11.923-43.418c-.72-2.921-5.231-1.683-4.509,1.243" transform="translate(-19.531 -16.689)" fill="#ede6f0"/>
          <path id="Path_26445" data-name="Path 26445" d="M305.822,257.53c8.92-9.95,24.517-11.874,36.875-14.729q11.476-2.653,23.046-4.873c6.991-1.341,14.808-4.466,18.849,3.228,3.133,5.967,4.369,13.291,6.194,19.74q3.114,11,6.066,22.052,6.018,22.54,11.35,45.254c.689,2.928,5.2,1.688,4.509-1.243q-6.077-25.827-13.015-51.438-3.6-13.243-7.429-26.421c-1.558-5.353-3.013-11.592-7.511-15.326-4.861-4.035-11.106-2.07-16.7-1.03q-12.916,2.4-25.723,5.343c-13.448,3.087-30.1,5.286-39.821,16.135-2,2.234,1.293,5.553,3.306,3.306" transform="translate(-19.546 -14.978)" fill="#ede6f0"/>
          <path id="Path_26446" data-name="Path 26446" d="M326.209,290.626l10.55,36.935c1.011,3.539,1.582,9.922,5.2,12.038,3.271,1.912,6.437-.938,9.25-2.33,16.512-8.168,37.082-4.461,51.427-17.554a2.294,2.294,0,0,0,.6-2.275L393.749,290.3c-1.538-4.4-2.934-8.882-4.64-13.219-1.128-2.866-2.747-5.534-5.778-6.647-3.048-1.119-6.363-.3-9.4.406-4.687,1.083-9.363,2.208-14.045,3.312l-28.966,6.831c-2.927.69-1.688,5.2,1.244,4.509l22.821-5.381,12.288-2.9c3.654-.861,7.558-2.333,11.3-2.521,6.031-.3,6.715,5.542,8.3,10.066l3.855,11.028q4,11.452,8.007,22.9l.6-2.275c-12.012,10.964-29.908,9.351-44.486,14.342-1.428.488-2.841,1.038-4.221,1.65-1.585.7-3.945,2.647-5.716,2.426-1.611-.2-1.394-.792-1.88-2.352-.454-1.452-.839-2.935-1.256-4.4q-1.006-3.517-2.01-7.035l-9.043-31.658c-.825-2.889-5.338-1.661-4.509,1.243" transform="translate(-21.114 -17.473)" fill="#ede6f0"/>
          <path id="Path_26447" data-name="Path 26447" d="M320.134,222.739a154.109,154.109,0,0,0,6.188,20.8c1.048,2.791,5.571,1.582,4.51-1.244a154.063,154.063,0,0,1-6.19-20.8c-.653-2.937-5.162-1.694-4.508,1.243" transform="translate(-20.723 -14.232)" fill="#ede6f0"/>
          <path id="Path_26448" data-name="Path 26448" d="M345.886,213.458a75.9,75.9,0,0,0,8.1,21.561c1.469,2.627,5.51.272,4.037-2.361a71.7,71.7,0,0,1-7.631-20.444c-.617-2.943-5.126-1.7-4.509,1.243" transform="translate(-22.39 -13.631)" fill="#ede6f0"/>
          <path id="Path_26449" data-name="Path 26449" d="M344.361,207.76,326.3,215.021c-2.807,1.129-5.928,2.954-8.885,3.555-2.41.49-4.384-.139-5.454-2.288-1.178-2.366-1.239-3.684,1.3-4.745a176.77,176.77,0,0,1,18.174-6.369q4.2-1.235,8.455-2.275c1.541-.376,3.142-.837,4.715-1.072,3.418-.511,8.9,4.933,2.286,5.642-2.961.317-2.993,5,0,4.676,7.62-.816,10.931-11.315,2.88-14.553-4.883-1.964-11.5.826-16.209,2.116a188.109,188.109,0,0,0-19.1,6.351c-3.291,1.293-8.226,2.417-8.549,6.71-.264,3.492,2.853,8.305,5.776,10.028,4.511,2.66,9.961-.9,14.213-2.606l19.7-7.922c2.757-1.108,1.553-5.633-1.243-4.509" transform="translate(-19.805 -12.749)" fill="#ede6f0"/>
          <path id="Path_26450" data-name="Path 26450" d="M323.005,265.542c8.685-3.643,17.408-7.3,26.515-9.765a85.015,85.015,0,0,1,14.354-2.646,33.8,33.8,0,0,0,10.7-2.262c2.755-1.191.376-5.221-2.361-4.038-4.092,1.769-8.755,1.545-13.1,2.171a92.923,92.923,0,0,0-12.474,2.725,227.131,227.131,0,0,0-24.872,9.306c-2.734,1.147-1.533,5.673,1.243,4.509" transform="translate(-20.732 -15.967)" fill="#ede6f0"/>
          <path id="Path_26451" data-name="Path 26451" d="M23.25,216.952c-2.146-10.975,3.365-22.175,12.45-28.383,9.545-6.521,21.828-7.227,32.786-4.6a2.361,2.361,0,0,0,2.96-2.255,17.9,17.9,0,0,1,9.231-17.139c2.621-1.48.267-5.521-2.361-4.038A22.532,22.532,0,0,0,66.77,181.715l2.96-2.254c-13.11-3.143-27.735-1.846-38.621,6.712-9.643,7.582-14.735,19.917-12.368,32.022.577,2.951,5.085,1.7,4.509-1.243" transform="translate(-1.176 -10.373)" fill="#ede6f0"/>
        </g>
      </g>
    </g>
  </g>
</svg>
