<?xml version="1.0" encoding="utf-8"?>
<!-- Generator: Adobe Illustrator 26.5.0, SVG Export Plug-In . SVG Version: 6.00 Build 0)  -->
<svg version="1.1" id="Layer_1" xmlns="http://www.w3.org/2000/svg" xmlns:xlink="http://www.w3.org/1999/xlink" x="0px" y="0px"
	 viewBox="0 0 1440 772" style="enable-background:new 0 0 1440 772;" xml:space="preserve">
<style type="text/css">
	.st0{fill:#323232;}
	.st1{clip-path:url(#SVGID_00000041981358059382763580000009486716442795838345_);}
	.st2{fill:#3C3C3C;}
	.st3{clip-path:url(#SVGID_00000159465944505100975220000005748736931981003173_);}
	.st4{clip-path:url(#SVGID_00000077322498093155242260000007493797565265347728_);}
	.st5{clip-path:url(#SVGID_00000104690170905100748630000014059956638343955612_);}
	.st6{clip-path:url(#SVGID_00000126299361289114512850000004117481555804644765_);}
	.st7{clip-path:url(#SVGID_00000163044141299910730310000013617999713134271109_);}
	.st8{clip-path:url(#SVGID_00000047748785764036542450000001979094840637520818_);}
</style>
<g id="Group_13216" transform="translate(-742)">
	
		<rect id="cheerful-couple-after-wining-ccompetition-online-video-games-couple-playing-games-home-neon-light" x="742" class="st0" width="1440" height="772"/>
	<g id="Group_13249" transform="translate(756.657 512.83)">
		<g id="Group_13242">
			<g>
				<defs>
					<rect id="SVGID_1_" x="0" y="0" width="421.4" height="259.2"/>
				</defs>
				<clipPath id="SVGID_00000068661863926095108700000017373178931863742109_">
					<use xlink:href="#SVGID_1_"  style="overflow:visible;"/>
				</clipPath>
				<g id="Group_13241" style="clip-path:url(#SVGID_00000068661863926095108700000017373178931863742109_);">
					<path id="Path_26305" class="st2" d="M309.7,105.8c-5.8-4.2-13.7-2.8-18.5,2.4c-5.3,5.7-4.2,14.2,0.7,19.7
						c5.5,6.1,14.6,8.1,21.9,4c7.4-4.2,9.3-14.1,3.2-20.2c-2.6-2.6-6.3,1.7-3.7,4.3c4.4,4.5,0.1,10.7-4.9,12
						c-4.8,1.2-9.8-0.6-12.8-4.6c-2.7-3.4-3.2-8.2,0-11.5c2.6-2.7,7.1-4.2,10.4-1.8C308.9,112.3,312.7,108,309.7,105.8"/>
					<path id="Path_26306" class="st2" d="M296.1,97.1c11.7-4,21.7,3.4,27.5,13.2c6.2,10.6-0.8,23.4-10.9,28.8
						c-4.6,2.5-12.2,2.1-16.4-1.1c-4.1-3.3-8.4-6.3-11.3-10.7c-1.9-2.8-3.7-5.8-3.2-9.3c0.4-2.4,1.1-4.7,2.1-6.9
						c2.1-4.9,5.3-9.6,10.2-11.9c3.3-1.6,1.4-7-1.9-5.4c-9,4.3-15.9,15-16.2,25.1c-0.2,5.8,3.7,11.5,7.4,15.7
						c1.9,2.1,4.1,3.6,6.4,5.3c2.3,1.8,4.1,3.7,6.8,4.8c5,2,10.4,2.3,15.6,1c5.5-1.6,10.3-6.3,13.7-10.8c7.6-9.7,7.8-21,0.4-30.9
						c-3.8-5-8.3-9.8-14.3-12.1c-5.7-2.1-12-2.2-17.7-0.2C290.7,92.9,292.6,98.3,296.1,97.1"/>
					<path id="Path_26307" class="st2" d="M290,90.8c0.1,2.1,1,4.1,2.5,5.5c1.2,1,3,0.9,4-0.3c1-1.2,0.9-3-0.3-4
						c-0.5-0.4,0.1,0.3-0.2-0.2c-0.1-0.1-0.2-0.3-0.3-0.4c0.1,0.3,0.2,0.3,0.1,0.1c0-0.1-0.3-0.8-0.2-0.4c0,0.2,0,0.2,0-0.1
						c0-0.2,0-0.3,0-0.5c-0.1-1.6-1.5-2.8-3-2.7C291.1,87.9,289.9,89.2,290,90.8"/>
					<path id="Path_26308" class="st2" d="M280.3,101.1l2.1,1.5c0.6,0.5,1.3,0.7,2,0.7c1.6-0.1,2.8-1.5,2.7-3c-0.1-0.8-0.4-1.5-1-2
						l-2.1-1.5c-0.6-0.5-1.3-0.7-2-0.7c-1.6,0.1-2.8,1.5-2.7,3C279.4,99.9,279.8,100.6,280.3,101.1"/>
					<path id="Path_26309" class="st2" d="M277.1,113.6c0.1,0,0.2,0,0.3,0.1l-0.7-0.2c0.1,0,0.2,0.1,0.3,0.1l-0.6-0.4
						c0.1,0.1,0.3,0.2,0.4,0.3l-0.5-0.6c0.1,0.1,0.1,0.2,0.2,0.3c0.9,1.3,2.7,1.6,4,0.7c0.6-0.4,1-1.1,1.2-1.8
						c0.1-0.8,0-1.5-0.5-2.2c-0.7-1-1.7-1.8-2.9-2c-0.8-0.1-1.5,0-2.2,0.4c-1.3,0.9-1.6,2.7-0.7,4
						C275.7,113,276.4,113.4,277.1,113.6"/>
					<path id="Path_26310" class="st2" d="M277.8,119.5c-1.4,0.1-2.7,0.7-3.5,1.8c-0.5,0.6-0.7,1.3-0.7,2c0.1,1.6,1.5,2.8,3,2.7
						c0.8-0.1,1.5-0.4,2-1c0.1-0.1,0.2-0.2,0.2-0.2l-0.5,0.5c0.1-0.1,0.3-0.2,0.5-0.3l-0.7,0.3c0.2-0.1,0.3-0.1,0.5-0.2l-0.8,0.2
						c0.1,0,0.2,0,0.3,0c1.6,0,2.8-1.3,2.8-2.9s-1.3-2.8-2.9-2.8C278,119.4,277.9,119.4,277.8,119.5"/>
					<path id="Path_26311" class="st2" d="M281.9,132c-0.2,0.3-0.3,0.5-0.5,0.8l0.4-0.6c-0.3,0.5-0.6,0.9-1,1.3c-1,1.2-0.8,3,0.4,4
						c1.2,1,3,0.9,4-0.3c0.7-0.9,1.3-1.8,1.9-2.7c0.7-1.4,0.1-3.1-1.3-3.8c-0.7-0.3-1.5-0.4-2.2-0.1
						C282.9,130.8,282.3,131.3,281.9,132"/>
					<path id="Path_26312" class="st2" d="M291.8,140c-0.9,1-1.4,2.4-1.3,3.8c0.1,0.8,0.4,1.5,1,2c1.2,1,3,0.9,4-0.3c0,0,0,0,0,0
						c0.5-0.6,0.7-1.3,0.7-2c0-0.1,0-0.3,0-0.4c0,0.2,0,0.5,0,0.7c0-0.2,0.1-0.4,0.1-0.6l-0.2,0.7c0.1-0.2,0.1-0.3,0.2-0.5l-0.4,0.6
						c0.1-0.1,0.2-0.2,0.3-0.3c1-1.2,0.9-3-0.3-4C294.6,138.7,292.9,138.8,291.8,140"/>
					<path id="Path_26313" class="st2" d="M301.4,146.9l1,1.2c0.4,0.6,1.1,1,1.8,1.2c1.5,0.3,3.1-0.7,3.4-2.3c0.2-0.8,0-1.5-0.5-2.2
						l-1-1.2c-0.4-0.6-1.1-1-1.8-1.2c-1.5-0.3-3.1,0.7-3.4,2.2c0,0,0,0,0,0C300.8,145.5,300.9,146.3,301.4,146.9"/>
					<path id="Path_26314" class="st2" d="M312.3,144.6l1,1.2c0.4,0.6,1.1,1,1.8,1.2c1.5,0.3,3.1-0.7,3.4-2.3c0.2-0.8,0-1.5-0.5-2.2
						l-1-1.2c-0.4-0.6-1.1-1-1.8-1.2c-1.5-0.3-3,0.7-3.4,2.2c0,0,0,0,0,0C311.7,143.2,311.8,144,312.3,144.6"/>
					<path id="Path_26315" class="st2" d="M321.5,135.7c0.6,0.8,1.3,1.5,2.2,2c0.7,0.3,1.5,0.4,2.2,0.1c0.7-0.3,1.3-0.8,1.6-1.5
						c0.3-0.7,0.4-1.5,0.1-2.2l-0.3-0.7c-0.3-0.4-0.7-0.7-1.1-0.9l-0.1-0.1l0.6,0.4c-0.3-0.2-0.5-0.4-0.7-0.6l0.5,0.6
						c-0.1-0.1-0.2-0.2-0.3-0.4c-0.4-0.6-1.1-1-1.8-1.2c-1.5-0.3-3.1,0.7-3.4,2.3C320.9,134.3,321,135,321.5,135.7"/>
					<path id="Path_26316" class="st2" d="M329.2,127.2l1.3,0.4c0.8,0.1,1.5,0,2.2-0.4c0.6-0.4,1-1.1,1.2-1.8c0.1-0.8,0-1.5-0.5-2.2
						l-0.5-0.6c-0.4-0.3-0.8-0.5-1.3-0.6l-1.3-0.4c-0.8-0.1-1.5,0-2.2,0.4c-1.3,0.9-1.6,2.7-0.7,4l0.5,0.6
						C328.3,126.9,328.7,127.1,329.2,127.2"/>
					<path id="Path_26317" class="st2" d="M331.8,108.1c-1.8-0.3-3.6,0.4-4.8,1.8c-1,1.2-0.9,3,0.3,4c1.2,1,3,0.9,4-0.3l0,0
						c0.1-0.1,0.2-0.2,0.3-0.3l-0.5,0.5c0.1-0.1,0.3-0.2,0.5-0.3l-0.7,0.3c0.2-0.1,0.3-0.1,0.5-0.2l-0.8,0.2c0.2,0,0.4-0.1,0.5-0.1
						l-0.7,0c0.1,0,0.2,0,0.3,0c1.5,0.3,3.1-0.6,3.4-2.2c0.3-1.5-0.6-3.1-2.2-3.4C331.9,108.1,331.9,108.1,331.8,108.1"/>
					<path id="Path_26318" class="st2" d="M321.8,97.3l-1.6,1.6c-0.5,0.6-0.7,1.3-0.7,2c0.1,0.8,0.4,1.5,1,2c0.6,0.5,1.3,0.7,2,0.7
						c0.8-0.1,1.5-0.4,2-1l1.6-1.6c0.5-0.6,0.7-1.3,0.7-2c-0.1-0.8-0.4-1.5-1-2c-0.6-0.5-1.3-0.7-2-0.7
						C323.1,96.3,322.4,96.7,321.8,97.3"/>
					<path id="Path_26319" class="st2" d="M311.4,91.3c-0.3,0.6-0.6,1.2-1,1.8l0.4-0.6c-0.2,0.3-0.4,0.5-0.6,0.8c-1,1.2-0.9,3,0.3,4
						s3,0.9,4-0.3l0,0c0.8-1,1.4-2.1,1.9-3.2c0.7-1.4,0-3.1-1.4-3.8C313.8,89.4,312.1,89.9,311.4,91.3"/>
					<path id="Path_26320" class="st2" d="M300.9,89.6c-0.5,1.1-0.6,2.4-0.2,3.5c0.5,1.5,2.1,2.3,3.6,1.8c1.5-0.5,2.2-2.1,1.8-3.6
						c0-0.1,0-0.1-0.1-0.2c0.1,0.3,0.1,0.5,0.2,0.8c0-0.1,0-0.3,0-0.4c0,0.2,0,0.5,0,0.7c0-0.2,0-0.4,0.1-0.5l-0.2,0.7
						c0-0.1,0.1-0.1,0.1-0.2c0.7-1.4,0-3.1-1.4-3.8C303.2,87.6,301.6,88.2,300.9,89.6"/>
					<path id="Path_26321" class="st2" d="M269.1,106.9c-0.1-3.7-3-6.8-6.7-7.2c-4.1-0.5-7.4,2.6-8.2,6.4c-1,4.3,1.1,8.7,5,10.6
						c3.3,1.6,7.4,0.3,9-3.1c0.3-0.6,0.5-1.2,0.6-1.8c0.3-1.9-2.7-2.2-3-0.3c-0.5,3.3-4.6,3.3-6.6,1.6c-2-1.7-2.8-4.4-2-6.9
						c0.7-2.2,2.5-3.9,4.9-3.6c2,0.3,4,1.8,4,3.9C266.1,108.5,269.1,108.8,269.1,106.9"/>
					<path id="Path_26322" class="st2" d="M268.7,98.4c5.3,3.8,5.2,10.3,2.8,15.8c-2.6,5.9-10.2,6.8-15.7,4.2
						c-2.7-1.5-4.4-4.3-4.6-7.4c0.1-2.8,0.1-5.5,1.1-8.1c0.6-1.7,1.3-3.3,3-4.2c1.1-0.6,2.3-1,3.6-1.2c2.7-0.8,5.7-0.5,8.2,0.7
						c1.7,0.9,3.4-1.5,1.7-2.5c-5-2.5-11-2.2-15.7,0.8c-2.5,1.7-3.8,5.1-4.4,8c-0.2,1.4-0.3,2.9-0.3,4.4c-0.2,1.4-0.2,2.9,0,4.4
						c0.7,2.7,2.2,5.2,4.4,7c2.4,1.9,5.9,2.4,8.8,2.6c6.5,0.3,11.4-3.1,13.3-9.3c1-3.2,1.6-6.6,0.8-9.8c-0.8-3.1-2.7-5.8-5.3-7.6
						c-0.7-0.5-1.6-0.3-2.1,0.4C267.9,97,268,97.9,268.7,98.4"/>
					<path id="Path_26323" class="st2" d="M269.5,93.8c-0.9,0.7-1.4,1.7-1.6,2.8c-0.1,0.8,0.5,1.6,1.4,1.6c0.8,0.1,1.5-0.6,1.6-1.4
						c0-0.3-0.1,0.2,0-0.1c0-0.1,0.1-0.2,0.1-0.2c-0.1,0.1-0.1,0.2,0,0.1c0,0,0.3-0.4,0.1-0.2c-0.1,0.1-0.1,0.1,0,0
						c0.1-0.1,0.1-0.1,0.2-0.2c0.6-0.5,0.7-1.5,0.2-2.1C271,93.4,270.1,93.3,269.5,93.8"/>
					<path id="Path_26324" class="st2" d="M262.1,92.8c0,0.4,0,0.9,0,1.3c0,0.4,0.1,0.8,0.3,1.1c0.3,0.3,0.6,0.5,1,0.5
						c0.8,0.1,1.5-0.6,1.6-1.4c0-0.4,0-0.9,0-1.3c0-0.4-0.1-0.8-0.3-1.1c-0.5-0.6-1.5-0.7-2.1-0.2C262.3,92.1,262.1,92.4,262.1,92.8
						"/>
					<path id="Path_26325" class="st2" d="M255.8,95.3c0,0,0,0.1,0.1,0.2l-0.1-0.4C255.7,95.1,255.7,95.2,255.8,95.3
						c0-0.2,0-0.3,0-0.4c0,0.1,0,0.2,0,0.3l0.1-0.4c0,0.1,0,0.1-0.1,0.2c-0.3,0.8,0.1,1.6,0.9,1.9c0.4,0.1,0.8,0.1,1.1,0
						c0.4-0.2,0.6-0.5,0.8-0.9c0.2-0.6,0.2-1.3-0.1-1.9c-0.2-0.4-0.5-0.6-0.9-0.8c-0.8-0.3-1.6,0.1-1.9,0.9
						C255.6,94.5,255.6,94.9,255.8,95.3"/>
					<path id="Path_26326" class="st2" d="M253.5,97.4c-0.5-0.6-1.1-0.9-1.8-1c-0.4,0-0.8,0.1-1.1,0.3c-0.6,0.5-0.7,1.5-0.2,2.1
						c0.3,0.3,0.6,0.5,1,0.5c0.1,0,0.1,0,0.2,0l-0.4-0.1c0.1,0,0.2,0.1,0.3,0.1l-0.4-0.2c0.1,0,0.2,0.1,0.2,0.2l-0.3-0.3
						c0,0,0.1,0.1,0.1,0.1c0.5,0.6,1.5,0.7,2.1,0.2S254,98,253.5,97.4L253.5,97.4"/>
					<path id="Path_26327" class="st2" d="M249.4,103c-0.2,0-0.3,0-0.5,0L249.4,103c-0.4,0-0.7,0-1,0c-0.8,0-1.5,0.6-1.6,1.4
						c0,0.8,0.5,1.5,1.3,1.6c0.6,0,1.2,0,1.8,0c0.8-0.1,1.4-0.9,1.2-1.7c-0.1-0.4-0.3-0.7-0.6-1C250.2,103.1,249.8,103,249.4,103"/>
					<path id="Path_26328" class="st2" d="M249,109.7c-0.7-0.1-1.5,0.1-2,0.6c-0.3,0.3-0.5,0.6-0.5,1c-0.1,0.8,0.5,1.6,1.4,1.6
						c0.4,0,0.8-0.1,1.1-0.3c0.1,0,0.1-0.1,0.2-0.1l-0.3,0.2c0.1-0.1,0.2-0.1,0.3-0.1l-0.4,0.1c0.1,0,0.2,0,0.3,0l-0.4,0
						c0.1,0,0.1,0,0.2,0c0.8,0.1,1.6-0.5,1.6-1.4C250.4,110.5,249.8,109.8,249,109.7"/>
					<path id="Path_26329" class="st2" d="M249,115.9c-0.1,0.3-0.1,0.5-0.2,0.8c-0.1,0.4-0.1,0.8,0,1.1c0.3,0.8,1.2,1.1,2,0.7
						c0,0,0,0,0,0c0.4-0.2,0.7-0.5,0.8-0.9c0.1-0.3,0.1-0.5,0.2-0.8c0.1-0.4,0.1-0.8,0-1.1c-0.3-0.8-1.2-1.1-2-0.7c0,0,0,0,0,0
						C249.4,115.2,249.1,115.5,249,115.9"/>
					<path id="Path_26330" class="st2" d="M253.3,119.9c-0.1,0.3-0.1,0.5-0.2,0.8c-0.1,0.4-0.1,0.8,0,1.1c0.3,0.8,1.2,1.1,2,0.7
						c0,0,0,0,0,0c0.4-0.2,0.7-0.5,0.8-0.9c0.1-0.3,0.1-0.5,0.2-0.8c0.1-0.4,0.1-0.8,0-1.1c-0.3-0.8-1.2-1.1-2-0.7c0,0,0,0,0,0
						C253.7,119.2,253.4,119.5,253.3,119.9"/>
					<path id="Path_26331" class="st2" d="M260,121.1c-0.2,0.5-0.2,1-0.2,1.6c0.1,0.4,0.3,0.7,0.6,1c0.3,0.2,0.7,0.3,1.1,0.3
						c0.4-0.1,0.7-0.3,1-0.6l0.2-0.4c0.1-0.2,0.1-0.5,0.1-0.8V122c0,0.1,0,0.3,0,0.4c0-0.2,0-0.3,0-0.5c0,0.1-0.1,0.3-0.1,0.4
						c0-0.1,0-0.2,0.1-0.2c0.1-0.4,0.1-0.8,0-1.1c-0.3-0.8-1.2-1.1-2-0.7C260.4,120.4,260.1,120.7,260,121.1"/>
					<path id="Path_26332" class="st2" d="M265.9,121.8l0.2,0.7c0.2,0.4,0.5,0.7,0.9,0.8c0.4,0.1,0.8,0.1,1.1,0
						c0.4-0.2,0.7-0.5,0.8-0.9c0-0.1,0.1-0.3,0.1-0.4c0-0.3,0-0.5-0.1-0.8c-0.1-0.2-0.1-0.5-0.2-0.7c-0.2-0.4-0.5-0.7-0.9-0.8
						c-0.4-0.1-0.8-0.1-1.1,0c-0.4,0.2-0.7,0.5-0.8,0.9l-0.1,0.4C265.8,121.3,265.8,121.6,265.9,121.8"/>
					<path id="Path_26333" class="st2" d="M274.9,117c-0.4-0.9-1.3-1.4-2.2-1.5c-0.8,0-1.5,0.6-1.6,1.4c0,0.8,0.5,1.5,1.3,1.6
						c0.1,0,0.1,0,0.2,0l-0.4-0.1c0.1,0,0.2,0.1,0.3,0.1l-0.4-0.2c0.1,0,0.2,0.1,0.2,0.2c-0.1-0.1-0.2-0.2-0.3-0.3
						c0.1,0.1,0.1,0.1,0.2,0.2l-0.2-0.3c0,0,0.1,0.1,0.1,0.1c0.3,0.8,1.2,1.1,2,0.8S275.3,117.9,274.9,117
						C275,117.1,274.9,117,274.9,117"/>
					<path id="Path_26334" class="st2" d="M276.5,109.4l-1.2-0.2c-0.4,0-0.8,0.1-1.1,0.3c-0.3,0.3-0.5,0.6-0.5,1
						c0,0.4,0.1,0.8,0.3,1.1c0.3,0.3,0.6,0.5,1,0.5l1.2,0.2c0.8,0.1,1.6-0.5,1.6-1.4c0-0.4-0.1-0.8-0.3-1.1
						C277.3,109.7,276.9,109.5,276.5,109.4"/>
					<path id="Path_26335" class="st2" d="M275.8,103.1c-0.4,0.1-0.7,0.1-1.1,0.1l0.4,0c-0.2,0-0.3,0-0.5,0
						c-0.8-0.1-1.6,0.5-1.6,1.4s0.5,1.6,1.4,1.6c0.7,0,1.3,0,2-0.2c0.8-0.1,1.4-0.9,1.2-1.7S276.7,103,275.8,103.1"/>
					<path id="Path_26336" class="st2" d="M273.3,98.1c-0.6,0.1-1.2,0.5-1.6,1c-0.5,0.7-0.3,1.6,0.4,2.1c0.7,0.5,1.6,0.3,2.1-0.4
						c0,0,0-0.1,0.1-0.1L274,101c0.1-0.1,0.1-0.1,0.2-0.1l-0.3,0.2c0.1,0,0.2-0.1,0.3-0.1l-0.4,0.1c0,0,0.1,0,0.1,0
						c0.8-0.1,1.4-0.9,1.2-1.7S274.2,98,273.3,98.1"/>
				</g>
			</g>
		</g>
		<g id="Group_13244">
			<g>
				<defs>
					<rect id="SVGID_00000067915430976773052150000000583054742468885434_" x="0" y="0" width="421.4" height="259.2"/>
				</defs>
				<clipPath id="SVGID_00000026883898559436479840000012268566429777280163_">
					<use xlink:href="#SVGID_00000067915430976773052150000000583054742468885434_"  style="overflow:visible;"/>
				</clipPath>
				<g id="Group_13243" style="clip-path:url(#SVGID_00000026883898559436479840000012268566429777280163_);">
					<path id="Path_26337" class="st2" d="M17.4,15.8C23.2,9.5,30.7,5.3,39.1,3.6C41.5,3.1,44,3,45.5,5.4c0.9,1.6,1.4,3.4,1.6,5.2
						c0.7,4.6,1.2,9.2,1.9,13.8c0.2,0.9,1.1,1.4,2,1.1c0.1,0,0.3-0.1,0.4-0.2c5.9-3.9,13.8-2.8,18.3,2.7c1.3,1.6,3.6-0.7,2.3-2.3
						c-5.6-6.5-15.1-7.9-22.3-3.2l2.4,1c-0.8-5.6-0.9-11.8-2.6-17.1C48.2,2.7,45.6,0,41.6,0c-9.8,0-20,6.6-26.5,13.5
						C13.7,15,16,17.3,17.4,15.8"/>
					<path id="Path_26338" class="st2" d="M417,166.3c-0.2,0.9,0.3,1.7,1.2,2c0.8,0.2,1.7-0.3,1.9-1.1c3.3-8.8-0.5-19.7-8.9-24.1
						c-8.4-4.4-19-1.5-24.6,5.9l3,0.4c-2.5-6.7-1.3-13.6-1-20.6c0.2-5.3-0.3-10.6-1.4-15.7c-2.4-10.7-7.2-20.7-14.2-29.1
						c-14.4-17.4-36.7-26.2-59.1-23.2c-12.4,1.5-24.2,6.5-34,14.4l2.5,0.3c-6.6-15.2-24.7-21.3-40.2-18.9
						c-19.5,3-34.3,18.6-45.7,33.5l3,1.3c1.8-9.9-8.1-14.7-16.4-15.4c-10.3-0.9-21.3-0.6-30.8,3.7l2.2,2.2c5.2-10.6,2-24.3-7.9-31.1
						c-9.9-6.8-24.4-4.4-32.1,4.6c-1.4,1.6,0.9,3.9,2.3,2.3c6.6-7.8,18.6-10,27.4-4.6c8.8,5.5,11.9,17.9,7.4,27.1
						c-0.4,0.8-0.1,1.8,0.7,2.2c0.5,0.3,1.1,0.3,1.6,0c7.4-3.4,15.6-3.8,23.6-3.6c6.8,0.2,20.7,1.4,18.8,11.6
						c-0.2,0.9,0.3,1.8,1.2,2c0.7,0.2,1.4-0.1,1.8-0.7c10.6-13.9,24.2-28.3,42.1-31.8c14.6-2.8,31.9,2.7,38.2,17.1
						c0.5,1.1,1.8,0.9,2.5,0.3c16.9-13.6,40.7-17.6,61.2-10.6c20.4,7,35.7,25.3,40.5,46.1c1.3,5.7,1.8,11.6,1.5,17.5
						c-0.4,6.7-1.2,13.4,1.2,19.8c0.3,0.9,1.2,1.4,2.1,1.1c0.4-0.1,0.7-0.4,0.9-0.7c4.7-6.2,14.2-8.3,21-4.3
						C417.1,150.3,419.7,159.1,417,166.3l3.1,0.9"/>
					<path id="Path_26339" class="st2" d="M121.6,63.6l0.9-2.6c0.3-1.2-0.4-2.3-1.5-2.7c-1.2-0.3-2.3,0.4-2.7,1.5
						c-0.3,0.9-0.6,1.7-0.9,2.6c-0.3,1.2,0.4,2.3,1.5,2.7C120.1,65.4,121.2,64.7,121.6,63.6"/>
					<path id="Path_26340" class="st2" d="M357.7,89.5c8.8,2.5,11.9,14,13.6,21.9c1.9,9.2,1.6,18.8-0.8,27.9
						c-0.1,0.3,0.1,0.6,0.4,0.7c0.3,0.1,0.6-0.1,0.6-0.4c2.7-10.3,2.7-21.1,0.1-31.4c-1.9-7.5-5.3-17.4-13.7-19.7
						c-0.3-0.1-0.6,0.1-0.7,0.4C357.3,89.1,357.5,89.4,357.7,89.5"/>
					<path id="Path_26341" class="st2" d="M19.9,26.5c2.6-3.4,15.5-18.5,20.5-12c0.4,0.6,1.2-0.2,0.8-0.8c-5.9-7.6-19,7.9-22.2,12.2
						C18.5,26.5,19.5,27,19.9,26.5"/>
					<path id="Path_26342" class="st2" d="M28.9,24.3c2.8-1.9,5.9-3.3,9.1-4.1c0.7-0.2,0.4-1.2-0.3-1c-3.4,0.8-6.6,2.2-9.4,4.2
						C27.8,23.7,28.3,24.7,28.9,24.3"/>
					<path id="Path_26343" class="st2" d="M210.9,94.6c7.6-10.3,17.9-18.2,29.9-22.7c2.6-1,1.5-5.2-1.2-4.2
						c-13,5-24.2,13.6-32.4,24.7C205.5,94.6,209.2,96.8,210.9,94.6"/>
					<path id="Path_26344" class="st2" d="M388.2,146.2H388c-1.2,0-2.2,1-2.2,2.2c0,1.2,1,2.2,2.2,2.2h0.2c1.2,0,2.2-1,2.2-2.2
						C390.4,147.2,389.4,146.2,388.2,146.2"/>
					<path id="Path_26345" class="st2" d="M74.7,36.8c-9.4,0.4-10.8,14.7-8,21.4c4.2,10,16.5,12.4,25.9,8.8
						c8.7-3.4,15-11.9,12.1-21.4c-3-9.8-13.5-14.1-22.9-11.3c-2.7,0.8-1.5,5,1.2,4.2c6.8-2,14.8,0.4,17.3,7.6
						c2.4,6.6-1.3,12.7-7.1,15.8c-6,3.2-14.4,3.5-19.6-1.3c-2.4-2.3-3.8-5.6-3.8-8.9c-0.1-3.1,0.7-10.4,4.9-10.6
						C77.5,41,77.5,36.6,74.7,36.8"/>
					<path id="Path_26346" class="st2" d="M87.7,42.1c-7.1-3-11.8,5.2-10.9,11.3c0.5,3.1,2.3,5.9,5.5,6.8c3.4,0.9,6.7-0.5,9.6-2.1
						c2.4-1.4,0.3-5.1-2.2-3.8c-2.9,1.6-7.6,3.5-8.6-1.2c-0.7-3.3,1.3-8.5,5.4-6.8C89.1,47.3,90.2,43.1,87.7,42.1"/>
					<path id="Path_26347" class="st2" d="M101.3,31.5c0.3-0.6,0.6-1.1,0.9-1.7c0.6-1,0.3-2.4-0.7-3s-2.4-0.3-3,0.7
						c0,0,0,0.1-0.1,0.1l-0.9,1.7c-0.6,1-0.3,2.4,0.7,3C99.3,32.9,100.7,32.6,101.3,31.5C101.3,31.6,101.3,31.5,101.3,31.5"/>
					<path id="Path_26348" class="st2" d="M110.9,41.3l1.7-0.4c1.2-0.3,1.8-1.5,1.5-2.7c-0.3-1.1-1.5-1.8-2.6-1.5l-1.7,0.4
						c-1.1,0.3-1.8,1.5-1.5,2.7C108.5,40.9,109.7,41.6,110.9,41.3"/>
					<path id="Path_26349" class="st2" d="M57.4,43.2c1.2,1.3,2.8,2.2,4.6,2.3c1.2,0,2.2-1,2.2-2.2c0-1.2-1-2.1-2.2-2.2
						c0.5,0.1-0.2-0.1-0.3-0.1c-0.2-0.1-0.2-0.1,0,0c-0.1-0.1-0.2-0.1-0.3-0.2s-0.2-0.1-0.3-0.2c0.2,0.2,0.2,0.2,0,0
						c-0.2-0.2-0.4-0.4-0.5-0.5c-0.9-0.8-2.2-0.8-3.1,0C56.6,41,56.6,42.4,57.4,43.2"/>
					<path id="Path_26350" class="st2" d="M64.8,67.9l3.9-1.8c1-0.6,1.4-1.9,0.8-3c-0.6-1-1.9-1.4-3-0.8l-3.9,1.8
						c-1,0.6-1.4,1.9-0.8,3C62.5,68.1,63.8,68.4,64.8,67.9"/>
					<path id="Path_26351" class="st2" d="M103.8,68.2c0.2,0,0.2,0-0.3-0.1c-0.2,0-0.5-0.1-0.6-0.3c-0.2-0.2-0.4-0.6-0.4-0.9
						c0,1.2,1,2.2,2.2,2.2c1.2,0,2.1-1,2.2-2.2c0-1.7-1.3-3-3-3c0,0,0,0-0.1,0c-1.2,0-2.2,1-2.2,2.2S102.6,68.2,103.8,68.2"/>
					<path id="Path_26352" class="st2" d="M78.4,27.8l1.3,0.4c1.2,0.3,2.3-0.4,2.7-1.5c0.3-1.2-0.4-2.3-1.5-2.7l-1.3-0.4
						c-1.2-0.3-2.3,0.4-2.7,1.5C76.6,26.3,77.2,27.5,78.4,27.8"/>
				</g>
			</g>
		</g>
		<g id="Group_13246">
			<g>
				<defs>
					<rect id="SVGID_00000060014105869842276110000002565408041334793150_" x="0" y="0" width="421.4" height="259.2"/>
				</defs>
				<clipPath id="SVGID_00000060718371628377666620000015712617324966046893_">
					<use xlink:href="#SVGID_00000060014105869842276110000002565408041334793150_"  style="overflow:visible;"/>
				</clipPath>
				<g id="Group_13245" style="clip-path:url(#SVGID_00000060718371628377666620000015712617324966046893_);">
					<path id="Path_26353" class="st2" d="M19.1,41.5c2.9-5.7,8.7-9.4,15.2-9.6c2.8-0.1,2.8-4.4,0-4.3c-8,0.2-15.2,4.7-18.9,11.7
						C14.1,41.8,17.8,44,19.1,41.5"/>
					<path id="Path_26354" class="st2" d="M247,70.4l0.6,0.6c0.8,0.8,1.9,1.3,3.1,1.3c1.2,0,2.3-0.5,3.1-1.3
						c0.8-0.8,1.3-1.9,1.3-3.1c0-1.1-0.5-2.2-1.3-3.1l-0.6-0.6c-0.8-0.8-1.9-1.3-3.1-1.3c-1.2,0-2.3,0.5-3.1,1.3
						c-0.8,0.8-1.3,1.9-1.3,3.1C245.8,68.5,246.2,69.6,247,70.4"/>
				</g>
			</g>
		</g>
		<g id="Group_13248">
			<g>
				<defs>
					<rect id="SVGID_00000091013006383827423290000006372509155082822529_" x="0" y="0" width="421.4" height="259.2"/>
				</defs>
				<clipPath id="SVGID_00000138530769057850768990000001430443112561142698_">
					<use xlink:href="#SVGID_00000091013006383827423290000006372509155082822529_"  style="overflow:visible;"/>
				</clipPath>
				<g id="Group_13247" style="clip-path:url(#SVGID_00000138530769057850768990000001430443112561142698_);">
					<path id="Path_26355" class="st2" d="M42.7,125.6l13.4,72.2c2.2,11.9,4.4,23.8,6.6,35.7c0.5,2.9,0.4,9.8,3.9,11.2
						c2.3,0.9,4.2-0.9,4.2-3.2c0-0.8-0.4-1.5-1.1-1.9l-0.5-0.2c-2.5-1.3-4.7,2.5-2.2,3.8l0.5,0.2l-1.1-1.9l1.9-1.5l-0.3-1.7
						c-0.1-1.4-0.4-2.9-0.8-4.2c-0.4-2.3-0.8-4.5-1.3-6.8l-2.7-14.4c-1.8-9.9-3.7-19.8-5.5-29.7c-3.6-19.5-7.3-39.1-10.9-58.6
						C46.4,121.7,42.2,122.9,42.7,125.6"/>
					<path id="Path_26356" class="st2" d="M45.2,125.7c24-9.2,49.4-14.4,75-15.2l-1.9-1.1c4.5,9,6.2,18.9,7.6,28.7
						c1.6,10.5,3.1,20.9,4.6,31.4c3.1,21,6.2,42,9.3,63l1.5-2.7l-69.6,11.3c-2.8,0.4-1.6,4.6,1.2,4.2l69.6-11.3
						c1.3-0.2,1.7-1.6,1.5-2.7c-3.2-21.6-6.4-43.1-9.5-64.7c-1.5-10.4-3-20.8-4.6-31.2c-1.5-9.8-3.3-19.4-7.8-28.2
						c-0.4-0.7-1.1-1.1-1.9-1.1c-26.1,0.8-51.8,6-76.2,15.4C41.5,122.5,42.6,126.7,45.2,125.7"/>
					<path id="Path_26357" class="st2" d="M66.1,234l70.4-13.3c2.7-0.5,1.6-4.7-1.2-4.2L65,229.8C62.2,230.3,63.4,234.5,66.1,234"/>
					<path id="Path_26358" class="st2" d="M44.7,137.3c25.2-2.5,50.3-6.6,75-12.3c2.7-0.6,1.6-4.8-1.2-4.2
						c-24.3,5.6-49,9.7-73.9,12.1C41.9,133.2,41.9,137.6,44.7,137.3"/>
					<path id="Path_26359" class="st2" d="M86.4,120.8v-0.4c0-1.2-1-2.2-2.2-2.2c-1.2,0-2.2,1-2.2,2.2l0,0v0.4c0,1.2,1,2.2,2.2,2.2
						S86.4,122,86.4,120.8"/>
					<path id="Path_26360" class="st2" d="M2.7,162c14.8-3.7,30.4-2.9,44.8,2.1l-1.6-2.1c-0.2,0.5-0.4,1-0.6,1.5
						c-1.4,2.4,2.4,4.6,3.8,2.2c0.7-1.1,1.1-2.4,1.2-3.7c0-1-0.7-1.8-1.6-2.1c-15.2-5.3-31.6-6-47.1-2.1C-1.2,158.4,0,162.6,2.7,162
						"/>
					<path id="Path_26361" class="st2" d="M112.6,73.4c-0.2-0.1-0.2-0.1,0.1,0.1c-0.2-0.2-0.1-0.1,0.1,0.1
						C112.8,73.5,112.7,73.4,112.6,73.4c0.2,0.3,0.2,0.3,0.1,0.1c-0.1-0.2-0.1-0.2,0,0.2c0-0.1,0-0.2,0-0.3c-0.1,0.4-0.1,0.4,0,0.2
						c0.1-0.2,0-0.2-0.1,0.1c0.7-1,0.4-2.3-0.6-3c-1-0.7-2.3-0.4-3,0.6c0,0.1-0.1,0.1-0.1,0.2c-1,2-0.3,4.4,1.5,5.6
						c1,0.6,2.4,0.2,3-0.8C114,75.3,113.7,74,112.6,73.4"/>
					<path id="Path_26362" class="st2" d="M142.8,192.2c21.2,11.4,35.8,31.7,57,43.1c19.3,10.4,41.9,13.8,63.4,10.4
						c12.6-2,24.6-6.5,35.5-13.2c2.4-1.5,0.2-5.2-2.2-3.8c-24,14.9-54.3,17.9-80.9,8.8c-13.8-4.7-25.4-13-36.4-22.6
						c-10.9-9.5-21.4-19.6-34.2-26.5C142.6,187.1,140.4,190.9,142.8,192.2"/>
					<path id="Path_26363" class="st2" d="M255,184.2c23.2,21.1,44.5,44.2,63.8,69c1.7,2.2,4.8-0.9,3.1-3.1
						c-19.2-24.8-40.5-47.9-63.8-69C256,179.2,252.9,182.3,255,184.2"/>
					<path id="Path_26364" class="st2" d="M257.9,180.7c4.1-3.9,8.5-7.5,13-10.9c2.1-1.6,4.3-3.1,6.5-4.6c0.8-0.7,1.7-1.3,2.7-1.8
						c3.7-1.4,4.2,0,6,2c7.1,8,14.1,16.1,20.9,24.3c14.1,16.9,27.8,34.2,41,51.9c1.7,2.2,5.4,0.1,3.8-2.2
						c-15-20.2-30.7-39.9-46.9-59.1c-4.1-4.8-8.2-9.6-12.4-14.3c-2.6-2.9-5.7-8.3-10.2-8c-4.8,0.2-9.8,5.2-13.5,8
						c-4.8,3.6-9.5,7.5-13.9,11.6C252.8,179.5,255.9,182.6,257.9,180.7"/>
					<path id="Path_26365" class="st2" d="M328.4,257.9l12.8-7.9c3.1-1.9,6.2-3.6,7.8-7c1.2-2.5-2.6-4.7-3.8-2.2
						c-1.6,3.4-5.8,5.2-8.9,7.1l-10.1,6.2C323.9,255.6,326,259.3,328.4,257.9"/>
					<path id="Path_26366" class="st2" d="M306.1,234.1c8.6-7.4,17.9-14.2,27.6-20.1c2.4-1.5,0.2-5.2-2.2-3.8
						c-10.1,6.1-19.6,13.1-28.5,20.8C300.9,232.8,304,235.9,306.1,234.1"/>
					<path id="Path_26367" class="st2" d="M294.2,166.7l12.4-4.7c1.1-0.4,12.5-4.2,12.5-4.5c0,2.8,4.3,2.8,4.3,0
						c0-5.8-6-4.3-9.5-2.9l-20.9,7.9C290.5,163.5,291.6,167.7,294.2,166.7"/>
					<path id="Path_26368" class="st2" d="M320.3,158.2c15.2,28,27.6,57.3,37.2,87.7l1.5-2.7c-3.5,0.8-6.8,2-10,3.6
						c-1.7,0.9-7.9,6-9.5,4.1c-1.7-2.2-4.8,0.9-3.1,3.1c2.2,2.8,5.7,2,8.4,0.5c5.1-2.8,9.4-5.6,15.3-7c1.1-0.3,1.8-1.5,1.5-2.7
						C352,214,339.4,184.3,324,156C322.7,153.5,319,155.7,320.3,158.2"/>
					<path id="Path_26369" class="st2" d="M334.1,219.4c3.9-2.3,8.2-3.9,12.7-4.7c2.7-0.5,1.6-4.7-1.2-4.2
						c-4.8,0.9-9.5,2.7-13.8,5.2C329.5,217.1,331.7,220.9,334.1,219.4"/>
					<path id="Path_26370" class="st2" d="M266.3,187.2c1.8,0,3.3-1.4,3.3-3.2c0,0,0-0.1,0-0.1c0-1.2-1-2.2-2.2-2.2s-2.2,1-2.2,2.2
						c0,0.3,0.1-0.3,0.1-0.4c0.1-0.2,0.1-0.2,0-0.1c-0.1,0.1,0,0.1,0.2-0.2c0,0,0.4-0.3,0.2-0.1c0.1-0.1,0.3-0.2,0.5-0.2
						c0.2,0,0.2,0,0.1,0c-1.2,0-2.2,1-2.2,2.2C264.2,186.2,265.1,187.1,266.3,187.2"/>
					<path id="Path_26371" class="st2" d="M270.5,191.3c2.4,2,4.5,4.3,6.2,6.9c1.5,2.3,5.3,0.1,3.8-2.2c-1.9-2.9-4.2-5.6-6.9-7.8
						C271.5,186.4,268.4,189.4,270.5,191.3"/>
					<path id="Path_26372" class="st2" d="M283,204.1c0.7,1.3,1.8,2.4,3.1,3c1,0.6,2.3,0.2,3-0.8c0.6-1,0.2-2.4-0.8-3
						c-0.2-0.1-0.5-0.2-0.7-0.4c-0.3-0.2-0.1-0.1,0,0.1c-0.1-0.1-0.2-0.2-0.3-0.3c-0.1-0.1-0.2-0.2-0.2-0.2c-0.2-0.3,0-0.1,0,0.1
						c-0.1-0.2-0.3-0.5-0.4-0.7c-0.6-1-1.9-1.4-3-0.8C282.8,201.7,282.4,203,283,204.1"/>
					<path id="Path_26373" class="st2" d="M292.4,215.4c1.8,1.3,3.3,3,4.2,5c1.3,2.5,5,0.3,3.8-2.2c-1.4-2.6-3.4-4.9-5.8-6.6
						c-1-0.6-2.4-0.2-3,0.8C291,213.5,291.4,214.8,292.4,215.4"/>
					<path id="Path_26374" class="st2" d="M278.5,178.9c3.6-1.9,7-4.3,9.9-7.2c2-2-1.1-5.1-3.1-3.1c-2.6,2.6-5.7,4.8-9,6.5
						C273.8,176.4,276,180.2,278.5,178.9"/>
					<path id="Path_26375" class="st2" d="M283.7,183.1c2.5-0.9,4.8-2.3,6.7-4.1c2-2-1.1-5.1-3.1-3.1c-1.3,1.4-3,2.4-4.8,3
						C279.9,179.8,281.1,184,283.7,183.1"/>
					<path id="Path_26376" class="st2" d="M288.6,189.3l5.8-4.6c0.8-0.9,0.8-2.2,0-3.1c-0.9-0.8-2.2-0.8-3.1,0l-5.8,4.6
						c-0.8,0.9-0.8,2.2,0,3.1C286.4,190.1,287.8,190.1,288.6,189.3"/>
					<path id="Path_26377" class="st2" d="M291.9,196.3c3.4-2.3,6.5-4.8,9.5-7.6c2-1.9-1-5-3.1-3.1c-2.7,2.5-5.6,4.8-8.6,6.9
						C287.4,194.1,289.5,197.9,291.9,196.3"/>
					<path id="Path_26378" class="st2" d="M311.5,170.2c2.7-1.7,5.6-3.2,8.5-4.4c2.6-1.1,0.3-4.9-2.2-3.8c-2.9,1.3-5.8,2.8-8.5,4.4
						C307,167.9,309.1,171.7,311.5,170.2"/>
					<path id="Path_26379" class="st2" d="M314.5,177.2c3.5-1.8,7.2-3.2,10.9-4.2c2.7-0.8,1.5-4.9-1.2-4.2c-4.1,1.2-8.1,2.7-12,4.7
						C309.8,174.7,312,178.5,314.5,177.2"/>
					<path id="Path_26380" class="st2" d="M319.1,186.5c2.6-1.8,5.5-3.1,8.6-3.6c2.8-0.5,1.6-4.7-1.2-4.2c-3.5,0.6-6.8,2-9.6,4
						C314.7,184.4,316.9,188.1,319.1,186.5"/>
					<path id="Path_26381" class="st2" d="M326.6,193.5l2.3-0.6c1.2-0.3,1.9-1.5,1.6-2.6c-0.3-1.2-1.5-1.9-2.6-1.6c0,0-0.1,0-0.1,0
						l-2.3,0.6c-1.1,0.3-1.8,1.5-1.5,2.7C324.3,193.1,325.4,193.8,326.6,193.5"/>
					<path id="Path_26382" class="st2" d="M329.5,198.8c2.8,0,2.8-4.3,0-4.3S326.7,198.8,329.5,198.8"/>
					<path id="Path_26383" class="st2" d="M332.4,177.3l22.1-1.8c6.5-0.5,13.1-1.6,19.6-1.5c5.3,0.1,4.6,2.2,4.8,6.7
						c0.2,3.7,0.4,7.4,0.6,11.1c0.4,7.1,1,14.2,1.7,21.3c0.7,6.8,1.4,13.6,2.3,20.4c0.4,3.3,1.2,6.6,1.4,9.9c0.2,2.9,0,3-2.6,3.4
						l-5.8,1l-20,3.5c-2.3,0.4-20.1,4.6-20.7,3.2c-1.2-2.5-5-0.3-3.8,2.2c1,2.1,2.9,2.4,5.1,2.3c4.1-0.3,8.2-1.4,12.2-2.1l26.7-4.6
						c4.8-0.8,14.1,0,13.6-6.9c-0.6-9.1-2.5-18.1-3.5-27.2c-1-9.1-1.7-18.2-2.3-27.3c-0.2-4-0.5-8-0.6-12c-0.1-2.7,0.3-5.9-2.1-7.7
						c-2.3-1.7-5.8-1.7-8.5-1.6c-4.4,0.1-8.7,0.7-13.1,1l-27.2,2.2C329.6,173.2,329.6,177.5,332.4,177.3"/>
					<path id="Path_26384" class="st2" d="M346.3,199.8c5.2-5.6,13.9-6,19.5-0.8c1.2,1.1,2.3,2.5,3,4c2.1,4.1,2.3,8.9,0.7,13.2
						c-2.8,6.9-9.7,5.8-15.9,5.9c-2.8,0-2.8,4.4,0,4.3c7.3-0.1,14.8,0.7,18.9-6.6c3-5.6,3.2-12.3,0.5-18c-5.2-11.6-21-14.9-29.8-5.2
						C341.4,198.8,344.4,201.9,346.3,199.8"/>
					<path id="Path_26385" class="st2" d="M352.1,195.7c1.8,9.3,4.7,19,4.2,28.5c-0.2,2.8,4.2,2.8,4.3,0c0.6-9.9-2.4-20-4.3-29.7
						C355.7,191.8,351.5,192.9,352.1,195.7"/>
					<path id="Path_26386" class="st2" d="M358.8,196.2c2.7,9.2,2.8,19.5,10.3,26.5c2,1.9,5.1-1.1,3.1-3.1
						c-6.7-6.3-6.7-16.2-9.1-24.5C362.2,192.4,358,193.5,358.8,196.2"/>
					<path id="Path_26387" class="st2" d="M346.5,200c5.7,4.1,4.2,13,5.6,19c0.6,2.7,4.8,1.6,4.2-1.2c-1.8-7.7-0.4-16.4-7.6-21.6
						C346.4,194.6,344.3,198.4,346.5,200"/>
					<path id="Path_26388" class="st2" d="M348.9,208.8c7.8,0.5,15.7,0.1,23.5-1.2c2.8-0.5,1.6-4.6-1.2-4.2
						c-7.4,1.2-14.9,1.5-22.3,1C346.1,204.3,346.1,208.6,348.9,208.8"/>
					<path id="Path_26389" class="st2" d="M351.2,218.2c7.1,0.4,14.3,0.3,21.4-0.3c2.8-0.2,2.8-4.6,0-4.3
						c-7.1,0.6-14.3,0.7-21.4,0.3C348.4,213.7,348.4,218.1,351.2,218.2"/>
					<path id="Path_26390" class="st2" d="M152.1,192.4l11.8-20.6c3.8-6.6,7.3-13.8,16.4-11.5c6.7,1.7,12.7,5.8,18.2,9.8
						c5.9,4.3,11.7,8.8,17.6,13.2c23.9,17.8,48.1,35.1,73.1,51.3c2.4,1.5,4.5-2.2,2.2-3.8c-27.8-18-54.7-37.4-81.2-57.3
						c-6-4.5-11.9-9.4-18.5-13c-5.5-3.1-12.8-6.6-19.3-4.6c-5.7,1.8-8.7,7.4-11.5,12.2c-4.2,7.3-8.4,14.7-12.6,22
						C147,192.6,150.7,194.8,152.1,192.4"/>
					<path id="Path_26391" class="st2" d="M213.9,178.1c2.6-3.8,5.4-7.5,8.5-11c1.2-1.6,2.6-3.1,4.1-4.4c2.5-2,4.8-1,7.5,0.1
						c4.1,1.6,8.1,3.6,11.8,5.9c3.6,2.2,9.1,4.7,11.7,8.1c-0.1-0.9-0.2-1.8-0.3-2.6c-0.1,0.1-0.2,0.3-0.2,0.4l2.5-1l-0.4-0.1
						c-2.7-0.4-3.9,3.8-1.2,4.2l0.4,0.1c0.9,0.2,1.9-0.2,2.5-1l0.2-0.4c0.5-0.9,0.3-1.9-0.3-2.6c-1.5-1.9-4.1-3.2-6.1-4.6
						c-2.6-1.7-5.1-3.4-7.8-5c-4.6-2.7-9.8-5.5-15.1-6.7c-5-1.2-7.6,1.4-10.8,4.9c-3.8,4.3-7.4,8.8-10.6,13.5
						C208.5,178.2,212.3,180.4,213.9,178.1"/>
					<path id="Path_26392" class="st2" d="M221.4,182.4c2.3-2.4,4.5-5.7,7.2-7.6c4.9-3.5,10,1.2,13.7,4.3c2.6,2.2,6.7,5,7.3,8.5
						c0.6,3.6-3.4,8.1-5.2,11.2c-1.4,2.4,2.3,4.6,3.8,2.2c1.7-2.9,3.4-5.8,5.1-8.7c1-1.7,1.9-3.3,1.7-5.4c-0.3-2.2-2.1-3.8-3.6-5.3
						c-2.2-2.3-4.6-4.5-7.1-6.5c-3.6-2.9-8.7-6.9-13.7-6.3c-4.9,0.6-9.1,7.2-12.3,10.5C216.4,181.4,219.5,184.4,221.4,182.4"/>
					<path id="Path_26393" class="st2" d="M261.6,194.2c-1.5,4.4-3.5,8.6-6.1,12.6c-1.5,2.4,2.2,4.5,3.8,2.2
						c2.7-4.2,4.9-8.8,6.5-13.6C266.7,192.7,262.5,191.5,261.6,194.2"/>
				</g>
			</g>
		</g>
	</g>
	<g id="Group_13256" transform="translate(1751.312 447.241)">
		<g id="Group_13251">
			<g>
				<defs>
					<rect id="SVGID_00000114795079979455613690000010571194773249719981_" x="0" y="0" width="413.5" height="324.8"/>
				</defs>
				<clipPath id="SVGID_00000090998927915666340270000010048229155506077574_">
					<use xlink:href="#SVGID_00000114795079979455613690000010571194773249719981_"  style="overflow:visible;"/>
				</clipPath>
				<g id="Group_13250" style="clip-path:url(#SVGID_00000090998927915666340270000010048229155506077574_);">
					<path id="Path_26394" class="st2" d="M244.8,125c-10.8,4.3-20.5,14-18.2,26.6c2.3,12.5,18.7,19.5,30.2,19.2
						c5.5-0.1,11.2-2.2,15-6.3c4.5-4.9,5.5-12,5.6-18.4c0.1-5.9-0.7-12.5-5.1-16.8c-3.7-3.9-9.4-5.1-14.3-2.9
						c-2.8,1.2-0.4,5.2,2.4,4c5.3-2.3,10.1,2.6,11.5,7.2c1.3,4.4,1.1,9.6,0.5,14.2c-1.6,11-10.7,15.9-21.3,13.7
						c-8.1-1.7-19-6.5-20-15.9c-1-9.7,6.7-16.9,15-20.1C248.8,128.4,247.6,123.9,244.8,125"/>
					<path id="Path_26395" class="st2" d="M248.9,172.2c1.6,3.8,3,9.5,5.9,12.5c2.5,2.5,6,1.3,9,0.6c2.9-0.6,6.9-0.7,8.1-3.9
						c1.5-4.1,1-9.9,1.4-14.3c0.2-3-4.4-3-4.7,0l-0.8,9.3c-0.1,1,0.1,2.6-0.6,3.2c-0.7,0.7-3,0.7-4,0.9c-1.2,0.4-2.4,0.7-3.7,0.8
						c-2.1-0.1-2.2-1.4-2.9-3c-1.3-2.8-2.5-5.7-3.7-8.6C251.7,167.1,247.7,169.5,248.9,172.2"/>
					<path id="Path_26396" class="st2" d="M212.4,136.5l6.6,1.7c2.9,0.8,4.2-3.7,1.2-4.5l-6.6-1.7
						C210.7,131.2,209.5,135.7,212.4,136.5"/>
					<path id="Path_26397" class="st2" d="M235,116.9c-0.5,2.5,0.7,5.1,2.9,6.4c1.1,0.7,2.5,0.3,3.2-0.8c0.7-1.1,0.3-2.5-0.8-3.2
						c-0.1-0.1-0.2-0.1-0.4-0.2c0.2,0.2,0.2,0.1,0,0c-0.2-0.2-0.2-0.2,0,0c-0.1-0.1-0.2-0.2-0.2-0.4c-0.1-0.2-0.1-0.3,0,0
						c0-0.1-0.1-0.3-0.1-0.4c0.1,0.6,0.1-0.6,0,0c0.3-1.2-0.4-2.5-1.6-2.9C236.7,114.9,235.4,115.7,235,116.9"/>
					<path id="Path_26398" class="st2" d="M260.2,109.1v5.6c0,3,4.7,3,4.7,0v-5.6C264.9,106.1,260.2,106.1,260.2,109.1"/>
					<path id="Path_26399" class="st2" d="M276.1,123.1v0.9c0,1.3,1,2.3,2.3,2.3s2.3-1,2.3-2.3c0,0,0,0,0,0v-0.9
						c0-1.3-1.1-2.3-2.3-2.3C277.1,120.8,276.1,121.8,276.1,123.1"/>
					<path id="Path_26400" class="st2" d="M238,143.1c-1.4,5.2,1.8,10.6,7,11.9c0.5,0.1,1.1,0.2,1.7,0.3c3,0.2,3-4.4,0-4.7
						c-3-0.2-5-3.6-4.2-6.3C243.3,141.5,238.8,140.2,238,143.1"/>
					<path id="Path_26401" class="st2" d="M324.9,73.2l13.3,48.1c1.3,4.7,1.8,13,7.4,14.6c2.6,0.7,5.2-0.2,7.7-0.9
						c4-1.1,8-2.4,11.9-3.7s7.8-2.8,11.7-4.3c2.8-1.1,6.3-2,8.8-3.7c1.8-1.2,2.1-2.2,1.8-4.3c-0.6-4.1-2.6-8.6-3.8-12.5
						c-4.8-16.1-9.7-32.2-14.5-48.4c-0.4-1.2-1.6-1.9-2.9-1.6c-13.3,2.3-26.2,6.7-38.2,12.8c-2.7,1.4-0.3,5.4,2.4,4
						c11.7-5.9,24.2-10.1,37.1-12.3l-2.9-1.6c3.1,10.2,6.1,20.3,9.2,30.5l4.3,14.3l2.4,8.1c0.8,2.6,2.3,5.8,2.4,8.5l1.2-2
						c-3.2,2.4-7.9,3.6-11.7,5.1c-3.9,1.5-7.8,2.9-11.8,4.2c-3.4,1.1-8,3.3-11.6,3.4c-3.3,0.1-3.5-1.5-4.3-4.2
						c-0.6-2.1-1.1-4.2-1.7-6.2c-4.5-16.3-9-32.6-13.5-48.9C328.7,69,324.1,70.3,324.9,73.2"/>
					<path id="Path_26402" class="st2" d="M331.1,82.2c10.7-5.5,22.2-9.5,34-11.9c3-0.6,1.7-5.1-1.2-4.5
						c-12.2,2.4-24.1,6.6-35.1,12.3C326.1,79.6,328.4,83.6,331.1,82.2"/>
					<path id="Path_26403" class="st2" d="M348.2,130.7l32-10.6c2.8-0.9,1.6-5.5-1.2-4.5l-32,10.6
						C344.1,127.2,345.3,131.7,348.2,130.7"/>
					<path id="Path_26404" class="st2" d="M343.2,95.8c1.3,5.7,3.1,11.2,5.3,16.6c1.1,2.7,5.7,1.5,4.5-1.2c-2.2-5.4-4-11-5.3-16.6
						C347.1,91.6,342.5,92.8,343.2,95.8"/>
					<path id="Path_26405" class="st2" d="M355.5,106.1c0.7,1.8,1.4,3.7,2.1,5.5c0.4,1.2,1.6,1.9,2.9,1.6c1.2-0.4,2-1.6,1.6-2.9
						c-0.7-1.8-1.4-3.7-2.1-5.5c-0.4-1.2-1.6-1.9-2.9-1.6C355.9,103.5,355.1,104.8,355.5,106.1"/>
					<path id="Path_26406" class="st2" d="M357.9,107.7c3,0,3-4.7,0-4.7S354.9,107.7,357.9,107.7"/>
					<path id="Path_26407" class="st2" d="M363.9,102.3c0.3,1.2,0.6,2.5,0.9,3.7c0.3,1.2,1.6,2,2.9,1.6c1.2-0.3,2-1.6,1.6-2.9l0,0
						c-0.3-1.2-0.6-2.5-0.9-3.7c-0.4-1.2-1.6-2-2.9-1.6C364.3,99.8,363.6,101,363.9,102.3"/>
				</g>
			</g>
		</g>
		<g id="Group_13253">
			<g>
				<defs>
					<rect id="SVGID_00000076600383057870654550000011620818035105305740_" x="0" y="0" width="413.5" height="324.8"/>
				</defs>
				<clipPath id="SVGID_00000035491427591480631810000004796420462974023574_">
					<use xlink:href="#SVGID_00000076600383057870654550000011620818035105305740_"  style="overflow:visible;"/>
				</clipPath>
				<g id="Group_13252" style="clip-path:url(#SVGID_00000035491427591480631810000004796420462974023574_);">
					<path id="Path_26408" class="st2" d="M85.7,148.8c9-6.8,19.6-15,31.5-14c5,0.3,9.8,2.4,13.4,5.8c3.6,3.6,3.4,8.1,5.6,12.3
						c1.6,2.9,4.4,4.5,7.4,2.5c2.4-1.6,3.8-3.4,6.6-4.2c2.7-0.7,5.5-0.7,8.1,0c12.1,2.9,17,15.6,20.6,26.2c0.3,0.9,1.3,1.5,2.2,1.2
						c0.4-0.1,0.8-0.4,1-0.8c8.5-13.7,24.1-21.3,40.2-19.5c2.2,0.3,2.2-3.2,0-3.5c-17.3-1.8-34.1,6.4-43.2,21.2l3.2,0.4
						c-2.9-8.6-6.3-17.8-13.5-23.8c-5.8-4.8-14.4-7.2-21.5-4.2c-1.6,0.8-3.1,1.8-4.5,2.9c-1.3,0.9-2.4,1.4-3.4,0.1
						c-0.6-1-1-2-1.2-3.1c-1-3.6-2-6.8-4.6-9.6c-4.9-5.5-12.9-8-20.1-7.5c-11.3,0.8-20.9,7.9-29.6,14.5
						C82.2,147.1,83.9,150.1,85.7,148.8"/>
					<path id="Path_26409" class="st2" d="M294.5,148c6.6-8.4,17.5-12.1,27.8-9.4l0.9-3.4c-19.9-3.7-39.3-19.1-44-39.4
						c-2-8.7-1.3-20,6.3-25.8c3.7-2.8,8.5-3.3,10.5-8c2-4.7,1.4-9.9,4.1-14.5c7-11.9,23.3-13.5,32.9-3.7c1,1,3.1,0.3,3-1.2
						c-1.2-11,2.7-22,10.7-29.7C355,5.2,366.4,2,377.5,4.1c2.2,0.4,3.1-2.9,0.9-3.4c-11.9-2.3-24.3,1-33.4,9
						c-9.1,8.3-13.8,20.5-12.5,32.9l3-1.2c-8-8.1-21-10.1-30.6-3.7c-4.4,2.9-7.8,7.2-9.6,12.1c-1,2.8-1.2,5.6-1.7,8.5
						c-0.9,4.5-3.8,5.4-7.4,7.3c-8.9,4.8-11.9,15.5-11.2,24.9c0.8,10.9,6.2,20.9,13.4,29c8.9,10,20.9,16.7,34,19.2
						c2.2,0.4,3.1-2.8,0.9-3.4c-11.8-3-24.3,1.3-31.8,11C290.1,148,293.2,149.8,294.5,148"/>
					<path id="Path_26410" class="st2" d="M135.4,137.3c48.3-3.8,106.5-13.5,128-63.6c5-11.4,6.7-24.1,4.8-36.5l-4.5,1.2
						c0.7,2.8-0.3,5.7-2.5,7.5l3.3,3.3c2.5-2.9,3.9-6.6,4.1-10.5l-4.4,1.2c1.3,3.1,2,6.4,2.1,9.8c0.1,3,4.7,3,4.7,0
						c-0.1-4.2-1-8.3-2.7-12.1c-1-2.3-4.3-0.9-4.4,1.2c0,2.6-1,5.2-2.7,7.2c-0.9,1-0.8,2.4,0.1,3.3c0.9,0.8,2.3,0.8,3.2,0
						c3.4-3,4.9-7.6,3.7-12c-0.7-3-5-1.7-4.5,1.2c4.6,28.8-14.1,56.3-37.7,71.2c-26.8,17-59.7,20.5-90.6,22.9
						C132.4,132.8,132.4,137.5,135.4,137.3"/>
					<path id="Path_26411" class="st2" d="M352.9,31.7c2.9-5.8,7.7-10.5,13.6-13.3c3.4-1.6,7.1-2.8,10.8-3.3
						c2.7-0.4,10-1.9,11.6,1.2c0.3,0.7,1.4,0.1,1-0.6c-1.2-2.4-3.8-2.3-6.2-2.3c-4.7,0-9.4,0.8-13.9,2.4
						c-7.7,2.6-14.2,8.1-17.9,15.4C351.6,31.7,352.6,32.3,352.9,31.7"/>
					<path id="Path_26412" class="st2" d="M369.7,24.1c5.6-1.8,11.4-2.7,17.2-2.4c0.8,0,0.8-1.1,0-1.2c-6-0.2-11.9,0.6-17.6,2.5
						C368.7,23.3,369,24.4,369.7,24.1"/>
					<path id="Path_26413" class="st2" d="M384.9,28.2c1.1-1.3,3-1.4,4.3-0.4c0.1,0.1,0.3,0.3,0.4,0.4c0.5,0.6,1.3-0.2,0.8-0.8
						c-1.5-1.7-4.1-1.9-5.9-0.4c-0.1,0.1-0.3,0.3-0.4,0.4C383.6,27.9,384.4,28.8,384.9,28.2"/>
					<path id="Path_26414" class="st2" d="M388.7,2.3l-0.9,1.9c-0.7,1.1-0.3,2.5,0.8,3.2s2.5,0.3,3.2-0.8c0.3-0.6,0.6-1.2,0.9-1.9
						c0.7-1.1,0.3-2.5-0.8-3.2C390.8,0.8,389.4,1.2,388.7,2.3L388.7,2.3"/>
					<path id="Path_26415" class="st2" d="M324.9,39.4h-0.3c-1.3,0-2.3,1-2.3,2.3c0,1.3,1,2.3,2.3,2.3h0.3c1.3,0,2.3-1,2.3-2.3
						C327.2,40.5,326.2,39.4,324.9,39.4"/>
				</g>
			</g>
		</g>
		<g id="Group_13255">
			<g>
				<defs>
					<rect id="SVGID_00000050638925216624774920000012756510320416138645_" x="0" y="0" width="413.5" height="324.8"/>
				</defs>
				<clipPath id="SVGID_00000128467085404962194640000016325093498966603677_">
					<use xlink:href="#SVGID_00000050638925216624774920000012756510320416138645_"  style="overflow:visible;"/>
				</clipPath>
				<g id="Group_13254" style="clip-path:url(#SVGID_00000128467085404962194640000016325093498966603677_);">
					<path id="Path_26416" class="st2" d="M133.3,313.7c18.9-19.6,45.8-30.3,72.9-30.2c6.9,0,13.7,0.7,20.4,2.2
						c3.1,0.7,6.2,1.5,9.2,2.5c2.6,0.9,5.7,2.6,8.5,2.7c2.3,0,3.7-1.2,5.1-2.8c2.3-2.7,4.3-5.5,7.1-7.8c6.2-5.1,13.8-8.2,21.8-8.7
						c3-0.2,3-4.9,0-4.7c-10.2,0.6-19.9,4.9-27.2,12c-1.4,1.3-2.6,2.8-3.8,4.3c-1.5,2-2.6,2.9-5.1,2.4c-3-0.5-6.2-2.2-9.1-3.1
						c-3.5-1-7.1-1.8-10.7-2.3c-6.5-1.1-13.1-1.5-19.7-1.3c-27.2,0.8-53.8,11.9-72.8,31.6C127.9,312.6,131.2,315.9,133.3,313.7"/>
					<path id="Path_26417" class="st2" d="M369.6,222.5c-3.5-12.1-1.9-25.6,5.3-36.2c8.4-12.4,23.1-15.8,37-18.3
						c3-0.5,1.7-5-1.2-4.5c-15.3,2.8-30.6,6.9-39.8,20.5c-7.8,11.5-9.5,26.5-5.7,39.8C365.9,226.7,370.4,225.4,369.6,222.5"/>
					<path id="Path_26418" class="st2" d="M33.7,238c11.6-9.9,23.6-19.2,36.2-27.8c3.1-2.1,6.3-4.2,9.4-6.3c2.1-1.3,4.6-2.6,6.2-4.5
						c1.4-1.8,1.9-4,2.4-6.1c1-3.7,2-7.4,2.9-11.1l-4.3,0.6c1.8,2.4,3.2,5.1,4.1,8c0.4,1.5,2.3,7.9,0,8.8c-2.8,1.1-1.6,5.6,1.2,4.5
						c9.1-3.6,2.5-18.4-1.3-23.7c-1.1-1.5-3.7-1.5-4.3,0.6c-0.8,3.2-1.7,6.4-2.5,9.6c-1.1,4-1.8,6.1-5.4,8.5
						c-5.6,3.7-11.2,7.4-16.6,11.2c-10.8,7.7-21.3,15.9-31.4,24.5C28.1,236.7,31.4,240,33.7,238"/>
					<path id="Path_26419" class="st2" d="M26.6,239.1c-4.9,5.3-4,12.4-2.7,18.9c0.3,1,1.2,1.7,2.3,1.7c7.6-0.9,14.5-4.5,19.5-10.3
						c2-2.3-1.3-5.6-3.3-3.3c-4.1,4.9-9.9,8.1-16.2,8.9l2.3,1.7c-1-4.7-2.1-10.5,1.5-14.4C31.9,240.2,28.6,236.9,26.6,239.1"/>
					<path id="Path_26420" class="st2" d="M52.5,244.5c2.8-2.4,5.7-4.7,8.7-6.7c2.5-1.7,0.1-5.7-2.4-4c-3.4,2.3-6.6,4.8-9.7,7.5
						C46.9,243.1,50.2,246.4,52.5,244.5"/>
					<path id="Path_26421" class="st2" d="M57.7,237.6l34-2.3c4.7-0.3,10.1,0.1,14.7-1.2c3.7-1,6.6-4.6,9.9-6.5
						c2.6-1.5,0.3-5.5-2.4-4c-3.3,1.9-6.5,5.6-10.3,6.2c-5.1,0.9-10.5,0.7-15.6,1.1l-30.3,2C54.8,233.1,54.7,237.8,57.7,237.6"/>
					<path id="Path_26422" class="st2" d="M75.2,224.5c13.4,0.1,26.8,1.2,40,3.3c2.9,0.5,4.2-4,1.2-4.5c-13.6-2.3-27.4-3.4-41.2-3.5
						C72.2,219.8,72.2,224.5,75.2,224.5"/>
					<path id="Path_26423" class="st2" d="M60.2,230.6l12-6.7c2.6-1.5,0.3-5.5-2.4-4l-12,6.7C55.2,228,57.5,232,60.2,230.6"/>
					<path id="Path_26424" class="st2" d="M79.5,218.8c5.6-4,10.7-8.5,15.4-13.6c2-2.2-1.3-5.5-3.3-3.3c-4.4,4.8-9.2,9.1-14.4,12.8
						C74.8,216.5,77.1,220.5,79.5,218.8"/>
					<path id="Path_26425" class="st2" d="M44,225.3l5.2-23c0.7-2.9-3.9-4.2-4.5-1.2l-5.2,23C38.8,227,43.3,228.2,44,225.3"/>
					<path id="Path_26426" class="st2" d="M51.1,201.1c0.9-1.1,2-2,3.3-2.5c1.2-0.4,1.9-1.6,1.6-2.9c-0.4-1.2-1.6-2-2.9-1.6
						c-2.5,0.9-4.6,2.5-6.1,4.6c-0.6,1.1-0.3,2.5,0.8,3.2C49.1,202.6,50.5,202.2,51.1,201.1"/>
					<path id="Path_26427" class="st2" d="M49,202.2c3,0,3-4.7,0-4.7S46,202.2,49,202.2"/>
					<path id="Path_26428" class="st2" d="M52.2,202c-1.2,0.8-0.5,4.2-0.5,5.6l-0.1,6.5c0,3,4.6,3,4.7,0c0-2.5,0.1-5.1,0.1-7.6
						c0-1.9,0.3-3.9-0.2-5.7c-0.7-2.8-3.7-4.6-6.3-2.8C47.4,199.7,49.7,203.7,52.2,202"/>
					<path id="Path_26429" class="st2" d="M31.3,247.6c2-1.8,3.6-4,4.4-6.6c0.3-1.2-0.4-2.5-1.6-2.9c-1.2-0.3-2.5,0.4-2.9,1.6
						c-0.7,1.8-1.8,3.3-3.2,4.5c-0.9,0.9-0.9,2.4,0,3.3C28.9,248.4,30.3,248.4,31.3,247.6"/>
					<path id="Path_26430" class="st2" d="M34.9,237.9c0.4,1.2,0.8,2.5,1.3,3.7c0.3,1.2,1.6,2,2.9,1.6c1.2-0.3,2-1.6,1.6-2.9
						l-1.3-3.7c-0.3-1.3-1.6-2-2.8-1.7C35.3,235.2,34.5,236.5,34.9,237.9C34.8,237.8,34.9,237.8,34.9,237.9"/>
					<path id="Path_26431" class="st2" d="M50.4,229.1v0.6c0,1.3,1,2.3,2.3,2.3s2.3-1,2.3-2.3c0,0,0,0,0,0v-0.6c0-1.3-1-2.3-2.3-2.3
						S50.4,227.8,50.4,229.1C50.4,229.1,50.4,229.1,50.4,229.1"/>
					<path id="Path_26432" class="st2" d="M61.9,223.9l0.6-0.6c0.9-0.9,0.9-2.4,0-3.3c-0.9-0.9-2.4-0.9-3.3,0l-0.6,0.6
						c-0.9,0.9-0.9,2.4,0,3.3S60.9,224.8,61.9,223.9"/>
					<path id="Path_26433" class="st2" d="M67.7,219.6h0.6c1.3,0,2.3-1.1,2.3-2.3c0-1.3-1-2.3-2.3-2.3h-0.6c-1.3,0-2.3,1-2.3,2.3
						S66.4,219.6,67.7,219.6C67.7,219.6,67.7,219.6,67.7,219.6"/>
					<path id="Path_26434" class="st2" d="M74.5,214.6h0.6c1.3,0,2.3-1.1,2.3-2.3c0-1.3-1-2.3-2.3-2.3h-0.6c-1.3,0-2.3,1.1-2.3,2.3
						C72.2,213.6,73.3,214.6,74.5,214.6"/>
					<path id="Path_26435" class="st2" d="M141.1,174.1l5.6-5c0.9-0.9,0.9-2.4-0.1-3.3c-0.9-0.9-2.3-0.9-3.3,0l-5.6,5
						c-0.9,0.9-0.9,2.4,0,3.3S140.2,175,141.1,174.1"/>
					<path id="Path_26436" class="st2" d="M114.9,200.9l5.6-5.6c2.1-2.1-1.2-5.4-3.3-3.3l-5.6,5.6
						C109.4,199.7,112.8,203,114.9,200.9"/>
					<path id="Path_26437" class="st2" d="M108.8,190c7.5-5.6,14.6-11.7,21.2-18.3c2.1-2.1-1.2-5.4-3.3-3.3
						c-6.4,6.3-13.1,12.2-20.3,17.5C104,187.7,106.3,191.8,108.8,190"/>
					<path id="Path_26438" class="st2" d="M4.5,298.6c8.2-11.4,18.7-21.2,31.5-27.3c14.5-6.9,30.6-6.3,46.1-8
						c26.5-2.9,55.8-10.9,71.2-34.7c7.9-12.2,10.7-27.7,6-41.6l-2.9,2.9c29.7,6.8,59.9,10.8,90.3,12.2c1.8,0.1,3.6,0.1,5.4,0.2
						c0.9,0,1.8,0.1,2.7,0.1c1.6,0.3,2.2,1.2,1.9,2.7c0.9,2.8,0.3,6.7,0.2,9.7c-0.1,7.3-0.9,14.7-2.3,21.9
						c-2.9,14.1-8.2,27.6-15.8,39.9c-1.6,2.6,2.5,4.9,4,2.4c11.9-19.3,18.4-41.4,18.7-64.1c0.1-4.3,1.5-14.1-3.4-16.4
						c-3-1.4-7.4-0.7-10.6-0.9c-4.2-0.2-8.4-0.4-12.5-0.7c-8.4-0.6-16.7-1.3-25-2.3c-17.6-2.1-35.1-5.1-52.4-9.1
						c-1.6-0.4-3.5,1.1-2.9,2.9c9.8,28.9-13.9,53.9-39.3,63.2c-14.2,5.2-29.4,7-44.4,8.2c-14,1.1-27.4,2.3-40,8.9
						C18.7,275.1,8.5,285,0.4,296.2C-1.3,298.7,2.7,301,4.5,298.6"/>
					<path id="Path_26439" class="st2" d="M3.2,303.9c5.1-1.8,10.5,0.5,15.5,2c5.5,1.6,10.9,3.3,16.3,5c10.6,3.4,21,7.1,31.4,11.1
						c2.8,1.1,4-3.4,1.2-4.5c-11.5-4.4-23.1-8.5-34.8-12.2c-5.7-1.8-11.5-3.6-17.2-5.2c-4.6-1.3-9-2.4-13.6-0.7
						C-0.9,300.4,0.3,304.9,3.2,303.9"/>
					<path id="Path_26440" class="st2" d="M36,303.1c17.2-23.4,48.4-27.5,75-31.6c27.2-4.2,54.9-11.4,73.3-33.4
						c9.4-11.1,14.9-24.9,15.7-39.4c0.1-3-4.5-3-4.7,0c-1.2,28.9-23.7,50.7-49.6,60.2c-26.6,9.7-55.9,8.1-82.2,18.7
						C51,282.5,40,289.8,32,300.7C30.2,303.1,34.3,305.5,36,303.1"/>
					<path id="Path_26441" class="st2" d="M105.4,307.3c21.6-23.3,53.6-30,82.5-39.5c14.1-4.6,29.5-9.9,41.1-19.3
						c11.4-9.3,14.4-23.5,16.7-37.4c0.5-2.9-4-4.2-4.5-1.2c-2.5,15.5-6,29.7-20.2,38.6c-13.5,8.4-28.9,13.3-44,17.9
						c-26.8,8.3-55.3,16.4-75,37.7C100.1,306.2,103.4,309.5,105.4,307.3"/>
					<path id="Path_26442" class="st2" d="M150.6,227.3c16.2,1.5,31.8,6.9,47.3,11.5l22.9,6.7c7.8,2.3,15.8,4.3,23.1,8.2
						c2.7,1.4,5-2.6,2.4-4c-6.8-3.7-14.2-5.7-21.5-7.9l-25.6-7.5c-15.9-4.7-31.9-10.1-48.5-11.6C147.6,222.4,147.7,227,150.6,227.3"
						/>
					<path id="Path_26443" class="st2" d="M59.1,265.9c28.7,9.3,55.9,22.9,80.7,40.3c2.5,1.7,4.8-2.3,2.4-4
						c-25.1-17.6-52.6-31.3-81.8-40.8C57.5,260.5,56.2,265,59.1,265.9"/>
					<path id="Path_26444" class="st2" d="M282.2,244c3.3,13.4,6.9,26.7,10.9,40c1.9,6.3,3.9,12.6,5.9,18.9
						c1.1,3.4,2.3,6.8,3.4,10.3c0.6,1.7,1.2,3.4,1.8,5.1c0.2,0.7,0.9,3.9,1.3,3l2-1.2l-0.4,0l2,1.2l-0.2-0.4
						c-0.1,0.9-0.2,1.9-0.4,2.8l0.2-0.2c2.1-2.2-1.2-5.5-3.3-3.3l-0.2,0.2c-0.7,0.8-0.9,1.9-0.4,2.8c0.5,1,1.5,1.6,2.6,1.6
						c0.8,0,1.6-0.4,2-1.2c0.9-2.2,0.2-3.5-0.5-5.8c-1.2-3.4-2.3-6.8-3.5-10.2c-2.4-7.1-4.7-14.3-6.8-21.5
						c-4.4-14.4-8.3-28.8-11.9-43.4C286,239.8,281.5,241.1,282.2,244"/>
					<path id="Path_26445" class="st2" d="M286.3,242.6c8.9-9.9,24.5-11.9,36.9-14.7c7.7-1.8,15.3-3.4,23-4.9
						c7-1.3,14.8-4.5,18.8,3.2c3.1,6,4.4,13.3,6.2,19.7c2.1,7.3,4.1,14.7,6.1,22.1c4,15,7.8,30.1,11.4,45.3c0.7,2.9,5.2,1.7,4.5-1.2
						c-4.1-17.2-8.4-34.4-13-51.4c-2.4-8.8-4.9-17.6-7.4-26.4c-1.6-5.4-3-11.6-7.5-15.3c-4.9-4-11.1-2.1-16.7-1
						c-8.6,1.6-17.2,3.4-25.7,5.3c-13.4,3.1-30.1,5.3-39.8,16.1C281,241.5,284.3,244.8,286.3,242.6"/>
					<path id="Path_26446" class="st2" d="M305.1,273.2l10.5,36.9c1,3.5,1.6,9.9,5.2,12c3.3,1.9,6.4-0.9,9.2-2.3
						c16.5-8.2,37.1-4.5,51.4-17.6c0.6-0.6,0.8-1.5,0.6-2.3l-9.5-27.1c-1.5-4.4-2.9-8.9-4.6-13.2c-1.1-2.9-2.7-5.5-5.8-6.6
						c-3-1.1-6.4-0.3-9.4,0.4c-4.7,1.1-9.4,2.2-14,3.3l-29,6.8c-2.9,0.7-1.7,5.2,1.2,4.5l22.8-5.4l12.3-2.9
						c3.7-0.9,7.6-2.3,11.3-2.5c6-0.3,6.7,5.5,8.3,10.1l3.9,11c2.7,7.6,5.3,15.3,8,22.9l0.6-2.3c-12,11-29.9,9.4-44.5,14.3
						c-1.4,0.5-2.8,1-4.2,1.6c-1.6,0.7-3.9,2.6-5.7,2.4c-1.6-0.2-1.4-0.8-1.9-2.4c-0.5-1.5-0.8-2.9-1.3-4.4c-0.7-2.3-1.3-4.7-2-7
						l-9-31.7C308.8,269,304.3,270.2,305.1,273.2"/>
					<path id="Path_26447" class="st2" d="M299.4,208.5c1.6,7.1,3.6,14,6.2,20.8c1,2.8,5.6,1.6,4.5-1.2c-2.5-6.8-4.6-13.7-6.2-20.8
						C303.3,204.3,298.8,205.6,299.4,208.5"/>
					<path id="Path_26448" class="st2" d="M323.5,199.8c1.6,7.6,4.3,14.8,8.1,21.6c1.5,2.6,5.5,0.3,4-2.4
						c-3.6-6.4-6.1-13.3-7.6-20.4C327.4,195.6,322.9,196.9,323.5,199.8"/>
					<path id="Path_26449" class="st2" d="M324.6,195l-18.1,7.3c-2.8,1.1-5.9,3-8.9,3.6c-2.4,0.5-4.4-0.1-5.5-2.3
						c-1.2-2.4-1.2-3.7,1.3-4.7c5.9-2.5,12-4.6,18.2-6.4c2.8-0.8,5.6-1.6,8.5-2.3c1.5-0.4,3.1-0.8,4.7-1.1c3.4-0.5,8.9,4.9,2.3,5.6
						c-3,0.3-3,5,0,4.7c7.6-0.8,10.9-11.3,2.9-14.6c-4.9-2-11.5,0.8-16.2,2.1c-6.5,1.8-12.9,3.9-19.1,6.4c-3.3,1.3-8.2,2.4-8.5,6.7
						c-0.3,3.5,2.9,8.3,5.8,10c4.5,2.7,10-0.9,14.2-2.6l19.7-7.9C328.6,198.4,327.3,193.9,324.6,195"/>
					<path id="Path_26450" class="st2" d="M302.3,249.6c8.7-3.6,17.4-7.3,26.5-9.8c4.7-1.3,9.5-2.2,14.4-2.6
						c3.7-0.2,7.3-0.9,10.7-2.3c2.8-1.2,0.4-5.2-2.4-4c-4.1,1.8-8.8,1.5-13.1,2.2c-4.2,0.6-8.4,1.5-12.5,2.7
						c-8.5,2.6-16.8,5.7-24.9,9.3C298.3,246.2,299.5,250.7,302.3,249.6"/>
					<path id="Path_26451" class="st2" d="M22.1,206.6c-2.1-11,3.4-22.2,12.5-28.4c9.5-6.5,21.8-7.2,32.8-4.6
						c1.3,0.3,2.6-0.4,2.9-1.7c0-0.2,0.1-0.4,0.1-0.6c-0.6-7,3-13.7,9.2-17.1c2.6-1.5,0.3-5.5-2.4-4c-7.6,4.2-12.1,12.5-11.5,21.2
						l3-2.3c-13.1-3.1-27.7-1.8-38.6,6.7c-9.6,7.6-14.7,19.9-12.4,32C18.1,210.8,22.6,209.5,22.1,206.6"/>
				</g>
			</g>
		</g>
	</g>
</g>
</svg>
