<svg xmlns="http://www.w3.org/2000/svg" width="30" height="30" viewBox="0 0 30 30">
  <g id="Group_38611" data-name="Group 38611" transform="translate(-61 5.776)">
    <circle id="Ellipse_442" data-name="Ellipse 442" cx="15" cy="15" r="15" transform="translate(61 -5.776)" fill="#fff"/>
    <g id="instagram" transform="translate(69 2.224)">
      <g id="Group_12185" data-name="Group 12185" transform="translate(10.73 2.591)">
        <g id="Group_12184" data-name="Group 12184">
          <path id="Path_22094" data-name="Path 22094" d="M392.741,94.739a.34.34,0,1,0,.34.34A.34.34,0,0,0,392.741,94.739Z" transform="translate(-392.401 -94.739)" fill="#575757"/>
        </g>
      </g>
      <g id="Group_12187" data-name="Group 12187" transform="translate(3.987 3.987)">
        <g id="Group_12186" data-name="Group 12186">
          <path id="Path_22095" data-name="Path 22095" d="M148.817,145.8a3.013,3.013,0,1,0,3.013,3.013A3.017,3.017,0,0,0,148.817,145.8Z" transform="translate(-145.804 -145.804)" fill="#575757"/>
        </g>
      </g>
      <g id="Group_12189" data-name="Group 12189">
        <g id="Group_12188" data-name="Group 12188">
          <path id="Path_22096" data-name="Path 22096" d="M10.162,0H3.838A3.842,3.842,0,0,0,0,3.838v6.324A3.842,3.842,0,0,0,3.838,14h6.324A3.842,3.842,0,0,0,14,10.162V3.838A3.842,3.842,0,0,0,10.162,0ZM7,10.84A3.84,3.84,0,1,1,10.84,7,3.844,3.844,0,0,1,7,10.84ZM11.07,4.1A1.167,1.167,0,1,1,12.236,2.93,1.168,1.168,0,0,1,11.07,4.1Z" fill="#575757"/>
        </g>
      </g>
    </g>
  </g>
</svg>
