<svg  id="Layer_1" xmlns="http://www.w3.org/2000/svg" width="38.674" height="34" viewBox="0 0 38.674 34">
  <g id="live-chat" transform="translate(0 -30.94)">
    <path id="Path_22614" data-name="Path 22614" d="M35.275,40.014H32.9a14.735,14.735,0,0,0-27.169,0H3.4a3.4,3.4,0,0,0-3.4,3.4v4.532a3.4,3.4,0,0,0,3.4,3.4H8.052l-.487-1.486A12.481,12.481,0,1,1,31.093,41.52l.01.025a9.815,9.815,0,0,1,.531,2.069,12.471,12.471,0,0,1-.559,6.211l0,.014a12.439,12.439,0,0,1-11.71,8.3,3.4,3.4,0,1,0,3.377,3.4V60.013a14.71,14.71,0,0,0,10.151-8.669h2.388a3.4,3.4,0,0,0,3.4-3.4V43.413A3.4,3.4,0,0,0,35.275,40.014Z" transform="translate(0 0)"/>
    <path id="Path_22615" data-name="Path 22615" d="M121,109.188v2.266h10.2a10.2,10.2,0,1,0-8.02-3.9A2.253,2.253,0,0,1,121,109.188Zm13.6-9.064h2.266v2.266H134.6Zm-4.532,0h2.266v2.266h-2.266Zm-4.532,0H127.8v2.266h-2.266Z" transform="translate(-111.86 -55.578)" fill="#EE5F1E"/>
  </g>
</svg>
