<svg xmlns="http://www.w3.org/2000/svg" xmlns:xlink="http://www.w3.org/1999/xlink" width="269.085" height="241.594" viewBox="0 0 269.085 241.594">
  <defs>
    <clipPath id="clip-path">
      <rect id="Rectangle_1397" data-name="Rectangle 1397" width="35.267" height="44.806" fill="#d5d5d5"/>
    </clipPath>
  </defs>
  <g id="Group_38607" data-name="Group 38607" transform="translate(-112.654 -235.578)">
    <path id="Path_22640" data-name="Path 22640" d="M53.138,147h10.4V136.6h-10.4Zm13.314,0h10.4V136.6h-10.4ZM53.138,133.686h10.4v-10.4h-10.4Zm13.314,0h10.4v-10.4h-10.4ZM16.093,107.717h7.464L66.743,78.3,63.02,75.755Zm123.7-20.069,6.476-2.3v6.476l-6.476,2.3Zm0-9.4,6.476-2.3V82.42l-6.476,2.3Zm-10.835-5.893,6.476-2.3v6.476l-6.476,2.3Zm10.835-3.508,6.476-2.3v6.477l-6.476,2.3Zm-10.835-5.893,6.476-2.3v6.477l-6.476,2.3Zm10.835-3.508,6.476-2.3v6.476l-6.476,2.3Zm-21.669-2.384,6.477-2.3v6.476l-6.477,2.3Zm10.835-3.509,6.476-2.3v6.477l-6.476,2.3Zm-21.669-2.384,6.476-2.3V55.34l-6.476,2.3Zm32.5-1.125,6.476-2.3v6.476l-6.476,2.3Zm-21.669-2.384,6.477-2.3v6.476l-6.477,2.3Zm10.835-3.509,6.476-2.3v6.477l-6.476,2.3Zm-21.669-2.384,6.476-2.3v6.477l-6.476,2.3Zm32.5-1.125,6.476-2.3v6.476l-6.476,2.3Zm-21.669-2.384,6.477-2.3v6.477l-6.477,2.3Zm10.835-3.509,6.476-2.3V38.92l-6.476,2.3Zm-21.669-2.384,6.476-2.3v6.477l-6.476,2.3Zm32.5-1.125,6.476-2.3v6.477l-6.476,2.3Zm-21.669-2.384,6.477-2.3v6.477l-6.477,2.3Zm10.835-3.508,6.476-2.3v6.476l-6.476,2.3Zm10.835-3.509,6.476-2.3V26.01l-6.476,2.3ZM155.23,0,86.577,28.749V68.994l-24.011-5.41L0,106.2H8.011L62.9,68.512l72.143,49.372h-11.5v75.395H.082v3.931H255.2v-3.931H223.446V90.372l-19.808,8.294v86.623h-21.12l-.595-77.53,21.714-9.093V62.924L164.022,46.336V185.289H155.23Z" transform="translate(126.543 279.964)" fill="#d5d5d5"/>
    <g id="search" transform="matrix(-0.985, 0.174, -0.174, -0.985, 301.917, 396.471)">
      <g id="Group_38604" data-name="Group 38604" transform="translate(0 0)">
        <path id="Path_22641" data-name="Path 22641" d="M1,5.81l49.71,49.71a64.915,64.915,0,1,0,4.813-4.813L5.81,1A3.4,3.4,0,1,0,1,5.81ZM98.706,40.844A57.862,57.862,0,1,1,40.844,98.705,57.929,57.929,0,0,1,98.706,40.844Z" fill="#b6b6b6"/>
      </g>
    </g>
    <g id="Group_38606" data-name="Group 38606" transform="translate(139.221 428.622)">
      <g id="Group_38605" data-name="Group 38605" clip-path="url(#clip-path)">
        <path id="Path_22642" data-name="Path 22642" d="M30.241,5.224a17.821,17.821,0,0,0-25.211,0A16.693,16.693,0,0,0,0,17.2,21.154,21.154,0,0,0,5.03,30.419L15.205,43.612a3.069,3.069,0,0,0,4.86,0L30.241,30.419A21.149,21.149,0,0,0,35.268,17.2,16.692,16.692,0,0,0,30.241,5.224" transform="translate(-0.001)" fill="#d5d5d5"/>
        <path id="Path_22643" data-name="Path 22643" d="M57.938,64.98a7.393,7.393,0,1,0-7.393-7.393,7.393,7.393,0,0,0,7.393,7.393" transform="translate(-40.304 -40.024)" fill="#fff"/>
      </g>
    </g>
  </g>
</svg>
