<svg xmlns="http://www.w3.org/2000/svg" width="269.58" height="194.892" viewBox="0 0 269.58 194.892">
  <g id="Group_38688" data-name="Group 38688" transform="translate(-727.813 -367.056)">
    <g id="Group_38689" data-name="Group 38689" transform="translate(728.313 367.056)">
      <g id="Group_38607" data-name="Group 38607" transform="translate(13.854 0)">
        <path id="Path_22640" data-name="Path 22640" d="M53.145,145.275h10.4V135h-10.4Zm13.315,0h10.4V135H66.46ZM53.145,132.118h10.4V121.839h-10.4Zm13.315,0h10.4V121.839H66.46ZM16.095,106.453H23.56L66.751,77.385l-3.724-2.518ZM139.807,86.62l6.477-2.276v6.4l-6.477,2.276Zm0-9.292,6.477-2.275v6.4l-6.477,2.276ZM128.971,71.5l6.477-2.276v6.4l-6.477,2.277Zm10.836-3.467,6.477-2.277v6.4l-6.477,2.276Zm-10.836-5.824,6.477-2.276v6.4l-6.477,2.276Zm10.836-3.467,6.477-2.276v6.4l-6.477,2.276ZM118.135,56.39l6.477-2.276v6.4l-6.477,2.276Zm10.836-3.468,6.477-2.276v6.4l-6.477,2.276ZM107.3,50.566l6.477-2.276v6.4L107.3,56.967Zm32.508-1.112,6.477-2.276v6.4l-6.477,2.276ZM118.135,47.1l6.477-2.276v6.4L118.135,53.5Zm10.836-3.468,6.477-2.276v6.4l-6.477,2.276ZM107.3,41.274,113.777,39v6.4L107.3,47.675Zm32.508-1.112,6.477-2.276v6.4l-6.477,2.277Zm-21.672-2.356,6.477-2.276v6.4l-6.477,2.277Zm10.836-3.468,6.477-2.276v6.4l-6.477,2.276ZM107.3,31.983l6.477-2.276v6.4L107.3,38.384Zm32.508-1.112,6.477-2.276V35l-6.477,2.276Zm-21.672-2.356,6.477-2.276v6.4l-6.477,2.276Zm10.836-3.467,6.477-2.276v6.4l-6.477,2.276Zm10.836-3.468,6.477-2.276v6.4l-6.477,2.276ZM155.248,0,86.587,28.412V68.185L62.573,62.838,0,104.949H8.011l54.9-37.241L135.059,116.5h-11.5v74.51H.082V194.9H255.226v-3.885H223.473V89.312l-19.81,8.2v85.607H182.54l-.595-76.621,21.717-8.986V62.186L164.042,45.792V183.115h-8.794Z" transform="translate(0 -0.003)" fill="#d5d5d5"/>
      </g>
      <g id="chat_2_" data-name="chat (2)" transform="translate(0 146.889)">
        <g id="Group_38687" data-name="Group 38687" transform="translate(0 0)">
          <path id="Path_22665" data-name="Path 22665" d="M58.309,290.063H93.174a.767.767,0,1,0,0-1.533H58.309a.767.767,0,1,0,0,1.533Z" transform="translate(-51.66 -261.653)" fill="#d5d5d5" stroke="#d5d5d5" stroke-width="1"/>
          <path id="Path_22666" data-name="Path 22666" d="M58.309,220.245H79.526a.767.767,0,0,0,0-1.533H58.309a.767.767,0,1,0,0,1.533Z" transform="translate(-51.66 -198.971)" fill="#d5d5d5" stroke="#d5d5d5" stroke-width="1"/>
          <path id="Path_22667" data-name="Path 22667" d="M58.309,150.427H79.526a.767.767,0,0,0,0-1.533H58.309a.767.767,0,0,0,0,1.533Z" transform="translate(-51.66 -136.29)" fill="#d5d5d5" stroke="#d5d5d5" stroke-width="1"/>
          <path id="Path_22668" data-name="Path 22668" d="M320.637,25.582a10.307,10.307,0,1,0,10.307,10.307A10.318,10.318,0,0,0,320.637,25.582Zm0,19.08a8.774,8.774,0,1,1,8.774-8.774A8.784,8.784,0,0,1,320.637,44.662Z" transform="translate(-278.61 -25.582)" fill="#d5d5d5" stroke="#d5d5d5" stroke-width="1"/>
          <path id="Path_22669" data-name="Path 22669" d="M47.4,87.788a.767.767,0,0,0-.767.767v9.214a3.945,3.945,0,0,1-3.941,3.941H23.23a2.484,2.484,0,0,0-2.143,1.235l-5.223,9.017a.6.6,0,0,1-1.04,0L9.6,102.945a2.484,2.484,0,0,0-2.143-1.235H5.474a3.945,3.945,0,0,1-3.941-3.941V76.845A3.945,3.945,0,0,1,5.474,72.9h24.6a.767.767,0,1,0,0-1.533H5.474A5.48,5.48,0,0,0,0,76.845V97.769a5.48,5.48,0,0,0,5.474,5.474H7.457a.946.946,0,0,1,.816.471L13.5,112.73a2.134,2.134,0,0,0,3.694,0l5.223-9.017a.946.946,0,0,1,.816-.471H42.688a5.48,5.48,0,0,0,5.474-5.474V88.555a.767.767,0,0,0-.767-.766Z" transform="translate(0 -66.691)" fill="#d5d5d5" stroke="#d5d5d5" stroke-width="1"/>
          <path id="Path_22670" data-name="Path 22670" d="M387.349,69.307h-2.168a.767.767,0,0,0,0,1.533h1.4v9.375a.767.767,0,0,0,1.533,0V70.074A.767.767,0,0,0,387.349,69.307Z" transform="translate(-345.122 -64.838)" fill="#d5d5d5" stroke="#d5d5d5" stroke-width="1"/>
        </g>
      </g>
    </g>
  </g>
</svg>
