<svg xmlns="http://www.w3.org/2000/svg" width="206.964" height="158.842" viewBox="0 0 206.964 158.842">
  <g id="Group_38861" data-name="Group 38861" transform="translate(-1747.539 -660.56)">
    <g id="Group_38858" data-name="Group 38858" transform="translate(1747.539 660.56)">
      <path id="Path_30782" data-name="Path 30782" d="M2911.262,1604.8a.33.33,0,0,0-.452-.116l-1.1.647-.647-1.1a.33.33,0,0,0-.6.086.326.326,0,0,0,.035.25l.647,1.1-1.1.647a.33.33,0,1,0,.336.568l1.1-.647.647,1.1a.331.331,0,0,0,.349.156.327.327,0,0,0,.1-.04.33.33,0,0,0,.116-.452l-.647-1.1,1.1-.647A.33.33,0,0,0,2911.262,1604.8Z" transform="translate(-2748.312 -1474.317)" fill="#dedede"/>
      <path id="Path_30783" data-name="Path 30783" d="M2943.595,1644.054a1.438,1.438,0,1,1,1.438-1.438A1.439,1.439,0,0,1,2943.595,1644.054Zm0-2.107a.669.669,0,1,0,.669.669A.67.67,0,0,0,2943.595,1641.946Z" transform="translate(-2777.868 -1506.319)" fill="#dedede"/>
      <path id="Path_30784" data-name="Path 30784" d="M1887.361,1797.533a1.438,1.438,0,1,1,1.438-1.438A1.439,1.439,0,0,1,1887.361,1797.533Zm0-2.107a.669.669,0,1,0,.669.669A.67.67,0,0,0,1887.361,1795.425Z" transform="translate(-1866.892 -1638.691)" fill="#dedede"/>
      <path id="Path_30785" data-name="Path 30785" d="M3045.4,673a1.438,1.438,0,1,1,1.438-1.438A1.44,1.44,0,0,1,3045.4,673Zm0-2.107a.669.669,0,1,0,.669.669A.67.67,0,0,0,3045.4,670.889Z" transform="translate(-2865.676 -668.806)" fill="#dedede"/>
      <path id="Path_30786" data-name="Path 30786" d="M3227.635,955.671a.33.33,0,0,0-.152.441l.557,1.144-1.144.557a.33.33,0,0,0,.289.594l1.144-.557.557,1.144a.33.33,0,1,0,.594-.289l-.557-1.144,1.144-.557a.33.33,0,0,0-.289-.593l-1.144.557-.557-1.144A.33.33,0,0,0,3227.635,955.671Z" transform="translate(-3023.288 -915.057)" fill="#dedede"/>
      <path id="Path_30787" data-name="Path 30787" d="M3073.325,1136.862a1.438,1.438,0,1,1,1.438-1.438A1.439,1.439,0,0,1,3073.325,1136.862Zm0-2.107a.669.669,0,1,0,.669.669A.67.67,0,0,0,3073.325,1134.755Z" transform="translate(-2889.757 -1068.878)" fill="#dedede"/>
      <path id="Path_30788" data-name="Path 30788" d="M1747.715,1300.129a.33.33,0,0,0-.015.467l.87.928-.928.87a.33.33,0,1,0,.452.481l.928-.87.871.928a.33.33,0,0,0,.481-.452l-.87-.928.928-.871a.331.331,0,0,0,.076-.374.326.326,0,0,0-.061-.092.33.33,0,0,0-.466-.015l-.928.871-.871-.928A.33.33,0,0,0,1747.715,1300.129Z" transform="translate(-1747.539 -1212.096)" fill="#dedede"/>
      <path id="Path_30789" data-name="Path 30789" d="M1842.849,1397.632a1.438,1.438,0,1,1,1.438-1.438A1.439,1.439,0,0,1,1842.849,1397.632Zm0-2.107a.669.669,0,1,0,.669.669A.67.67,0,0,0,1842.849,1395.525Z" transform="translate(-1828.501 -1293.786)" fill="#dedede"/>
      <g id="Group_38857" data-name="Group 38857" transform="translate(2.051 0)">
        <g id="Group_38855" data-name="Group 38855" transform="translate(0 78.822)">
          <path id="Path_30790" data-name="Path 30790" d="M1799.511,1303.935a.293.293,0,0,1-.016-.585c.965-.054,1.942-.151,2.9-.286a.293.293,0,1,1,.082.58c-.978.138-1.971.236-2.952.291Zm-4.116-.013h-.019c-.983-.061-1.976-.166-2.95-.311a.293.293,0,1,1,.086-.579c.958.142,1.934.245,2.9.306a.293.293,0,0,1-.018.585Zm11.081-1.088a.293.293,0,0,1-.074-.576c.938-.246,1.876-.535,2.787-.858a.293.293,0,1,1,.2.552c-.927.329-1.88.622-2.834.873A.285.285,0,0,1,1806.475,1302.834Zm-18.037-.068a.292.292,0,0,1-.077-.01c-.95-.26-1.9-.563-2.826-.9a.293.293,0,1,1,.2-.55c.91.333,1.845.632,2.779.887a.293.293,0,0,1-.077.575Zm24.64-2.4a.293.293,0,0,1-.13-.555c.868-.43,1.728-.9,2.556-1.4a.293.293,0,0,1,.3.5c-.842.51-1.717.991-2.6,1.428A.291.291,0,0,1,1813.078,1300.365Zm-31.218-.135a.292.292,0,0,1-.132-.032c-.878-.445-1.748-.933-2.587-1.451a.293.293,0,1,1,.307-.5c.825.509,1.681.99,2.544,1.427a.293.293,0,0,1-.133.554Zm37.181-3.618a.293.293,0,0,1-.18-.523c.763-.6,1.509-1.233,2.22-1.892a.293.293,0,0,1,.4.429c-.722.67-1.482,1.318-2.257,1.924A.291.291,0,0,1,1819.041,1296.611Zm-43.116-.187a.291.291,0,0,1-.182-.063c-.772-.613-1.527-1.265-2.244-1.94a.293.293,0,0,1,.4-.426c.705.664,1.448,1.305,2.207,1.908a.293.293,0,0,1-.182.522Zm48.2-4.695a.293.293,0,0,1-.223-.482c.628-.738,1.231-1.512,1.795-2.3a.293.293,0,0,1,.476.341c-.573.8-1.187,1.588-1.825,2.338A.292.292,0,0,1,1824.125,1291.73Zm-53.252-.221a.292.292,0,0,1-.225-.1c-.633-.755-1.242-1.546-1.808-2.351a.293.293,0,1,1,.479-.337c.557.792,1.155,1.569,1.778,2.312a.293.293,0,0,1-.224.481Zm57.256-5.582a.293.293,0,0,1-.256-.434c.467-.849.9-1.728,1.3-2.612a.293.293,0,1,1,.535.238c-.4.9-.845,1.793-1.32,2.656A.293.293,0,0,1,1828.129,1285.927Zm-61.213-.251a.292.292,0,0,1-.258-.154c-.467-.867-.9-1.765-1.294-2.669a.293.293,0,1,1,.537-.233c.385.889.813,1.772,1.273,2.624a.293.293,0,0,1-.257.432Zm63.973-6.237a.293.293,0,0,1-.28-.38c.287-.926.538-1.874.746-2.82a.293.293,0,1,1,.572.125c-.211.962-.466,1.927-.758,2.868A.293.293,0,0,1,1830.889,1279.439Zm-66.667-.277a.293.293,0,0,1-.28-.209c-.281-.941-.527-1.908-.73-2.874a.293.293,0,1,1,.573-.12c.2.95.441,1.9.718,2.827a.293.293,0,0,1-.281.377Zm68.062-6.636h-.029a.293.293,0,0,1-.263-.32c.094-.963.147-1.943.159-2.912a.293.293,0,1,1,.585.007c-.012.985-.066,1.982-.161,2.962A.293.293,0,0,1,1832.284,1272.526Zm-69.4-.287a.293.293,0,0,1-.291-.266c-.089-.982-.137-1.979-.142-2.963a.293.293,0,0,1,.291-.294h0a.293.293,0,0,1,.292.291c.006.967.053,1.948.14,2.914a.293.293,0,0,1-.265.318Zm69.36-6.763a.293.293,0,0,1-.291-.262c-.1-.961-.248-1.931-.431-2.885l-.007-.037a.293.293,0,1,1,.574-.111l.007.038c.187.97.334,1.957.438,2.934a.293.293,0,0,1-.26.322Zm-69.279-.29-.033,0a.293.293,0,0,1-.258-.324c.111-.979.266-1.965.461-2.931a.293.293,0,0,1,.574.115c-.191.95-.343,1.919-.453,2.881A.292.292,0,0,1,1762.968,1265.187Zm67.823-6.647a.293.293,0,0,1-.279-.2c-.294-.924-.63-1.846-1-2.74a.293.293,0,0,1,.541-.224c.376.909.719,1.846,1.017,2.786a.293.293,0,0,1-.279.381Zm-66.315-.241a.287.287,0,0,1-.091-.015.292.292,0,0,1-.187-.369c.307-.936.658-1.87,1.044-2.777a.293.293,0,0,1,.539.229c-.379.892-.724,1.811-1.026,2.73A.293.293,0,0,1,1764.475,1258.3Zm63.509-6.225a.293.293,0,0,1-.255-.15c-.474-.844-.99-1.679-1.534-2.48a.293.293,0,1,1,.484-.329c.553.815,1.078,1.664,1.561,2.522a.293.293,0,0,1-.255.436Zm-60.644-.217a.293.293,0,0,1-.254-.438c.489-.855,1.02-1.7,1.579-2.511a.293.293,0,1,1,.482.332c-.55.8-1.072,1.629-1.553,2.469A.292.292,0,0,1,1767.34,1251.856Zm56.587-5.544a.292.292,0,0,1-.221-.1c-.635-.731-1.309-1.444-2-2.12a.293.293,0,1,1,.408-.42c.707.687,1.392,1.412,2.038,2.155a.293.293,0,0,1-.221.484Zm-52.489-.192a.293.293,0,0,1-.22-.486c.651-.74,1.34-1.461,2.05-2.144a.293.293,0,1,1,.406.422c-.7.671-1.376,1.38-2.016,2.108A.292.292,0,0,1,1771.438,1246.12Zm47.353-4.636a.293.293,0,0,1-.178-.06c-.769-.589-1.573-1.153-2.388-1.675a.293.293,0,1,1,.316-.493c.829.531,1.646,1.1,2.429,1.7a.293.293,0,0,1-.178.525Zm-42.19-.162a.293.293,0,0,1-.177-.526c.786-.594,1.607-1.162,2.44-1.687a.293.293,0,1,1,.312.5c-.819.516-1.626,1.074-2.4,1.658A.292.292,0,0,1,1776.6,1241.322Zm36.189-3.54a.292.292,0,0,1-.128-.029c-.872-.423-1.772-.814-2.675-1.163a.293.293,0,1,1,.21-.546c.919.354,1.834.752,2.721,1.182a.293.293,0,0,1-.128.556Zm-30.163-.116a.293.293,0,0,1-.126-.557c.889-.422,1.808-.811,2.731-1.157a.293.293,0,1,1,.205.548c-.907.34-1.811.723-2.685,1.138A.292.292,0,0,1,1782.628,1237.666Zm23.541-2.307a.3.3,0,0,1-.072-.009c-.939-.239-1.9-.441-2.855-.6a.293.293,0,0,1,.1-.578c.972.161,1.948.366,2.9.609a.293.293,0,0,1-.072.576Zm-16.9-.054a.293.293,0,0,1-.069-.577c.582-.143,1.176-.273,1.767-.386.377-.073.761-.14,1.14-.2a.293.293,0,0,1,.092.578c-.373.059-.751.125-1.122.2-.582.112-1.166.24-1.738.38A.3.3,0,0,1,1789.269,1235.305Zm9.924-.98h-.013c-.513-.023-1.033-.035-1.545-.035-.455,0-.916.009-1.372.027a.293.293,0,0,1-.023-.585c.463-.018.932-.028,1.395-.028.521,0,1.05.012,1.572.035a.293.293,0,0,1-.013.585Z" transform="translate(-1762.454 -1233.705)" fill="#dedede"/>
        </g>
        <g id="Group_38856" data-name="Group 38856" transform="translate(77.092)">
          <path id="Path_30791" data-name="Path 30791" d="M2388.189,783.024l-.505.031a.293.293,0,0,1-.035-.584h0c.957-.054,1.925-.132,2.88-.231a.293.293,0,1,1,.06.582C2389.8,782.9,2388.988,782.972,2388.189,783.024Zm-4.564.125h-.022c-.968-.01-1.949-.043-2.915-.1a.293.293,0,0,1,.034-.585c.957.055,1.928.088,2.887.1a.293.293,0,0,1,.016.585Zm10.982-.878a.293.293,0,0,1-.068-.581c.947-.162,1.9-.348,2.835-.553a.293.293,0,0,1,.125.572c-.944.207-1.906.395-2.863.558Zm-17.929.41a.294.294,0,0,1-.056,0c-.961-.12-1.932-.266-2.885-.432a.293.293,0,0,1,.1-.577c.944.165,1.9.309,2.857.428a.293.293,0,0,1-.017.582Zm24.716-1.968a.293.293,0,0,1-.1-.573c.921-.267,1.847-.56,2.754-.871a.293.293,0,1,1,.19.554c-.915.314-1.851.61-2.781.88A.291.291,0,0,1,2401.393,780.713Zm-31.569.7a.289.289,0,0,1-.088-.008c-.941-.23-1.89-.487-2.821-.762a.293.293,0,0,1,.166-.561c.922.273,1.862.527,2.794.755a.293.293,0,0,1-.051.576Zm38.134-3.026a.293.293,0,0,1-.132-.562c.885-.371,1.771-.769,2.636-1.182a.293.293,0,0,1,.252.528c-.873.417-1.769.818-2.662,1.193A.293.293,0,0,1,2407.958,778.391Zm-44.8.982a.291.291,0,0,1-.121-.018c-.908-.336-1.821-.7-2.713-1.08a.293.293,0,1,1,.229-.539c.884.376,1.788.736,2.688,1.07a.293.293,0,0,1-.083.567Zm51.051-4.039a.293.293,0,0,1-.163-.547c.833-.469,1.667-.965,2.478-1.473a.293.293,0,1,1,.311.5c-.818.514-1.66,1.014-2.5,1.487A.29.29,0,0,1,2414.208,775.334Zm-57.437,1.247a.293.293,0,0,1-.151-.031c-.864-.438-1.729-.9-2.571-1.381a.293.293,0,1,1,.289-.509c.834.474,1.69.934,2.547,1.368a.293.293,0,0,1-.114.553Zm63.292-5a.293.293,0,0,1-.191-.529c.775-.562,1.547-1.15,2.3-1.748a.293.293,0,0,1,.366.457c-.755.6-1.535,1.2-2.318,1.765A.291.291,0,0,1,2420.064,771.583Zm-69.316,1.5a.29.29,0,0,1-.18-.048c-.809-.533-1.615-1.093-2.4-1.663a.293.293,0,1,1,.345-.473c.774.565,1.573,1.119,2.374,1.648a.293.293,0,0,1-.143.536Zm74.708-5.9a.293.293,0,0,1-.216-.508c.706-.646,1.407-1.319,2.083-2a.293.293,0,0,1,.415.413c-.682.686-1.39,1.365-2.1,2.018A.29.29,0,0,1,2425.455,767.186Zm-80.295,1.738a.292.292,0,0,1-.207-.068c-.742-.621-1.48-1.268-2.192-1.923a.293.293,0,0,1,.4-.431c.706.649,1.436,1.29,2.171,1.905a.293.293,0,0,1-.169.517Zm85.154-6.722a.293.293,0,0,1-.24-.484c.629-.723,1.25-1.471,1.844-2.224a.293.293,0,1,1,.459.363c-.6.759-1.226,1.515-1.862,2.245A.291.291,0,0,1,2430.315,762.2Zm-90.232,1.959a.292.292,0,0,1-.231-.09c-.667-.7-1.326-1.427-1.958-2.158a.293.293,0,0,1,.443-.383c.626.724,1.279,1.444,1.94,2.138a.293.293,0,0,1-.193.494Zm94.5-7.464a.293.293,0,0,1-.26-.458c.544-.791,1.075-1.6,1.581-2.419a.293.293,0,1,1,.5.309c-.51.822-1.047,1.644-1.6,2.442A.292.292,0,0,1,2434.58,756.7Zm-99,2.158a.292.292,0,0,1-.253-.116c-.582-.771-1.154-1.567-1.7-2.366a.293.293,0,1,1,.483-.33c.54.791,1.106,1.579,1.683,2.343a.293.293,0,0,1-.215.468Zm102.614-8.112a.293.293,0,0,1-.277-.43c.451-.848.887-1.717,1.3-2.584a.293.293,0,1,1,.529.25c-.413.875-.853,1.753-1.309,2.609A.293.293,0,0,1,2438.195,750.742Zm-106.479,2.33a.293.293,0,0,1-.271-.144c-.49-.832-.966-1.688-1.416-2.542a.293.293,0,0,1,.518-.273c.445.847.917,1.694,1.4,2.518a.293.293,0,0,1-.233.441Zm109.395-8.66a.293.293,0,0,1-.291-.4c.352-.894.686-1.808.993-2.717a.293.293,0,0,1,.554.188c-.311.917-.648,1.84-1,2.743A.293.293,0,0,1,2441.111,744.413Zm-112.573,2.472a.293.293,0,0,1-.287-.174c-.392-.885-.768-1.791-1.117-2.694a.293.293,0,0,1,.546-.211c.346.894.718,1.792,1.106,2.668a.293.293,0,0,1-.249.411Zm114.747-9.1a.293.293,0,0,1-.3-.367c.247-.929.474-1.876.676-2.815a.293.293,0,1,1,.572.123c-.2.948-.433,1.9-.682,2.842A.293.293,0,0,1,2443.284,737.789Zm-117.2,2.578a.292.292,0,0,1-.3-.205c-.288-.924-.558-1.867-.8-2.8a.293.293,0,1,1,.567-.147c.241.928.508,1.863.793,2.777a.293.293,0,0,1-.192.366A.29.29,0,0,1,2326.087,740.367Zm118.6-9.405a.292.292,0,0,1-.309-.334c.138-.948.255-1.913.347-2.868a.293.293,0,1,1,.583.057c-.094.964-.211,1.938-.351,2.9A.293.293,0,0,1,2444.683,730.961ZM2324.4,733.612a.292.292,0,0,1-.306-.237c-.181-.949-.342-1.917-.478-2.877a.293.293,0,0,1,.58-.082c.135.951.294,1.91.474,2.85a.293.293,0,0,1-.233.342Zm120.89-9.587h-.028a.293.293,0,0,1-.284-.3c.028-.958.034-1.93.016-2.888a.293.293,0,0,1,.585-.011c.017.968.012,1.949-.017,2.916A.292.292,0,0,1,2445.288,724.025Zm-121.805,2.683a.293.293,0,0,1-.311-.27q-.026-.342-.048-.684c-.048-.74-.083-1.489-.1-2.229a.292.292,0,1,1,.585-.017c.021.733.055,1.475.1,2.208q.022.338.047.677a.292.292,0,0,1-.27.314Zm121.614-9.643a.292.292,0,0,1-.311-.268c-.081-.954-.185-1.92-.311-2.873l-.012-.093a.293.293,0,0,1,.58-.077l.012.094c.127.961.232,1.937.313,2.9a.293.293,0,0,1-.267.316Zm-121.745,2.682h-.03a.292.292,0,0,1-.281-.3c.037-.967.1-1.947.181-2.911a.293.293,0,0,1,.583.05c-.083.955-.143,1.925-.179,2.883A.292.292,0,0,1,2323.352,719.746Zm120.751-9.669a.293.293,0,0,1-.306-.234c-.189-.94-.4-1.888-.636-2.818a.293.293,0,0,1,.568-.142c.235.938.451,1.9.642,2.845a.293.293,0,0,1-.229.345Zm-120.086,2.738a.3.3,0,0,1-.064,0,.293.293,0,0,1-.244-.334c.148-.959.321-1.927.515-2.878a.293.293,0,0,1,.574.117c-.192.942-.364,1.9-.51,2.85A.293.293,0,0,1,2324.016,712.815Zm118.329-9.476a.293.293,0,0,1-.3-.2c-.294-.912-.615-1.83-.953-2.727a.293.293,0,0,1,.548-.206c.341.906.665,1.832.962,2.753a.293.293,0,0,1-.26.382Zm-116.87,2.654a.293.293,0,0,1-.3-.37c.257-.935.54-1.876.842-2.8a.293.293,0,1,1,.556.182c-.3.913-.58,1.845-.834,2.771A.293.293,0,0,1,2325.476,705.994Zm114.354-9.147a.293.293,0,0,1-.285-.171c-.4-.873-.821-1.747-1.26-2.6a.293.293,0,0,1,.521-.268c.443.86.87,1.744,1.272,2.625a.293.293,0,0,1-.248.413Zm-112.123,2.542a.293.293,0,0,1-.29-.4c.362-.9.751-1.8,1.156-2.681a.293.293,0,0,1,.532.244c-.4.872-.786,1.766-1.145,2.656A.293.293,0,0,1,2327.707,699.389Zm108.88-8.7a.293.293,0,0,1-.27-.141c-.493-.819-1.014-1.638-1.547-2.434a.293.293,0,1,1,.487-.326c.538.8,1.063,1.63,1.562,2.457a.293.293,0,0,1-.232.443Zm-105.91,2.395a.293.293,0,0,1-.276-.432c.462-.851.951-1.7,1.453-2.531a.293.293,0,1,1,.5.3c-.5.821-.981,1.664-1.439,2.507A.292.292,0,0,1,2330.678,693.085Zm101.986-8.137a.292.292,0,0,1-.251-.113c-.585-.759-1.2-1.513-1.816-2.243a.293.293,0,1,1,.446-.379c.626.736,1.242,1.5,1.833,2.264a.293.293,0,0,1-.213.471Zm-98.319,2.213a.293.293,0,0,1-.258-.46c.555-.793,1.137-1.583,1.73-2.349a.293.293,0,0,1,.463.358c-.587.758-1.163,1.541-1.714,2.327A.292.292,0,0,1,2334.344,687.162Zm93.763-7.474a.292.292,0,0,1-.229-.088c-.667-.688-1.361-1.368-2.06-2.023a.293.293,0,0,1,.4-.427c.706.661,1.406,1.349,2.08,2.043a.293.293,0,0,1-.191.5Zm-89.449,2.006a.293.293,0,0,1-.238-.486c.641-.725,1.309-1.443,1.984-2.137a.293.293,0,1,1,.419.408c-.668.686-1.329,1.4-1.965,2.116A.292.292,0,0,1,2338.658,681.694Zm84.324-6.717a.292.292,0,0,1-.2-.066c-.741-.607-1.508-1.206-2.277-1.778a.293.293,0,0,1,.349-.47c.777.578,1.551,1.181,2.3,1.795a.293.293,0,0,1-.167.518Zm-79.421,1.776a.293.293,0,0,1-.215-.51c.719-.647,1.464-1.285,2.212-1.9a.293.293,0,0,1,.37.453c-.742.606-1.479,1.238-2.191,1.878A.291.291,0,0,1,2343.561,676.753Zm73.792-5.877a.291.291,0,0,1-.177-.046c-.806-.52-1.635-1.028-2.465-1.509a.293.293,0,0,1,.294-.506c.837.486,1.675,1,2.489,1.523a.293.293,0,0,1-.14.538Zm-68.362,1.527a.293.293,0,0,1-.188-.53c.787-.56,1.6-1.109,2.412-1.631a.293.293,0,0,1,.316.493c-.805.517-1.609,1.06-2.389,1.615A.292.292,0,0,1,2348.991,672.4Zm62.3-4.965a.293.293,0,0,1-.148-.03c-.86-.425-1.742-.836-2.622-1.219a.293.293,0,0,1,.234-.536c.888.388,1.779.8,2.647,1.231a.293.293,0,0,1-.111.555ZM2354.88,668.7a.293.293,0,0,1-.16-.548c.848-.467,1.719-.92,2.588-1.346a.293.293,0,1,1,.258.526c-.861.422-1.723.87-2.563,1.333A.291.291,0,0,1,2354.88,668.7Zm50-3.992a.3.3,0,0,1-.118-.017c-.9-.325-1.828-.632-2.745-.912a.293.293,0,1,1,.171-.56c.927.283,1.859.593,2.772.921a.293.293,0,0,1-.08.568Zm-43.718.988a.293.293,0,0,1-.13-.563c.9-.367,1.812-.716,2.725-1.04a.293.293,0,0,1,.2.552c-.9.32-1.812.667-2.7,1.03A.291.291,0,0,1,2361.162,665.7Zm37.032-2.963a.3.3,0,0,1-.086-.007c-.936-.219-1.889-.418-2.834-.591a.293.293,0,1,1,.105-.576c.954.175,1.917.376,2.862.6a.293.293,0,0,1-.047.577Zm-30.448.7a.293.293,0,0,1-.1-.574c.931-.261,1.882-.5,2.826-.721a.293.293,0,0,1,.131.57c-.935.215-1.877.456-2.8.714A.307.307,0,0,1,2367.746,663.436Zm23.581-1.894a.3.3,0,0,1-.053,0c-.952-.109-1.92-.2-2.877-.261a.293.293,0,0,1,.039-.584c.967.064,1.944.153,2.9.264a.293.293,0,0,1-.014.583Zm-16.781.4a.293.293,0,0,1-.065-.581c.6-.1,1.2-.185,1.8-.264.361-.048.727-.093,1.088-.134a.293.293,0,0,1,.066.582c-.357.041-.72.085-1.077.132-.595.078-1.2.166-1.785.262Zm9.83-.793h-.019c-.958,0-1.929.023-2.888.069a.293.293,0,0,1-.033-.584h.005c.968-.046,1.949-.07,2.916-.07a.293.293,0,0,1,.02.585Z" transform="translate(-2323.02 -660.56)" fill="#dedede"/>
        </g>
      </g>
    </g>
    <g id="Group_38860" data-name="Group 38860" transform="translate(1801.536 668.967)">
      <g id="Group_38859" data-name="Group 38859" transform="translate(0 0)">
        <path id="Path_30792" data-name="Path 30792" d="M2236.289,749.673V850.361h-.264l-7.623-7.418-7.623,7.418h-.794l-7.623-7.418-7.624,7.418h-.783l-7.61-7.4-7.609,7.4h-.779l-7.618-7.412-7.618,7.412h-.8l-7.619-7.412-7.618,7.412h-.795l-7.6-7.4-7.6,7.4h-.5V721.69h68.132Z" transform="translate(-2140.174 -721.69)" fill="#f2f2f2"/>
        <path id="Path_30793" data-name="Path 30793" d="M2663.576,749.673h-27.983V721.69Z" transform="translate(-2567.46 -721.69)" fill="#dedede"/>
      </g>
    </g>
    <g id="Group_38864" data-name="Group 38864" transform="translate(-2.362 -2.306)">
      <g id="credit-card-payment" transform="translate(1842.756 714.123)">
        <path id="Path_22495" data-name="Path 22495" d="M22.03,7.346,15.265.581a1.99,1.99,0,0,0-2.811,0L3.966,9.07H1.987A1.99,1.99,0,0,0,0,11.057v9.567a1.99,1.99,0,0,0,1.987,1.987h15.22a1.99,1.99,0,0,0,1.987-1.987V12.992l2.835-2.835a1.99,1.99,0,0,0,0-2.811ZM13.391,1.518a.663.663,0,0,1,.937,0L17.814,5,13.748,9.07H5.84ZM17.87,20.624a.663.663,0,0,1-.662.662H1.987a.663.663,0,0,1-.662-.662V11.057a.663.663,0,0,1,.662-.662h15.22a.663.663,0,0,1,.662.662ZM17.477,9.089a2,2,0,0,0-.27-.019H15.622l3.129-3.129.937.937Zm3.616.131-1.9,1.9v-.061a1.979,1.979,0,0,0-.5-1.314l1.928-1.928.468.468A.663.663,0,0,1,21.093,9.22Z" transform="translate(0 0)" fill="#bfbfbf"/>
        <path id="Path_22496" data-name="Path 22496" d="M60,406.574h2.54v1.365H60Z" transform="translate(-57.27 -388.759)" fill="#bfbfbf"/>
        <path id="Path_22497" data-name="Path 22497" d="M146.267,406.574h2.54v1.365h-2.54Z" transform="translate(-139.831 -388.759)" fill="#bfbfbf"/>
        <path id="Path_22498" data-name="Path 22498" d="M232.534,406.574h2.54v1.365h-2.54Z" transform="translate(-222.302 -388.759)" fill="#bfbfbf"/>
        <path id="Path_22499" data-name="Path 22499" d="M318.8,406.574h2.54v1.365H318.8Z" transform="translate(-304.773 -388.759)" fill="#bfbfbf"/>
        <path id="Path_22500" data-name="Path 22500" d="M64.607,280.766H60v4.095h4.607Zm-1.365,2.73H61.365v-1.365h1.877Z" transform="translate(-57.27 -268.446)" fill="#bfbfbf"/>
      </g>
      <g id="euro" transform="translate(1830.539 739.747)">
        <g id="Group_38863" data-name="Group 38863" transform="translate(0 0)">
          <g id="Group_38862" data-name="Group 38862">
            <path id="Path_30794" data-name="Path 30794" d="M43.86,237.255a3.5,3.5,0,0,0-1.435.32,3.518,3.518,0,0,0-4.4-.983l-.049.027-1.456.864a3.515,3.515,0,0,0-4.324-.891l-.058.033-5.575,3.414c-1.259-.372-2.657-.78-4.007-1.163-1.425-.4-2.8-.78-3.893-1.057-.55-.139-1.031-.253-1.424-.334-.2-.041-.372-.073-.527-.1a2.944,2.944,0,0,0-.437-.04,2.687,2.687,0,0,0-.326.024c-.411.054-.995.179-1.683.341-1.407.331-3.2.812-4.2,1.082v-1.68A2.126,2.126,0,0,0,7.948,235H2.119A2.126,2.126,0,0,0,0,237.116v16.426a2.126,2.126,0,0,0,2.119,2.119H7.948a2.126,2.126,0,0,0,2.119-2.119v-1.275c1.258.274,4.05.877,6.993,1.481,1.991.409,4.048.818,5.747,1.126.85.154,1.61.283,2.233.374a11.535,11.535,0,0,0,1.452.149,3.092,3.092,0,0,0,.824-.132,11.4,11.4,0,0,0,1.818-.736,91.073,91.073,0,0,0,9.081-5.521c3.24-2.162,6.27-4.3,7.754-5.32a3.457,3.457,0,0,0,1.452-2.869A3.565,3.565,0,0,0,43.86,237.255ZM8.478,253.542a.537.537,0,0,1-.53.53H2.119a.537.537,0,0,1-.53-.53V237.116a.537.537,0,0,1,.53-.53H7.948a.537.537,0,0,1,.53.53Zm36.592-11.164c-1.826,1.258-5.912,4.143-9.866,6.712-1.976,1.283-3.919,2.487-5.512,3.359a22.548,22.548,0,0,1-2.073,1.024,6.566,6.566,0,0,1-.728.261,1.671,1.671,0,0,1-.4.073,10.6,10.6,0,0,1-1.222-.132c-2.088-.306-6-1.086-9.36-1.788-1.684-.351-3.235-.683-4.365-.927l-1.479-.321v-10.2l.6-.165c.838-.227,2.116-.568,3.263-.85.573-.141,1.114-.267,1.543-.357.214-.044.4-.08.545-.1a2.178,2.178,0,0,1,.252-.03,1.925,1.925,0,0,1,.2.022c.439.066,1.338.276,2.433.563,3.3.862,8.5,2.42,10.607,3.059a4.75,4.75,0,0,1,1.818.951,2.112,2.112,0,0,1,.49.646,1.814,1.814,0,0,1,.173.792,2.248,2.248,0,0,1-2.231,2.248l-2.051-.2-7-.9a.795.795,0,1,0-.2,1.577l7.023.9,2.173.213h.039a3.841,3.841,0,0,0,3.839-3.839,3.409,3.409,0,0,0-.326-1.475,3.991,3.991,0,0,0-1.4-1.564,6.951,6.951,0,0,0-1.886-.871l-1.364-.412,4.314-2.642a1.916,1.916,0,0,1,2.2.3l-2.131,1.264a.795.795,0,0,0,.812,1.367l4.947-2.934a1.919,1.919,0,0,1,2.272.373l-5.76,3.416a.795.795,0,1,0,.812,1.367L42.3,239.47a.757.757,0,0,0,.492-.292l.194-.116a1.944,1.944,0,0,1,.873-.218,1.974,1.974,0,0,1,1.973,1.974A1.882,1.882,0,0,1,45.069,242.378Z" transform="translate(0 -234.996)" fill="#bfbfbf"/>
          </g>
        </g>
      </g>
    </g>
    <g id="settings" transform="translate(1834.95 702.887)">
      <g id="Group_38865" data-name="Group 38865" transform="translate(0 0)">
        <path id="Path_30795" data-name="Path 30795" d="M7.2,13.179H5.974a.822.822,0,0,1-.816-.725l-.131-1.03a5.189,5.189,0,0,1-.754-.312l-.82.638a.819.819,0,0,1-1.09-.069L1.5,10.815A.817.817,0,0,1,1.43,9.728l.638-.821a5.07,5.07,0,0,1-.312-.754L.723,8.021A.824.824,0,0,1,0,7.2V5.974a.822.822,0,0,1,.725-.816l1.03-.131a5.189,5.189,0,0,1,.312-.754l-.637-.82A.819.819,0,0,1,1.5,2.362L2.365,1.5A.817.817,0,0,1,3.452,1.43l.82.638a5.171,5.171,0,0,1,.755-.312L5.158.723A.822.822,0,0,1,5.974,0H7.2A.822.822,0,0,1,8.02.725l.131,1.03a5.171,5.171,0,0,1,.755.312l.82-.638a.818.818,0,0,1,1.09.07l.865.865a.817.817,0,0,1,.067,1.087l-.638.821a5.07,5.07,0,0,1,.312.754l1.032.131a.823.823,0,0,1,.723.817V7.2a.822.822,0,0,1-.725.816l-1.03.131a5.189,5.189,0,0,1-.312.754l.638.82a.818.818,0,0,1-.07,1.09l-.865.865a.816.816,0,0,1-1.087.067l-.821-.638a5.07,5.07,0,0,1-.754.312l-.131,1.032a.823.823,0,0,1-.817.723ZM4.245,10.51a.278.278,0,0,1,.134.035,4.609,4.609,0,0,0,.974.4.274.274,0,0,1,.2.229L5.7,12.386a.278.278,0,0,0,.271.244H7.2a.277.277,0,0,0,.271-.241l.154-1.21a.274.274,0,0,1,.2-.229,4.609,4.609,0,0,0,.974-.4.274.274,0,0,1,.3.023l.961.747a.27.27,0,0,0,.36-.019l.87-.87a.272.272,0,0,0,.021-.362L10.568,9.1a.274.274,0,0,1-.023-.3,4.609,4.609,0,0,0,.4-.974.274.274,0,0,1,.229-.2l1.208-.154A.279.279,0,0,0,12.63,7.2V5.974a.277.277,0,0,0-.241-.271l-1.21-.154a.274.274,0,0,1-.229-.2,4.609,4.609,0,0,0-.4-.974.273.273,0,0,1,.023-.3l.747-.961a.269.269,0,0,0-.018-.359l-.87-.87a.27.27,0,0,0-.362-.021L9.1,2.612a.275.275,0,0,1-.3.023,4.59,4.59,0,0,0-.974-.4A.274.274,0,0,1,7.63,2L7.476.793A.279.279,0,0,0,7.2.549H5.974A.277.277,0,0,0,5.7.79L5.549,2a.275.275,0,0,1-.2.23,4.588,4.588,0,0,0-.974.4.275.275,0,0,1-.3-.023l-.961-.747a.269.269,0,0,0-.359.018l-.87.871a.272.272,0,0,0-.021.362l.747.961a.274.274,0,0,1,.023.3,4.58,4.58,0,0,0-.4.974.274.274,0,0,1-.229.2L.793,5.7a.278.278,0,0,0-.244.271V7.2a.277.277,0,0,0,.241.271L2,7.629a.274.274,0,0,1,.229.2,4.609,4.609,0,0,0,.4.974.273.273,0,0,1-.023.3l-.747.961a.269.269,0,0,0,.018.359l.87.87a.271.271,0,0,0,.362.021l.961-.747a.283.283,0,0,1,.169-.057Z" transform="translate(0 0)" fill="#bfbfbf" stroke="#bfbfbf" stroke-width="0.5"/>
      </g>
      <g id="Group_38866" data-name="Group 38866" transform="translate(3.844 3.844)">
        <path id="Path_30796" data-name="Path 30796" d="M9.746,12.491a2.746,2.746,0,1,1,2.746-2.746A2.749,2.749,0,0,1,9.746,12.491Zm0-4.942a2.2,2.2,0,1,0,2.2,2.2A2.2,2.2,0,0,0,9.746,7.549Z" transform="translate(-7 -7)" fill="#bfbfbf" stroke="#bfbfbf" stroke-width="0.5"/>
      </g>
    </g>
  </g>
</svg>
