<svg xmlns="http://www.w3.org/2000/svg" width="242.441" height="242.378" viewBox="0 0 242.441 242.378">
  <g id="Group_38846" data-name="Group 38846" transform="translate(-218.992 -207.5)">
    <g id="Group_38716" data-name="Group 38716" transform="translate(218.992 207.5)">
      <g id="Group_38700" data-name="Group 38700" transform="translate(0.063 0)">
        <circle id="Ellipse_372" data-name="Ellipse 372" cx="121.189" cy="121.189" r="121.189" fill="#fde9eb"/>
      </g>
      <g id="Group_38701" data-name="Group 38701" transform="translate(0 126.617)">
        <path id="Path_22709" data-name="Path 22709" d="M242.716,398.106c-13.382-5.856-30.82-8.67-41.715-4.58-10.208,3.828-8.572,11.418-19.074,14.559-16.915,5.071-28.661-12.5-53.821-11.647-22.412.753-30.166,15.214-47.113,11.647-10.568-2.225-12.564-8.9-20.089-13.611-12.6-7.885-36.775-7.82-60-3.3a121.1,121.1,0,0,0,35.826,77.9,334.092,334.092,0,0,0,72.306,5.595c42.827-1.6,86.113-13.054,115.624-26.7a121.105,121.105,0,0,0,18.093-49.927Z" transform="translate(-0.9 -388.092)" fill="#fdebed"/>
      </g>
      <path id="Path_22710" data-name="Path 22710" d="M334.52,679.64c0,.785-29.119,1.44-65.01,1.44s-65.01-.654-65.01-1.44,29.119-1.439,65.01-1.439S334.52,678.854,334.52,679.64Z" transform="translate(-137.887 -456.666)" fill="#ddd"/>
      <g id="Group_38702" data-name="Group 38702" transform="translate(152.399 44.37)">
        <path id="Path_22711" data-name="Path 22711" d="M503.049,182.605h-29.38a6.984,6.984,0,0,1-6.969-6.969h0a6.926,6.926,0,0,1,6.936-6.936h29.38a6.926,6.926,0,0,1,6.936,6.936h0a6.926,6.926,0,0,1-6.936,6.936Z" transform="translate(-466.7 -158.232)" fill="#fcdadc"/>
        <circle id="Ellipse_373" data-name="Ellipse 373" cx="10.535" cy="10.535" r="10.535" transform="translate(6.429 20.497) rotate(-76.6)" fill="#fcdadc"/>
      </g>
      <g id="Group_38703" data-name="Group 38703" transform="translate(10.633 19.306)">
        <path id="Path_22712" data-name="Path 22712" d="M86.762,117.716H43.608a10.3,10.3,0,0,1-7.231-2.977,10.161,10.161,0,0,1-2.977-7.231h0a10.351,10.351,0,0,1,1.57-5.464A10.216,10.216,0,0,1,43.608,97.3H86.762a10.3,10.3,0,0,1,7.231,2.977,10.161,10.161,0,0,1,2.977,7.231h0a10.188,10.188,0,0,1-10.208,10.208Z" transform="translate(-33.4 -85.129)" fill="#fcdadc"/>
        <circle id="Ellipse_374" data-name="Ellipse 374" cx="15.475" cy="15.475" r="15.475" transform="translate(12.596)" fill="#fcdadc"/>
      </g>
      <g id="Group_38705" data-name="Group 38705" transform="translate(77.508 69.986)">
        <g id="Group_38704" data-name="Group 38704">
          <rect id="Rectangle_1438" data-name="Rectangle 1438" width="75.283" height="151.614" rx="9" transform="translate(1.341 1.309)" fill="#fff"/>
          <path id="Path_22713" data-name="Path 22713" d="M301.8,369.264H251.738A13.949,13.949,0,0,1,237.8,355.326V228.938A13.949,13.949,0,0,1,251.738,215H301.8a13.949,13.949,0,0,1,13.938,13.938V355.326A13.949,13.949,0,0,1,301.8,369.264ZM251.77,217.65a11.31,11.31,0,0,0-11.288,11.288V355.326a11.31,11.31,0,0,0,11.288,11.288h50.058a11.31,11.31,0,0,0,11.288-11.288V228.938a11.31,11.31,0,0,0-11.288-11.288Z" transform="translate(-237.8 -215)" fill="#ddd"/>
        </g>
        <path id="Path_22714" data-name="Path 22714" d="M328.356,655.983H279.541a1.347,1.347,0,0,1-1.341-1.341,1.327,1.327,0,0,1,1.341-1.341h48.815a1.347,1.347,0,0,1,1.341,1.341A1.327,1.327,0,0,1,328.356,655.983Z" transform="translate(-264.982 -509.899)" fill="#ddd"/>
        <path id="Path_22715" data-name="Path 22715" d="M271.808,245.354a2.454,2.454,0,1,1-2.454-2.454A2.45,2.45,0,0,1,271.808,245.354Z" transform="translate(-257.379 -233.772)" fill="#b6b6b7"/>
      </g>
      <path id="Path_22716" data-name="Path 22716" d="M312.384,374.579c2.912-3.108,6.936-4.679,12.04-4.679s8.507,1.341,11.353,3.992a13.359,13.359,0,0,1,4.253,10.208c0,4.122-.523,4.548-1.538,6.118a45.622,45.622,0,0,1-6.347,6.9,20.489,20.489,0,0,0-4.548,5.595,17.228,17.228,0,0,0-1.047,6.773h-6.314a22.586,22.586,0,0,1,1.211-8.179,22.012,22.012,0,0,1,5.366-7.132l2.912-2.814a12.438,12.438,0,0,0,2.127-2.519,8.811,8.811,0,0,0,1.472-4.81,10.714,10.714,0,0,0-2.127-6.053c-1.407-1.7-3.763-2.552-7.034-2.552s-6.838,1.472-8.376,4.417a16.281,16.281,0,0,0-1.472,7.067H308C308,381.809,309.472,377.687,312.384,374.579Zm7.721,40.8h7.067v7.394h-7.067Z" transform="translate(-207.524 -249.235)" fill="#f8b1b8"/>
      <g id="Group_38710" data-name="Group 38710" transform="translate(52.934 179.431)">
        <path id="Path_22717" data-name="Path 22717" d="M192.538,679.64c0,.785-4.319,1.44-9.619,1.44s-9.619-.654-9.619-1.44,4.319-1.439,9.619-1.439S192.538,678.854,192.538,679.64Z" transform="translate(-169.829 -636.097)" fill="#ddd"/>
        <g id="Group_38709" data-name="Group 38709">
          <g id="Group_38706" data-name="Group 38706">
            <path id="Path_22718" data-name="Path 22718" d="M162.727,550.065c-.327,1.7,1.7,2.028,2.029,4.384s-.687,3.043-.327,4.384,2.356,1.7,2.683,5.071-1.014,3.043-.687,5.071,2.356,2.028,2.683,3.7.327,4.057,1.014,6.053c.687,2.029,2.683,5.071,3.7,5.071s3.7-5.726,3.043-7.427-1.7-2.029-1.7-3.37,1.341-4.711,1.014-7.067-3.37-3.37-3.7-5.071.687-6.053-1.7-8.081c-2.356-2.028-7.754-4.384-8.081-2.683Z" transform="translate(-162.691 -549.513)" fill="#f8b1b8"/>
            <path id="Path_22719" data-name="Path 22719" d="M177.158,587.2a.155.155,0,0,1-.164-.164c0-.033,0-4.417-1.309-5.693-1.309-1.309-2.061-5.3-2.421-12.923-.327-6.936-5.3-12.662-5.366-12.694a.162.162,0,0,1,.229-.229c.065.065,5.1,5.856,5.431,12.923.36,7.427,1.08,11.484,2.323,12.694,1.374,1.374,1.407,5.758,1.407,5.955a.155.155,0,0,1-.164.164h0Z" transform="translate(-166.162 -553.508)" fill="#cb3027"/>
          </g>
          <g id="Group_38707" data-name="Group 38707" transform="translate(11.339 4.797)">
            <path id="Path_22720" data-name="Path 22720" d="M216.9,565.035c1.178,1.178-2.683,1.7-3.043,4.057s-.327,3.37-1.7,4.711c-1.341,1.341-3.37,1.7-3.043,3.7.327,2.029,1.014,4.057,0,5.071s-3.37,1.014-4.057,2.683-.327,3.7-1.7,5.4c-1.341,1.7-3.37,5.071-5.071,4.384s-.687-8.441,0-9.783,1.341-2.356,1.341-3.37a10.662,10.662,0,0,1,.327-4.384c.687-1.7,4.384-2.356,4.711-3.37s.687-6.413,2.683-7.754c2.028-1.342,7.427-3.37,9.455-1.342Z" transform="translate(-197.348 -564.176)" fill="#f8b1b8"/>
            <path id="Path_22721" data-name="Path 22721" d="M201.637,598.3h-.1a.2.2,0,0,1-.065-.229,17.94,17.94,0,0,0,1.636-3.435c.065-.294.164-.752.262-1.243.36-1.865.949-4.711,1.8-5.562,1.243-1.243,3.272-5.1,4.679-10.044a12.131,12.131,0,0,1,7.525-7.885c.1,0,.2,0,.2.1s0,.2-.1.2a11.609,11.609,0,0,0-7.3,7.623c-1.44,4.973-3.468,8.9-4.777,10.175s-1.374,3.664-1.7,5.4c-.1.523-.2.982-.262,1.276a18.236,18.236,0,0,1-1.7,3.5c0,.065-.1.065-.131.065Z" transform="translate(-200.115 -568.027)" fill="#cb3027"/>
          </g>
          <g id="Group_38708" data-name="Group 38708" transform="translate(9.529 9.476)">
            <path id="Path_22722" data-name="Path 22722" d="M194.722,578.516c-4.057.327-2.683,12.465-2.683,12.465,1.014,10.437,2.356,15.181,3.37,15.508s3.043-14.821,3.043-18.551c0,0,.327-9.783-3.7-9.456Z" transform="translate(-191.815 -578.475)" fill="#f8b1b8"/>
            <path id="Path_22723" data-name="Path 22723" d="M201.358,606.991h0a.144.144,0,0,1-.131-.2c1.341-10.993-.327-24.767-.327-24.9a.167.167,0,0,1,.327-.065c0,.131,1.669,13.97.327,25a.175.175,0,0,1-.164.164Z" transform="translate(-197.928 -580.645)" fill="#cb3027"/>
          </g>
          <path id="Path_22724" data-name="Path 22724" d="M192.017,657.64H181.744a.617.617,0,0,1-.654-.491l-1.505-10.633a.793.793,0,0,1,.785-.916h12.989a.793.793,0,0,1,.785.916l-1.505,10.633a.648.648,0,0,1-.654.491Z" transform="translate(-174.052 -614.163)" fill="#ddd"/>
        </g>
      </g>
      <g id="Group_38711" data-name="Group 38711" transform="translate(162.051 172.621)">
        <path id="Path_22725" data-name="Path 22725" d="M519.982,594.654H524.1V555h2.029v15.672h3.141V555H531.3v17.668h-5.137v21.986h4.122a1.014,1.014,0,1,1,0,2.028H520.014a1.014,1.014,0,0,1,0-2.028Z" transform="translate(-511.54 -546.395)" fill="#f15c61"/>
        <path id="Path_22726" data-name="Path 22726" d="M512.1,528.7c8.768,0,15.9,1.669,15.9,3.7v2c0,2.028-7.1,3.7-15.9,3.7-8.768,0-15.9-1.669-15.9-3.7v-2C496.2,530.369,503.3,528.7,512.1,528.7Z" transform="translate(-496.2 -528.7)" fill="#f15c61"/>
      </g>
      <g id="Group_38715" data-name="Group 38715" transform="translate(126.126 104.468)">
        <g id="Group_38712" data-name="Group 38712" transform="translate(7.961 0)">
          <circle id="Ellipse_375" data-name="Ellipse 375" cx="10.47" cy="10.47" r="10.47" transform="translate(0 18.522) rotate(-62.2)" fill="#fff" opacity="0"/>
          <path id="Path_22727" data-name="Path 22727" d="M458.15,342.579a.873.873,0,0,1-.851-.622,4.681,4.681,0,0,0-5.856-3.075.89.89,0,1,1-.523-1.7,6.261,6.261,0,0,1,4.908.458,6.411,6.411,0,0,1,3.174,3.8.91.91,0,0,1-.589,1.112c-.1,0-.164.033-.262.033Z" transform="translate(-437.352 -331.486)" fill="#7d7d7d" opacity="0.2"/>
          <path id="Path_22728" data-name="Path 22728" d="M424.571,326.326a12.542,12.542,0,1,0,15.7,8.245A12.547,12.547,0,0,0,424.571,326.326Zm6.871,21.954a10.472,10.472,0,1,1,6.871-13.12A10.458,10.458,0,0,1,431.442,348.28Z" transform="translate(-414.112 -324.001)" fill="#999"/>
          <rect id="Rectangle_1439" data-name="Rectangle 1439" width="2.192" height="9.946" transform="translate(16.705 26.361) rotate(-17.3)" fill="#999"/>
          <path id="Path_22729" data-name="Path 22729" d="M474.487,442.015h0a2.526,2.526,0,0,1-3.174-1.669l-4.548-14.592a1.313,1.313,0,0,1,.883-1.669l2.258-.72a1.313,1.313,0,0,1,1.669.883l4.548,14.592a2.526,2.526,0,0,1-1.669,3.174Z" transform="translate(-448.389 -389.632)" fill="#aa2923"/>
        </g>
        <g id="Group_38714" data-name="Group 38714" transform="translate(0 13.215)">
          <path id="Path_22730" data-name="Path 22730" d="M477.016,446.309a47.112,47.112,0,0,1-6.118-4.384c-1.407-1.505-2.029-2.192-1.636-2.487s4.319,1.44,4.711,1.145.033-1.014.491-1.341c.425-.327,2.977,2.29,3.6,2.094s-.327,4.548-1.014,5.006Z" transform="translate(-442.073 -413.554)" fill="#f8a99d"/>
          <path id="Path_22731" data-name="Path 22731" d="M410.971,606.323l-3.435,3.337-8.736-8.081,2.879-4.679Z" transform="translate(-394.743 -519.649)" fill="#f8a99d"/>
          <path id="Path_22732" data-name="Path 22732" d="M399.683,617.183s-2.388,3.01-2.846,3.01-10.5-10.895-10.437-11.222c.065-.36,4.45,0,4.45,0Z" transform="translate(-386.399 -527.663)" fill="#21366c"/>
          <path id="Path_22733" data-name="Path 22733" d="M405.9,522.533s10.077,10.535,10.47,10.535,48.488-36.938,48.488-36.938l-20.383-9.03S418.595,494.232,405.9,522.533Z" transform="translate(-399.52 -445.773)" fill="#21366c"/>
          <path id="Path_22734" data-name="Path 22734" d="M520.2,605.1l1.7,4.482-10.83,4.842-3.174-4.482Z" transform="translate(-468.148 -525.166)" fill="#f8a99d"/>
          <path id="Path_22735" data-name="Path 22735" d="M479.816,487.033S462.8,490.6,461.33,496.357s-.131,12.073,4.548,19.434,9.455,15.377,10.437,15.639c0,0,12.6-5.039,12.891-5.693.294-.622-7.067-17.995-7.067-17.995s14.952-.982,18.453-9.815L479.783,487Z" transform="translate(-436.432 -445.706)" fill="#21366c"/>
          <path id="Path_22736" data-name="Path 22736" d="M515.3,426.084c-.164,1.014,18.453,12.662,21.725,12.105,3.3-.556,7.558-14.134,6.38-24.309-1.178-10.142-10.273-17.766-14.4-17.406-4.155.36-6.347,4.253-6.936,10.4-.818,9.063-6.609,18.06-6.773,19.173Z" transform="translate(-473.124 -384.79)" fill="#ee3324"/>
          <path id="Path_22737" data-name="Path 22737" d="M514.382,401.187c2.192-.2,9.75,4.221,11.484,17.275,1.767,13.054-5.431,14.134-11.484,13.316-6.053-.851-21.3-8.31-23.524-10.993,0,0-.491-4.221,1.145-5.693,0,0,14.69,1.505,18.518,2.65S506.072,401.94,514.382,401.187Z" transform="translate(-456.635 -387.965)" fill="#ee3324"/>
          <path id="Path_22738" data-name="Path 22738" d="M523.633,616.733s1.832,3.4,1.636,3.8c-.163.425-14.134,5.4-14.428,5.169s1.767-4.09,1.767-4.09l11.026-4.908Z" transform="translate(-470.107 -532.971)" fill="#21366c"/>
          <g id="Group_38713" data-name="Group 38713" transform="translate(43.744)">
            <path id="Path_22739" data-name="Path 22739" d="M525.065,370.351,525,375.03h.687s.556,3.828,3.272,3.239c.785-.164,1.767-.851,2.061-.72.327.164.491,1.211.556,1.505.294,1.178,4.384,0,3.73-1.211-.622-1.145-1.57-2.683-1.374-3.108a4.723,4.723,0,0,0-2.879-6.478c-3.01-.982-5.987.523-6.02,2.094Z" transform="translate(-523.397 -365.603)" fill="#f8a99d"/>
            <path id="Path_22740" data-name="Path 22740" d="M547.517,391.808c-.622-1.145-1.57-2.683-1.374-3.108,0,0-1.57,2.421-3.043,2.781h.131c.327.164.491,1.211.556,1.505.294,1.178,4.384,0,3.73-1.211Z" transform="translate(-535.575 -379.567)" fill="#f79e92"/>
            <path id="Path_22741" data-name="Path 22741" d="M528.083,367.825c1.767-.294.654,3.6,2.585,3.468s3.272-4.351,1.865-7.623-4.122-3.075-6.707-2.65c-2.585.458-5.726,1.6-5.726,3.566,0,4.679,5.562.753,5.922,2.159.294,1.08.72,4.253-.425,4.319s-2.29-.851-3.174-.622c-.523.131-1.93,6.282,1.767,6.478,3.664.2,4.58-3.01,3.8-5.66-.72-2.519-.818-3.3.065-3.468Z" transform="translate(-520.1 -360.786)" fill="#203669"/>
          </g>
        </g>
      </g>
    </g>
  </g>
</svg>
