<svg xmlns="http://www.w3.org/2000/svg" xmlns:xlink="http://www.w3.org/1999/xlink" width="376.414" height="214.309" viewBox="0 0 376.414 214.309">
  <defs>
    <linearGradient id="linear-gradient" x1="0.516" y1="-1.345" x2="0.5" y2="0.5" gradientUnits="objectBoundingBox">
      <stop offset="0" stop-color="#b0b0b0"/>
      <stop offset="0.08" stop-color="#ddd"/>
      <stop offset="1" stop-color="#fff"/>
    </linearGradient>
  </defs>
  <g id="Group_38684" data-name="Group 38684" transform="translate(36.865 28.79)">
    <ellipse id="Ellipse_371" data-name="Ellipse 371" cx="188.207" cy="42.046" rx="188.207" ry="42.046" transform="translate(-36.865 101.427)" fill="url(#linear-gradient)"/>
    <g id="No_reviews_found" data-name="No reviews found" transform="translate(-20.368 -223.39)">
      <g id="Group_38852" data-name="Group 38852" transform="translate(89.503 195.1)">
        <g id="XMLID_1_" transform="translate(0 12.754)">
          <g id="XMLID_33_">
            <g id="XMLID_1571_">
              <g id="XMLID_1558_" transform="translate(0 39.579)">
                <path id="XMLID_1573_" d="M397.288,423.748c-5.3-14.43-18.3-22.307-31.814-27.909-7.062-2.954-14.26-5.738-20.745-9.88a43.029,43.029,0,0,1-5.67-4.21,42.288,42.288,0,0,1-11.306-15.313,25.447,25.447,0,0,0-5.772-8.93,29.242,29.242,0,0,0-19.183-8.251c-11.917-.475-23.054,6.485-30.116,15.72-8.658,11.272-11.578,25.906-11.951,39.827-.374,14.124,2.071,28.792,10.016,40.743,7.673,11.578,19.082,18,32.561,20.474,16.094,2.954,32.934,3.226,49.2,1.833,12.495-1.087,26.857-2.513,36.873-10.865C399.019,448.975,401.5,435.224,397.288,423.748Z" transform="translate(-260.693 -349.232)" fill="#231f20"/>
                <path id="XMLID_1574_" d="M370.824,466.96c-14.532,2.92-29.845,3.429-44.614,2.648-13.887-.747-29.437-1.9-41.117-10.22-10.933-7.809-17.35-20.406-19.862-33.376a87.135,87.135,0,0,1,2.241-42.1c4.38-13.683,14.26-26.313,28.656-30.116a29.487,29.487,0,0,1,19.082,1.528c5.874,2.58,11.137,7.368,13.343,13.479a35.936,35.936,0,0,0,5.093,9.031,47.331,47.331,0,0,0,6.858,7.639c4.719,4.074,10.356,6.926,16.026,9.473,5.874,2.648,11.917,4.923,17.723,7.707a56.023,56.023,0,0,1,12.834,8.081c9.744,8.624,15.55,21.832,11.883,34.8C395.3,458.573,383.183,464.447,370.824,466.96Z" transform="translate(-262.648 -351.633)" fill="#fff"/>
                <path id="XMLID_27_" d="M414.958,429.12a54.888,54.888,0,0,0-12.834-8.081c-5.806-2.784-11.85-5.059-17.723-7.707-5.67-2.546-11.306-5.4-16.026-9.473a45.788,45.788,0,0,1-6.858-7.639,35.936,35.936,0,0,1-5.093-9.031,16.934,16.934,0,0,0-.781-1.8,23.109,23.109,0,0,0-7.945-3.769,11.689,11.689,0,0,0-11.816,1.7c-4.686,3.5-6.655,9.269-7.809,14.77-2.614,12.461-2.173,25.465,4.516,36.6a42.237,42.237,0,0,0,28.147,19.625c6.858,1.29,13.649.645,20.406-.917,4.482-1.019,8.964-2.275,13.479-3.124.034,0,.068.034.1.034a14.916,14.916,0,0,1,8.318,24.853c-7.334,8.081-19.523,8.352-29.641,8.624a199.2,199.2,0,0,1-34.87-2.479.512.512,0,0,0-.441-.272c-.849-.034-1.7-.1-2.513-.17q-5.908-.917-11.816-2.037A70.021,70.021,0,0,1,305.8,471.29a41.479,41.479,0,0,0,7.13,6.417c11.68,8.352,27.23,9.473,41.117,10.22,14.77.781,30.082.306,44.614-2.648,12.359-2.479,24.48-8.386,28.181-21.424C430.543,450.952,424.7,437.744,414.958,429.12Z" transform="translate(-290.485 -370.019)" fill="#d3dde2"/>
              </g>
              <g id="XMLID_1557_" transform="translate(40.739)">
                <g id="XMLID_1541_" transform="translate(27.201 18.696)">
                  <path id="XMLID_1555_" d="M517.295,301.4a3.745,3.745,0,0,0-.374-1.7,2.872,2.872,0,0,0-3.022-1.6,4.352,4.352,0,0,0-.781-1.528,2.275,2.275,0,0,0-2.479-.713c1.154-3.192,2.037-7.232-.645-8.047-1.562-.475-2.614.985-3.124,2.207-1.154,2.886-1.935,5.976-2.886,8.964a.576.576,0,0,0,0,.34,5.589,5.589,0,0,0-2.071,2.275,7.352,7.352,0,0,0,.34,6.621c-3.192,6.994-7.571,13.785-14.634,17.35-7.13,3.633-16.365,2.818-21.255-4.04a.456.456,0,0,0-.238-.2.556.556,0,0,0-.951-.034c-3.871,6.213-6.044,13.955-2.818,20.949,3.192,6.892,10.7,9.2,17.825,8.93a31.465,31.465,0,0,0,29.845-28.045l1.494-6.96c.34-1.63.577-2.513,1.867-3.565a16.2,16.2,0,0,0,2.479-2.343.033.033,0,0,1,.034-.034,4.151,4.151,0,0,0,1.6-1.019C519.536,307.276,520.962,302.387,517.295,301.4Z" transform="translate(-460.796 -287.729)" fill="#231f20"/>
                  <path id="XMLID_1556_" d="M611.911,324.523a8.229,8.229,0,0,0,.407-3.056c2.411-.611,2.139,3.056,1.63,4.482a4.648,4.648,0,0,1-1.664,2.411,1.857,1.857,0,0,1-2.784-.611A5.863,5.863,0,0,0,611.911,324.523Z" transform="translate(-559.011 -309.967)" fill="#fff"/>
                  <path id="XMLID_1561_" d="M606.969,316.395a6.006,6.006,0,0,1-.1,2.58,5.749,5.749,0,0,1-.883,1.969l-.509.611c-.679.781-1.426.713-2.275-.1a2.042,2.042,0,0,0,1.426-1.867,2.822,2.822,0,0,0-1.426-2.58h0c.2-.441.543-1.12.883-1.935a.417.417,0,0,0,.509-.17C605.95,313.1,606.833,315.749,606.969,316.395Z" transform="translate(-554.85 -305.268)" fill="#fff"/>
                  <path id="XMLID_1562_" d="M592.89,297.917c.407-1.256.883-3.124,1.426-4.346.509-1.154,2.139-1.867,2.547.34a3.108,3.108,0,0,1-.034.577,10.273,10.273,0,0,1-.509,2.784,20.842,20.842,0,0,1-1.8,4.719c0,.034,0,.034-.034.068a6.166,6.166,0,0,0-.985-.272,4.4,4.4,0,0,0-1.9.136C592.041,300.633,592.483,299.275,592.89,297.917Z" transform="translate(-547.188 -290.864)" fill="#fff"/>
                  <path id="XMLID_1566_" d="M465.972,410.6c-3.735-6.553-1.8-14.192,1.833-20.3a16.842,16.842,0,0,0,15.788,6.179c.272,7.028.543,14.023.815,21.051,0,.068.034.1.034.17-.136,0-.272.034-.373.034C477.312,418.413,469.571,416.953,465.972,410.6Z" transform="translate(-462.881 -355.474)" fill="#fff"/>
                  <path id="XMLID_1567_" d="M555.8,334.664a14.8,14.8,0,0,0-2.037,1.256c-1.732,2.071-1.664,7.2-2.173,9.744-1.494,7.334-3.769,13.887-9.2,19.251a29.982,29.982,0,0,1-16.569,8.318V373.2c-.272-7.062-.543-14.158-.815-21.221a22.864,22.864,0,0,0,2.988-.815c8.692-3.192,14.09-11,17.723-19.115a.6.6,0,0,0-.034-.543.941.941,0,0,0-.034-.306c-1.12-2.241-1.256-5.127.713-6.96a3.764,3.764,0,0,1,3.5-.883c.883.238,3.4,1.8.951,3.124-.611.306-1.867-.17-2.479-.34-.679-.2-.985.849-.306,1.086a7.089,7.089,0,0,0,2.173.373,2.177,2.177,0,0,0,2.377,1.7,2.68,2.68,0,0,0,1.969,1.732,2.37,2.37,0,0,0,1.392,2.75,2.217,2.217,0,0,0,.679.17A9.384,9.384,0,0,1,555.8,334.664Z" transform="translate(-503.201 -311.178)" fill="#fff"/>
                  <path id="XMLID_1568_" d="M619.513,335.95a5.625,5.625,0,0,1-1.63,1.833c-.951.611-3.7.645-2.818-1.392h0a4.646,4.646,0,0,0,3.293-2.954,9.489,9.489,0,0,0,.611-2.037C620.769,332.147,620.4,334.49,619.513,335.95Z" transform="translate(-562.572 -316.572)" fill="#fff"/>
                </g>
                <g id="XMLID_1553_" transform="translate(0 45.631)">
                  <g id="XMLID_1514_">
                    <path id="XMLID_1530_" d="M428.255,426.489a65.733,65.733,0,0,0-4.074-8.9,38.614,38.614,0,0,1-3.633-14.158c-.679-8.149-.1-16.739-3.7-24.31a18.844,18.844,0,0,0-5.738-6.994,28.126,28.126,0,0,0-12.461-4.957,11.171,11.171,0,0,0-4.108.17,13.4,13.4,0,0,0-7.028,4.346c-4.278,5.025-5.466,12.189-6.247,18.538-1.8,14.634.475,31.2,8.013,44.071,3.327,5.7,8.149,9.235,14.736,10.186,6.213.883,13.853,1.019,19.353-2.445C428.832,438.542,430.122,432.5,428.255,426.489Z" transform="translate(-380.68 -367.057)" fill="#231f20"/>
                    <path id="XMLID_1531_" d="M429.106,438.226c-3.158,6.349-11.137,7.266-17.418,7.164-6.519-.1-12.732-1.392-17.078-6.621-3.972-4.821-6.179-11.238-7.877-17.146a74.993,74.993,0,0,1-2.852-19.387,65.986,65.986,0,0,1,2.716-20.915c1.7-5.3,6.417-12.223,12.766-11.68a21.962,21.962,0,0,1,5.7,1.426,45.451,45.451,0,0,1,5.161,2.071c10.152,5.229,10.491,17.961,11,27.909.306,5.84.815,11.646,3.225,17.044C427.171,424.2,432.535,431.334,429.106,438.226Z" transform="translate(-382.788 -368.744)" fill="#fff"/>
                  </g>
                  <g id="XMLID_1550_" transform="translate(38.923 40.268)">
                    <g id="XMLID_1524_" transform="translate(50.375 46.291)">
                      <path id="XMLID_1529_" d="M669.191,623.627a24.35,24.35,0,0,0-22.545,2.682.568.568,0,0,0-.136.815c-1.833,2.58-3.769,5.806-2.309,9,1.188,2.58,3.939,3.056,6.519,2.988a90.528,90.528,0,0,0,13.513-1.562c3.7-.645,8.624-.985,11.917-2.92C682.636,630.825,672.383,624.883,669.191,623.627Z" transform="translate(-643.689 -621.996)" fill="#231f20"/>
                      <path id="XMLID_1525_" d="M678.516,635.235c-.441.747-2.037,1.12-2.75,1.324a99.763,99.763,0,0,1-17.893,3.158c-2.445.238-5.466.883-7.911.17-5.534-1.6-2.105-7.639-.068-10.457a.436.436,0,0,0,.068-.441,22.958,22.958,0,0,1,24.174-.713,13.108,13.108,0,0,1,3.429,2.445C678.21,631.534,679.059,634.352,678.516,635.235Z" transform="translate(-645.849 -624.097)" fill="#fff"/>
                    </g>
                    <g id="XMLID_1518_">
                      <path id="XMLID_1551_" d="M546.31,489.373c-16.467-8.217-34.937-1.154-50.624,5.3-.543.238-.441,1.053.034,1.12-1.154,4.584,1.766,8.93,5.942,10.831,6.349,2.886,13.377.611,20,1.256,15.415,1.426,23.529,16.5,28.147,29.505a.555.555,0,0,0,.339.985,30.7,30.7,0,0,0,15.754-4.482.033.033,0,0,1,.034-.034.265.265,0,0,0,.136-.136l.034-.034c.034-.034.034-.068.068-.136a.125.125,0,0,1,.034-.1v-.068C565.9,516.977,562.574,497.488,546.31,489.373Z" transform="translate(-495.32 -485.658)" fill="#231f20"/>
                      <path id="XMLID_1552_" d="M553.309,539.227c-3.9-11.069-9.541-22.545-20.575-27.977-5.636-2.784-11.2-2.614-17.35-2.309-3.4.17-6.96.238-10.22-1.019-4.108-1.6-7.3-5.7-5.908-10.22a.471.471,0,0,0,0-.306c14.939-6.112,32.323-12.732,48.043-5.432,16.433,7.605,19.794,26.857,20.1,43.12A28.608,28.608,0,0,1,553.309,539.227Z" transform="translate(-497.701 -487.706)" fill="#fff"/>
                    </g>
                  </g>
                  <g id="XMLID_1546_" transform="translate(5.332 43.879)">
                    <g id="XMLID_1523_" transform="translate(72.898 48.962)">
                      <path id="XMLID_1532_" d="M636.591,642.127a24.35,24.35,0,0,0-22.545,2.682.568.568,0,0,0-.136.815c-1.833,2.58-3.769,5.806-2.309,9,1.188,2.58,3.939,3.056,6.519,2.988a90.528,90.528,0,0,0,13.513-1.562c3.7-.645,8.624-.985,11.917-2.92C650.036,649.325,639.783,643.349,636.591,642.127Z" transform="translate(-611.089 -640.496)" fill="#231f20"/>
                      <path id="XMLID_1533_" d="M645.916,653.735c-.441.747-2.037,1.12-2.75,1.324a99.763,99.763,0,0,1-17.893,3.158c-2.445.238-5.466.883-7.911.17-5.534-1.6-2.105-7.639-.068-10.458a.436.436,0,0,0,.068-.441,22.959,22.959,0,0,1,24.174-.713,13.109,13.109,0,0,1,3.429,2.445C645.61,650.034,646.425,652.852,645.916,653.735Z" transform="translate(-613.249 -642.597)" fill="#fff"/>
                    </g>
                    <g id="XMLID_1519_">
                      <path id="XMLID_1521_" d="M492.138,545.424c.238-2.105-.747-4.686-.985-6.689-.373-3.124-.781-6.247-1.324-9.337a52.736,52.736,0,0,0-5.976-17.554,30.847,30.847,0,0,0-10.627-11.1c-12.223-7.605-26.279-4.244-38.91,1.019-.475-.645-1.766-3.124-2.648-3.124a1.259,1.259,0,0,0-.475.136c-5.636,2.377-10.967,5.331-16.671,7.572-3.259,1.256-6.553,2.445-9.914,3.5-1.664.543-3.361,1.019-5.025,1.494-.815.238-1.732.373-2.546.679-1.086.441-.543,1.867-.272,2.682,2.071,6.519,6.112,11.985,12.359,15.041,7.5,3.667,16.2,3.565,24.174,1.766a89.813,89.813,0,0,0,13.411-4.414c4.312-1.732,9.778-4.312,14.192-1.426,3.939,2.614,5.534,8.726,6.791,12.97a60.166,60.166,0,0,1,1.9,8.76q.357,2.343.509,4.685c.1,1.494-.136,2.614,1.732,2.75a21.673,21.673,0,0,0,6.892-1.086,31.56,31.56,0,0,0,7.1-2.92,26.271,26.271,0,0,0,3.293-2.173c.849-.645,2.513-1.324,2.852-2.445A6.425,6.425,0,0,0,492.138,545.424Z" transform="translate(-396.386 -496.291)" fill="#231f20"/>
                      <path id="XMLID_1526_" d="M467.493,530.675c-4.618-7.911-12.461-4.991-19.421-2.207-9.3,3.7-19.523,6.689-29.607,4.516-8.964-1.969-16.841-8.454-18.165-17.893a162.638,162.638,0,0,0,33.749-13.174l1.766,2.377c-3.259,1.392-6.451,2.886-9.439,4.346-.645.306-.068,1.256.577.951,14.464-7.028,32.9-15.381,48.281-5.84,14.7,9.133,16.773,28.147,18.131,43.765a.386.386,0,0,0,.1.272,29.5,29.5,0,0,1-19.557,7.945C473.468,547.346,471.771,538.009,467.493,530.675Z" transform="translate(-398.971 -498.383)" fill="#fff"/>
                    </g>
                  </g>
                </g>
                <g id="XMLID_1554_" transform="translate(0.914 50.58)">
                  <g id="XMLID_1536_" transform="translate(44.368 2.187)">
                    <g id="XMLID_1535_" transform="translate(0 32.84)">
                      <path id="XMLID_1547_" d="M555.725,490.095a3.183,3.183,0,0,0,1.63-.238,3.106,3.106,0,0,0,.951-1.833c.136-.781.2-1.969-.747-2.105a51.821,51.821,0,0,0-5.636-.17c-3.972-.136-7.911-.2-11.883-.272l-4.516-.1-10.559-.272c-1.766-.034-3.565-.1-5.331-.136-.883-.034-1.732-.034-2.614-.068-.577,0-1.766-.272-2.275.068a1.824,1.824,0,0,0-.543,2.241,3.562,3.562,0,0,0,1.358,2c.883.577,2.071.2,3.056.238l4.074.068c2.716.068,5.432.1,8.149.17l16.263.306,4.55.1c1.019.034,2,.034,3.022.068A2.221,2.221,0,0,1,555.725,490.095Z" transform="translate(-514.046 -484.797)" fill="#231f20"/>
                      <path id="XMLID_1548_" d="M537.091,490.6l-10.05-.2-5.093-.1c-.815,0-1.664-.034-2.479-.034a1.707,1.707,0,0,1-1.664-.815,3.239,3.239,0,0,1-.306-1.12c.034-.781,3.226-.306,3.769-.306,1.8.034,3.633.1,5.432.136l10.865.306,11.137.306c1.867.034,3.7.1,5.568.136.951.034,1.9.034,2.852.068.543,0,2.58-.407,2.445.543-.068.441-.136,1.12-.577,1.392a3.292,3.292,0,0,1-1.9.068c-.815-.068-1.664-.068-2.513-.1-1.969-.034-3.939-.068-5.908-.136C544.832,490.738,540.961,490.67,537.091,490.6Z" transform="translate(-516.327 -486.832)" fill="#fff"/>
                    </g>
                    <g id="XMLID_1534_" transform="translate(22.19)">
                      <path id="XMLID_1538_" d="M611.486,391.444a1.982,1.982,0,0,0-.611-.136c-7.538-.747-15.041-1.8-22.545-2.852-.985-.136-2.682-.747-3.6-.068-.679.509-.611,1.6-.747,2.343l-.611,3.769c-.407,2.513-.815,4.991-1.222,7.5-.815,4.923-1.63,9.88-2.411,14.8-.373,2.275-.917,4.889,1.358,6.349,2.513,1.562,6.824.917,9.609,1.019,3.6.136,7.775.883,11.306.1,2.716-.611,4.074-2.614,4.753-5.195,1.188-4.618,2.105-9.337,2.954-14.056.407-2.309.815-4.652,1.222-6.96.2-1.154.407-2.309.611-3.5.136-.781.985-2.58,0-3.124C611.52,391.478,611.52,391.444,611.486,391.444Z" transform="translate(-579.401 -388.073)" fill="#231f20"/>
                      <path id="XMLID_1539_" d="M605.653,424.529c-2.716,1.766-7.436.781-10.559.679-3.158-.1-6.858.306-9.948-.475-4.142-1.053-1.494-8.964-1.019-11.985.577-3.463,1.188-6.892,1.766-10.356.475-2.784.679-5.6.985-8.386.136-1.087.373-2.309,1.528-2.716a4.48,4.48,0,0,1,2.309.136,92.807,92.807,0,0,0,10.084,1.562c2.648.34,5.331.509,8.013.883,1.29.17,3.327-.373,4.142,1.053.747,1.358-.306,3.259-.611,4.618-1.154,5.195-2.173,10.39-3.225,15.584C608.539,418.146,608.437,422.73,605.653,424.529Z" transform="translate(-581.683 -390.126)" fill="#fff"/>
                      <path id="XMLID_32_" d="M617.722,395c-.781-1.426-2.852-.883-4.142-1.053-2.648-.34-5.331-.509-8.013-.883a101.935,101.935,0,0,1-10.084-1.562l-.917-.2a189.354,189.354,0,0,0-4.448,28.622c-.17,2.445.136,4.108,1.63,5.195,2.648.306,5.568.1,8.115.17,3.09.1,7.809,1.087,10.559-.679,2.784-1.8,2.886-6.417,3.463-9.4,1.019-5.195,2.037-10.39,3.226-15.584C617.416,398.294,618.469,396.359,617.722,395Z" transform="translate(-586.452 -390.204)" fill="#d3dde2"/>
                    </g>
                  </g>
                  <g id="XMLID_1537_">
                    <path id="XMLID_1540_" d="M445.719,405.287c-.679-3.7-5.6-5.263-8.862-5.161a16.808,16.808,0,0,0-6.179,1.46c-3.463,1.528-6.01,4.414-8.488,7.2-2.275,2.546-4.889,5.025-8.556,4.991-5.5-.068-6.179-5.772-7.2-9.982-1.087-4.414-1.935-8.93-3.327-13.276a14.088,14.088,0,0,0-4.584-7.266c-5.059-3.8-10.865-.373-13.14,4.787-2.988,6.723-2.411,14.837.17,21.594,2.716,10.593,7.062,24.514,19.659,26.483,12.936,2,21.526-10.186,27.5-19.625,0-.034,0-.034.034-.068a.739.739,0,0,0,.272-.17.5.5,0,0,0,.373.407,3,3,0,0,0,3.871-2.445v-.136h.068c1.969-.272,2.445-1.7,2.207-3.327a2.387,2.387,0,0,0,1.528,1.019,1.628,1.628,0,0,0,1.9-1.358c.272-1.188-.475-2.513-1.053-3.531a2.832,2.832,0,0,0-.272-.407,3.8,3.8,0,0,0,2.648.951A1.715,1.715,0,0,0,445.719,405.287Z" transform="translate(-383.372 -381.633)" fill="#231f20"/>
                    <path id="XMLID_1542_" d="M387.386,406.821a28.7,28.7,0,0,1-.611-6.825c.136-4.244,1.019-9.473,4.176-12.6,3.9-3.871,9.167-2.173,11.782,2.207,2.105,3.565,2.716,8.081,3.7,12.053.679,2.784,1.154,5.84,2,8.692a88.1,88.1,0,0,1-17.282,9.473h-.034A87.953,87.953,0,0,1,387.386,406.821Z" transform="translate(-385.612 -384.016)" fill="#fff"/>
                    <path id="XMLID_1549_" d="M456.043,443.941c-.34.713-1.256.373-1.732.1a9.123,9.123,0,0,0-2.207-1.154.73.73,0,0,0-.272,0,11.088,11.088,0,0,0-1.6-1.494c-.543-.441-1.358.34-.781.781a11.3,11.3,0,0,1,3.158,3.769c.17.34.373.815.509,1.12.17.475.509,1.29-.068,1.46a1.023,1.023,0,0,1-1.154-.34,7.015,7.015,0,0,1-1.12-1.324c-.34-.475-.645-.985-.985-1.46l-.306-.509c-.068-.1-.136-.306-.238-.373a5.8,5.8,0,0,0-1.086-1.324c-.509-.509-1.29.306-.781.781,1.12,1.086,4.448,6.349,1.358,7.028-.238-1.766-1.63-3.192-2.988-4.312-.543-.441-1.324.34-.781.781a7.406,7.406,0,0,1,2.377,2.75c.645,1.562-.068,4.04-2.173,3.4a3.187,3.187,0,0,0,.475-.883c.238-.679-.849-.985-1.086-.306-.272.781-1.12.985-1.562,1.664-5.534,8.862-14.566,21.866-26.891,18.776-6.519-1.358-10.831-6.315-13.547-12.121-.645-1.426-1.29-2.886-1.867-4.38a87.96,87.96,0,0,0,17.282-9.439,12.412,12.412,0,0,0,.611,1.562,6.85,6.85,0,0,0,4.889,4.142c6.689,1.426,10.39-5.127,14.532-9,4.448-4.176,12.087-6.723,16.976-1.833C455.4,442.278,456.383,443.262,456.043,443.941Z" transform="translate(-394.817 -419.608)" fill="#fff"/>
                  </g>
                </g>
                <g id="XMLID_1544_" transform="translate(12.497)">
                  <g id="XMLID_1543_">
                    <g id="XMLID_1501_" transform="translate(24.921 36.037)">
                      <path id="XMLID_1503_" d="M499.279,340.33c-1.46-1.833-5.059-2-6.757-.577a4.342,4.342,0,0,0-.883,5.806,4.548,4.548,0,0,0,5.976,1.188,5.014,5.014,0,0,0,2.105-5.7A3.636,3.636,0,0,0,499.279,340.33Z" transform="translate(-490.888 -338.803)" fill="#231f20"/>
                      <path id="XMLID_1502_" d="M499.806,347.313a3.475,3.475,0,0,1-4.889.1,3.21,3.21,0,0,1,.136-4.516,3.443,3.443,0,0,1,2.648-.917C500.621,342.152,502.047,345.072,499.806,347.313Z" transform="translate(-492.978 -340.896)" fill="#fff"/>
                    </g>
                    <g id="XMLID_1504_" transform="translate(2.903 8.724)">
                      <path id="XMLID_1512_" d="M459.163,270.765a14.586,14.586,0,0,0-12.427-12.223c-6.315-.985-12.393,2.071-16.229,7.1-5.229,6.892-5.263,15.992-2.309,23.835-.407,3.361-3.124,6.315-1.8,9.778.985,2.58,3.5,4.04,5.908,5.059,2.037.849,5.466,2.445,7.164.1.679-.883.645-2.173.781-3.226.17-1.6.34-3.192.543-4.787,4.957,1.63,10.322-1.154,13.343-5.4C458.042,285.569,460.215,277.42,459.163,270.765Z" transform="translate(-426.037 -258.358)" fill="#231f20"/>
                      <path id="XMLID_1513_" d="M459.207,284.613c-1.494,4.957-4.685,10.831-9.745,12.868a7.337,7.337,0,0,1-5.365.2c-.781-.2-1.528-.645-1.833.373-.611,2-.1,4.176-.883,6.213-1.562,4.04-6.281,1.46-8.692-.1a5.892,5.892,0,0,1-2.682-7.368c.543-1.6,1.188-3.124,1.63-4.753a3.056,3.056,0,0,0,.1-.543,11.737,11.737,0,0,0-.781-2.241c-.238-.815-.475-1.664-.645-2.513a26.11,26.11,0,0,1-.611-5.127,21.9,21.9,0,0,1,2.037-9.948,18.475,18.475,0,0,1,2.411-3.8c4.821-5.874,13.038-8.284,19.862-4.38C461.617,267.908,461.482,277.211,459.207,284.613Z" transform="translate(-428.39 -260.492)" fill="#fff"/>
                      <g id="XMLID_25_" transform="translate(1.34 1.157)">
                        <path id="XMLID_28_" d="M454.3,263.679c-6.825-3.9-15.075-1.528-19.862,4.38a18.472,18.472,0,0,0-2.411,3.8,21.806,21.806,0,0,0-2.037,9.948c0,.373.034.781.068,1.154a27.43,27.43,0,0,0,4.618,1.29.534.534,0,0,0,.815.441,41.66,41.66,0,0,0,12.563-12.63c4.244,2.105,8.42,4.414,12.732,6.383C461.227,272.609,459.8,266.837,454.3,263.679Z" transform="translate(-429.985 -261.766)" fill="#d3dde2"/>
                        <path id="XMLID_29_" d="M455.571,362.185c-1.086-.475-2.139-.985-3.226-1.46-.883-.407-2.614-1.6-3.667-1.188-1.833.747-.509,4.244.068,5.4a7.662,7.662,0,0,0,4.652,3.871c.713-2,.238-4.108.815-6.078C454.518,361.948,454.993,362.015,455.571,362.185Z" transform="translate(-441.713 -326.286)" fill="#d3dde2"/>
                      </g>
                    </g>
                    <g id="XMLID_1509_" transform="translate(1.848)">
                      <path id="XMLID_1516_" d="M460.234,251.01c.679-.849,1.324-1.732,2-2.58.781-1.019,2.377-2.411,2.275-3.837-.136-2.105-2.818-1.833-4.753-1.29,1.12-1.392,2.648-3.463,1.053-4.516-.849-.577-2.173-.306-3.124-.2a19.294,19.294,0,0,0-2.784.577c1.086-1.8,2.513-4.448.611-5.127-1.12-.407-2.75.475-3.735.883a28.425,28.425,0,0,0-3.4,1.63c.849-1.766,1.6-4.074-.883-3.871-1.6.136-3.463,1.222-4.923,1.9a32.551,32.551,0,0,0-4.991,3.022c-.136-1.019-.272-2-.407-3.022-.068-.407-.611-.815-.951-.407-4.312,5.263-9.744,10.05-12.189,16.6a18.047,18.047,0,0,0,2.648,17.214.641.641,0,0,0,.849.136.294.294,0,0,0,.2-.1,35.472,35.472,0,0,0,13.615-18.233,43.35,43.35,0,0,1,15.313,6.892c.034.034.068.034.1.068a.506.506,0,0,0,.611.068c1.494-.951,2.988-1.867,4.482-2.818.747-.475,2.411-1.086,2.546-2.105C464.682,250.229,462,250.637,460.234,251.01Z" transform="translate(-422.93 -232.663)" fill="#231f20"/>
                      <path id="XMLID_1517_" d="M464.159,255.244c-1.562.985-3.09,1.935-4.652,2.92a43.689,43.689,0,0,0-15.822-7.028.724.724,0,0,0-.272,0,.54.54,0,0,0-.611.373A34.218,34.218,0,0,1,429.7,269.436a17.2,17.2,0,0,1-1.6-17.384c2.479-5.263,6.757-9.337,10.491-13.683.1.849.238,1.732.34,2.58-.1.441.306.985.781.645a34.741,34.741,0,0,1,5.772-3.565,12.135,12.135,0,0,1,3.361-1.392c.238-.068.475-.17.713-.238a1.614,1.614,0,0,1,.2,2,12.979,12.979,0,0,1-.883,1.833c-.272.577.475,1.086.849.713.034,0,.034,0,.068-.034a29.042,29.042,0,0,1,5.738-2.818c.238-.1.883-.441,1.12-.373,1.426.306.611,1.324.34,1.867-.509.951-1.019,1.9-1.494,2.852,0,.034-.034.068-.034.1h0a.567.567,0,0,0,.917.645,16.8,16.8,0,0,1,4.991-1.053c.577-.034.611-.1.917.475.373.645.1.747-.272,1.324-.543.815-1.086,1.6-1.664,2.377a.536.536,0,0,0-.068.441c-.1.373.17.849.645.679a7.2,7.2,0,0,1,3.463-.781c2.309.441.272,2.445-.34,3.259-1.358,1.766-2.716,3.531-4.108,5.3-.441.577.543,1.12.951.577.2-.272.407-.543.611-.781h.034c.951-.136,1.9-.306,2.886-.441C466.4,254.123,464.94,254.735,464.159,255.244Z" transform="translate(-425.259 -235.131)" fill="#231f20"/>
                    </g>
                    <g id="XMLID_1508_" transform="translate(0 30.356)">
                      <path id="XMLID_1505_" d="M425.879,323.608c-1.426-1.867-5.059-2-6.757-.577a4.342,4.342,0,0,0-.883,5.806c1.358,1.9,3.667,2.682,5.636,1.494,1.766-1.053,2.682-3.9,2.445-6.044A2.656,2.656,0,0,0,425.879,323.608Z" transform="translate(-417.488 -322.07)" fill="#231f20"/>
                      <path id="XMLID_1507_" d="M428.713,331.021c-1.324,1.324-5.738.849-7.1-.509a3.21,3.21,0,0,1,.136-4.516,2.949,2.949,0,0,1,2.648-.917C428.136,325.928,430.954,328.814,428.713,331.021Z" transform="translate(-419.644 -324.017)" fill="#fff"/>
                    </g>
                  </g>
                </g>
              </g>
              <g id="XMLID_1565_" transform="translate(40.427 108.621)">
                <g id="XMLID_1559_">
                  <path id="XMLID_1569_" d="M415.891,576.117a44.763,44.763,0,0,0-33.274-23.529.614.614,0,0,0-.577.238.575.575,0,0,0-.747.339c-3.226,8.964,1.46,18.2,9.235,23.02a31.387,31.387,0,0,0,14.226,4.346c3.7.306,9.507.815,10.831-3.667A.492.492,0,0,0,415.891,576.117Z" transform="translate(-380.092 -552.581)" fill="#231f20"/>
                  <path id="XMLID_1570_" d="M416.1,586.974c-3.667-.815-28.656-4.991-31.712-7.2-6.519-4.719-4.991-32.018-2.445-25.838h0A46.107,46.107,0,0,1,415.221,577.2C415.221,577.23,419.737,587.755,416.1,586.974Z" transform="translate(-379.762 -552.879)" fill="#fff"/>
                </g>
                <g id="XMLID_1560_" transform="translate(22.153 8.589)">
                  <path id="XMLID_1564_" d="M486.6,581.008a44.735,44.735,0,0,0-40.574,3.939.676.676,0,0,0-.272.577.566.566,0,0,0-.34.747c3.429,8.93,13,12.8,22.035,11.374a31.572,31.572,0,0,0,13.615-6.01c2.988-2.207,7.707-5.6,5.806-9.846A.532.532,0,0,0,486.6,581.008Z" transform="translate(-445.249 -577.877)" fill="#231f20"/>
                  <path id="XMLID_1563_" d="M493.693,590.784c-3.293,1.8-24.955,14.939-28.69,15.279-8.013.713-24.684-20.983-18.742-17.961h0a46.182,46.182,0,0,1,40.37-4.142C486.631,583.993,496.953,589.018,493.693,590.784Z" transform="translate(-445.007 -580.013)" fill="#fff"/>
                </g>
              </g>
            </g>
          </g>
        </g>
        <g id="XMLID_4_" transform="translate(71.213 43.137)">
          <path id="XMLID_30_" d="M473.511,322.947a2.936,2.936,0,0,1-2.037-.645c-.577-.509-1.426.374-.849.849a3.952,3.952,0,0,0,2.886.985C474.292,324.067,474.258,322.879,473.511,322.947Z" transform="translate(-470.432 -322.148)" fill="#231f20"/>
          <path id="XMLID_19_" d="M502.831,331.868a1.536,1.536,0,0,1-1.562-.543c-.509-.577-1.324.272-.849.849a2.757,2.757,0,0,0,2.75.815C503.918,332.819,503.578,331.665,502.831,331.868Z" transform="translate(-490.144 -328.082)" fill="#231f20"/>
          <path id="XMLID_16_" d="M490.939,326.093a.594.594,0,0,0-1.188.034,4.759,4.759,0,0,1-1.256,3.463c-.509.577.34,1.392.849.849A6.216,6.216,0,0,0,490.939,326.093Z" transform="translate(-482.258 -324.378)" fill="#231f20"/>
        </g>
        <path id="Path_30775" data-name="Path 30775" d="M472.8,346.9l5.67,2.411C478.5,349.311,477.112,346.934,472.8,346.9Z" transform="translate(-400.784 -295.36)" fill="#231f20"/>
        <g id="Group_38851" data-name="Group 38851" transform="translate(108.244 0)">
          <path id="Path_30776" data-name="Path 30776" d="M630.871,216.592H581.843a2.347,2.347,0,0,1-2.343-2.343V197.443a2.347,2.347,0,0,1,2.343-2.343h49.028a2.347,2.347,0,0,1,2.343,2.343v16.773A2.355,2.355,0,0,1,630.871,216.592Z" transform="translate(-579.5 -195.1)" fill="#fff" stroke="#30302f" stroke-width="1"/>
          <circle id="Ellipse_444" data-name="Ellipse 444" cx="7.096" cy="7.096" r="7.096" transform="translate(3.972 3.667)" fill="#fff" stroke="#30302f" stroke-width="1"/>
          <g id="Group_38849" data-name="Group 38849" transform="translate(23.461 4.312)">
            <path id="Path_30777" data-name="Path 30777" d="M650.569,207.8l.611,1.222,1.392.2-1.019.951.238,1.358-1.222-.645-1.222.645.238-1.358-.985-.951,1.358-.2Z" transform="translate(-648.6 -207.8)" fill="#fff" stroke="#323131" stroke-width="0.5"/>
            <path id="Path_30778" data-name="Path 30778" d="M666.469,207.8l.611,1.222,1.358.2-.985.951.238,1.358-1.222-.645-1.222.645.238-1.358-.985-.951,1.358-.2Z" transform="translate(-659.102 -207.8)" fill="#fff" stroke="#323131" stroke-width="0.5"/>
            <path id="Path_30779" data-name="Path 30779" d="M682.269,207.8l.611,1.222,1.392.2-.985.951.2,1.358-1.222-.645-1.222.645.238-1.358-.985-.951,1.358-.2Z" transform="translate(-669.537 -207.8)" fill="#fff" stroke="#323131" stroke-width="0.5"/>
            <path id="Path_30780" data-name="Path 30780" d="M698.169,207.8l.611,1.222,1.358.2-.985.951.238,1.358-1.222-.645-1.222.645.238-1.358-.985-.951,1.358-.2Z" transform="translate(-680.038 -207.8)" fill="#fff" stroke="#323131" stroke-width="0.5"/>
            <path id="Path_30781" data-name="Path 30781" d="M714,207.8l.611,1.222,1.358.2-.985.951.238,1.358L714,210.89l-1.222.645.2-1.358-.985-.951,1.392-.2Z" transform="translate(-690.474 -207.8)" fill="#fff" stroke="#323131" stroke-width="0.5"/>
          </g>
          <g id="Group_38850" data-name="Group 38850" transform="translate(23.461 10.831)">
            <rect id="Rectangle_1936" data-name="Rectangle 1936" width="25.499" height="0.543" fill="#231f20"/>
            <rect id="Rectangle_1937" data-name="Rectangle 1937" width="18.98" height="0.543" transform="translate(0 1.63)" fill="#231f20"/>
            <rect id="Rectangle_1938" data-name="Rectangle 1938" width="22.714" height="0.543" transform="translate(0 3.259)" fill="#231f20"/>
            <rect id="Rectangle_1939" data-name="Rectangle 1939" width="9.744" height="0.543" transform="translate(0 4.889)" fill="#231f20"/>
          </g>
        </g>
      </g>
    </g>
  </g>
</svg>
