<svg xmlns="http://www.w3.org/2000/svg" xmlns:xlink="http://www.w3.org/1999/xlink" width="376.414" height="168.675" viewBox="0 0 376.414 168.675">
  <defs>
    <linearGradient id="linear-gradient" x1="0.516" y1="-1.345" x2="0.5" y2="0.5" gradientUnits="objectBoundingBox">
      <stop offset="0" stop-color="#b0b0b0"/>
      <stop offset="0.08" stop-color="#ddd"/>
      <stop offset="1" stop-color="#fff"/>
    </linearGradient>
  </defs>
  <g id="Group_38887" data-name="Group 38887" transform="translate(-679 -350.332)">
    <g id="Group_38684" data-name="Group 38684" transform="translate(887.865 422.488)">
      <ellipse id="Ellipse_371" data-name="Ellipse 371" cx="188.207" cy="42.046" rx="188.207" ry="42.046" transform="translate(-208.865 12.427)" fill="url(#linear-gradient)"/>
    </g>
    <g id="Group_38886" data-name="Group 38886" transform="translate(588.595 249.332)">
      <path id="Path_30820" data-name="Path 30820" d="M346.869,195.868H209.087a1.29,1.29,0,0,1-1.289-1.291V111.833a7.893,7.893,0,0,1,7.88-7.89h124.6a7.9,7.9,0,0,1,7.883,7.89v82.743A1.29,1.29,0,0,1,346.869,195.868Z" transform="translate(0.929 0.37)" fill="#f2f2f2"/>
      <path id="Path_30821" data-name="Path 30821" d="M209.564,200.052c-2.847,0-5.564-2.257-5.564-5.106V112.2c0-6.487,5.674-11.2,12.155-11.2h124.6c6.483,0,11.823,4.715,11.823,11.2v82.744a5.177,5.177,0,0,1-5.232,5.106Z" transform="translate(0.451 0)" fill="#fff"/>
      <path id="Path_30822" data-name="Path 30822" d="M340.252,104h-124.6A7.647,7.647,0,0,0,208,111.826V194.57c0,.714.35,1.729,1.061,1.729H346.844a2.314,2.314,0,0,0,1.855-1.729V111.826C348.7,107.475,344.6,104,340.252,104Zm5.07,90.047H210.251V111.826c0-2.929,2.479-4.449,5.4-4.449h124.6c2.923,0,5.07,1.521,5.07,4.449Z" transform="translate(0.954 0.377)" fill="#f2f2f2"/>
      <path id="Rectangle_1944" data-name="Rectangle 1944" d="M1.147,0H122.256A1.146,1.146,0,0,1,123.4,1.146V73.829a1.147,1.147,0,0,1-1.147,1.147H1.147A1.147,1.147,0,0,1,0,73.829V1.147A1.147,1.147,0,0,1,1.147,0Z" transform="translate(217.211 112.786)" fill="#f2f2f2"/>
      <g id="Group_38884" data-name="Group 38884" transform="translate(200.405 193.655)">
        <path id="Path_30823" data-name="Path 30823" d="M347.808,198.56H210.015c-5.3,0-9.61-3.422-9.61-7.624v-6.328a1.292,1.292,0,0,1,1.29-1.291H356.123a1.291,1.291,0,0,1,1.291,1.291v6.328C357.414,195.138,353.1,198.56,347.808,198.56ZM202.985,185.9v5.037c0,2.733,3.22,5.042,7.03,5.042H347.808c3.808,0,7.024-2.309,7.024-5.042V185.9Z" transform="translate(-200.405 -183.317)" fill="#f2f2f2"/>
      </g>
      <g id="Group_38885" data-name="Group 38885" transform="translate(274.855 197.223)">
        <path id="Path_30824" data-name="Path 30824" d="M270.6,194.6a4.055,4.055,0,1,1,4.059-4.059A4.061,4.061,0,0,1,270.6,194.6Zm0-5.528a1.473,1.473,0,1,0,1.477,1.469A1.471,1.471,0,0,0,270.6,189.069Z" transform="translate(-266.548 -186.487)" fill="#f2f2f2"/>
      </g>
    </g>
    <g id="Group_38883" data-name="Group 38883" transform="translate(-46.653 -62.88)">
      <g id="Group_38882" data-name="Group 38882" transform="translate(876.653 437.212)">
        <path id="Path_30812" data-name="Path 30812" d="M224.444,83.122H151.387a2.952,2.952,0,1,0,0,5.9h73.057a2.952,2.952,0,0,0,0-5.9Z" transform="translate(-148.435 -83.122)" fill="#9b9b9b"/>
        <path id="Path_30813" data-name="Path 30813" d="M227.684,87.6h-66.7c-1.489,0-1.947.553-1.947,1.234s.458,1.233,1.947,1.233h66.7c1.489,0,1.947-.552,1.947-1.233S229.173,87.6,227.684,87.6Z" transform="translate(-154.855 -85.834)" fill="#200e03"/>
        <path id="Path_30815" data-name="Path 30815" d="M228.258,97.122c0-4.369-8.068-7.949-8.068-7.949H157.335s-5.921,2.107-5.921,7.949V216.358l3.49-3.542,3.492,3.542,3.491-3.542,3.492,3.542,3.491-3.542,3.492,3.542,3.492-3.542,3.493,3.542,3.493-3.542,3.493,3.542,3.493-3.542,3.493,3.542,3.494-3.542,3.493,3.542,3.493-3.542,3.493,3.542,3.493-3.542,3.494,3.542,3.5-3.542,3.494,3.542,3.5-3.542,3.5,3.542S228.258,101.01,228.258,97.122Z" transform="translate(-150.238 -86.785)" fill="#f6f6f6"/>
        <path id="Path_30816" data-name="Path 30816" d="M221.6,89.173H158.744a10.16,10.16,0,0,0-5,4.245h74.119A22.747,22.747,0,0,0,221.6,89.173Z" transform="translate(-151.651 -86.785)" fill="#d6d6d6"/>
        <rect id="Rectangle_1941" data-name="Rectangle 1941" width="69.789" height="1.279" transform="translate(5.333 24.093)" fill="#bfbfbf"/>
        <rect id="Rectangle_1942" data-name="Rectangle 1942" width="69.789" height="1.537" transform="translate(5.333 107.407)" fill="#bfbfbf"/>
        <rect id="Rectangle_1943" data-name="Rectangle 1943" width="69.789" height="0.557" transform="translate(5.333 104.742)" fill="#bfbfbf"/>
        <path id="Path_30817" data-name="Path 30817" d="M0,0H69.85" transform="translate(5.413 28.122)" fill="#bfbfbf" stroke="#bfbfbf" stroke-width="0.5" stroke-dasharray="6.878"/>
        <line id="Line_107" data-name="Line 107" x2="69.85" transform="translate(5.413 99.511)" fill="none" stroke="#bfbfbf" stroke-width="0.5" stroke-dasharray="6.878"/>
      </g>
      <g id="Page-1" transform="translate(905.239 488.25)">
        <g id="_02_User" data-name="02 User" transform="translate(0 0)">
          <path id="Path_30818" data-name="Path 30818" d="M1.2,0A1.21,1.21,0,0,0,.349,2.063L22.714,24.428a1.21,1.21,0,0,0,1.712-1.712L2.06.351A1.207,1.207,0,0,0,1.2,0Z" transform="translate(0.006 0.003)" fill="#bfbfbf"/>
          <path id="Path_30819" data-name="Path 30819" d="M23.572,0a1.207,1.207,0,0,0-.856.354L.351,22.716a1.21,1.21,0,0,0,1.712,1.712L24.428,2.063A1.21,1.21,0,0,0,23.572,0Z" transform="translate(0.003 0.003)" fill="#bfbfbf"/>
        </g>
      </g>
    </g>
  </g>
</svg>
