<svg xmlns="http://www.w3.org/2000/svg" xmlns:xlink="http://www.w3.org/1999/xlink" width="376.414" height="185.519" viewBox="0 0 376.414 185.519">
  <defs>
    <clipPath id="clip-path">
      <rect id="Rectangle_1424" data-name="Rectangle 1424" width="308.64" height="120.196" fill="none"/>
    </clipPath>
    <clipPath id="clip-path-2">
      <path id="Path_22655" data-name="Path 22655" d="M284.715,66.145v6.613a.729.729,0,0,0,.729.729H289.9a.729.729,0,0,0,.729-.729V61.686a.729.729,0,0,0-.729-.729,5.188,5.188,0,0,0-5.188,5.188" transform="translate(-284.715 -60.957)" fill="none"/>
    </clipPath>
    <linearGradient id="linear-gradient" x1="-9.716" y1="9.065" x2="-9.681" y2="9.065" gradientUnits="objectBoundingBox">
      <stop offset="0" stop-color="#a50404"/>
      <stop offset="1" stop-color="#e64d4e"/>
    </linearGradient>
    <clipPath id="clip-path-4">
      <path id="Path_22657" data-name="Path 22657" d="M219.818,61.686V72.758a.729.729,0,0,0,.73.729h4.459a.729.729,0,0,0,.729-.729V66.145a5.188,5.188,0,0,0-5.188-5.188.729.729,0,0,0-.73.729" transform="translate(-219.818 -60.957)" fill="none"/>
    </clipPath>
    <linearGradient id="linear-gradient-2" x1="-13.787" y1="6.866" x2="-13.724" y2="6.866" xlink:href="#linear-gradient"/>
    <linearGradient id="linear-gradient-3" x1="0.516" y1="-1.345" x2="0.5" y2="0.5" gradientUnits="objectBoundingBox">
      <stop offset="0" stop-color="#b0b0b0"/>
      <stop offset="0.08" stop-color="#ddd"/>
      <stop offset="1" stop-color="#fff"/>
    </linearGradient>
  </defs>
  <g id="Group_38684" data-name="Group 38684" transform="translate(36.775)">
    <g id="Group_38675" data-name="Group 38675" transform="translate(12.312)">
      <g id="Group_38674" data-name="Group 38674" clip-path="url(#clip-path)">
        <path id="Path_22647" data-name="Path 22647" d="M67.109,27.81c2.8,3.957.49,9.107-2.3,12-3.425,3.562-6.9,3.012-8.49,6.162-1.915,3.806,2.162,6.605.035,10.585-1.306,2.445-3.1,1.863-5.7,4.967-3.164,3.781-.062,4.856-2.306,7.623-7.211,8.888-10.1,2.723-14.49,5.059-5.691,3.029-9.5,5.616-12.283,5.01-10.949-2.381-7.576-9.58-12.891-12.354C1.511,63.117-2,47.774,2.932,42.367c2.581-2.831,5.133-3.175,5.373-5.533.347-3.4-4.793-4.392-5.314-8.486C2.4,23.7,8.56,21.456,7.643,17.535,6.749,13.711.426,13.849.02,11.118-.595,6.976,12.9-.44,26.873.021,33.556.241,44.441,2.4,46.252,7.966c1.046,3.215-1.675,5.29-.142,9.443,1.115,3.02,3.582,4.709,6.849,6.885,3.1,2.067,9.2-3.485,14.149,3.516" transform="translate(0 0)" fill="#eee"/>
        <path id="Path_22648" data-name="Path 22648" d="M51.633,51.925c2.2-.111,3.319,14.549,2.044,16.472S50,71.738,49.846,73.836s.778,39.28,1.554,38.742,7.214-10.282,5.929-12.551-2.742-5.776-2.44-8.743.3-7.19,1.135-7.087.134,7.38.712,8.791.677,2.514,1.507,2.539.848-7.674,2.114-7.539.406,11.481-.03,13.581-1.923,9.352-3.3,12.022-5.546,5.469-5.648,6.379.567,22.564.567,22.564l-10.934.2s4.039-42.7,3.138-44.117S37.547,85.66,36.326,84.482s-1.952-8.367-1.308-8.471,1,6.907,2.343,7.021S39.424,69.468,40.4,69.589s-.943,14.19-.42,15.058,3.573,6.075,4.586,5.964-.557-38.4.312-38.831,1.522-.074,2.056,3.933,1.57,12.76,2.17,12.749a3.281,3.281,0,0,0,2.13-2.208c.031-.878-.575-14.279.4-14.328" transform="translate(-17.919 -26.606)" fill="#bdbdbd"/>
        <path id="Path_22649" data-name="Path 22649" d="M557.549,125.189c-1.584,2.241-.277,5.156,1.3,6.8,1.939,2.017,3.909,1.705,4.806,3.489,1.084,2.155-1.224,3.739-.02,5.993.739,1.384,1.754,1.055,3.224,2.812,1.792,2.141.035,2.75,1.306,4.316,4.083,5.032,5.718,1.542,8.2,2.864,3.222,1.715,5.377,3.18,6.954,2.837,6.2-1.348,4.29-5.424,7.3-6.995,4.067-2.123,6.053-10.81,3.262-13.871-1.462-1.6-2.906-1.8-3.042-3.133-.2-1.927,2.714-2.487,3.009-4.8.335-2.628-3.153-3.9-2.634-6.122.506-2.165,4.086-2.087,4.316-3.633.348-2.345-7.291-6.544-15.2-6.283-3.784.125-9.946,1.346-10.972,4.5-.592,1.821.949,2.995.08,5.347-.631,1.71-2.028,2.666-3.878,3.9-1.757,1.17-5.208-1.973-8.011,1.99" transform="translate(-286.904 -56.39)" fill="#eee"/>
        <path id="Path_22650" data-name="Path 22650" d="M591.669,138.843c-1.245-.063-1.879,8.237-1.158,9.326s2.08,1.891,2.169,3.08-.44,22.24-.879,21.935-4.084-5.821-3.356-7.106a9.243,9.243,0,0,0,1.382-4.95c-.171-1.68-.172-4.071-.643-4.013s-.076,4.179-.4,4.977-.383,1.424-.853,1.438-.48-4.345-1.2-4.269-.229,6.5.017,7.689a38.9,38.9,0,0,0,1.866,6.806c.777,1.512,3.14,3.1,3.2,3.612s-.321,12.775-.321,12.775l6.19.112s-2.286-24.173-1.776-24.978,3.739-7.335,4.431-8,1.105-4.737.74-4.8-.568,3.911-1.327,3.975-1.167-7.68-1.717-7.611.534,8.034.238,8.525-2.023,3.44-2.6,3.377.316-21.741-.176-21.985-.862-.042-1.164,2.226-.889,7.224-1.228,7.218a1.859,1.859,0,0,1-1.206-1.25c-.017-.5.326-8.085-.228-8.112" transform="translate(-302.116 -71.454)" fill="#bdbdbd"/>
        <path id="Path_22651" data-name="Path 22651" d="M349.9,103.56H337.75a4.83,4.83,0,0,1,0-9.659H349.9A17.835,17.835,0,0,0,367.72,76.086V49.371a4.83,4.83,0,1,1,9.66,0V76.086A27.506,27.506,0,0,1,349.9,103.56" transform="translate(-171.535 -22.949)" fill="#EE5F1E"/>
        <path id="Path_22652" data-name="Path 22652" d="M286.389,157.913H223.718a8.49,8.49,0,0,1-8.465-8.465v-22.39a8.49,8.49,0,0,1,8.465-8.465h62.671a8.49,8.49,0,0,1,8.465,8.465v22.39a8.49,8.49,0,0,1-8.465,8.465" transform="translate(-110.908 -61.104)" fill="#EE5F1E"/>
        <path id="Path_22653" data-name="Path 22653" d="M210.682,46.666h0a2.948,2.948,0,0,0-2.948,2.948V74.862h17.874V61.592a14.926,14.926,0,0,0-14.926-14.926" transform="translate(-107.034 -24.044)" fill="#f2dad4"/>
        <path id="Path_22654" data-name="Path 22654" d="M287.058,46.666h0a2.948,2.948,0,0,1,2.948,2.948V74.862H272.132V61.592a14.926,14.926,0,0,1,14.926-14.926" transform="translate(-140.214 -24.044)" fill="#EE5F1E"/>
      </g>
    </g>
    <g id="Group_38677" data-name="Group 38677" transform="translate(150.33 29.549)">
      <g id="Group_38676" data-name="Group 38676" clip-path="url(#clip-path-2)">
        <rect id="Rectangle_1425" data-name="Rectangle 1425" width="13.799" height="9.854" transform="translate(-4.036 11.057) rotate(-69.948)" fill="url(#linear-gradient)"/>
      </g>
    </g>
    <g id="Group_38679" data-name="Group 38679" transform="translate(12.312)">
      <g id="Group_38678" data-name="Group 38678" clip-path="url(#clip-path)">
        <path id="Path_22656" data-name="Path 22656" d="M210.682,46.666h0a2.948,2.948,0,0,0-2.948,2.948V74.862h17.874V61.592a14.926,14.926,0,0,0-14.926-14.926" transform="translate(-107.034 -24.044)" fill="#EE5F1E"/>
      </g>
    </g>
    <g id="Group_38681" data-name="Group 38681" transform="translate(118.871 29.549)">
      <g id="Group_38680" data-name="Group 38680" clip-path="url(#clip-path-4)">
        <rect id="Rectangle_1427" data-name="Rectangle 1427" width="7.665" height="13.253" transform="translate(-1.791 0.261) rotate(-8.306)" fill="url(#linear-gradient-2)"/>
      </g>
    </g>
    <ellipse id="Ellipse_371" data-name="Ellipse 371" cx="188.207" cy="42.046" rx="188.207" ry="42.046" transform="translate(-36.775 101.427)" fill="url(#linear-gradient-3)"/>
    <g id="Group_38683" data-name="Group 38683" transform="translate(12.312)">
      <g id="Group_38682" data-name="Group 38682" clip-path="url(#clip-path)">
        <path id="Path_22658" data-name="Path 22658" d="M248.959,106.505H215.6a7.866,7.866,0,0,1-7.866-7.866V77.833a7.866,7.866,0,0,1,7.866-7.866h33.36a7.866,7.866,0,0,1,7.866,7.866V98.639a7.866,7.866,0,0,1-7.866,7.866" transform="translate(-107.033 -36.05)" fill="#EE5F1E"/>
        <path id="Path_22659" data-name="Path 22659" d="M252.044,132.79H241.556a5.9,5.9,0,1,1,0-11.809h10.488a5.9,5.9,0,0,1,0,11.809" transform="translate(-121.418 -62.335)" fill="#e28d91"/>
        <path id="Path_22660" data-name="Path 22660" d="M235.812,113.149a1.259,1.259,0,0,1-1.146-.735,3.469,3.469,0,0,0-5.53,0,1.26,1.26,0,0,1-2.29-1.05,5.915,5.915,0,0,1,10.111,0,1.261,1.261,0,0,1-1.144,1.785" transform="translate(-116.822 -55.915)" fill="#192b59"/>
        <path id="Path_22661" data-name="Path 22661" d="M269.937,113.161a1.264,1.264,0,0,1-1.146-1.8,5.915,5.915,0,0,1,10.111,0,1.26,1.26,0,1,1-2.29,1.05,3.464,3.464,0,0,0-5.539.019,1.243,1.243,0,0,1-1.135.728" transform="translate(-138.433 -55.915)" fill="#192b59"/>
        <path id="Path_22662" data-name="Path 22662" d="M258.121,126.987a1.26,1.26,0,0,0-1.769-.214,3.043,3.043,0,0,1-1.244.56V125.64a1.772,1.772,0,0,0,.712-.687l.86-1.49a1.79,1.79,0,0,0-1.55-2.685h-1.72a1.79,1.79,0,0,0-1.551,2.685l.86,1.49a1.774,1.774,0,0,0,.712.687v1.714a3.1,3.1,0,0,1-1.274-.53,1.26,1.26,0,0,0-1.5,2.028,6.28,6.28,0,0,0,7.245-.1,1.26,1.26,0,0,0,.214-1.769" transform="translate(-128.888 -62.23)" fill="#192b59"/>
        <path id="Path_22663" data-name="Path 22663" d="M294.184,198.236h-88.8a1.942,1.942,0,0,1-1.941-1.942V151.462h92.683v44.832a1.942,1.942,0,0,1-1.942,1.942" transform="translate(-104.823 -78.04)" fill="#777"/>
        <path id="Path_22664" data-name="Path 22664" d="M293.941,166.748H200.921a2.045,2.045,0,0,1-2.017-2.387l2.185-12.9h92.682l2.185,12.9a2.045,2.045,0,0,1-2.017,2.387" transform="translate(-102.469 -78.04)" fill="#8c8c8c"/>
      </g>
    </g>
  </g>
</svg>
