<svg xmlns="http://www.w3.org/2000/svg" width="30" height="30" viewBox="0 0 30 30">
  <g id="Group_38610" data-name="Group 38610" transform="translate(-24 5.776)">
    <circle id="Ellipse_441" data-name="Ellipse 441" cx="15" cy="15" r="15" transform="translate(24 -5.776)" fill="#fff"/>
    <path id="_x30_4.Twitter" d="M25.9,19.04a6.729,6.729,0,0,1-1.88.52,3.2,3.2,0,0,0,1.44-1.82,6.908,6.908,0,0,1-2.08.8,3.283,3.283,0,0,0-5.68,2.24,3,3,0,0,0,.08.74,9.233,9.233,0,0,1-6.74-3.42,3.292,3.292,0,0,0,1,4.38,3.149,3.149,0,0,1-1.48-.4,3.315,3.315,0,0,0,2.62,3.26,3.6,3.6,0,0,1-1.48.06,3.293,3.293,0,0,0,3.06,2.28A6.608,6.608,0,0,1,9.9,29.04,9.32,9.32,0,0,0,24.26,21.2a2.953,2.953,0,0,0-.02-.42,6.51,6.51,0,0,0,1.66-1.74Z" transform="translate(22.1 -14.786)" fill="#575757"/>
  </g>
</svg>
