<svg id="Layer_1" data-name="user (2)" xmlns="http://www.w3.org/2000/svg" width="36.395" height="36.395" viewBox="0 0 36.395 36.395">
  <path id="Path_22598" data-name="Path 22598" d="M17.985,15.058H18l7.431-2.532a1.8,1.8,0,0,0,.03-.394,1.047,1.047,0,0,0-.061-.379,2.377,2.377,0,0,0-.667-1V7.431c0-2.457-.88-3.427-1.789-3.988C22.473,2.017,20.517,0,16.68,0,12.131,0,8.7,4.5,8.7,7.431c0,1.213-.045,2.169-.091,2.9,0,.152-.015.288-.015.409a2.347,2.347,0,0,0-.667,1.107,1.68,1.68,0,0,0-.03.288,10.028,10.028,0,0,0,.758,3.094,1.044,1.044,0,0,0,.546.591,1.337,1.337,0,0,1,.03.334c0,1.607,1.38,3.124,2.138,3.852-.076,1.668-.546,2.821-1.213,3.109L4.215,25.082A5.165,5.165,0,0,0,.833,28.737l-.8,3.215a1.173,1.173,0,0,0,.212.971,1.143,1.143,0,0,0,.895.44h17a15.885,15.885,0,0,1-1.274-1.9,12.906,12.906,0,0,1-1.7-6.369V19.016a4.2,4.2,0,0,1,2.821-3.958Z" transform="translate(0.001)" fill="#1e1c1c"/>
  <path id="Path_22599" data-name="Path 22599" d="M29.426,12.769l-7.961-2.708a1.118,1.118,0,0,0-.731,0l-7.961,2.708A1.134,1.134,0,0,0,12,13.846v6.093c0,7.437,8.3,11.052,8.654,11.2a1.144,1.144,0,0,0,.889,0c.353-.152,8.654-3.765,8.654-11.2V13.846a1.134,1.134,0,0,0-.772-1.077Zm-3.344,5.75-4.17,5.308a1.517,1.517,0,0,1-2.179.215l-2.654-2.275a1.516,1.516,0,0,1,1.973-2.3L20.5,20.711,23.7,16.648a1.516,1.516,0,0,1,2.385,1.871Z" transform="translate(6.197 5.164)" fill="#EE5F1E"/>
  <path id="Path_22600" data-name="Path 22600"/>
</svg>
