<svg id="Layer_1" data-name="verified (3)" xmlns="http://www.w3.org/2000/svg" width="36.86" height="36.86" viewBox="0 0 36.86 36.86">
  <path id="Path_22601" data-name="Path 22601" d="M14.593,26.875A12.29,12.29,0,0,1,26.112,14.629V4.226A4.228,4.228,0,0,0,21.886,0H4.226A4.228,4.228,0,0,0,0,4.226V28.034a4.226,4.226,0,0,0,4.226,4.219h11.62a12.157,12.157,0,0,1-1.253-5.378Z" fill="#1e1c1c"/>
  <circle id="Ellipse_364" data-name="Ellipse 364" cx="3.074" cy="3.074" r="3.074" transform="translate(9.978 4.608)" fill="#f8f7fd"/>
  <path id="Path_22602" data-name="Path 22602" d="M244.585,254.571a9.985,9.985,0,1,1,9.985-9.985A9.995,9.995,0,0,1,244.585,254.571Z" transform="translate(-217.71 -217.71)" fill="#EE5F1E"/>
  <path id="Path_22603" data-name="Path 22603" d="M93.118,280.467H86.833a1.533,1.533,0,0,1,0-3.067h6.285a1.533,1.533,0,0,1,0,3.067Z" transform="translate(-79.159 -257.429)" fill="#f8f7fd"/>
  <path id="Path_22604" data-name="Path 22604" d="M91.541,344.467H86.933a1.533,1.533,0,1,1,0-3.067h4.608a1.533,1.533,0,1,1,0,3.067Z" transform="translate(-79.252 -316.822)" fill="#f8f7fd"/>
  <path id="Path_22605" data-name="Path 22605" d="M108.282,175.625c0-.007.007-.014.007-.029v-.77a4.228,4.228,0,0,0-4.226-4.226h-3.837A4.228,4.228,0,0,0,96,174.826v.77a1.155,1.155,0,0,0,1.152,1.152h9.913a11.96,11.96,0,0,1,1.217-1.123Z" transform="translate(-89.089 -158.318)" fill="#f8f7fd"/>
  <path id="Path_22606" data-name="Path 22606" d="M291.5,318l-3.074-3.074a1.537,1.537,0,1,1,2.174-2.174l1.908,1.908,4.291-4.91a1.536,1.536,0,1,1,2.311,2.023l-5.371,6.148A1.534,1.534,0,0,1,291.5,318Z" transform="translate(-267.243 -286.968)" fill="#f8f7fd"/>
  <path id="Path_22607" data-name="Path 22607" d="M244.585,234.7a9.982,9.982,0,1,0,0,19.964v-6.335l-.382.432a1.536,1.536,0,0,1-2.246.072l-3.074-3.074a1.543,1.543,0,0,1,0-2.174,1.53,1.53,0,0,1,2.174,0l1.908,1.908,1.613-1.843V234.7Z" transform="translate(-217.71 -217.803)" fill="#EE5F1E"/>
  <path id="Path_22608" data-name="Path 22608" d="M289.51,352a1.527,1.527,0,0,0-1.087.454,1.543,1.543,0,0,0,0,2.174L291.5,357.7a1.526,1.526,0,0,0,1.087.454,1.557,1.557,0,0,0,1.159-.526l.382-.432v-4.665l-1.613,1.829-1.908-1.908A1.543,1.543,0,0,0,289.51,352Z" transform="translate(-267.243 -326.659)" fill="#f8f7fd"/>
  <path id="Path_22609" data-name="Path 22609" d="M13.052,0H4.226A4.228,4.228,0,0,0,0,4.226V28.034a4.226,4.226,0,0,0,4.226,4.219H13.06V27.645H7.682a1.533,1.533,0,1,1,0-3.067H13.06V23.038H7.682a1.533,1.533,0,1,1,0-3.067H13.06V18.43h-5a1.155,1.155,0,0,1-1.152-1.152v-.77a4.228,4.228,0,0,1,4.226-4.226H13.06V10.749a3.071,3.071,0,1,1-.007-6.141Z" fill="#1e1c1c"/>
  <g id="Group_12680" data-name="Group 12680" transform="translate(6.141 4.608)">
    <path id="Path_22610" data-name="Path 22610" d="M141.674,64a3.074,3.074,0,0,0,0,6.148Z" transform="translate(-134.763 -64)" fill="#f8f7fd"/>
    <path id="Path_22611" data-name="Path 22611" d="M102.048,170.7h-1.922a4.228,4.228,0,0,0-4.226,4.226v.763a1.155,1.155,0,0,0,1.152,1.152h4.989V170.7Z" transform="translate(-95.137 -163.018)" fill="#f8f7fd"/>
    <path id="Path_22612" data-name="Path 22612" d="M92.211,277.3H86.833a1.533,1.533,0,1,0,0,3.067h5.378Z" transform="translate(-85.3 -261.944)" fill="#f8f7fd"/>
    <path id="Path_22613" data-name="Path 22613" d="M92.211,341.3H86.833a1.533,1.533,0,1,0,0,3.067h5.378Z" transform="translate(-85.3 -321.336)" fill="#f8f7fd"/>
  </g>
</svg>
